<svg width="50" height="50" viewBox="0 0 50 50" fill="none" xmlns="http://www.w3.org/2000/svg">
<g clip-path="url(#clip0_367_22157)">
<path d="M43.6851 4.14658C41.0627 1.51601 37.588 0.0437446 33.9008 0.000971136C31.3019 -0.0294 28.7615 0.65312 26.5443 1.97441C25.5916 2.54189 24.4084 2.54189 23.4557 1.97441C21.2384 0.65312 18.6961 -0.0277398 16.099 0.00087348C12.4118 0.0437446 8.93697 1.51601 6.31451 4.14648C3.69224 6.77685 2.23052 10.2562 2.19878 13.9436C2.17212 17.0388 3.13189 19.983 4.97437 22.4581C6.83199 24.9536 8.09956 27.965 8.64009 31.167C9.4606 36.0274 10.6262 40.4887 11.9223 43.729C13.6103 47.9487 15.431 50 17.4883 50C18.2583 50 18.9744 49.6883 19.5594 49.0985C21.5477 47.0943 22.323 41.817 22.2356 30.883C22.2174 28.6255 23.2245 26.5176 24.9999 25.095C26.775 26.5169 27.7822 28.6251 27.7641 30.883C27.6766 41.8169 28.452 47.0942 30.4403 49.0985C31.0253 49.6883 31.7416 50 32.5114 50C34.5687 50 36.3895 47.9487 38.0773 43.7291C39.3734 40.4887 40.539 36.0274 41.3594 31.1671C41.9 27.9652 43.1676 24.9537 45.0251 22.4583C46.8676 19.9832 47.8274 17.0389 47.8007 13.9438C47.7691 10.2564 46.3075 6.77705 43.6851 4.14658ZM43.4273 21.2687C41.3823 24.0158 39.988 27.324 39.3954 30.8353C37.5126 41.9894 34.4434 48.008 32.5114 48.008C32.3499 48.008 32.1292 47.9725 31.8544 47.6956C29.6396 45.4629 29.7243 34.882 29.7561 30.8989C29.7793 28.016 28.4906 25.3269 26.2217 23.5216L26.1881 23.4948C25.8383 23.2144 25.4191 23.0743 24.9999 23.0743C24.5806 23.0743 24.1613 23.2145 23.8113 23.4949L23.7789 23.5208C21.5091 25.3268 20.2206 28.016 20.2436 30.8989C20.2753 34.8822 20.3599 45.463 18.1451 47.6956C17.8704 47.9726 17.6498 48.0081 17.4882 48.0081C15.5564 48.0081 12.4873 41.9895 10.6043 30.8356C10.0115 27.3242 8.61734 24.0161 6.57232 21.2689C4.99146 19.1451 4.16792 16.6182 4.19078 13.961C4.24703 7.43759 9.59947 2.06884 16.1219 1.99316C18.35 1.96767 20.5336 2.55263 22.4358 3.68603C24.0172 4.62822 25.9821 4.62831 27.5637 3.68603C29.4657 2.55263 31.6504 1.96581 33.8776 1.99316C40.4003 2.06884 45.7528 7.43769 45.8088 13.9612C45.8318 16.618 45.0082 19.145 43.4273 21.2687Z" fill="white" stroke="white" stroke-width="0.5"/>
</g>
<defs>
<clipPath id="clip0_367_22157">
<rect width="50" height="50" fill="white"/>
</clipPath>
</defs>
</svg>
