<svg width="50" height="50" viewBox="0 0 50 50" fill="none" xmlns="http://www.w3.org/2000/svg">
<g clip-path="url(#clip0_369_22197)">
<path fill-rule="evenodd" clip-rule="evenodd" d="M40.9509 21.6487C35.6298 17.4495 30.1141 15.2301 24.9993 15.2301C19.8854 15.2301 14.3697 17.4495 9.04934 21.6487C5.06223 24.7959 2.61051 27.8995 2.50793 28.0307C2.28512 28.3145 2.28512 28.7143 2.50793 28.9981C2.61051 29.1293 5.06223 32.233 9.04934 35.3801C14.3697 39.5793 19.8854 41.7987 24.9993 41.7987C30.1141 41.7987 35.6298 39.5793 40.9509 35.3801C44.938 32.233 47.3897 29.1293 47.4923 28.9981C47.7151 28.7143 47.7151 28.3145 47.4923 28.0307C47.3897 27.8995 44.938 24.7959 40.9509 21.6487ZM24.9993 40.2301C14.7908 40.2301 6.08645 30.7819 4.1448 28.5144C6.08457 26.2454 14.7786 16.7987 24.9993 16.7987C35.2094 16.7987 43.9138 26.247 45.8554 28.5144C43.9157 30.7834 35.2212 40.2301 24.9993 40.2301Z" fill="white" stroke="white" stroke-width="0.5"/>
<path fill-rule="evenodd" clip-rule="evenodd" d="M49.8296 20.9964C49.4778 20.5554 41.0557 10.1627 27.4544 8.39344C15.5362 6.84844 1.00486 15.1195 0.391818 15.4727C0.0183804 15.6879 -0.109823 16.1655 0.105334 16.5393C0.32088 16.9116 0.798458 17.0398 1.17111 16.8262C1.3169 16.7423 15.8619 8.46508 27.253 9.94219C40.2123 11.6275 48.5264 21.8669 48.6088 21.9699C48.7633 22.163 48.9903 22.2637 49.2196 22.2637C49.3904 22.2637 49.5621 22.208 49.706 22.0935C50.0428 21.8242 50.0981 21.3336 49.8296 20.9964Z" fill="white" stroke="white" stroke-width="0.5"/>
<path fill-rule="evenodd" clip-rule="evenodd" d="M25.78 19.1158C20.5978 19.1158 16.3818 23.3317 16.3818 28.5144C16.3818 33.697 20.5978 37.913 25.78 37.913C30.9631 37.913 35.1795 33.697 35.1795 28.5144C35.1795 23.3317 30.9631 19.1158 25.78 19.1158ZM25.78 36.3033C21.4851 36.3033 17.9908 32.809 17.9908 28.5144C17.9908 24.2198 21.4851 20.7255 25.78 20.7255C30.0758 20.7255 33.5704 24.2198 33.5704 28.5144C33.5704 32.809 30.0758 36.3033 25.78 36.3033Z" fill="white" stroke="white" stroke-width="0.5"/>
<path d="M27.7354 28.1237C28.814 28.1237 29.6885 27.2493 29.6885 26.1706C29.6885 25.0919 28.814 24.2175 27.7354 24.2175C26.6567 24.2175 25.7822 25.0919 25.7822 26.1706C25.7822 27.2493 26.6567 28.1237 27.7354 28.1237Z" fill="white" stroke="white" stroke-width="0.5"/>
</g>
<defs>
<clipPath id="clip0_369_22197">
<rect width="50" height="50" fill="white"/>
</clipPath>
</defs>
</svg>
