<svg width="80" height="80" viewBox="0 0 80 80" fill="none" xmlns="http://www.w3.org/2000/svg">
<circle cx="40" cy="40" r="40" fill="#FFCDCF"/>
<mask id="mask0_1327_32" style="mask-type:alpha" maskUnits="userSpaceOnUse" x="0" y="0" width="80" height="80">
<circle cx="40" cy="40" r="40" fill="#FFCDCF"/>
</mask>
<g mask="url(#mask0_1327_32)">
<path d="M16.6108 79.3317C17.1613 79.393 19.8523 79.5771 23.7666 79.8225C25.2344 77.3682 27.0692 73.0116 26.6411 66.7529C26.5799 65.7098 28.7205 71.7844 27.375 80.068C34.8977 80.6202 45.1726 81.2952 54.1632 81.8474C54.469 78.3499 54.9582 75.0978 54.9582 75.0978C55.1417 77.675 55.5698 79.9453 56.1203 81.9701C57.3435 82.0315 58.5667 82.0929 59.7287 82.1542C59.7287 76.6932 61.0743 67.2438 61.0743 67.2438C61.5635 73.8706 63.4595 79.2703 64.805 82.461C70.4929 82.7678 74.2237 82.8292 74.0402 82.5224C65.8447 72.2139 72.45 66.8143 70.3706 57.9784C67.9242 47.3632 58.9948 45.3383 59.6064 37.4842C60.0957 31.1028 61.4412 19.5672 53.4904 16.6832C53.4904 16.6832 47.2521 9.19734 36.7937 12.6949C23.8277 16.99 27.9866 36.932 26.9469 40.9204C25.479 46.5655 22.6657 48.4677 20.3416 54.9104C17.9564 61.4146 20.7697 65.9552 20.892 70.4345C20.9532 74.9138 15.143 79.2703 16.6108 79.3317Z" fill="#3C3575"/>
<path d="M74.2852 81.1725C73.2454 79.3317 72.2669 77.4295 71.7776 75.466C71.2272 73.5025 71.5941 71.4776 72.0834 69.4527C72.5727 67.4279 73.1231 65.3416 73.4289 63.194C73.6736 61.0464 73.7347 58.7761 73.1231 56.5672C72.5727 54.4196 71.4106 52.3947 69.9428 50.738C68.5361 49.0813 66.8236 47.67 65.2335 46.3201C63.6433 44.9701 62.0531 43.6202 60.8911 41.9021C59.729 40.2454 59.0563 38.2206 58.8728 36.073C58.6893 38.1592 59.1786 40.4295 60.2183 42.3317C61.3192 44.2338 62.8482 45.8292 64.3772 47.2405C65.9062 48.7131 67.4352 50.1244 68.7196 51.6584C70.004 53.2537 70.9825 55.0332 71.4718 56.9353C71.9611 58.8375 72.0222 60.8623 71.7776 62.9486C71.5941 64.9735 71.1048 66.9983 70.7379 69.1459C70.5544 70.189 70.3709 71.2935 70.3709 72.398C70.3709 73.5025 70.5544 74.6683 70.9214 75.6501C71.7164 77.7363 72.9396 79.5157 74.2852 81.1725Z" fill="#3C3575"/>
<path d="M29.2711 19.6899C28.1702 22.0829 27.6809 24.66 27.1917 27.2371C26.7635 29.8143 26.4577 32.3914 26.1519 34.9685L25.7238 38.8342C25.5403 40.1227 25.3568 41.3499 24.9899 42.5158C24.256 44.9088 22.8493 46.9337 21.198 48.9585C20.4029 50.0017 19.6078 51.1061 18.935 52.272C18.2623 53.4378 17.7118 54.7264 17.3449 56.0149C16.9779 57.3648 16.7333 58.6534 16.6109 60.0033C16.4886 61.3532 16.4886 62.7032 16.6721 64.0531C16.8556 65.403 17.1614 66.6915 17.406 67.9187C17.6507 69.1459 17.8341 70.4345 17.8341 71.7231C17.8953 74.2388 16.4886 76.6318 14.4092 78.1658C16.6721 76.9386 18.4457 74.4842 18.6292 71.7231C18.7515 70.3731 18.6292 69.0232 18.5069 67.7347C18.3234 66.4461 18.0788 65.1575 17.9565 63.9304C17.773 61.476 18.2011 58.8988 18.8739 56.5058C19.2408 55.34 19.7301 54.1741 20.3417 53.131C20.9533 52.0265 21.6872 51.0448 22.4823 50.0017C23.2774 48.9585 24.0725 47.9154 24.7452 46.7496C25.418 45.5837 26.0296 44.3565 26.3966 43.0066C26.7635 41.7181 26.947 40.3068 27.0693 39.0182C27.1916 37.7297 27.314 36.3798 27.3751 35.0912C27.5586 32.5141 27.6809 29.8756 27.9256 27.2985C28.2314 24.7214 28.5372 22.1443 29.2711 19.6899Z" fill="#3C3575"/>
<path d="M30.9222 61.3532C14.8982 79.4544 -4.55073 116.761 -0.147196 123.879C4.68446 131.794 27.803 106.023 27.0079 104.857C26.3352 103.876 33.8579 81.5406 39.3011 65.2189C44.8055 48.9585 34.8976 56.8739 30.9222 61.3532Z" fill="#FFC4C0"/>
<path d="M30.9222 61.3532C14.8982 79.4544 -4.55073 116.761 -0.147196 123.879C4.68446 131.794 27.803 106.023 27.0079 104.857C26.3352 103.876 33.8579 81.5406 39.3011 65.2189C44.8055 48.9585 34.8976 56.8739 30.9222 61.3532Z" fill="#E6A2B5"/>
<path d="M26.9466 81.4793C28.1698 81.2338 29.8823 82.5224 30.7385 83.5041C31.4113 84.3018 31.9617 85.1609 32.5122 86.0199C32.5122 85.8972 32.5733 85.8358 32.6345 85.7131C32.1452 84.9154 31.5948 84.1177 30.9832 83.3814C30.1881 82.3997 28.3533 80.9884 26.9466 81.2952C26.2738 81.4179 25.7845 81.9088 25.4787 82.7678C24.6225 85.1608 27.4359 87.6152 29.8823 89.272C30.3104 89.5788 30.7997 89.8242 31.2278 90.0696C31.2278 90.0083 31.289 89.8856 31.289 89.8242C30.8608 89.5788 30.4327 89.3333 30.0046 89.0265C25.6622 86.1426 25.2341 84.0564 25.6622 82.8292C25.9069 81.9701 26.335 81.5406 26.9466 81.4793ZM37.9554 67.121C37.5884 66.6915 37.038 66.4461 36.3652 66.5688C35.5702 66.6915 35.0197 67.0597 34.5304 67.6119C33.3684 69.0846 33.1849 71.539 33.1849 72.5207C33.0626 75.4046 33.3684 78.1658 33.98 80.8657C33.98 80.927 33.98 80.927 33.98 80.9884C33.98 81.0497 33.98 81.1111 34.0412 81.1725C34.1023 80.9884 34.1635 80.8657 34.2246 80.6816C33.613 78.0431 33.3684 75.3433 33.4907 72.5821C33.5519 71.2935 33.8577 67.1824 36.4264 66.8756C36.9768 66.8142 37.4661 66.9983 37.7719 67.3665C38.0166 67.6733 38.2 68.0414 38.2612 68.471C38.3224 68.3482 38.3835 68.1642 38.3835 68.0414C38.3224 67.6733 38.2 67.3665 37.9554 67.121Z" fill="#F2E0D8"/>
<path d="M29.7601 73.0729C29.5155 71.9071 29.2097 70.864 28.8427 69.8822C28.5369 68.9618 27.6195 67.4892 26.5798 67.0597C26.5186 66.9983 26.3963 66.9983 26.3352 66.9983C26.274 67.0597 26.2128 67.121 26.2128 67.1824C26.3352 67.1824 26.4575 67.2438 26.5798 67.3051C27.5584 67.7346 28.4146 69.1459 28.7204 70.005C29.4543 71.9071 29.8824 74.1774 30.1882 77.1841L29.9436 75.7114C29.3932 74.4229 28.4146 73.4411 27.4972 72.4593C26.8856 71.8457 26.274 71.1708 25.7236 70.4345C25.4178 70.005 25.112 69.4527 24.9896 68.9005C24.9285 68.9618 24.8673 69.0232 24.8062 69.0846C24.9896 69.7595 25.4178 70.3731 25.5401 70.4958C26.0905 71.2322 26.7021 71.9071 27.3137 72.5207C28.2311 73.5025 29.2097 74.4842 29.699 75.7114L29.9436 77.1841C29.9436 77.3068 30.0659 77.3681 30.1882 77.3681C30.3106 77.3681 30.3717 77.2454 30.3717 77.1227C30.1882 75.5887 30.0048 74.2388 29.7601 73.0729Z" fill="#F2E0D8"/>
<path d="M15.5103 132.162L19.5468 104.796C19.5468 104.796 13.0638 93.5058 16.8558 85.4063C18.7517 81.2952 31.7177 61.2305 38.69 56.1376C45.2341 51.3516 54.2246 55.7081 57.2826 59.8806C66.0285 71.7844 70.3097 93.2604 75.2026 132.224H15.5103V132.162Z" fill="#E6A2B5"/>
<path d="M27.2528 68.7164C25.9073 70.5572 24.6229 72.398 23.3997 74.2388C23.7667 73.5025 24.0725 72.7661 24.4394 72.0298C24.4394 71.9685 24.3783 71.9071 24.3783 71.9685C23.889 72.8889 23.4609 73.8093 23.0327 74.7297C21.3202 77.2454 19.7301 79.7612 18.1399 82.3383C17.4672 83.4428 16.8556 84.5472 16.4274 85.7744C15.9993 86.9403 15.6935 88.1675 15.5712 89.3947C15.4489 90.6219 15.3877 91.8491 15.51 93.1376C15.6324 94.4262 15.7547 95.7147 16.0605 96.9419C16.3663 98.3532 16.7944 99.7645 17.406 101.114C17.7118 101.789 17.9564 102.403 18.3234 103.078C18.6292 103.63 19.2408 104.857 19.1796 104.919C19.0573 105.594 18.935 106.023 18.8738 106.575C18.8127 107.128 18.6904 107.68 18.6292 108.232C18.4457 109.337 16.9779 120.259 16.8556 121.425C16.5498 123.633 16.244 125.904 15.9993 128.113C15.8158 129.401 15.7547 130.69 15.5712 131.978C15.5712 132.04 15.6324 132.04 15.6324 131.978C15.8158 130.874 16.1216 129.769 16.3051 128.665C16.4886 127.561 16.7332 126.456 16.9167 125.352C17.3448 123.081 18.935 110.993 19.302 108.784C19.4243 108.171 19.4854 107.557 19.6078 106.882C19.7301 106.269 19.8524 105.41 19.8524 104.796C19.8524 104.796 17.8341 100.685 17.1002 97.801C16.7944 96.5738 16.4274 95.3466 16.3051 94.058C16.1828 92.8308 16.1828 91.6036 16.244 90.3764C16.3663 89.1492 16.5498 87.922 16.9779 86.7562C17.3448 85.529 17.8953 84.4245 18.568 83.32C19.8524 80.9884 21.2591 78.7181 22.6658 76.4477C24.2559 73.8706 25.8461 71.2935 27.4974 68.7778C27.3139 68.7164 27.2528 68.655 27.2528 68.7164Z" fill="#3C3575"/>
<path d="M65.3555 117.436C65.2332 116.7 64.8051 116.148 64.0712 115.779C61.7471 114.675 59.1172 117.252 58.0775 118.725C56.9154 120.443 56.1203 122.529 55.6922 125.229C55.3864 123.143 54.836 121.118 54.3467 119.338C53.9797 118.05 53.5516 116.7 53.0012 115.411C53.0623 113.939 53.6128 112.589 54.2244 111.239C54.2855 111.055 54.3467 110.871 54.469 110.687C55.2029 108.907 55.5699 107.373 55.6311 105.839C55.6922 103.63 55.2029 99.2736 52.8177 98.9055C52.2061 98.8441 51.7168 98.9668 51.3498 99.335C50.6159 100.133 50.5548 101.912 51.1052 104.673C51.5945 107.005 51.8391 108.723 51.8391 110.502C51.8391 111.177 51.9003 111.975 51.9615 112.773C51.1052 110.871 50.1266 108.907 49.0258 106.944C49.0258 106.882 48.9646 106.76 48.9034 106.76C48.5976 106.207 48.2918 105.655 47.8637 104.98C47.4968 104.428 47.191 103.876 46.8852 103.385C46.7628 100.992 48.353 99.2123 50.0655 97.3715C51.1664 96.2056 52.2673 94.9784 52.8789 93.5671C53.4905 92.1559 53.6739 89.2106 52.6954 87.5539C52.2061 86.7562 51.5945 86.388 50.7382 86.3267C49.515 86.2653 48.72 87.2471 48.4142 88.1061C48.2307 88.7197 48.1695 89.3333 48.1695 89.9469C48.1695 90.1924 48.1695 90.3764 48.1084 90.6219C48.0472 91.6036 47.8026 92.6467 47.4356 93.8739C47.3133 94.3035 47.191 94.733 47.0075 95.2239C46.3347 97.4328 45.662 99.6418 45.9066 101.851C45.2338 100.746 44.4999 99.7031 43.766 98.66C42.8486 97.2487 41.87 95.8375 40.9526 94.3648C41.1361 93.7512 41.2584 93.199 41.4419 92.5854C41.7477 91.4809 41.9923 90.3151 42.4816 89.2106C42.6651 88.7811 42.8486 88.3516 43.0321 87.9834C43.4602 87.0016 43.9495 85.8972 44.2553 84.854C44.928 82.461 44.9892 79.4544 42.7874 78.7794C41.9923 78.534 41.3196 78.5953 40.708 79.0862C39.6683 79.8839 39.179 81.5406 39.2401 82.8292C39.3013 84.0564 39.4848 85.2836 39.6683 86.5108C39.7906 87.2471 39.9129 87.9834 39.9741 88.7197C40.0964 90.0083 40.1575 91.4195 40.1575 93.0149C39.7906 92.4013 39.4236 91.7877 39.1178 91.1741C37.5277 88.3516 36.3656 85.3449 35.5705 82.0315C35.6928 80.5589 36.0598 79.1476 36.5491 77.6749C36.7937 77 37.0995 76.325 37.3442 75.6501C37.7723 74.7297 38.1393 73.7479 38.4451 72.7048C38.812 71.539 39.179 68.471 38.0781 67.1824C37.7111 66.7529 37.1607 66.5074 36.4879 66.6302C35.6928 66.7529 35.1424 67.121 34.6531 67.6733C33.4911 69.1459 33.3076 71.6003 33.3076 72.5821C33.1853 75.466 33.4911 78.2272 34.1027 80.927C34.1027 80.9884 34.1027 80.9884 34.1027 81.0497C34.6531 83.9336 35.6317 86.8176 36.9772 89.6401C37.2219 90.1924 37.5277 90.7446 37.8335 91.2968C36.2433 90.3764 35.2647 89.456 34.3473 88.2288C33.858 87.6152 33.4299 86.9403 33.063 86.2653C32.4514 85.2836 31.8398 84.3018 31.0447 83.4428C30.2496 82.461 28.4148 81.0497 27.0081 81.3565C26.3353 81.4792 25.8461 81.9701 25.5403 82.8292C24.684 85.2222 27.4974 87.6766 29.9438 89.3333C32.329 90.9287 34.8978 91.7877 37.65 92.0332C37.8946 92.0945 38.0781 92.1559 38.2616 92.2172C39.6071 94.6103 41.1361 96.9419 42.6651 99.1509C43.5214 100.378 44.3776 101.667 45.1727 102.955C46.0901 104.366 46.824 105.655 47.5579 106.882C45.1727 106.698 43.0321 106.085 40.9526 104.98C39.7294 104.305 38.5062 103.507 37.3442 102.71C36.6714 102.28 35.9987 101.789 35.3259 101.36C35.2036 101.298 35.0201 101.176 34.8978 101.053C33.5522 100.194 31.7174 98.9668 30.0661 99.4577C28.6594 99.8258 28.2925 101.237 28.4148 102.403C28.9041 107.066 34.592 108.294 36.9772 108.6C39.179 108.907 41.5642 108.846 44.1941 108.416C44.928 108.294 45.6008 108.294 46.2736 108.355C46.7628 108.355 47.2521 108.355 47.6802 108.355C47.986 108.355 48.1695 108.294 48.2918 108.232C50.0043 111.362 51.3498 114.307 52.4507 117.252C52.8789 118.479 53.307 119.706 53.6128 120.934C53.0012 120.565 52.2061 120.259 51.5333 119.952L51.2275 119.829C48.6588 118.847 46.9463 117.007 45.4785 115.227C44.6222 114.123 41.87 110.871 39.4236 110.871C38.6285 110.871 37.8946 111.239 37.283 111.975C36.3045 113.141 36.8549 114.368 37.65 115.534C38.6285 117.129 39.8517 118.725 41.6865 119.584C43.5825 120.504 45.9066 120.872 47.986 121.179H48.1695C48.6588 121.24 49.1481 121.302 49.6985 121.363C51.2275 121.486 52.94 121.609 54.0409 122.529C54.2244 123.327 54.4079 124.124 54.5302 124.922L54.5913 125.106C55.0195 127.376 55.5087 130.076 54.9583 132.408H55.2029C55.6922 130.076 55.2029 127.315 54.836 125.106L54.7748 124.922C54.6525 124.124 54.469 123.265 54.2244 122.468V122.406H54.1632C53.0012 121.425 51.2275 121.302 49.6374 121.179C49.0869 121.118 48.5976 121.118 48.1084 120.995H47.9249C45.7843 120.688 43.5825 120.32 41.7477 119.461C39.9741 118.663 38.812 117.068 37.8335 115.534C37.2219 114.552 36.6102 113.386 37.4053 112.343L37.4665 112.282C38.0169 111.607 38.6897 111.3 39.4236 111.3C41.7477 111.3 44.3776 114.552 45.2338 115.595C46.7017 117.436 48.4753 119.216 51.1052 120.259L51.411 120.381C52.2673 120.688 53.0623 121.056 53.7351 121.486L54.0409 121.731L53.9186 121.363C53.5516 120.013 53.1235 118.663 52.6342 117.313C51.5333 114.307 50.1878 111.3 48.4142 108.171L48.353 108.048L48.2307 108.109C48.0472 108.171 47.8637 108.232 47.5579 108.232C47.0686 108.294 46.5794 108.232 46.1512 108.232C45.4785 108.232 44.7446 108.232 44.0106 108.355C41.4419 108.723 39.1178 108.784 36.9161 108.539C34.592 108.232 29.0264 107.066 28.5371 102.587C28.476 102.096 28.4148 100.378 30.005 99.8872C31.534 99.4577 33.3076 100.624 34.592 101.421C34.7754 101.544 34.8978 101.605 35.0201 101.728C35.6928 102.158 36.3656 102.587 37.0384 103.078C38.2004 103.876 39.4236 104.673 40.708 105.41C42.9097 106.575 45.1727 107.25 47.6802 107.373H47.9249L47.8026 107.189C47.0686 105.839 46.2124 104.489 45.295 103.017C44.4999 101.728 43.6437 100.439 42.7874 99.2123C41.2584 96.9419 39.7294 94.6103 38.3839 92.2172L38.3227 92.1559H38.2616C38.0781 92.0945 37.8335 92.0945 37.5888 91.9718H37.5277C34.8366 91.7877 32.2679 90.8673 29.9438 89.3333C25.6014 86.4494 25.1733 84.3632 25.6014 83.136C25.8461 82.3997 26.2742 81.9701 26.8858 81.8474C28.109 81.602 29.8215 82.8905 30.6777 83.8723C31.4116 84.7313 32.0232 85.7131 32.6348 86.6948C33.063 87.3698 33.4911 88.0448 33.9804 88.6584C34.8978 89.9469 35.9375 90.8673 37.5888 91.7877H37.65C37.7111 91.7877 37.8335 91.7877 37.8946 91.7877H38.1393L38.0169 91.6036C37.65 90.99 37.3442 90.3764 37.0384 89.7015C35.6928 86.9403 34.7143 84.0564 34.1638 81.1725V81.1111C33.5522 78.4726 33.3076 75.6501 33.3688 72.8275C33.4299 71.539 33.7357 67.4278 36.3045 67.121C36.8549 67.0597 37.3442 67.2438 37.65 67.6119C38.6285 68.7778 38.3227 71.6617 37.9558 72.8889C37.65 73.8706 37.283 74.8524 36.8549 75.7728C36.5491 76.4477 36.3045 77.1227 36.0598 77.7977C35.5094 79.2703 35.2036 80.7429 35.0201 82.2156V82.2769C35.8152 85.5904 37.0384 88.597 38.6285 91.4809C39.0567 92.2172 39.4848 92.9535 39.9129 93.6899L40.1575 94.058V93.6285C40.2187 91.9104 40.1575 90.3151 39.9741 88.8424C39.9129 88.1061 39.7906 87.3698 39.6683 86.6335C39.4848 85.4676 39.3013 84.1791 39.2401 83.0132C39.179 81.786 39.6683 80.1907 40.6468 79.4544C41.1973 79.0862 41.8089 78.9635 42.4816 79.2089C45.1115 80.068 43.8883 84.4859 43.766 84.9768C43.4602 86.0199 42.9709 87.063 42.5428 88.0448C42.3593 88.4743 42.1758 88.9038 41.9923 89.3333C41.5031 90.4378 41.1973 91.6036 40.9526 92.7695C40.8303 93.3831 40.6468 93.9967 40.4633 94.5489V94.6103L40.5245 94.6716C41.4419 96.1443 42.4205 97.6169 43.399 99.0282C44.1941 100.255 45.0504 101.483 45.8454 102.71L46.2124 103.262L46.0901 102.587C45.662 100.255 46.3959 97.8623 47.1298 95.4693C47.2521 95.0398 47.3744 94.5489 47.5579 94.1194C47.9249 92.8308 48.1084 91.7877 48.2307 90.806C48.2307 90.5605 48.2307 90.3764 48.2918 90.131C48.2918 89.5174 48.353 88.9038 48.5365 88.3516C48.8423 87.5539 49.5762 86.6335 50.6159 86.6948C51.3498 86.7562 51.9614 87.1244 52.3896 87.7993C53.3681 89.3947 53.1235 92.2786 52.5731 93.5671C51.9615 94.9171 50.8606 96.1443 49.8208 97.3101C48.1695 99.0895 46.457 100.992 46.5794 103.507L46.6405 103.569C46.9463 104.121 47.3133 104.612 47.6191 105.226C48.0472 105.9 48.353 106.514 48.6588 107.005V107.066C48.6588 107.066 48.6588 107.066 48.6588 107.128V107.189V107.25C49.9432 109.521 51.044 111.73 51.9003 113.877L52.2673 114.736L52.1449 113.816C52.0226 112.773 51.9615 111.668 51.9615 110.748C51.9003 108.968 51.7168 107.189 51.2275 104.919C50.5548 101.605 50.9217 100.255 51.411 99.7645C51.7168 99.4577 52.0838 99.335 52.6342 99.4577C54.9583 99.8258 55.2641 104.366 55.2641 106.146C55.2029 107.619 54.836 109.153 54.1021 110.871C54.0409 111.055 53.9186 111.239 53.8574 111.423C53.2458 112.773 52.6954 114.184 52.6342 115.718V115.779C53.1235 117.129 53.5516 118.418 53.9186 119.768C54.469 121.793 55.1418 124.186 55.3864 126.517L55.5087 127.622L55.6311 126.517C55.998 123.327 56.7931 120.995 58.0775 119.154C59.2395 117.497 61.7471 115.289 63.7654 116.27C64.4381 116.577 64.8051 117.068 64.9274 117.743C64.9274 117.866 64.9274 117.927 64.9274 118.05C64.9274 119.154 64.1323 120.504 63.3372 121.24C62.2975 122.222 61.1355 123.081 59.9734 123.94C59.7288 124.124 59.4841 124.308 59.3007 124.431C59.1172 124.615 58.8725 124.738 58.6279 124.922C57.4047 125.842 55.8757 126.947 55.5087 128.481V128.542C55.5699 129.954 55.3864 131.242 55.0806 132.469H55.3864C55.6922 131.303 55.8145 130.015 55.8145 128.604C56.1815 127.192 57.5882 126.149 58.8725 125.229C59.1172 125.045 59.3007 124.922 59.5453 124.738C59.79 124.554 59.9734 124.37 60.2181 124.247C61.3801 123.388 62.5422 122.468 63.5819 121.486C64.6216 120.259 65.539 118.725 65.3555 117.436Z" fill="#F2E0D8"/>
<path d="M53.1845 62.0895C51.2885 60.9237 49.3925 63.1327 48.5974 64.1144C48.5363 64.1758 48.4751 64.2371 48.4751 64.2985C47.0684 66.1393 45.4171 71.3549 45.356 71.8458C45.356 71.9685 45.4171 72.0912 45.5394 72.0912C45.6618 72.0912 45.7229 72.0298 45.7841 71.9685C45.7841 71.9685 47.0073 69.5754 52.3282 66.1393C53.1845 65.587 54.1019 64.4212 54.1019 63.4395C54.1019 62.8872 53.7961 62.3963 53.1845 62.0895ZM52.1447 65.8938C47.6189 68.7778 46.0287 70.9254 45.6006 71.6003C45.9064 70.4345 47.3742 66.0779 48.6586 64.4212C49.2702 63.6235 51.2273 61.1078 53.0621 62.2123C53.5514 62.5191 53.7961 62.8872 53.7961 63.3781C53.7961 63.869 53.5514 64.4212 53.1845 64.8507C52.9398 65.3416 52.5117 65.6484 52.1447 65.8938Z" fill="#F2E0D8"/>
<path d="M63.4593 73.4411C63.0923 73.0116 62.6642 72.8275 62.1749 72.8275C61.6856 72.8275 61.2575 72.9502 60.8906 73.3184C60.8906 73.3798 60.8294 73.3798 60.8294 73.4411C60.0955 74.4229 60.279 76.2023 60.3401 76.5705C60.5236 77.6749 60.8294 78.7181 61.1352 79.7612C61.6245 81.2952 62.1138 82.8905 61.9914 84.5472L61.5022 86.2653C61.441 86.388 61.5022 86.5108 61.6856 86.5721C61.808 86.6335 61.9914 86.5721 61.9914 86.388C62.6642 84.67 63.1535 83.136 63.5816 81.7247C63.9486 80.3134 64.1932 79.0249 64.3767 77.7977C64.499 76.5705 64.3155 74.4842 63.4593 73.4411ZM64.0709 77.6749C63.8262 80.1293 63.0923 82.8292 61.7468 86.2653L62.2361 84.5472V84.4859C62.3584 82.8292 61.8691 81.1725 61.3798 79.6385C61.074 78.5953 60.7682 77.5522 60.5848 76.5091C60.4624 75.5273 60.4624 74.1161 61.074 73.5025C61.3187 73.1957 61.6856 73.073 62.1138 73.073C62.5419 73.073 62.9088 73.257 63.2146 73.6252C64.0709 74.5456 64.1932 76.5705 64.0709 77.6749Z" fill="#F2E0D8"/>
<path d="M29.76 73.0729C29.5153 71.9071 29.2095 70.864 28.8426 69.8822C28.6591 69.3914 28.2921 68.7164 27.864 68.1642C27.8028 68.2255 27.8028 68.2869 27.7417 68.3482C28.1698 68.9005 28.4756 69.5141 28.5979 69.9436C29.3318 71.8457 29.76 74.1161 30.0658 77.1227L29.8211 75.6501C29.2707 74.3615 28.2921 73.3797 27.3747 72.398C26.8854 71.9071 26.3961 71.4162 25.968 70.864C25.9069 70.9253 25.9069 70.9867 25.8457 71.0481C26.2738 71.6003 26.7631 72.0912 27.2524 72.5821C28.1698 73.5638 29.1484 74.5456 29.6376 75.7728L29.8823 77.2454C29.8823 77.3681 30.0046 77.4295 30.1269 77.4295C30.2492 77.4295 30.3104 77.3068 30.3104 77.1841C30.1881 75.5887 30.0046 74.2388 29.76 73.0729Z" fill="#F2E0D8"/>
<path d="M61.5024 65.5257C78.8107 87.6153 85.2937 127.192 75.6916 130.322C66.9457 133.144 30.8612 124.124 20.1581 120.443C16.9778 119.338 26.7634 94.7944 30.1273 95.8988C34.225 97.3101 56.4873 102.587 56.9154 102.587C57.8328 102.587 52.8788 78.2272 50.7382 67.1824C47.8025 51.7197 55.0194 57.2421 61.5024 65.5257Z" fill="#FFC4C0"/>
<path d="M56.6099 101.544C56.9157 101.36 51.7171 77.7977 50.0046 65.5257C48.2921 53.2537 53.7353 54.4196 61.625 64.9121C70.0651 76.141 85.0493 106.637 79.8507 129.156C78.1382 136.458 26.0298 126.211 26.0298 126.211L33.0632 96.1443C33.002 96.2056 56.1817 101.789 56.6099 101.544Z" fill="#E6A2B5"/>
<path d="M53.1845 62.0896C51.9001 61.2919 50.6158 62.0895 49.6372 62.9486C49.6372 63.0713 49.6372 63.194 49.6372 63.2554C50.5546 62.3963 51.7778 61.5373 53.001 62.2736C53.4903 62.5804 53.7349 62.9486 53.7349 63.4395C53.7349 63.9303 53.4903 64.4826 53.1233 64.9121C52.8175 65.2803 52.4506 65.6484 52.0836 65.8939C51.3497 66.3847 50.7381 66.8143 50.1265 67.2438C50.1265 67.3051 50.1876 67.4279 50.1876 67.5506C50.7993 67.1211 51.472 66.6302 52.2059 66.1393C53.0622 65.5871 53.9796 64.4212 53.9796 63.4395C54.1019 62.8872 53.7961 62.3964 53.1845 62.0896Z" fill="#F2E0D8"/>
<path d="M63.4593 73.4411C63.0923 73.0116 62.6642 72.8275 62.1749 72.8275C61.6856 72.8275 61.2575 72.9502 60.8906 73.3184C60.8906 73.3798 60.8294 73.3798 60.8294 73.4411C60.0955 74.4229 60.279 76.2023 60.3401 76.5705C60.5236 77.675 60.8294 78.7181 61.1352 79.7612C61.6245 81.2952 62.1138 82.8905 61.9914 84.5473L61.5022 86.2653C61.441 86.3881 61.5022 86.5108 61.6856 86.5721C61.808 86.6335 61.9914 86.5721 61.9914 86.3881C62.6642 84.67 63.1535 83.136 63.5816 81.7247C63.9486 80.3134 64.1932 79.0249 64.3767 77.7977C64.499 76.5705 64.3155 74.4842 63.4593 73.4411ZM64.0709 77.675C63.8262 80.1294 63.0923 82.8292 61.7468 86.2653L62.2361 84.5473V84.4859C62.3584 82.8292 61.8691 81.1725 61.3798 79.6385C61.074 78.5954 60.7682 77.5522 60.5848 76.5091C60.4624 75.5274 60.4624 74.1161 61.074 73.5025C61.3187 73.1957 61.6856 73.073 62.1138 73.073C62.5419 73.073 62.9088 73.257 63.2146 73.6252C64.0709 74.5456 64.1932 76.5705 64.0709 77.675Z" fill="#F2E0D8"/>
<path d="M56.3653 101.789C56.3653 101.728 53.3684 86.1426 53.0626 85.529C52.7568 84.9154 52.0229 83.6269 51.7783 83.0746C51.2278 81.8474 50.6774 80.6202 50.1881 79.393C50.1269 79.2703 50.3104 79.209 50.3716 79.3317C50.922 80.4975 51.5948 81.6633 52.3287 82.8292C52.6957 83.3814 53.0015 83.9337 53.3684 84.4859C53.3684 84.5473 51.7171 75.6501 51.4725 74.1161C51.4725 73.9934 51.5948 73.9934 51.5948 74.0547C52.0841 75.5887 56.7934 99.9486 57.2827 101.912C57.2215 101.851 56.8545 101.851 56.3653 101.789Z" fill="#3C3575"/>
<path d="M34.4082 58.2852C34.4082 58.2852 35.081 65.2189 40.83 66.262C46.5179 67.3665 57.2209 59.8192 57.2209 59.8192C57.2209 59.8192 52.9397 54.0514 45.1724 53.9901C37.7109 53.9901 34.4082 58.2852 34.4082 58.2852Z" fill="white"/>
<path d="M50.7993 56.3831C50.4935 57.4262 45.1114 63.9917 40.2798 63.5008C38.7508 63.3167 39.2401 54.7877 39.2401 54.7877L39.1177 54.1741L37.6499 45.2156L48.4141 39.141L49.9431 38.3433C49.9431 38.3433 50.1877 40.859 50.4324 43.927C50.4324 44.0497 50.4324 44.2338 50.4935 44.3565C50.4935 44.5406 50.5547 44.7247 50.5547 44.8474C50.6159 45.3383 50.6159 45.7678 50.677 46.2587C50.677 46.6269 50.7382 46.995 50.7382 47.3632C50.7382 47.7313 50.7993 48.0995 50.7993 48.4677C51.044 52.0879 50.9217 55.8922 50.7993 56.3831Z" fill="white"/>
<path d="M50.5546 43.7429C47.6189 50.6766 41.8087 53.1924 39.1788 54.0514L37.7109 45.0929L48.4751 39.0182L50.0041 38.2206C50.0041 38.1592 50.2488 40.675 50.5546 43.7429Z" fill="#3C3575"/>
<path d="M25.7847 32.5755C24.745 48.529 34.1025 50.9834 37.5275 51.1675C40.6467 51.3516 51.2885 51.6584 53.9796 35.9502C56.6706 20.1808 49.6372 14.6584 42.5426 13.7993C35.448 12.9403 26.8856 16.6219 25.7847 32.5755Z" fill="white"/>
<path d="M30.6164 28.4643C30.9833 28.4643 31.3503 28.3416 31.7173 28.2803C32.1454 28.2189 32.4512 28.1575 32.757 27.8507C32.9405 27.6667 32.9405 27.3599 32.757 27.1758C32.39 26.7463 31.9007 26.7463 31.4115 26.8076C30.861 26.869 30.4329 27.1144 30.0659 27.4826C29.7601 27.9121 30.1271 28.5257 30.6164 28.4643Z" fill="#3C3575"/>
<path d="M41.6861 27.7894C41.3191 27.728 40.9522 27.6053 40.5852 27.5439C40.1571 27.4212 39.8513 27.4212 39.5455 27.0531C39.362 26.869 39.4232 26.5008 39.5455 26.3781C39.9124 25.9486 40.4629 25.9486 40.9522 26.0713C41.5026 26.194 41.8696 26.3781 42.2365 26.8076C42.6035 27.2985 42.1754 27.9121 41.6861 27.7894Z" fill="#3C3575"/>
<path d="M39.2398 33.3731C39.2398 33.3118 39.3009 33.4345 39.3009 33.4959C39.2398 34.6003 39.3009 35.8275 40.2795 36.257V36.3184C39.0563 36.0116 38.934 34.3549 39.2398 33.3731Z" fill="#3C3575"/>
<path d="M40.2184 32.2687C41.992 32.2073 41.9309 35.7048 40.3407 35.7662C38.7505 35.8275 38.7505 32.33 40.2184 32.2687Z" fill="#3C3575"/>
<path d="M40.891 32.4527C41.1968 32.6368 41.5026 33.005 41.8696 33.0663C42.2977 33.1277 42.6035 32.7595 42.9093 32.3914C42.9093 32.33 42.9704 32.3914 42.9704 32.4527C42.9704 33.1277 42.7258 33.8027 41.9919 33.9254C41.3191 33.9867 40.891 33.4345 40.7075 32.7595C40.7075 32.5755 40.7687 32.3914 40.891 32.4527Z" fill="#3C3575"/>
<path d="M32.5732 32.5754C32.5732 32.5141 32.512 32.6368 32.512 32.6982C32.512 33.8026 32.3897 35.0298 31.4111 35.398V35.4594C32.5732 35.2139 32.8178 33.5572 32.5732 32.5754Z" fill="#3C3575"/>
<path d="M31.656 31.4096C29.9435 31.2255 29.76 34.7844 31.3502 34.9071C32.9404 35.0298 33.1238 31.5323 31.656 31.4096Z" fill="#3C3575"/>
<path d="M30.922 31.5937C30.6162 31.7778 30.3716 32.0846 30.0046 32.0846C29.6376 32.0846 29.3318 31.7164 29.1484 31.3483C29.1484 31.2869 29.0872 31.3483 29.0872 31.4096C29.026 32.0846 29.2095 32.7595 29.8823 32.9436C30.4327 33.0663 30.922 32.5141 31.1055 31.9005C31.1055 31.7164 31.0443 31.5323 30.922 31.5937Z" fill="#3C3575"/>
<path d="M38.139 41.7794C37.8944 42.0249 37.6497 42.393 37.2828 42.4544C36.9158 42.5158 36.4877 42.3317 36.1207 42.209C36.0596 42.209 36.0596 42.209 36.0596 42.2703C36.3654 42.6998 36.977 42.8839 37.4663 42.8226C37.9555 42.6998 38.2002 42.2703 38.2613 41.8408C38.2613 41.7794 38.2002 41.7794 38.139 41.7794Z" fill="#3C3575"/>
<path d="M33.6744 37.791C33.6744 37.791 33.4298 39.3864 33.4298 40.1841C33.4298 40.2454 33.6133 40.3068 33.8579 40.3068C35.2034 40.5522 36.549 40.1227 37.4052 39.0182C37.4664 38.9569 37.344 38.8342 37.2829 38.8955C36.2432 39.6318 35.1423 39.8159 33.9802 39.8159C33.9191 39.6318 34.4695 37.0547 34.4084 37.0547C33.9802 36.9934 33.1852 37.3002 32.6959 37.4229C33.124 34.0481 34.1026 30.7347 34.4695 27.3599C34.4695 27.2371 34.286 27.1758 34.286 27.2985C33.0628 30.6733 32.4512 34.6003 31.962 38.0978C31.7785 38.466 33.3686 37.9138 33.6744 37.791Z" fill="#3C3575"/>
<path d="M34.1025 40C34.1025 40 34.7753 41.0431 35.7539 41.4726C36.1208 41.6567 36.4878 41.7181 36.9159 41.5954C37.7721 41.4113 37.8333 40.6136 37.711 39.9386C37.5887 39.3864 37.4052 38.8955 37.4052 38.8955C37.4052 38.8955 36.1208 40 34.1025 40Z" fill="#3C3575"/>
<path d="M35.7539 41.4726C36.1209 41.6567 36.4878 41.7181 36.9159 41.5954C37.7722 41.4113 37.8333 40.6136 37.711 39.9386C36.7936 40 35.8762 40.5522 35.7539 41.4726Z" fill="#E6A2B5"/>
<path d="M53.1232 35.8275C51.4107 35.5821 47.2518 30.4279 47.8022 22.0829C47.8022 22.0829 47.8634 29.6302 48.2915 30.796C48.7808 31.9619 45.9674 27.9121 46.3344 21.1625C46.3344 21.1625 42.359 23.5555 39.1175 24.2305C35.876 24.8441 33.9189 24.66 33.7354 24.4146C33.5519 24.1692 38.3224 23.0647 39.7291 21.7148C39.7291 21.7148 30.9832 24.9668 27.0078 24.9668C26.5797 24.9668 26.7632 15.6401 33.1238 12.1426C39.4845 8.70646 48.6585 13.738 51.0437 16.3764C51.0437 16.3764 54.0406 17.0514 56.9151 21.7761C59.8508 26.5008 54.958 36.073 53.1232 35.8275Z" fill="#3C3575"/>
<path d="M50.8604 36.6252C50.8604 36.6252 54.2242 31.5937 56.5483 32.7595C58.8112 33.9867 56.3648 41.2272 53.7349 42.2703C51.105 43.3134 50.1265 40.859 50.1265 40.859L50.8604 36.6252Z" fill="white"/>
<path d="M55.7531 34.8458C55.8143 34.8458 55.8143 34.9071 55.7531 34.9071C53.9183 35.7048 52.9398 37.4229 52.3282 39.2637C52.8786 38.5887 53.6125 38.1592 54.5299 38.8342C54.5911 38.8955 54.5299 38.9569 54.4688 38.9569C53.7348 38.8342 53.1844 38.9569 52.634 39.5705C52.267 40 52.0224 40.5522 51.7777 41.0431C51.7165 41.2272 51.4107 41.1045 51.4719 40.9204C51.4719 40.9204 51.4719 40.9204 51.4719 40.859C51.4107 38.5274 53.2456 35.1526 55.7531 34.8458Z" fill="#3C3575"/>
</g>
</svg>
