<svg width="58" height="70" viewBox="0 0 58 70" fill="none" xmlns="http://www.w3.org/2000/svg">
<path d="M46.827 0H11.064C4.95972 0 0 4.9763 0 11.0806V46.8436C0 52.9479 4.95972 57.9242 11.0806 57.9242H28.9621H30.5213V45.4005C39.1801 44.6043 45.9977 37.3057 45.9977 28.4479V26.1256H42.8792V28.4479C42.8792 36.1114 36.6422 42.3649 28.9621 42.3649C21.282 42.3649 15.045 36.128 15.045 28.4479V26.1256H11.9265V28.4479C11.9265 37.3223 18.7441 44.6208 27.4029 45.4005V54.8057H11.064C6.68484 54.8057 3.11849 51.2393 3.11849 46.8436V11.0806C3.11849 6.70142 6.68484 3.13507 11.064 3.13507H46.827C51.2062 3.13507 54.7725 6.70142 54.7725 11.0806V46.8436C54.7725 51.2227 51.2062 54.8057 46.827 54.8057H39.2465V63.8294L31.6161 58.1896L31.6991 62.1209L42.365 70V57.9076H46.827C52.9313 57.9076 57.9076 52.9313 57.9076 46.827V11.0806C57.9076 4.9763 52.9313 0 46.827 0Z" fill="#0094DE"/>
<path d="M45.9811 22.5758C45.9811 18.5284 43.128 15.1446 39.3295 14.2986C38.8152 13.237 37.737 12.5071 36.493 12.5071C34.7513 12.5071 33.3413 13.9171 33.3413 15.6588C33.3413 17.4005 34.7513 18.8104 36.493 18.8104C37.5712 18.8104 38.5167 18.2796 39.0806 17.4502C41.2702 18.1137 42.8626 20.154 42.8626 22.5592V23.2725H45.9811V22.5758Z" fill="#0094DE"/>
<path d="M24.5666 15.6588C24.5666 13.9171 23.1566 12.5071 21.4149 12.5071C20.1542 12.5071 19.076 13.237 18.5784 14.2986C14.7798 15.128 11.9268 18.5284 11.9268 22.5758V23.2891H15.0452V22.5758C15.0452 20.1706 16.6377 18.1303 18.8272 17.4668C19.3912 18.2796 20.3367 18.827 21.4149 18.827C23.1566 18.8104 24.5666 17.4005 24.5666 15.6588Z" fill="#0094DE"/>
<path d="M21.3813 22.9242C19.8552 27.3033 21.4808 30.7868 23.9026 33.109C23.969 32.0308 24.1183 31.019 24.4003 30.1232C24.4998 29.8247 24.5993 29.5261 24.732 29.2441L24.4003 28.8958C23.9358 28.3981 23.5377 27.8673 23.2225 27.2702C23.0732 26.9716 22.9405 26.6564 22.8576 26.3247C22.7747 26.0095 22.7083 25.6612 22.7415 25.346C22.8078 25.6612 22.9405 25.9597 23.0898 26.2417C23.1562 26.3744 23.2557 26.5071 23.3221 26.6564C23.405 26.7891 23.5045 26.9218 23.5875 27.0379C23.969 27.5356 24.4168 27.9834 24.8813 28.3981L25.0638 28.564C25.7273 27.4029 26.6894 26.5071 27.9666 25.8436C22.3931 24.4503 21.3813 22.9242 21.3813 22.9242Z" fill="#0094DE"/>
<path d="M37.6707 22.9242C37.6707 22.9242 36.6091 24.5332 30.6209 25.9432C24.3342 27.4195 24.6162 32.1138 24.9645 39.2465C24.9645 39.2465 25.064 36.7251 28.6967 36.4432C32.3626 36.1446 40.5403 31.0687 37.6707 22.9242ZM36.211 26.3081C36.128 26.6398 35.9953 26.9384 35.846 27.2536C35.5309 27.8507 35.1328 28.3981 34.6683 28.8792L34.32 29.2441L33.9385 29.5759C33.6896 29.8081 33.4242 30.0071 33.1588 30.2062C32.628 30.6043 32.064 30.9526 31.4835 31.2844C30.9029 31.6161 30.3721 31.8981 29.8247 32.2465C29.5593 32.4123 29.2939 32.5948 29.0451 32.7773C28.7963 32.9763 28.5475 33.1588 28.2986 33.3578C27.3366 34.1706 26.4408 35.083 25.8105 36.2275C25.9266 35.5806 26.2252 34.9669 26.5569 34.4029C26.9053 33.8389 27.3366 33.3081 27.801 32.8436C28.2655 32.346 28.7963 31.9479 29.3271 31.5498C29.6091 31.3673 29.8745 31.1683 30.1731 31.0024L31.019 30.5048C31.583 30.2062 32.1138 29.8744 32.6446 29.5261C32.91 29.3436 33.1754 29.1777 33.4076 28.9787L33.7892 28.6967L34.1541 28.3981C34.6185 27.9834 35.083 27.5356 35.4479 27.0379C35.5475 26.9052 35.6304 26.7891 35.7133 26.6564C35.7963 26.5237 35.8792 26.391 35.9456 26.2417C36.0949 25.9597 36.2276 25.6612 36.2939 25.346C36.3603 25.6612 36.3105 25.9929 36.211 26.3081Z" fill="#0094DE"/>
</svg>
