<svg width="378" height="322" viewBox="0 0 378 322" fill="none" xmlns="http://www.w3.org/2000/svg">
<path d="M287.8 198.15C287.8 195.56 288.57 192.62 290.11 190.52C290.74 189.68 291.37 188.77 292.28 188.21C292.7 187.93 293.12 187.79 293.47 187.51C294.03 187.09 294.38 186.53 294.87 186.04C295.43 185.48 296.2 185.06 297.04 184.99C296.27 185.34 295.78 186.11 295.5 186.81C295.15 187.58 294.94 188.35 294.45 189.05C291.86 192.69 290.46 197.03 290.04 201.51" fill="#4B742A"/>
<path d="M285.84 201.37C286.05 199.48 286.26 197.59 286.33 195.7C286.4 194.09 286.82 192.2 286.05 190.66C285.63 189.89 285.07 189.12 284.79 188.28C284.37 186.81 284.79 185.13 283.88 183.87C285 184.99 286.12 186.11 287.31 187.16C287.73 187.58 288.15 188 288.5 188.49C288.71 188.84 288.85 189.26 288.99 189.61C290.39 193.32 292 197.66 290.32 201.51" fill="#568336"/>
<path d="M288.36 209.07C286.26 211.45 281.71 208.09 280.1 206.2C278.42 204.31 277.51 201.65 275.41 200.18C273.73 198.99 271.56 198.71 269.53 198.5C272.61 197.31 274.29 197.8 277.44 198.78C280.59 199.76 288.01 205.01 287.24 208.58" fill="#74AA51"/>
<path d="M287.03 189.82C288.29 192.83 288.92 196.26 288.78 199.55C288.64 202.63 287.45 205.85 288.36 208.93C288.36 209.07 288.57 209 288.5 208.86C288.15 207.18 288.22 205.57 288.43 203.89C288.64 202.35 288.92 200.74 288.99 199.13C289.06 195.91 288.36 192.76 287.1 189.75C287.03 189.75 286.96 189.75 287.03 189.82Z" fill="#90CC6A"/>
<path d="M292.56 189.75C290.81 192.2 290.6 195.42 290.25 198.36C289.83 201.72 289.69 205.15 288.64 208.37C288.64 208.44 288.78 208.51 288.78 208.44C289.97 205.43 289.97 202.07 290.32 198.85C290.67 195.84 290.88 192.41 292.56 189.82C292.63 189.75 292.56 189.75 292.56 189.75Z" fill="#90CC6A"/>
<path d="M287.52 205.29C286.4 204.38 285.7 202.56 285.28 201.16C284.51 198.5 284.51 195.77 282.2 193.88C281.71 193.46 281.08 193.11 280.66 192.55C279.75 191.43 279.82 189.61 278.7 188.7C279.54 189.4 280.17 189.96 281.29 190.17C282.27 190.38 282.9 190.66 283.74 191.15C285.56 192.2 287.03 193.95 287.87 195.84C289.2 198.99 289.13 202.56 288.29 205.92" fill="#74AA51"/>
<path d="M286.47 209.35C286.4 206.13 288.08 202.91 289.27 200.04C290.53 196.89 291.72 193.74 295.15 192.2C295.64 191.99 296.13 191.85 296.55 191.57C297.32 191.15 297.88 190.52 298.58 189.96C299.28 189.47 300.12 189.05 300.89 189.19C299.56 189.68 299.07 191.36 298.09 192.41C297.67 192.83 297.18 193.18 296.69 193.6C294.38 195.7 294.17 198.85 293.33 201.65C292.21 205.71 291.58 208.23 287.52 209.28" fill="#4B742A"/>
<path d="M288.43 208.93C290.04 206.62 291.09 204.03 291.51 201.23C291.72 199.76 291.86 198.22 292.63 196.89C293.26 195.7 294.31 194.44 295.43 193.67C295.99 193.25 296.69 192.97 297.18 192.55C297.74 192.06 298.09 191.01 298.86 190.8C298.93 190.8 298.93 190.66 298.79 190.66C298.23 190.8 297.95 191.29 297.67 191.71C297.18 192.41 296.55 192.76 295.85 193.18C294.73 193.88 293.82 194.86 293.12 195.91C292.28 197.1 291.86 198.43 291.58 199.9C291.3 201.37 291.09 202.84 290.6 204.31C290.04 205.92 289.27 207.46 288.36 208.93C288.29 208.93 288.36 208.93 288.43 208.93Z" fill="#90CC6A"/>
<path d="M283.32 192.27C286.12 194.02 286.61 197.52 286.75 200.53C286.82 202.21 286.89 203.96 286.96 205.64C287.03 206.9 286.96 208.16 287.8 209.14C287.87 209.21 287.94 209.14 287.87 209.07C286.96 207.74 287.1 206.13 287.03 204.66C286.96 202.91 286.89 201.23 286.75 199.48C286.54 196.75 285.84 193.67 283.25 192.2C283.32 192.2 283.25 192.27 283.32 192.27Z" fill="#90CC6A"/>
<path d="M288.08 209.07C289.76 208.86 291.44 208.16 292.77 207.04C295.57 204.66 296.69 200.81 299.49 198.43C300.61 197.52 301.94 196.89 303.34 196.61C302.22 195.77 300.68 195.7 299.28 195.91C293.96 196.68 289.62 200.88 287.31 205.71" fill="#699D46"/>
<path d="M286.33 208.44C285.07 206.55 283.95 204.59 282.69 202.63C281.92 201.44 281.08 200.25 280.31 198.99C279.68 198.01 278.91 197.17 278.35 196.12C277.86 195.28 277.3 194.44 276.32 194.23C275.62 194.02 274.85 194.3 274.15 194.09C273.38 193.88 272.75 193.04 272.82 192.27C272.96 192.69 273.45 192.9 273.87 192.9C274.29 192.9 274.71 192.69 275.2 192.55C277.09 192.06 278.98 193.04 280.66 194.02C281.57 194.58 282.55 195.14 283.25 195.98C283.67 196.54 283.95 197.24 284.23 197.94C285.56 201.23 287.31 204.17 288.08 207.67" fill="#4B742A"/>
<path d="M273.31 198.64C275.69 198.85 277.65 200.6 279.19 202.28C279.96 203.12 280.66 204.03 281.5 204.8C282.34 205.64 283.25 206.34 284.23 207.04C285.28 207.81 286.47 208.65 287.66 209.21C287.73 209.28 287.8 209.14 287.73 209.07C286.75 208.37 285.63 207.74 284.65 207.04C283.6 206.27 282.55 205.5 281.57 204.59C280.73 203.82 280.03 202.91 279.26 202.07C278.49 201.23 277.58 200.39 276.67 199.76C275.69 199.06 274.57 198.57 273.38 198.5C273.24 198.57 273.24 198.64 273.31 198.64Z" fill="#90CC6A"/>
<path d="M275.27 193.18C276.11 193.18 277.02 193.11 277.79 193.39C278.49 193.6 278.91 194.3 279.33 194.86C280.17 195.98 281.43 196.47 282.41 197.45C283.39 198.43 283.88 199.83 284.16 201.16C284.3 201.86 284.3 202.63 284.51 203.4C284.72 204.17 285 204.87 285.28 205.64C285.49 206.41 285.63 207.18 286.05 207.88C286.4 208.51 287.03 209 287.59 209.42C287.66 209.49 287.73 209.35 287.66 209.35C287.1 208.86 286.47 208.37 286.12 207.67C285.77 206.97 285.63 206.13 285.35 205.29C285.14 204.52 284.79 203.82 284.65 202.98C284.51 202.21 284.44 201.51 284.23 200.74C283.88 199.48 283.39 198.29 282.48 197.31C281.99 196.82 281.36 196.47 280.8 196.05C280.17 195.63 279.68 195.14 279.19 194.51C278.84 194.02 278.42 193.53 277.86 193.32C277.02 193.04 276.04 193.18 275.2 193.18C275.2 193.11 275.2 193.18 275.27 193.18Z" fill="#90CC6A"/>
<path d="M288.64 209C290.32 207.95 290.46 205.5 291.23 203.89C291.44 203.4 291.72 202.98 292.14 202.63C292.63 202.14 293.26 201.86 293.75 201.37C294.73 200.46 295.36 199.27 296.55 198.5C297.81 197.66 299.35 197.45 300.75 197.03C300.82 197.03 300.82 196.89 300.75 196.89C299.49 197.1 298.23 197.31 297.11 197.87C295.85 198.5 295.15 199.41 294.24 200.46C293.75 201.02 293.26 201.44 292.63 201.86C292.21 202.14 291.79 202.49 291.51 202.91C290.95 203.75 290.67 204.8 290.32 205.71C289.97 206.83 289.55 208.02 288.57 208.79C288.5 208.93 288.57 209 288.64 209Z" fill="#90CC6A"/>
<path d="M287.31 207.32H296.13L293.96 221.53H287.31H280.59L278.49 207.32H287.31Z" fill="#FCFBFC"/>
<path d="M339.81 297.34L338.76 242.53H342.4L341.35 297.34C341.35 297.9 341 298.32 340.58 298.32C340.16 298.39 339.81 297.9 339.81 297.34Z" fill="#EBC0B3"/>
<path d="M369.7 295.24L348.49 244.7L351.85 243.37L371.1 294.68C371.31 295.17 371.1 295.73 370.75 295.94C370.4 296.01 369.91 295.73 369.7 295.24Z" fill="#EBC0B3"/>
<path d="M311.53 295.24L332.74 244.7L329.38 243.37L310.13 294.68C309.92 295.17 310.13 295.73 310.48 295.94C310.83 296.01 311.32 295.73 311.53 295.24Z" fill="#EBC0B3"/>
<path d="M326.44 227.34C325.32 212.01 326.44 196.33 330.92 181.56C334.56 169.45 347.37 166.37 357.94 172.74C368.16 178.83 373.9 190.73 377.12 201.58C380.27 212.01 382.3 223.98 379.29 234.69C376 246.31 364.87 250.51 353.88 251.63C339.39 253.1 324.48 252.61 310.34 249.04C305.93 247.92 301.24 244.21 306.42 240.29C310.76 237.07 317.62 235.88 322.94 235.74" fill="#5C87C7"/>
<path d="M440.19 224.19H272.61V298.6H440.19V224.19Z" fill="#EEF2FA"/>
<path d="M273.8 221.04H271.49V304.06H273.8V221.04Z" fill="#534E7A"/>
<path d="M446 221.04H266.87V227.27H446V221.04Z" fill="#F1C8B9"/>
<path d="M315.59 222.23H365.71L355.63 193.32C355.35 192.41 354.44 191.85 353.53 191.85H307.33C306.21 191.85 305.37 192.97 305.79 194.02L315.59 222.23Z" fill="white"/>
<path d="M358.827 222.28H386.127V219.9H358.827V222.28Z" fill="white"/>
<path d="M111.54 145.16C110.84 145.51 109.02 144.81 108.25 144.74C107.2 144.6 106.15 144.6 105.1 144.6C102.93 144.67 100.83 145.02 98.73 145.65C94.67 146.91 90.82 149.29 88.23 152.72C84.94 156.99 84.8 161.47 84.73 166.58C84.73 167.84 84.8 169.17 85.01 170.43C85.08 170.85 85.5 173.79 85.85 173.79C86.06 173.79 86.2 173.65 86.34 173.58C88.3 171.69 89 168.96 90.4 166.65C91.17 165.32 92.29 164.2 93.2 162.87C95.3 159.79 97.47 156.78 99.64 153.77C100.62 152.37 101.67 150.9 102.65 149.5C102.65 149.5 111.54 145.16 111.54 145.16Z" fill="#4B742A"/>
<path d="M86.2 205.08V231.89H86.83V205.08C86.83 183.8 91.45 167.14 101.39 155.24L101.18 155.38C91.1 167.42 86.2 183.66 86.2 205.08Z" fill="#90CC6A"/>
<path d="M81.79 215.72C83.61 218.73 84.52 222.16 84.52 225.94V231.82H84.59C84.73 231.82 84.94 231.82 85.08 231.82V225.94C85.08 225.24 85.08 224.61 85.01 223.91C84.94 222.79 84.73 221.67 84.45 220.62C83.96 218.8 83.26 217.05 82.28 215.44L81.79 215.72Z" fill="#568336"/>
<path d="M88.44 184.92C88.44 183.66 89.14 182.12 89.49 180.86C89.84 179.39 90.26 177.99 90.61 176.52C91.24 174 92.15 171.83 93.27 169.45C94.11 167.63 95.23 166.02 96.07 164.27C96.49 163.43 96.84 162.59 97.33 161.82C98.17 160.42 99.15 159.23 99.92 157.76C100.69 156.22 101.67 154.89 102.86 153.7C104.19 152.44 105.52 151.18 106.71 149.78C108.11 148.03 109.72 146.56 111.47 145.16C110.77 145.72 108.6 145.72 107.69 145.93C106.36 146.21 105.1 146.63 103.77 147.05C102.86 147.33 101.95 147.47 101.11 147.96C100.27 148.45 99.5 149.08 98.73 149.64C97.19 150.69 95.51 151.39 93.83 152.23C91.8 153.28 89.21 155.24 88.44 157.41C87.6 159.86 85.85 161.68 85.36 164.27C84.8 167 84.87 169.73 85.29 172.46C85.5 173.79 85.64 175.12 85.85 176.45C86.06 177.92 86.34 179.39 86.83 180.79C87.32 181.91 88.44 183.8 88.44 184.92Z" fill="#699D46"/>
<path d="M42.87 213.76C43.15 212.5 44.62 211.03 45.39 210.12C46.37 208.86 47.56 207.74 48.89 206.9C49.94 206.2 51.13 205.71 52.32 205.08C54.77 203.75 56.94 201.86 59.67 201.44C61.28 201.16 62.89 201.44 64.5 201.65C67.23 202.07 69.96 202.49 72.55 203.54C75.14 204.52 77.52 206.2 78.99 208.51C81.16 212.01 82.98 215.79 84.1 219.78C81.44 215.79 69.54 210.96 69.54 210.96L60.79 210.61L53.72 211.8L49.52 212.71C48.54 212.92 47.56 213.06 46.58 213.2C45.46 213.41 43.99 213.9 42.87 213.76Z" fill="#568336"/>
<path d="M84.17 219.71C83.89 219.29 83.82 218.59 83.61 218.17C83.12 216.98 82.49 216.07 81.79 215.09C80.11 212.92 78.57 210.82 76.4 209.14C75.56 208.51 74.72 207.95 73.74 207.53C72.9 207.18 72.06 206.97 71.22 206.69C68.7 205.99 66.11 205.29 63.45 205.43C62.47 205.5 61.56 205.64 60.58 205.71C59.81 205.78 59.04 205.71 58.27 205.78C56.87 205.92 55.47 206.41 54.14 206.9C52.81 207.39 51.48 207.88 50.22 208.37C49.38 208.65 48.54 209 47.84 209.56C46.09 210.89 44.69 212.57 42.87 213.9C43.29 213.62 44.9 213.69 45.46 213.55C46.58 213.34 47.63 213.2 48.75 213.06C50.99 212.85 53.3 212.85 55.54 213.41C56.31 213.62 57.01 213.83 57.78 213.97C58.76 214.11 59.67 213.9 60.65 213.83C64.64 213.27 68.7 213.27 72.62 214.04C74.79 214.46 76.89 215.09 78.85 216.07C80.6 216.77 83.05 217.96 84.17 219.71Z" fill="#699D46"/>
<path d="M111.47 172.32C111.47 172.46 111.47 172.6 111.47 172.74V173.02C111.33 174.63 111.12 176.1 110.7 177.64C110.42 178.62 110.35 179.74 110.28 180.79C109.44 184.36 108.04 188.35 105.73 192.13C104.19 193.74 102.51 195.14 101.11 196.89C100.55 197.59 100.06 198.36 99.5 199.06C98.66 200.11 97.82 200.95 96.84 201.65C95.44 202.63 93.9 203.47 92.15 204.24C91.94 204.38 91.66 204.45 91.45 204.59C91.8 204.45 91.17 200.81 91.17 200.39C91.1 198.92 91.1 197.38 91.38 195.91C91.59 194.93 91.87 194.02 92.15 193.11C92.85 190.38 92.85 187.37 94.32 184.99C95.3 183.45 96.84 182.26 97.82 180.72C98.1 180.3 98.31 179.81 98.59 179.39C99.01 178.76 99.57 178.2 100.13 177.71C100.62 177.29 101.04 176.87 101.53 176.45C102.16 175.96 103 175.61 103.7 175.19C104.4 174.7 105.1 174.21 105.73 173.65C106.15 173.23 106.57 172.81 106.99 172.46C107.69 171.9 108.46 171.48 109.3 171.13C109.65 170.99 110 170.78 110.28 170.57C110.63 170.36 111.33 170.15 111.61 169.8C111.26 170.15 111.54 171.9 111.47 172.32Z" fill="#4B742A"/>
<path d="M88.51 231.89C88.72 231.89 88.93 231.89 89.14 231.89C89.14 230.49 89.21 229.09 89.21 227.76C89.35 221.88 89.56 216.84 89.84 213.97C91.17 200.32 100.13 186.81 109.3 174.14L108.81 173.79C99.64 186.53 90.61 200.11 89.28 213.9C89 216.77 88.79 221.88 88.65 227.76C88.51 229.09 88.51 230.49 88.51 231.89Z" fill="#90CC6A"/>
<path d="M111.47 172.32C111.47 172.46 111.47 172.6 111.47 172.74V173.02C111.33 174.63 111.12 176.1 110.7 177.64C110.42 178.62 110.35 179.74 110.28 180.79C110.21 181.84 110.21 182.82 110 183.8C109.65 185.83 108.95 187.79 107.9 189.47C107.27 190.45 106.57 191.29 105.73 192.13C104.19 193.74 102.51 195.14 101.11 196.89C100.55 197.59 100.06 198.36 99.5 199.06C98.66 200.11 97.82 200.95 96.84 201.65C95.44 202.7 93.83 203.54 92.15 204.24C91.94 204.38 91.66 204.45 91.45 204.59C95.09 192.27 111.68 169.73 111.68 169.73C111.26 170.15 111.54 171.9 111.47 172.32Z" fill="#699D46"/>
<path d="M82.21 195.35C57.43 185.06 58.48 154.47 58.48 154.47C60.23 155.45 61.7 156.78 63.45 157.69C65.27 158.6 67.23 159.37 68.63 160.84C69.26 161.54 69.75 162.31 70.38 163.08C72.41 165.53 75.56 167 77.31 169.66C78.78 171.9 79.06 174.63 80.11 177.01C80.6 178.13 81.3 179.18 81.65 180.3C82 181.49 82.07 182.75 82.14 184.01C82.28 187.79 82.21 191.57 82.21 195.35Z" fill="#4B742A"/>
<path d="M67.23 169.24C75 180.09 82.7 191.57 83.82 203.33C84.17 206.83 84.38 213.69 84.45 220.69C84.52 223.07 84.52 225.52 84.52 227.83C84.52 229.3 84.52 230.63 84.52 231.96C84.66 231.96 84.87 231.96 85.01 231.96C85.01 230.63 85.01 229.23 84.94 227.83C84.94 226.57 84.94 225.31 84.87 224.05C84.8 216 84.59 207.39 84.17 203.33C83.05 191.5 75.28 179.88 67.44 169.03C67.37 168.89 67.16 168.89 67.09 168.96C67.16 168.96 67.16 169.1 67.23 169.24Z" fill="#90CC6A"/>
<path d="M82.21 195.35C81.3 194.93 80.32 194.65 79.34 194.23C78.43 193.88 77.8 193.11 76.96 192.62C75.98 191.99 74.79 191.64 73.81 191.08C72.83 190.45 72.06 189.61 71.29 188.77C70.24 187.58 69.12 186.46 68.07 185.27C67.16 184.29 66.32 183.38 65.62 182.26C64.85 181.07 64.08 179.6 63.73 178.13C63.38 176.73 62.75 175.61 62.19 174.35C61.42 172.67 61.07 170.99 60.72 169.17C60.51 168.33 60.37 167.42 60.09 166.58C59.88 165.81 59.6 165.11 59.32 164.34C58.69 162.45 58.2 160.42 58.41 158.39C58.55 157.34 59.25 155.38 58.55 154.4C58.55 154.54 77.94 180.86 82.21 195.35Z" fill="#699D46"/>
<path d="M86.55 229.86H104.33L100.06 250.63H86.55H72.97L68.7 229.86H86.55Z" fill="white"/>
<path d="M113.36 -0.160004H111.19V41.84H113.36V-0.160004Z" fill="#CFD5EE"/>
<path d="M104.89 51.22L120.15 51.36C119.03 54.51 116.02 56.75 112.45 56.75C108.88 56.75 105.94 54.44 104.89 51.22Z" fill="white"/>
<path d="M126.66 51.99L98.03 51.85C97.05 51.85 96.35 50.8 96.84 49.89C99.71 44.15 105.59 40.23 112.45 40.23C119.24 40.23 125.12 44.22 127.92 49.96C128.27 50.94 127.64 51.99 126.66 51.99Z" fill="#CFD5EE"/>
<path opacity="0.3" d="M97.75 52.27L0.0299988 222.37L224.03 222.79L126.31 50.52L97.75 52.27Z" fill="url(#paint0_linear_4_2557)"/>
<path d="M69.5663 251.887L251.566 251.887L251.566 232.987L69.5663 232.987L69.5663 251.887Z" fill="#ABB6D8"/>
<path d="M250.337 319.779L252.787 319.779L252.787 229.619L250.337 229.619L250.337 319.779Z" fill="#534E7A"/>
<path d="M68.3458 319.779L70.7958 319.779L70.7958 229.619L68.3458 229.619L68.3458 319.779Z" fill="#534E7A"/>
<path d="M63.94 235.6C66.46 237.77 73.67 236.37 76.96 236.37C86.97 236.37 97.05 236.37 107.06 236.37C130.51 236.37 153.96 236.37 177.41 236.37C197.99 236.37 218.64 236.37 239.22 236.37C244.68 236.37 258.68 238.61 260.92 232.24C261.9 229.51 259.8 226.43 257.07 225.24C254.34 224.05 251.33 224.33 248.39 224.54C221.93 226.43 195.4 224.4 168.94 223.28C145.98 222.3 122.95 222.02 99.99 221.74C90.96 221.6 81.79 221.53 72.9 223.28C69.61 223.91 66.11 224.96 63.94 227.62C62.33 229.65 61.7 233.71 63.94 235.6Z" fill="#F1C8B9"/>
<path d="M115.11 202.35C110.49 207.39 106.99 213.48 104.96 219.99C104.33 221.88 104.89 224.89 105.45 226.78C106.71 231.05 108.81 234.06 112.8 234.97C114.62 235.39 116.51 235.32 118.4 235.25C122.95 235.11 129.88 229.86 134.85 229.86C142.13 229.86 147.45 235.11 154.03 234.2C156.69 233.85 157.32 231.96 159 229.72C161.1 227.06 162.57 222.16 161.8 218.8C159.84 210.82 149.13 205.71 148.08 199.2" fill="#191C26"/>
<path d="M141.5 119.96C141.5 119.96 142.69 128.43 139.33 130.18C136.67 131.58 138 121.5 138 121.5" fill="#191C26"/>
<path d="M121.34 147.54C121.34 147.54 123.58 149.71 124.49 151.74C128.69 152.65 131 152.79 133.94 151.88C135.62 151.39 138.84 149.29 139.12 147.96C138.49 146.77 136.32 146.49 135.41 146.14C135.13 146.07 134.71 146.07 134.57 145.93C134.43 145.86 134.36 145.72 134.29 145.65C134.08 145.02 134.01 144.74 134.01 144.46C134.01 144.18 134.01 143.9 134.01 143.41C133.94 142.15 133.94 140.82 133.94 140.82L131.56 139.63L122.04 132.14L122.25 135.01C122.25 135.01 123.3 143.2 122.74 146.84C122.67 147.12 121.55 147.33 121.34 147.54Z" fill="#FE9C70"/>
<path d="M127.15 138.65C127.15 138.65 128.27 142.57 134.01 144.46C134.01 144.18 134.01 143.9 134.01 143.41C133.94 142.15 133.94 140.82 133.94 140.82L131.56 139.63L127.15 138.65Z" fill="#D79580"/>
<path d="M140.52 132.56C140.52 132.7 140.52 132.84 140.52 132.91C140.38 135.22 140.17 138.65 138.7 140.33C137.09 142.22 135.48 142.01 133.03 141.59C131.07 141.31 128.9 140.54 127.08 139.42C125.68 138.58 124.49 137.6 123.65 136.48C122.74 135.29 121.27 135.01 120.64 133.68C118.89 129.69 120.36 126.19 123.3 122.97C126.03 120.03 134.29 116.11 138.28 117.58C140.8 118.63 140.66 128.78 140.52 132.56Z" fill="#FE9C70"/>
<path d="M138.42 122.55C138.35 122.55 138.35 122.62 138.42 122.55C136.18 123.46 133.87 123.88 131.56 123.95C130.72 123.95 129.81 124.16 128.97 124.09C128.48 124.02 127.57 123.6 127.08 123.95C126.52 124.37 126.94 127.03 126.87 127.73C126.8 129.34 126.52 130.95 125.96 132C125.47 132.91 125.54 128.71 123.23 128.29C121.83 128.01 122.88 134.17 122.11 134.59C122.46 136.34 122.88 140.47 122.88 142.71C121.69 143.62 121.62 137.6 120.64 136.48C119.66 135.43 114.34 129.13 113.78 125.63C113.15 121.78 114.76 118.91 118.26 118.42C117.28 116.04 119.24 113.59 121.41 112.68C123.51 111.77 126.66 110.93 130.23 112.68C130.44 112.82 132.19 111.98 132.54 111.91C133.38 111.7 134.22 111.56 135.06 111.49C136.67 111.35 138.42 111.49 139.89 112.19C143.25 113.8 143.39 118.84 140.73 121.29C140.03 121.85 139.19 122.2 138.42 122.55Z" fill="#191C26"/>
<path d="M135.83 128.78C136.25 129.83 136.6 130.88 136.95 131.86C137.02 132 137.02 132.14 137.09 132.21C137.16 132.35 137.23 132.49 137.23 132.63C137.23 132.7 137.3 132.77 137.3 132.91C137.3 133.05 137.23 133.19 137.16 133.26C137.02 133.47 136.81 133.54 136.74 133.54C136.32 133.75 135.83 134.1 135.41 134.45C135.62 133.89 135.97 133.47 136.46 133.05C136.6 132.98 136.67 132.91 136.67 132.84C136.67 132.84 136.67 132.77 136.6 132.7L136.46 132.35C136.39 132.21 136.32 132.07 136.32 131.93C135.9 131.02 135.69 129.9 135.83 128.78Z" fill="#EF8359"/>
<path d="M131.07 128.01C130.93 128.22 131 128.36 131.07 128.57C131.07 128.5 131.07 128.5 131.07 128.43C131.07 128.57 131.07 128.64 131.14 128.78C131.14 128.71 131.14 128.71 131.14 128.64C131.14 128.85 131.14 129.13 131.14 129.34C131.14 129.27 131.14 129.27 131.14 129.2C131.14 129.27 131.14 129.27 131.07 129.34C131.07 129.27 131.07 129.27 131.14 129.2C131.14 129.2 131.14 129.27 131.07 129.27L131.14 129.2C131.14 129.2 131.14 129.2 131.07 129.27L131.14 129.2C131.21 129.2 131.21 129.2 131.28 129.13C131.35 129.13 131.35 129.13 131.42 129.13C131.35 129.13 131.28 129.13 131.21 129.13C131.35 129.13 131.49 129.2 131.63 129.2C131.63 129.2 131.7 129.27 131.63 129.2C131.7 129.27 131.63 129.27 131.63 129.2V129.13C131.63 129.06 131.63 128.99 131.56 128.92C131.56 128.99 131.56 128.99 131.56 129.06C131.56 128.99 131.56 128.92 131.56 128.85C131.56 128.85 131.56 128.78 131.56 128.71C131.56 128.71 131.56 128.78 131.56 128.71V128.64C131.56 128.57 131.56 128.57 131.56 128.5C131.56 128.5 131.56 128.5 131.56 128.43C131.56 128.36 131.56 128.5 131.56 128.43C131.63 128.36 131.63 128.29 131.7 128.22C131.56 128.29 131.42 128.36 131.21 128.43C131.21 128.43 131.14 128.36 131.14 128.43C131.14 128.43 131.07 128.43 131.07 128.36C131 128.29 131 128.29 131 128.29C131.07 128.36 131.07 128.43 131.21 128.5C131.35 128.57 131.63 128.57 131.77 128.36C131.77 128.29 131.84 128.22 131.84 128.15C131.84 128.01 131.77 127.94 131.7 127.8C131.63 127.73 131.49 127.66 131.42 127.66C131.21 127.59 131.07 127.66 130.93 127.87C130.79 128.15 130.72 128.43 130.65 128.78C130.65 129.13 130.72 129.48 130.93 129.76C130.86 129.69 130.86 129.55 130.79 129.48C130.79 129.55 130.79 129.69 130.86 129.76C130.93 129.83 130.93 129.9 131 129.9C131.07 129.97 131.21 129.97 131.28 129.97C131.42 129.97 131.56 129.9 131.7 129.76C131.84 129.62 131.91 129.41 131.98 129.2C131.98 128.99 132.05 128.78 132.05 128.57C132.05 128.43 132.05 128.29 131.98 128.22C131.91 128.01 131.84 127.8 131.7 127.73C131.56 127.66 131.49 127.66 131.35 127.66C131.28 127.8 131.21 127.87 131.07 128.01Z" fill="#191C26"/>
<path d="M137.79 128.43C137.79 128.5 137.79 128.5 137.79 128.57C137.79 128.64 137.79 128.71 137.79 128.78C137.79 128.85 137.79 128.85 137.86 128.92C137.86 128.99 137.86 128.99 137.86 129.06V128.99C137.86 128.99 137.86 128.99 137.86 129.06V129.13C137.86 129.2 137.86 129.2 137.86 129.27C137.86 129.34 137.86 129.34 137.86 129.41V129.48C137.86 129.55 137.86 129.41 137.86 129.48C137.86 129.55 137.86 129.55 137.86 129.62V129.69C137.86 129.76 137.86 129.69 137.86 129.69V129.76C137.86 129.69 137.93 129.69 138 129.69C138.07 129.69 138.14 129.69 138.21 129.76C138.14 129.69 138.28 129.83 138.21 129.76L138.14 129.69C138.21 129.76 138.14 129.76 138.14 129.69V129.62V129.55C138.14 129.55 138.14 129.55 138.14 129.48V129.55V129.41V129.48C138.14 129.34 138.21 129.27 138.21 129.13C138.21 129.13 138.21 129.2 138.14 129.2C138.14 129.13 138.21 129.06 138.28 128.99L138.21 129.06C138.21 128.99 138.28 128.99 138.35 128.92L138.28 128.99C138.21 128.99 138.21 128.99 138.14 129.06C138.14 129.06 138.14 129.06 138.21 129.06C138.14 129.06 138.14 129.06 138.07 129.06C138.07 129.06 138.07 129.06 138.14 129.06C138.07 129.06 138.07 129.06 138 129.06C137.93 129.06 137.93 129.06 137.86 128.99L137.79 128.92C137.79 128.92 137.79 128.92 137.86 128.99L137.79 128.92C137.79 128.92 137.79 128.92 137.79 128.99C137.79 128.92 137.79 128.92 137.72 128.85C137.79 128.99 137.79 129.06 137.79 129.2C137.79 129.13 137.79 129.13 137.79 129.06C137.79 129.2 137.79 129.34 137.79 129.48C137.79 129.41 137.79 129.41 137.79 129.34C137.79 129.41 137.79 129.48 137.72 129.55C137.72 129.48 137.72 129.48 137.79 129.41C137.79 129.41 137.79 129.48 137.72 129.48L137.79 129.41C137.79 129.41 137.79 129.41 137.72 129.48L137.79 129.41C137.86 129.41 137.86 129.41 137.93 129.34C138 129.34 138 129.34 138.07 129.34C138.07 129.34 138.07 129.34 138 129.34C138.07 129.34 138.07 129.34 138.14 129.34C138.21 129.34 138.21 129.34 138.28 129.41L138.35 129.48C138.35 129.48 138.28 129.48 138.28 129.41L138.35 129.48L138.28 129.41C138.28 129.48 138.28 129.48 138.35 129.55C138.35 129.48 138.28 129.41 138.28 129.34C138.28 129.41 138.28 129.41 138.28 129.48C138.28 129.41 138.28 129.34 138.28 129.27C138.28 129.34 138.28 129.34 138.28 129.41C138.28 129.34 138.35 129.2 138.35 129.13C138.35 129.2 138.35 129.2 138.28 129.27C138.28 129.2 138.35 129.2 138.35 129.13C138.42 129.06 138.42 128.99 138.42 128.92C138.49 128.78 138.42 128.57 138.28 128.5C138.14 128.43 137.93 128.36 137.79 128.5C137.72 128.57 137.58 128.64 137.51 128.71C137.44 128.78 137.44 128.85 137.44 128.92C137.37 129.06 137.37 129.2 137.37 129.34C137.37 129.62 137.44 129.97 137.65 130.25C137.86 130.46 138.14 130.53 138.35 130.39C138.49 130.32 138.63 130.11 138.7 129.9C138.77 129.62 138.77 129.27 138.7 128.92C138.63 128.71 138.56 128.5 138.35 128.43C138.14 128.29 137.79 128.36 137.65 128.57C137.51 128.71 137.44 128.85 137.37 128.99C137.3 129.13 137.3 129.27 137.3 129.41C137.3 129.69 137.37 129.9 137.51 130.18C137.58 130.32 137.72 130.46 137.86 130.53C138.07 130.6 138.28 130.46 138.42 130.25C138.56 129.97 138.63 129.62 138.56 129.34C138.56 129.2 138.49 129.06 138.42 128.92C138.35 128.85 138.35 128.78 138.28 128.71C138.21 128.64 138.07 128.64 138 128.64C137.93 128.29 137.86 128.36 137.79 128.43Z" fill="#191C26"/>
<path d="M132.4 125.7C132.12 125.35 131.84 125.14 131.42 125C131 124.86 130.51 124.86 130.09 124.86C129.6 124.86 129.11 124.93 128.69 125C128.27 125.07 127.64 125.21 127.36 125.56C127.22 125.77 127.36 125.98 127.57 125.91C127.99 125.84 128.34 125.63 128.76 125.56C129.18 125.49 129.6 125.42 130.02 125.42C130.37 125.42 130.79 125.42 131.14 125.42C131.49 125.49 131.91 125.56 132.12 125.77C132.26 126.05 132.54 125.84 132.4 125.7Z" fill="#191C26"/>
<path d="M137.3 125.84C137.44 125.77 137.58 125.77 137.72 125.7C137.86 125.63 138 125.56 138.14 125.56C138.42 125.49 138.7 125.42 139.05 125.42C139.33 125.42 139.61 125.49 139.89 125.56C140.03 125.63 140.17 125.7 140.31 125.77C140.45 125.84 140.59 125.91 140.73 125.84C140.8 125.84 140.8 125.77 140.8 125.7C140.8 125.56 140.66 125.42 140.59 125.35C140.45 125.21 140.31 125.14 140.1 125.07C139.75 124.93 139.4 124.86 139.05 124.86C138.7 124.86 138.35 124.86 138 125C137.86 125.07 137.65 125.14 137.51 125.21C137.37 125.28 137.23 125.42 137.09 125.56C137.02 125.7 137.09 125.91 137.3 125.84Z" fill="#191C26"/>
<path d="M124.28 129.2C124.28 129.2 126.24 133.96 129.18 134.17" stroke="white" stroke-width="0.5613" stroke-miterlimit="10"/>
<path d="M122.18 134.45C122.18 134.45 124.21 138.3 127.85 139.63" stroke="white" stroke-width="0.5613" stroke-miterlimit="10"/>
<path d="M140.52 131.72C140.52 133.68 140.45 138.3 138.63 140.33C137.02 142.15 135.41 142.01 132.96 141.59C131 141.31 128.83 140.54 127.01 139.42C127.57 138.23 128.27 136.2 127.85 133.75C127.85 133.75 131.35 133.05 133.66 132.42C135.9 131.79 136.81 131.58 137.72 131.44C138.7 131.44 139.89 131.72 140.52 131.72Z" fill="white"/>
<path d="M124.98 129.97C124.84 129.62 124.56 128.99 123.93 128.5C123.3 128.01 121.48 127.66 120.57 129.55C119.59 131.58 121.97 137.39 124.21 135.08C126.03 133.19 125.54 131.16 124.98 129.97Z" fill="#FE9C70"/>
<path d="M121.76 129.97C121.76 129.97 122.46 128.85 123.58 129.76C124.49 130.46 124.7 133.26 123.58 133.75C122.46 134.31 121.55 132.91 122.25 131.79C122.39 131.58 122.53 131.44 122.74 131.37C123.65 131.09 123.51 130.11 123.09 129.83C122.74 129.69 122.18 129.69 121.76 129.97Z" fill="#FE9C70"/>
<path d="M150.81 291.18C150.46 293.28 148.78 296.15 148.78 296.15L148.92 300.56L151.3 301.61L157.95 295.87C157.95 295.87 158.37 292.51 158.23 292.58L150.81 291.18Z" fill="#FE9C70"/>
<path d="M169.71 308.75C168.66 309.59 163.9 309.8 160.89 309.31C157.81 308.82 154.94 306.72 153.68 306.02C152.42 305.32 147.31 304.83 146.82 304.13C146.54 303.64 146.68 303.15 146.82 302.94C146.89 302.8 146.96 302.73 146.96 302.73C146.82 300.07 148.08 296.08 148.57 295.94C149.06 295.8 149.06 297.55 149.34 298.11C149.62 298.74 150.74 299.58 152.14 298.95C153.61 298.32 154.17 296.36 155.85 296.01C157.53 295.66 158.23 296.01 158.23 296.01C159.98 297.13 162.64 301.05 164.53 302.66C166.42 304.27 169.22 305.46 169.78 305.95C170.27 306.44 170.06 307.56 170.06 307.56C170.06 307.56 170.06 307.56 170.13 307.56C170.13 307.56 170.62 307.98 169.71 308.75Z" fill="#191C26"/>
<path d="M172.44 226.01C172.44 216.35 156.27 210.19 156.27 210.19L141.71 218.8C141.71 218.8 141.08 230.98 146.54 233.08C148.57 233.85 150.18 234.69 151.44 235.53C151.23 236.79 151.16 237.98 151.02 239.24C149.9 251.77 150.18 264.37 151.37 276.9C151.3 279.49 151.3 282.08 151.23 284.32C151.09 288.31 150.25 293.14 150.25 293.14C154.52 295.52 158.09 294.26 158.09 294.26C158.09 294.26 170.27 253.38 170.27 241.69C170.27 241.69 170.27 241.69 170.27 241.62C171.53 235.88 172.51 230.07 172.44 226.01Z" fill="#191C26"/>
<path d="M169.71 308.75C168.66 309.59 163.9 309.8 160.89 309.31C157.81 308.82 154.94 306.72 153.68 306.02C152.42 305.32 147.31 304.83 146.82 304.13C146.54 303.64 146.68 303.15 146.82 302.94C148.22 303.08 149.69 303.43 150.25 303.5C151.09 303.57 151.93 303.57 152.7 303.85C153.33 304.06 153.82 304.55 154.31 304.9C158.37 308.12 163.97 309.17 168.94 307.77C169.29 307.63 169.71 307.56 170.06 307.49C170.13 307.56 170.62 307.98 169.71 308.75Z" fill="white"/>
<path d="M148.22 205.64C149.55 206.55 151.02 207.32 152.35 208.16C153.75 209 155.08 209.84 156.41 210.75C159.07 212.57 161.66 214.6 164.11 216.77C166.35 218.8 168.38 221.11 169.43 223.98C169.85 225.1 169.99 226.08 169.99 227.27C169.92 228.46 169.78 229.65 169.57 230.84C169.36 231.96 169.15 233.08 168.94 234.2C168.73 235.6 168.52 236.93 168.38 238.33C167.89 241.83 167.33 245.26 166.77 248.76C165.58 255.62 164.25 262.48 162.85 269.27C161.38 276.13 159.91 282.99 158.37 289.85C158.16 290.69 158.02 291.53 157.81 292.37C157.74 292.58 158.09 292.72 158.16 292.44C159.7 285.51 161.31 278.51 162.78 271.51C164.25 264.58 165.65 257.65 166.91 250.65C167.54 247.15 168.1 243.65 168.59 240.08C169.01 237.42 169.36 234.69 169.85 232.03C170.06 230.84 170.27 229.58 170.41 228.39C170.55 227.41 170.62 226.43 170.41 225.45C169.85 222.58 168.1 220.06 166.14 217.96C163.97 215.65 161.38 213.69 158.86 211.87C156.2 209.98 153.4 208.16 150.6 206.55C149.9 206.13 149.2 205.78 148.43 205.43C148.22 205.36 148.08 205.57 148.22 205.64Z" fill="#EEF2FA"/>
<path d="M152.98 202.91C153.12 203.4 153.12 203.89 153.19 204.45C153.19 204.73 153.12 207.67 153.05 207.67C147.17 205.64 140.73 205.5 134.78 207.32C131.21 208.44 127.22 208.51 123.58 207.74C121.69 207.32 119.87 206.69 118.19 205.85C117.63 205.57 113.5 203.54 113.57 202.84C114.06 200.11 114.83 197.45 115.6 194.86C116.16 192.9 116.65 190.87 117 188.91C119.1 177.57 118.33 166.79 118.54 161.82C119.17 150.48 121.55 147.33 121.62 147.26L122.81 147.75C127.43 149.71 132.68 149.29 136.88 146.56C136.88 146.56 137.44 147.19 138.35 149.29C138.63 149.99 138.91 150.76 139.26 151.74C139.96 153.91 140.8 156.85 141.64 160.84C143.67 170.22 145.07 185.55 146.68 190.1C147.8 193.18 149.41 196.12 150.95 198.99C151.44 199.9 152.07 200.81 152.56 201.72C152.77 202.21 152.91 202.56 152.98 202.91Z" fill="white"/>
<path d="M118.54 161.82C118.19 167.63 119.38 181.49 115.6 194.79C115.11 196.47 114.76 197.8 114.41 198.92C113.64 201.37 113.15 202.63 112.8 203.19C112.24 203.47 111.75 203.68 111.26 203.96C110.49 204.38 108.67 205.99 107.83 205.57C107.55 205.43 107.41 205.22 107.2 204.94C106.29 203.61 106.85 202.14 107.06 200.67C107.13 200.25 107.2 199.76 107.27 199.27C107.48 197.87 107.69 196.33 107.9 194.72C108.6 189.05 109.23 182.4 109.02 176.73C108.74 169.66 107.2 164.76 106.01 161.4C105.03 158.67 104.33 156.85 104.75 155.66C104.82 155.52 104.96 155.31 105.1 155.1C106.22 153.91 109.51 152.23 113.08 150.69C116.23 149.29 119.52 148.03 121.62 147.19C121.55 147.4 119.17 150.48 118.54 161.82Z" fill="#7A86DE"/>
<path d="M154.52 203.54C154.66 205.57 154.38 207.53 152.56 208.79C151.58 208.37 150.81 207.53 150.32 206.62C149.76 205.71 149.48 204.66 149.2 203.61C148.43 201.02 148.22 198.29 147.73 195.63C146.68 190.1 145.49 184.64 144.65 179.11C143.74 173.09 142.97 166.93 141.71 160.98C140.45 155.1 139.26 151.53 138.35 149.43C137.51 147.4 136.95 146.7 136.88 146.7C138.42 147.26 141.15 148.31 143.95 149.57C147.66 151.18 151.51 153.07 153.05 154.68C153.26 154.89 153.47 155.17 153.68 155.38C154.73 156.85 154.38 158.39 153.68 160.28C152.91 162.45 151.65 165.11 151.44 168.89C151.37 170.22 151.37 172.04 151.51 174.21C151.65 176.66 151.86 179.6 152.14 182.54C152.42 185.48 152.7 188.49 152.98 191.29C153.12 192.62 153.26 193.88 153.4 195.07C153.4 195.35 153.47 195.56 153.47 195.84C153.61 197.03 153.75 198.15 153.82 199.13C153.96 200.39 154.38 202 154.52 203.54Z" fill="#7A86DE"/>
<path d="M160.12 206.76C160.12 206.76 160.89 211.66 157.11 216.77C156.2 219.57 156.9 221.53 154.24 223.07C153.54 224.54 153.19 225.8 152.21 225.31C151.3 226.29 150.39 227.06 149.83 224.89C148.85 225.87 147.38 224.4 147.8 217.12C147.8 214.04 149.41 211.03 154.73 205.5C158.02 204.38 160.12 206.76 160.12 206.76Z" fill="#FE9C70"/>
<path d="M148.08 214.95C148.08 214.95 145.28 217.68 146.12 218.66C146.82 219.01 147.66 218.17 147.66 218.17C147.66 218.17 154.31 212.15 148.08 214.95Z" fill="#FE9C70"/>
<path d="M149.83 224.96C149.41 223.77 149.2 222.58 149.13 221.32C149.06 220.69 149.06 220.06 149.13 219.5C149.2 218.87 149.2 218.24 149.48 217.68C149.48 218.31 149.62 218.87 149.69 219.5C149.76 220.13 149.83 220.69 149.9 221.32C149.97 222.51 149.97 223.7 149.83 224.96Z" fill="#EF8054"/>
<path d="M152.21 225.31C151.79 224.05 151.65 222.79 151.58 221.53C151.58 220.9 151.51 220.27 151.58 219.57C151.65 218.94 151.72 218.24 151.93 217.68L152.14 219.57C152.21 220.2 152.28 220.83 152.28 221.46C152.35 222.79 152.35 224.05 152.21 225.31Z" fill="#EF8054"/>
<path d="M154.24 223.07C154.03 222.51 153.96 221.95 153.89 221.46C153.82 220.9 153.82 220.34 153.82 219.78C153.89 219.22 153.96 218.66 154.1 218.1C154.24 217.54 154.45 216.98 154.8 216.56C154.73 217.12 154.66 217.68 154.66 218.17L154.59 219.78C154.52 220.9 154.45 221.95 154.24 223.07Z" fill="#EF8054"/>
<path d="M162.43 201.65C162.43 201.79 162.36 201.93 162.36 202.07C160.61 209.07 159.77 211.31 159.77 211.31C158.58 211.31 152.07 208.51 152.07 208.51L152.7 201.93L152.84 200.39L153.4 195L154.17 187.09C154.17 187.09 153.33 185.13 152.14 182.4C149.62 176.87 145.49 167.98 143.18 165.39L151.65 157.2L153.75 155.17C158.65 161.4 163.62 172.88 164.67 184.78C165.02 189.54 163.76 196.26 162.43 201.65Z" fill="#7A86DE"/>
<path d="M108.25 206.13C108.25 206.13 110.07 210.4 115.53 212.64C117.63 214.39 118.05 216.28 120.92 216.28C122.18 217.12 123.09 217.96 123.65 217.05C124.84 217.4 125.96 217.54 125.33 215.58C126.59 215.86 127.01 213.97 123.16 208.37C121.62 205.92 118.89 204.31 111.96 202.49C108.74 203.19 108.25 206.13 108.25 206.13Z" fill="#FE9C70"/>
<path d="M121.83 206.76C121.83 206.76 125.4 207.53 125.19 208.79C124.77 209.42 123.72 209.14 123.72 209.14C123.72 209.14 115.53 207.53 121.83 206.76Z" fill="#FE9C70"/>
<path d="M125.33 215.58C124.56 214.67 124 213.69 123.51 212.71C123.23 212.22 123.02 211.66 122.81 211.17C122.6 210.68 122.39 210.12 122.11 209.63C122.6 209.91 122.95 210.47 123.3 210.89C123.65 211.38 123.93 211.87 124.21 212.36C124.7 213.34 125.12 214.39 125.33 215.58Z" fill="#EF8054"/>
<path d="M123.65 217.05C122.88 216.14 122.25 215.09 121.69 214.04C121.41 213.55 121.13 212.99 120.92 212.43L120.15 210.82C120.64 211.17 121.06 211.66 121.41 212.15C121.76 212.64 122.04 213.13 122.39 213.69C122.88 214.74 123.37 215.86 123.65 217.05Z" fill="#EF8054"/>
<path d="M120.92 216.21C120.15 215.44 119.59 214.6 119.03 213.83L118.19 212.57C117.91 212.15 117.63 211.73 117.28 211.38C117.77 211.52 118.26 211.87 118.61 212.22C119.03 212.57 119.31 212.99 119.66 213.41C119.94 213.83 120.22 214.32 120.43 214.74C120.64 215.23 120.85 215.72 120.92 216.21Z" fill="#EF8054"/>
<path d="M115.53 203.54C115.53 203.54 113.92 203.96 112.31 204.8C111.05 205.5 109.79 206.55 109.37 207.95C109.37 207.95 108.74 207.25 107.83 206.06C107.41 205.5 106.92 204.87 106.5 204.17C105.31 202.49 104.05 200.39 103.07 198.29C100.27 191.99 99.29 190.66 99.15 185.83C99.01 180.3 99.43 174.84 100.27 169.38C100.97 164.69 102.02 159.79 104.68 155.8C104.82 155.59 104.89 155.45 105.03 155.24L107.41 158.39L113.71 166.79C114.9 170.78 111.33 187.23 111.33 187.23L113.85 197.03L114.13 198.22L114.27 198.85L115.53 203.54Z" fill="#7A86DE"/>
<path d="M122.11 148.87C122.81 149.43 123.72 149.85 124.56 150.2C126.59 150.97 128.83 151.18 130.93 150.76C132.61 150.48 134.22 149.78 135.76 148.94C135.83 148.94 135.69 148.8 135.62 148.8C133.24 150.2 130.51 151.04 127.71 150.83C126.03 150.69 124.35 150.2 122.88 149.36C122.67 149.15 122.39 148.94 122.11 148.87C122.04 148.73 122.04 148.8 122.11 148.87Z" fill="#DBE3DF"/>
<path d="M145.63 189.12C145.63 189.12 142.76 186.88 138.28 187.72" stroke="#DBE3DF" stroke-width="0.4858" stroke-miterlimit="10"/>
<path d="M138.07 294.96L137.79 292.09L131.42 292.23V296.5L132.61 300.98C132.61 300.98 137.65 301.05 137.72 300.91C137.79 300.84 138.91 295.87 138.91 295.87L138.07 294.96Z" fill="#FE9C70"/>
<path d="M139.96 302.31C139.12 305.67 136.11 305.25 136.6 308.33C136.74 309.31 136.67 309.94 136.46 310.43C136.6 311.48 135.9 311.76 135.9 311.76C130.58 313.79 125.68 311.34 125.54 310.57C125.47 310.08 125.54 310.01 125.61 309.45V309.38C125.54 309.03 125.54 308.61 125.68 308.12C125.96 306.65 128.48 303.92 129.04 301.82C129.6 299.72 130.09 297.76 130.72 296.92C131.35 296.08 133.52 295.66 135.34 296.22C137.16 296.78 137.51 297.9 138.07 297.06C138.63 296.22 138 294.89 138 294.89C138.91 294.68 139.89 297.48 139.75 300.56C139.75 300.63 139.75 300.63 139.75 300.7C139.96 301.19 140.1 301.68 139.96 302.31Z" fill="#191C26"/>
<path d="M137.79 280.89C137.51 275.57 137.09 269.9 136.46 264.58C135.83 259.05 134.99 253.52 134.08 247.99C133.45 244.35 132.75 240.71 131.49 237.28C131.42 237.14 131.35 237 131.35 236.86C130.65 233.36 129.67 229.79 127.85 226.85C125.75 223.42 122.39 220.76 118.68 220.83C117.42 220.83 116.16 221.18 115.25 222.09C114.41 222.93 104.89 223.49 105.17 224.75C107.34 234.62 111.68 243.09 115.25 251.42C118.05 259.19 120.92 267.03 123.79 274.8C126.24 281.31 128.2 288.1 131.07 294.4C132.47 294.33 133.8 294.4 135.2 294.19C135.41 294.19 138.91 293.84 138.91 293.49C138.77 293.42 138.14 288.31 137.79 280.89Z" fill="#191C26"/>
<path d="M139.96 302.31C139.12 305.67 136.11 305.25 136.6 308.33C136.74 309.31 136.67 309.94 136.46 310.43C136.6 311.48 135.9 311.76 135.9 311.76C130.58 313.79 125.68 311.34 125.54 310.57C125.47 310.08 125.54 310.01 125.61 309.45V309.38C126.24 309.73 127.01 309.94 127.71 310.08C129.74 310.43 131.84 310.64 133.87 310.5C135.2 310.36 135.34 310.43 135.34 309.17C135.34 307.49 135.48 305.39 137.02 304.41C137.3 304.27 137.51 304.13 137.79 303.99C138.84 303.29 139.33 301.96 139.75 300.7C139.75 300.77 139.75 300.77 139.75 300.84C139.96 301.19 140.1 301.68 139.96 302.31Z" fill="white"/>
<path d="M116.44 171.27C117.7 171.27 117.7 169.38 116.44 169.38C115.18 169.38 115.18 171.27 116.44 171.27Z" fill="#596BC1"/>
<path d="M116.23 178.55C117.28 178.55 117.28 176.94 116.23 176.94C115.18 176.94 115.18 178.55 116.23 178.55Z" fill="#596BC1"/>
<path d="M105.8 155.24C107.41 156.36 108.67 158.11 109.3 160C109.3 160.14 109.51 160.07 109.44 159.93C109.23 158.88 108.81 157.97 108.18 157.13C107.55 156.29 106.78 155.59 105.94 155.03C105.8 154.96 105.66 155.17 105.8 155.24Z" fill="#596BC1"/>
<path d="M152.14 182.75C152.21 181.91 152.07 181.07 152 180.23C152 179.39 151.93 178.55 151.93 177.71C151.93 176.03 152 174.35 152.07 172.67C152.14 169.59 152.14 166.51 151.58 163.43C151.3 161.82 150.88 160.07 150.04 158.6C149.9 158.39 149.62 158.53 149.69 158.74C149.9 159.44 150.25 160.14 150.46 160.84C150.67 161.54 150.88 162.24 151.02 162.94C151.3 164.41 151.51 165.95 151.58 167.49C151.72 170.71 151.51 173.93 151.51 177.15C151.51 178.06 151.51 178.97 151.58 179.88C151.65 180.79 151.58 181.7 151.86 182.54C152 182.89 152.14 182.89 152.14 182.75Z" fill="#596BC1"/>
<path d="M110.84 186.74C109.23 185.76 107.34 185.13 105.45 185.27C105.24 185.27 105.17 185.55 105.38 185.62C106.29 185.76 107.2 185.9 108.04 186.11C108.95 186.32 109.79 186.67 110.7 187.02C110.91 187.09 111.05 186.88 110.84 186.74Z" fill="#596BC1"/>
<path d="M110.7 185.76C110.35 184.85 110 183.94 109.37 183.17C108.81 182.54 107.97 181.98 107.13 181.98C107.06 181.98 106.92 182.05 106.92 182.19C106.92 182.75 107.13 183.24 107.48 183.66C107.83 184.08 108.32 184.43 108.88 184.43C108.95 184.43 109.02 184.29 108.95 184.22C108.53 184.01 108.11 183.8 107.83 183.45C107.55 183.1 107.34 182.61 107.34 182.12C107.27 182.19 107.2 182.26 107.13 182.33C109.02 182.47 109.86 184.36 110.49 185.83C110.56 185.97 110.77 185.9 110.7 185.76Z" fill="#596BC1"/>
<path d="M146.19 182.89C146.4 182.82 146.54 182.75 146.68 182.68C146.82 182.61 147.03 182.54 147.17 182.47C147.31 182.4 147.52 182.33 147.66 182.26C147.73 182.19 147.8 182.19 147.87 182.12C147.94 182.12 147.94 182.05 148.01 182.05C148.08 182.05 148.08 181.98 148.08 181.98C148.15 181.91 148.08 181.84 148.01 181.84C147.94 181.84 147.87 181.84 147.73 181.84C147.66 181.84 147.52 181.84 147.45 181.91C147.31 181.98 147.1 182.05 146.96 182.12C146.82 182.19 146.61 182.26 146.47 182.33C146.33 182.4 146.12 182.47 145.98 182.61C145.84 182.61 145.98 182.96 146.19 182.89Z" fill="#596BC1"/>
<path d="M144.37 172.6C144.44 172.6 144.44 172.6 144.51 172.6C144.58 172.6 144.58 172.6 144.65 172.6C144.72 172.6 144.72 172.6 144.79 172.6H144.86C144.93 172.6 145 172.53 145 172.46C144.93 172.46 144.93 172.53 144.86 172.53C144.93 172.53 144.93 172.53 145 172.53C145.07 172.53 145.14 172.46 145.14 172.39C145.14 172.32 145.07 172.25 145 172.25C144.93 172.25 144.93 172.25 144.86 172.25C144.93 172.25 144.93 172.32 145 172.32C145 172.25 144.93 172.25 144.86 172.18H144.79C144.72 172.18 144.72 172.18 144.65 172.18C144.58 172.18 144.58 172.18 144.51 172.18C144.44 172.18 144.37 172.18 144.37 172.18C144.37 172.18 144.37 172.18 144.3 172.18C144.3 172.18 144.23 172.18 144.23 172.25C144.23 172.25 144.16 172.32 144.16 172.39V172.46C144.23 172.53 144.3 172.6 144.37 172.6Z" fill="#596BC1"/>
<path d="M152.14 208.51C152.42 206.06 152.63 203.61 152.84 201.16C152.98 199.9 153.12 198.57 153.33 197.31C153.47 196.19 153.75 195 153.82 193.88C153.82 193.74 153.61 193.67 153.54 193.81C153.19 194.93 153.05 196.12 152.91 197.31C152.77 198.57 152.63 199.83 152.49 201.09C152.21 203.54 152.07 205.99 152 208.51C151.93 208.65 152.14 208.65 152.14 208.51Z" fill="#596BC1"/>
<path d="M154.31 187.44C154.94 186.81 155.43 186.04 156.06 185.34C156.48 184.85 157.18 184.22 157.88 184.36C157.81 184.29 157.81 184.29 157.74 184.22C157.74 184.36 157.53 184.57 157.39 184.57C157.25 184.57 157.32 184.71 157.39 184.78C157.6 184.85 157.74 184.85 157.95 184.64C158.09 184.5 158.16 184.29 158.09 184.08C158.09 184.01 158.02 183.94 157.95 183.94C157.11 183.73 156.41 184.29 155.85 184.85C155.57 185.2 155.29 185.55 155.01 185.97C154.66 186.39 154.31 186.81 154.1 187.3C154.03 187.44 154.24 187.58 154.31 187.44Z" fill="#596BC1"/>
<path d="M154.31 187.86C154.8 187.51 155.43 187.23 155.99 187.16C156.27 187.09 156.62 187.09 156.9 187.16C157.04 187.16 157.18 187.23 157.39 187.23C157.53 187.23 157.67 187.3 157.88 187.3C158.02 187.3 158.09 187.16 157.95 187.09C157.67 186.88 157.32 186.81 157.04 186.74C156.69 186.67 156.34 186.74 155.99 186.74C155.29 186.88 154.66 187.16 154.17 187.65C154.03 187.72 154.17 188 154.31 187.86Z" fill="#596BC1"/>
<path d="M152.98 154.68H152.91C152.91 154.68 152.91 154.68 152.98 154.68C152.98 154.68 152.91 154.61 152.84 154.61H152.77C152.7 154.61 152.7 154.61 152.63 154.61C152.56 154.61 152.56 154.61 152.49 154.61C152.42 154.61 152.35 154.61 152.28 154.68C152.14 154.75 152.14 154.89 152.28 154.96C152.35 154.96 152.42 154.96 152.49 155.03C152.56 155.03 152.56 155.03 152.63 155.03C152.7 155.03 152.7 155.03 152.77 155.03H152.84C152.91 155.03 152.98 154.96 153.05 154.96L152.98 155.03H153.05C153.05 154.89 153.05 154.68 152.98 154.68Z" fill="#596BC1"/>
<path d="M106.29 154.96C106.64 154.96 106.99 155.1 107.27 155.24C107.41 155.31 107.55 155.45 107.69 155.52C107.83 155.66 107.9 155.8 108.04 155.94C108.18 156.01 108.32 155.94 108.32 155.8C108.25 155.59 108.11 155.45 107.97 155.31C107.83 155.17 107.69 155.03 107.48 154.96C107.13 154.75 106.71 154.68 106.29 154.68C106.01 154.61 106.01 154.89 106.29 154.96Z" fill="#596BC1"/>
<path d="M115.67 203.54C115.04 201.09 114.48 198.64 113.85 196.19C113.22 193.74 112.24 191.29 111.96 188.77C111.33 183.87 112.87 179.04 113.85 174.28C114.34 171.69 114.83 168.89 114.41 166.3C114.41 166.09 114.06 166.16 114.06 166.37C114.13 167.56 114.13 168.82 113.99 170.01C113.85 171.27 113.71 172.53 113.43 173.72C112.94 176.17 112.38 178.55 111.89 181C111.47 183.31 111.19 185.69 111.33 188C111.54 190.59 112.38 192.97 113.15 195.42C113.92 198.15 114.41 200.95 115.46 203.61C115.46 203.75 115.74 203.68 115.67 203.54Z" fill="#596BC1"/>
<path d="M127.99 227.48C128.27 228.11 128.55 228.74 128.83 229.37C128.97 229.72 129.11 230 129.25 230.35C129.39 230.63 129.53 230.98 129.74 231.26C129.81 231.33 129.95 231.33 129.88 231.19C129.81 230.84 129.67 230.49 129.53 230.21C129.39 229.86 129.25 229.58 129.11 229.23C128.83 228.6 128.55 227.97 128.2 227.34C128.2 227.2 127.92 227.34 127.99 227.48Z" fill="#3F3F3F"/>
<path d="M151.72 236.02C151.79 235.67 151.86 235.32 151.93 234.9C152 234.55 152.07 234.2 152.14 233.85C152.21 233.5 152.28 233.15 152.42 232.8C152.49 232.45 152.7 232.1 152.7 231.75C152.7 231.61 152.49 231.54 152.42 231.61C152.21 231.89 152.14 232.24 152 232.59C151.86 232.94 151.79 233.36 151.72 233.71C151.58 234.41 151.37 235.18 151.44 235.95C151.37 236.16 151.65 236.23 151.72 236.02Z" fill="#3F3F3F"/>
<path d="M112.38 211.94C111.05 214.32 109.72 216.77 109.09 219.43C108.81 220.69 108.6 222.09 108.67 223.42C108.74 224.82 109.02 226.22 109.44 227.55C110.21 230.21 111.33 232.87 112.24 235.46C113.22 238.05 114.13 240.64 115.11 243.23C117.07 248.55 119.1 253.94 121.06 259.26C123.02 264.65 124.98 270.11 126.8 275.57C128.62 280.82 130.37 286.14 131.98 291.46C132.19 292.09 132.4 292.72 132.54 293.35C132.61 293.56 132.96 293.49 132.89 293.28C131.35 288.03 129.67 282.78 127.92 277.6C126.1 272.21 124.21 266.89 122.32 261.57C120.43 256.25 118.47 251 116.51 245.68C114.62 240.57 112.66 235.39 110.77 230.28C109.79 227.55 108.81 224.75 108.95 221.81C109.09 219.01 110.28 216.35 111.54 213.9C111.82 213.27 112.17 212.71 112.52 212.08C112.59 211.94 112.45 211.8 112.38 211.94Z" fill="#EEF2FA"/>
<path d="M149.34 168.96C149.48 169.66 149.41 170.5 149.06 171.06C148.99 171.2 148.92 171.27 148.85 171.41L148.78 171.48C148.78 171.48 148.85 171.41 148.78 171.48L148.71 171.55C148.71 171.55 148.57 171.62 148.64 171.55C148.57 171.55 148.5 171.62 148.43 171.62C148.57 171.62 148.36 171.62 148.29 171.62C148.22 171.62 148.36 171.62 148.29 171.62C148.22 171.62 148.22 171.62 148.15 171.62H148.08C147.94 171.62 148.15 171.69 148.01 171.62C147.94 171.55 147.87 171.55 147.8 171.48L147.73 171.41C147.8 171.48 147.73 171.41 147.73 171.41C147.66 171.34 147.59 171.27 147.52 171.2C147.52 171.2 147.45 171.06 147.45 171.13C147.45 171.06 147.38 171.06 147.38 170.99C147.31 170.92 147.31 170.85 147.24 170.71C147.24 170.71 147.1 170.5 147.17 170.57C147.1 170.36 147.03 170.15 147.03 169.94C147.03 169.8 147.03 170.08 147.03 169.87C147.03 169.8 147.03 169.8 147.03 169.73C147.03 169.66 147.03 169.52 147.03 169.45C147.03 169.38 147.03 169.24 147.03 169.17C147.03 169.03 147.03 169.24 147.03 169.17C147.03 169.1 147.03 169.03 147.1 168.96C147.17 168.82 147.17 168.61 147.24 168.47C147.17 168.61 147.24 168.4 147.31 168.4C147.31 168.33 147.45 168.12 147.38 168.26C147.45 168.19 147.52 168.12 147.52 168.12C147.59 168.05 147.38 168.19 147.52 168.12C147.52 168.12 147.59 168.12 147.59 168.05C147.66 168.05 147.66 168.05 147.59 168.05H147.66C147.73 167.98 147.66 168.05 147.66 168.05C147.73 168.05 147.73 168.05 147.8 168.05C147.94 168.05 147.8 168.05 147.8 168.05C147.87 168.05 147.87 168.05 147.94 168.05H148.01C148.08 168.05 147.87 167.98 148.01 168.05C148.08 168.12 148.15 168.12 148.22 168.19C148.29 168.26 148.22 168.19 148.22 168.19C148.29 168.26 148.29 168.26 148.36 168.33C148.85 168.82 149.06 169.52 148.85 170.22C148.85 170.29 148.78 170.43 148.78 170.36C148.71 170.43 148.71 170.5 148.64 170.64L148.57 170.71C148.5 170.78 148.64 170.64 148.5 170.78L148.43 170.85C148.36 170.92 148.5 170.85 148.36 170.92C148.29 170.92 148.15 170.99 148.29 170.99H148.22C148.29 170.99 148.29 170.99 148.22 170.99C148.22 170.99 148.08 170.99 148.15 170.99C148.22 170.99 148.15 170.99 148.08 170.99C148.08 170.99 147.94 170.92 147.87 170.92C147.8 170.92 147.73 170.78 147.73 170.78C147.73 170.78 147.59 170.57 147.66 170.64C147.59 170.57 147.59 170.43 147.59 170.36C147.59 170.36 147.59 170.22 147.59 170.29C147.59 170.36 147.59 170.15 147.59 170.15C147.59 170.08 147.59 169.94 147.59 169.87C147.59 170.01 147.59 169.8 147.59 169.73C147.59 169.66 147.59 169.66 147.59 169.59C147.59 169.73 147.59 169.59 147.59 169.59C147.59 169.59 147.66 169.45 147.59 169.52C147.52 169.59 147.73 169.38 147.66 169.45C147.59 169.52 147.73 169.45 147.66 169.45C147.52 169.45 147.8 169.45 147.73 169.45C147.66 169.45 147.73 169.45 147.8 169.45C147.87 169.45 147.87 169.45 147.8 169.45H147.87C147.94 169.52 147.8 169.38 147.87 169.45C147.87 169.45 147.94 169.45 147.94 169.52C147.87 169.52 147.87 169.52 147.94 169.52C148.01 169.59 148.08 169.59 148.08 169.73C148.15 169.8 148.15 169.87 148.15 169.94C148.15 169.94 148.15 170.08 148.15 170.01C148.15 169.94 148.15 170.01 148.15 170.01C148.15 169.94 148.15 169.94 148.15 170.01C148.08 170.08 148.22 170.01 148.15 170.01C148.15 170.01 148.08 170.01 148.08 170.08C148.01 170.15 148.15 170.08 148.08 170.08C148.01 170.08 148.01 170.08 147.94 170.15C147.87 170.15 148.01 170.15 147.94 170.15C147.87 170.15 147.87 170.15 147.8 170.15C147.8 170.15 147.66 170.15 147.73 170.15C147.8 170.15 147.8 170.15 147.73 170.15H147.8C147.8 170.15 147.8 170.22 147.87 170.22C147.87 170.22 147.87 170.22 147.87 170.29C147.87 170.22 147.87 170.22 147.87 170.22C147.87 170.29 147.87 170.15 147.87 170.22C147.87 170.29 147.94 170.08 147.94 170.15C147.87 170.22 148.01 170.08 147.94 170.15C147.94 170.15 147.87 170.15 147.87 170.22C147.94 170.22 147.94 170.22 147.87 170.22C147.8 170.22 147.94 170.22 147.87 170.22H147.8C147.87 170.22 147.87 170.22 147.8 170.22C147.8 170.15 147.87 170.29 147.8 170.22C147.73 170.15 147.8 170.29 147.8 170.22V170.15C147.87 169.94 148.36 170.01 148.43 170.15C148.43 170.22 148.5 170.36 148.5 170.43C148.5 170.29 148.5 170.22 148.57 170.15C148.85 169.73 148.36 169.24 147.94 169.38C147.73 169.45 147.59 169.45 147.38 169.52C147.1 169.59 146.96 169.87 147.03 170.15C147.1 170.43 147.38 170.57 147.66 170.5C147.87 170.5 148.01 170.43 148.22 170.43C148.08 170.15 147.87 169.8 147.73 169.52C147.45 169.8 147.31 170.29 147.45 170.71C147.59 171.13 148.01 171.27 148.43 171.13C149.2 170.78 149.13 169.66 148.43 169.24C147.73 168.89 146.96 169.31 146.75 170.01C146.61 170.43 146.75 170.85 147.03 171.13C147.24 171.41 147.66 171.48 147.94 171.48C148.57 171.41 149.2 171.13 149.34 170.5C149.55 169.8 149.13 168.89 148.43 168.61C147.73 168.26 146.96 168.47 146.61 169.1C146.26 169.66 146.26 170.43 146.47 170.99C146.68 171.62 147.24 172.25 147.94 172.39C148.64 172.53 149.2 172.18 149.62 171.62C150.39 170.5 150.18 168.96 149.41 167.91C149.06 167.42 148.5 167.14 147.87 167.07C147.31 167 146.75 167.28 146.4 167.7C145.56 168.75 145.56 170.22 146.12 171.41C146.61 172.39 147.87 173.37 148.99 172.88C150.11 172.46 150.6 171.06 150.46 169.94C150.46 169.59 150.39 169.31 150.25 168.96C149.97 168.26 149.27 168.47 149.34 168.96Z" fill="#2E2F44"/>
<path d="M161.8 169.94C159.98 168.47 155.57 165.67 154.1 165.6C152.91 165.53 151.79 166.02 150.81 166.58C149.9 167.14 148.78 167.77 148.29 168.68C148.22 168.82 148.15 168.96 148.29 169.1C148.36 169.17 148.5 169.17 148.64 169.17C149.48 169.1 150.25 168.82 151.02 168.68C152.7 168.26 154.45 168.12 156.2 168.26" fill="#FE9C70"/>
<path d="M155.5 168.89C151.02 168.19 151.16 169.59 151.02 170.29C150.88 170.99 151.51 171.76 152.07 172.04C151.86 173.23 152.07 173.51 153.05 174.21C152.56 175.61 154.66 176.03 155.85 176.17C156.34 176.24 157.32 176.1 157.74 175.89C158.16 175.68 158.23 175.33 158.09 174.91C159 175.96 161.38 176.1 162.29 175.05C162.43 174.84 162.64 174.63 162.85 174.56C163.06 174.49 163.34 173.93 163.55 174C164.6 174.21 164.53 173.65 165.65 173.86" fill="#FE9C70"/>
<g opacity="0.2">
<path d="M152.77 172.18C153.61 172.32 154.45 172.39 155.29 172.32C155.64 172.32 155.99 172.25 156.2 171.97C156.41 171.76 156.55 171.48 156.41 171.2C156.41 171.13 156.34 171.2 156.34 171.2C156.34 171.97 155.5 172.04 154.94 172.04C154.24 172.11 153.54 172.11 152.84 171.97C152.7 172.11 152.7 172.18 152.77 172.18Z" fill="#49161A"/>
</g>
<g opacity="0.2">
<path d="M153.47 174.42C154.38 174.7 155.5 174.63 156.34 174.14C156.69 173.93 156.97 173.65 157.04 173.23C157.11 172.88 156.97 172.53 156.69 172.32C156.62 172.32 156.55 172.39 156.62 172.39C156.9 172.6 156.97 172.95 156.83 173.23C156.69 173.58 156.41 173.86 156.06 174C155.29 174.35 154.38 174.42 153.54 174.21C153.4 174.28 153.4 174.42 153.47 174.42Z" fill="#49161A"/>
</g>
<g opacity="0.2">
<path d="M157.04 174C157.32 174.07 157.46 174.21 157.67 174.35L157.74 174.42C157.74 174.42 157.74 174.42 157.74 174.49C157.81 174.56 157.81 174.63 157.81 174.63C157.81 174.63 157.81 174.63 157.81 174.7V174.77C157.81 174.77 157.81 174.77 157.81 174.84C157.81 174.84 157.81 174.84 157.81 174.91C157.81 174.98 157.81 174.98 157.81 174.91C157.81 174.91 157.81 174.91 157.81 174.98C157.81 175.05 157.88 175.05 157.88 175.12C157.95 175.19 158.02 175.19 158.09 175.12C158.09 175.05 158.16 175.05 158.16 174.98C158.16 174.91 158.16 174.91 158.16 174.84C158.16 174.77 158.09 174.7 158.09 174.63C158.02 174.49 157.95 174.35 157.81 174.28C157.6 174.07 157.32 173.93 156.97 173.93C156.97 173.79 156.9 174 157.04 174Z" fill="#49161A"/>
</g>
<path d="M200.44 237.84C200.44 237.84 220.6 241.2 227.74 239.31C234.88 237.42 217.59 212.43 217.59 212.43C217.59 212.43 209.33 211.17 208.49 211.17C207.65 211.17 200.44 238.47 200.44 238.47" fill="white"/>
<path d="M208.7 296.36C209.12 298.67 210.94 301.89 210.94 301.89L210.8 306.79L208.21 307.98L200.79 301.54C200.79 301.54 200.37 297.83 200.51 297.9L208.7 296.36Z" fill="#FE9C70"/>
<path d="M213.25 310.71C212.76 311.55 207.02 312.04 205.62 312.88C204.22 313.65 201 315.96 197.57 316.52C194.14 317.08 188.82 316.87 187.7 315.89C186.58 314.91 187.42 314.49 187.42 314.49C187.42 314.49 187.35 314.14 187.35 313.72C187.35 313.37 187.42 312.95 187.7 312.67C188.26 312.11 191.41 310.78 193.51 309.03C195.61 307.28 198.55 302.87 200.51 301.61C200.51 301.61 201.28 301.26 203.17 301.61C205.06 302.03 205.69 304.2 207.3 304.9C208.91 305.6 210.1 304.69 210.45 303.99C210.8 303.29 210.8 301.4 211.36 301.54C211.92 301.68 213.25 306.09 213.11 309.1C213.11 309.1 213.25 309.24 213.32 309.45C213.46 309.8 213.53 310.22 213.25 310.71Z" fill="#2E2F44"/>
<path d="M217.52 303.29L217.8 300.42L224.24 300.56V304.9L223.05 309.45C223.05 309.45 217.94 309.52 217.87 309.38C217.8 309.31 216.61 304.27 216.61 304.27L217.52 303.29Z" fill="#FE9C70"/>
<path d="M230.12 319.18C230.05 319.6 228.65 320.44 226.55 320.86C226.34 320.93 226.13 320.93 225.92 321C225.71 321.07 225.5 321.07 225.29 321.07C225.08 321.07 224.87 321.14 224.66 321.14C224.45 321.14 224.24 321.14 223.96 321.14C223.82 321.14 223.61 321.14 223.4 321.14C223.33 321.14 223.26 321.14 223.19 321.14C222.91 321.14 222.7 321.07 222.42 321.07C222.21 321.07 222 321 221.86 321C221.72 321 221.51 320.93 221.37 320.86C221.16 320.86 220.95 320.79 220.81 320.72C220.46 320.65 220.04 320.51 219.69 320.37C219.69 320.37 219.06 320.09 219.13 319.04C218.92 318.55 218.85 317.85 218.99 316.87C219.55 313.72 216.4 314.14 215.63 310.78C215.49 310.15 215.63 309.66 215.84 309.17C215.84 309.03 215.84 308.89 215.84 308.75C215.77 305.74 216.68 303.08 217.59 303.29C217.59 303.29 216.89 304.62 217.45 305.46C218.01 306.37 218.36 305.18 220.18 304.62C222 304.06 224.24 304.48 224.87 305.32C225.5 306.16 225.99 308.12 226.55 310.29C227.11 312.46 229.7 315.19 229.98 316.66C230.05 317.08 230.12 317.43 230.05 317.78C230.05 317.85 230.05 317.92 230.05 317.99C230.05 318.06 230.05 318.13 230.05 318.2C230.12 318.62 230.19 318.76 230.12 319.18Z" fill="#2E2F44"/>
<path d="M235.09 210.61C234.88 217.96 232.15 243.44 231.31 250.02C230.89 261.92 224.87 302.45 224.87 302.45C219.48 303.57 217.38 301.96 217.38 301.96C217.38 301.96 217.66 296.78 217.03 289.29C216.05 276.48 214.23 257.58 216.47 250.23C216.82 248.69 216.4 247.01 216.05 245.19C213.95 234.27 212.83 216.77 212.83 216.77C211.36 221.46 207.37 232.59 204.64 238.4C202.82 242.32 203.73 244.63 203.73 244.63C203.73 244.63 206.53 253.38 207.09 256.81C208.14 264.02 208 278.72 208.28 288.59C208.42 293.07 209.4 298.46 209.4 298.46C204.64 301.12 200.58 299.72 200.58 299.72C200.58 299.72 187 254.15 187 241.06C187 239.8 187.56 232.66 187.56 232.66C189.52 216.21 194.56 195.7 195.47 192.83C197.15 193.32 204.15 194.37 210.87 194.65C218.22 194.93 229.14 194.09 234.67 192.83C236.91 197.59 235.23 206.55 235.09 210.61Z" fill="#75AAF5"/>
<path d="M213.25 310.71C212.76 311.55 207.02 312.04 205.62 312.88C204.22 313.65 201 315.96 197.57 316.52C194.14 317.08 188.82 316.87 187.7 315.89C186.58 314.91 187.42 314.49 187.42 314.49C187.42 314.49 187.35 314.14 187.35 313.72C187.63 313.86 187.84 314 188.26 314.14C189.52 314.7 190.85 314.7 192.25 314.7C194.28 314.7 196.31 314.7 198.27 314.21C200.02 313.72 201.63 312.88 203.24 312.11C206.39 310.71 209.75 309.8 213.18 309.45C213.25 309.45 213.32 309.45 213.46 309.45C213.46 309.8 213.53 310.22 213.25 310.71Z" fill="white"/>
<path d="M230.12 319.18C230.05 319.6 228.65 320.44 226.55 320.86C226.34 320.93 226.13 320.93 225.92 321C225.71 321.07 225.5 321.07 225.29 321.07C225.08 321.07 224.87 321.14 224.66 321.14C224.45 321.14 224.24 321.14 223.96 321.14C223.82 321.14 223.61 321.14 223.4 321.14C223.33 321.14 223.26 321.14 223.19 321.14C222.91 321.14 222.7 321.07 222.42 321.07C222.21 321.07 222 321 221.86 321C221.72 321 221.51 320.93 221.37 320.86C221.16 320.86 220.95 320.79 220.81 320.72C220.46 320.65 220.04 320.51 219.69 320.37C219.69 320.37 219.06 320.09 219.13 319.04C218.92 318.55 218.85 317.85 218.99 316.87C219.55 313.72 216.4 314.14 215.63 310.78C215.49 310.15 215.63 309.66 215.84 309.17C215.84 309.03 215.84 308.89 215.84 308.75C216.47 310.08 216.4 311.13 217.94 312.18C219.06 312.95 220.39 313.72 220.6 315.12C220.88 316.45 220.11 318.2 221.23 318.9C222.63 319.88 224.8 319.53 226.34 319.32C227.74 319.04 228.93 318.55 230.19 317.85C230.19 317.92 230.19 317.99 230.19 318.06C230.19 318.13 230.19 318.2 230.19 318.27C230.12 318.62 230.19 318.76 230.12 319.18Z" fill="white"/>
<path d="M222.42 311.13C222.98 310.78 223.54 310.36 224.24 310.22C224.59 310.15 224.87 310.15 225.22 310.15C225.57 310.15 225.92 310.36 226.27 310.29C226.48 310.22 226.48 310.01 226.41 309.87C226.2 309.59 225.64 309.52 225.29 309.52C224.87 309.52 224.52 309.52 224.1 309.59C223.33 309.73 222.56 310.15 222.21 310.85C222.07 310.99 222.28 311.2 222.42 311.13Z" fill="white"/>
<path d="M223.75 313.02C224.17 312.67 224.66 312.46 225.22 312.39C225.5 312.32 225.71 312.32 225.99 312.32C226.27 312.32 226.48 312.46 226.76 312.46C227.11 312.53 227.32 312.11 226.97 311.9C226.69 311.76 226.34 311.69 225.99 311.69C225.64 311.69 225.36 311.69 225.01 311.76C224.38 311.9 223.82 312.18 223.4 312.74C223.33 312.95 223.54 313.16 223.75 313.02Z" fill="white"/>
<path d="M194.07 308.33C194.35 308.4 194.63 308.33 194.91 308.4C195.19 308.47 195.47 308.54 195.68 308.68C195.89 308.82 196.1 309.03 196.31 309.24C196.52 309.45 196.73 309.73 197.01 309.94C197.08 310.01 197.29 310.01 197.36 309.87C197.43 309.8 197.5 309.66 197.43 309.52C197.29 309.24 197.01 308.96 196.8 308.68C196.59 308.4 196.31 308.19 195.96 308.05C195.68 307.91 195.33 307.77 195.05 307.77C194.7 307.7 194.28 307.7 194.07 307.98C193.86 308.05 193.93 308.33 194.07 308.33Z" fill="white"/>
<path d="M195.75 306.02C196.38 306.23 197.01 306.44 197.57 306.86C197.85 307.07 198.06 307.28 198.27 307.49C198.34 307.63 198.48 307.77 198.55 307.91C198.62 307.98 198.62 308.05 198.69 308.12C198.76 308.19 198.83 308.26 198.9 308.33C199.04 308.47 199.32 308.4 199.32 308.19C199.32 308.05 199.32 307.98 199.32 307.91C199.32 307.84 199.25 307.7 199.18 307.63C199.11 307.49 198.97 307.28 198.83 307.14C198.62 306.86 198.34 306.58 197.99 306.37C197.43 305.95 196.59 305.6 195.89 305.67C195.54 305.6 195.47 305.95 195.75 306.02Z" fill="white"/>
<path d="M181.68 169.45L187.49 180.23C188.19 180.37 188.89 180.37 189.52 180.3C193.44 179.74 195.75 175.33 195.89 174.98C196.59 173.44 197.64 171.2 198.83 168.61C202.82 160.21 208.49 148.52 208.49 148.52L193.37 132.77C193.37 132.77 189.8 136.06 188.12 143.97C187.84 145.37 186.58 151.04 185.11 157.13C184.76 158.67 184.34 160.35 183.85 161.89C183.71 162.31 183.64 162.73 183.5 163.15C182.59 166.65 181.68 169.45 181.68 169.45Z" fill="white"/>
<path d="M215.7 200.67L217.52 237.42C217.52 237.98 224.94 239.31 225.43 239.45C228.23 240.08 231.1 240.57 233.97 240.99C236.91 241.41 239.99 242.39 243 241.9C242.23 242.04 241.53 224.75 241.46 223.21C241.32 216.77 241.25 210.19 239.57 203.89C238.24 198.99 235.86 197.45 231.03 196.19C228.51 195.56 225.85 195.07 223.19 194.93L215.56 200.11L215.7 200.67Z" fill="white"/>
<path d="M186.37 180.44C180.77 180.72 174.61 179.04 169.43 177.92C164.32 176.87 161.38 175.75 161.38 175.75C161.38 175.75 162.29 174.98 162.64 172.46C162.99 170.01 162.29 168.61 162.29 168.61C162.29 168.61 177.2 167.98 183.15 167L192.18 179.32C190.57 179.95 188.61 180.3 186.37 180.44Z" fill="white"/>
<path d="M192.32 162.38C192.46 163.99 192.6 165.67 192.74 167.35C192.88 169.45 193.09 171.55 193.3 173.65C194.07 183.03 192.74 187.51 192.32 198.71C193.79 198.78 195.26 198.85 196.73 198.99C204.43 199.41 212.2 199.9 219.9 200.32C221.37 200.39 239.36 200.39 239.5 202.28C239.22 197.8 238.87 193.32 238.59 188.84C238.1 181.7 237.61 174.56 238.03 167.42C238.31 161.89 239.15 156.43 239.22 150.9C239.29 146.49 239.22 140.19 236.7 136.41C233.9 132.21 224.8 128.64 223.33 128.29C210.87 125.77 199.39 128.15 193.44 132.84C190.71 135.92 191.27 148.66 192.32 162.38Z" fill="white"/>
<path d="M223.19 130.04C223.4 131.16 223.61 132.35 223.82 133.54C224.03 134.73 224.17 135.85 224.31 137.04V137.18L224.24 137.25C223.19 138.37 222.14 139.42 221.09 140.54L221.02 140.19L222.91 141.52C223.54 141.94 224.17 142.43 224.73 142.92C224.03 142.57 223.4 142.15 222.7 141.8L220.74 140.61L220.53 140.47L220.74 140.26C221.79 139.14 222.77 138.02 223.89 136.97L223.82 137.18C223.68 135.99 223.54 134.87 223.47 133.68C223.33 132.42 223.19 131.23 223.19 130.04Z" fill="#C5C8D3"/>
<path d="M221.3 216.28C222.98 216.28 224.66 216.28 226.34 216.35C227.18 216.35 228.02 216.42 228.86 216.42C229.28 216.42 229.7 216.42 230.05 216.49C230.47 216.49 230.89 216.56 231.31 216.49C231.38 216.49 231.38 216.35 231.31 216.35C230.96 216.21 230.61 216.21 230.26 216.21C229.84 216.21 229.42 216.21 229 216.14C228.16 216.14 227.32 216.07 226.41 216.07C224.73 216.07 222.98 216 221.3 216.07C221.09 215.93 221.09 216.28 221.3 216.28Z" fill="#C5C8D3"/>
<path d="M221.09 216.56C221.16 217.26 221.23 217.89 221.44 218.52C221.58 219.08 221.72 219.64 222.07 220.13C222.77 220.97 224.03 220.97 225.01 220.97C226.27 220.97 227.53 221.11 228.79 220.97C229.77 220.83 230.75 220.48 231.24 219.57C231.52 219.08 231.59 218.45 231.59 217.89C231.59 217.26 231.52 216.63 231.31 216.07C231.24 215.93 231.03 215.93 231.03 216.14C231.1 217.12 231.45 218.03 231.1 219.01C230.75 219.99 229.91 220.41 228.93 220.55C227.88 220.69 226.76 220.62 225.64 220.62C224.66 220.62 223.47 220.76 222.63 220.27C222.07 219.92 221.86 219.29 221.72 218.66C221.58 217.96 221.44 217.26 221.37 216.56C221.37 216.35 221.02 216.35 221.09 216.56Z" fill="#C5C8D3"/>
<path d="M220.74 216.84C220.81 219.08 220.95 221.32 221.09 223.56C221.16 224.68 221.23 225.8 221.37 226.85C221.44 227.76 221.58 228.6 222.35 229.16C223.12 229.65 224.17 229.79 225.08 229.79C226.13 229.79 227.18 229.58 228.16 229.37C229 229.23 229.84 229.02 230.54 228.53C231.24 228.11 231.66 227.41 231.87 226.57C232.08 225.59 232.01 224.54 231.94 223.49C231.87 222.23 231.8 220.97 231.66 219.71C231.66 219.5 231.38 219.5 231.38 219.71C231.38 220.76 231.45 221.74 231.52 222.79C231.59 223.7 231.66 224.61 231.59 225.45C231.52 226.29 231.38 227.13 230.75 227.76C230.19 228.32 229.35 228.6 228.58 228.74C226.83 229.16 224.73 229.58 222.98 228.95C222.56 228.81 222.21 228.53 222 228.11C221.79 227.69 221.79 227.2 221.72 226.71C221.65 225.73 221.51 224.68 221.44 223.7C221.23 221.39 221.09 219.08 220.95 216.77C221.02 216.63 220.74 216.63 220.74 216.84Z" fill="#C5C8D3"/>
<path d="M193.51 178.27C193.65 177.15 193.72 176.1 193.79 174.98C193.79 173.93 193.79 172.88 193.72 171.83C193.58 169.66 193.37 167.56 193.09 165.46C192.6 161.26 191.9 157.06 191.69 152.86C191.62 151.67 191.62 150.48 191.62 149.29C191.62 148.1 191.76 146.91 191.69 145.72C191.69 145.65 191.55 145.58 191.55 145.72C191.27 146.7 191.2 147.82 191.13 148.87C191.06 149.92 191.06 150.97 191.13 151.95C191.2 154.05 191.41 156.22 191.62 158.32C192.11 162.59 192.81 166.86 193.16 171.13C193.23 172.32 193.3 173.51 193.37 174.77C193.37 175.96 193.44 177.15 193.37 178.41C193.44 178.34 193.51 178.34 193.51 178.27Z" fill="#C5C8D3"/>
<path d="M190.99 154.61C190.85 154.26 190.71 153.84 190.5 153.49C190.29 153.14 190.08 152.79 189.87 152.51C189.66 152.16 189.38 151.88 189.1 151.6C188.82 151.32 188.54 150.97 188.19 150.9C188.05 150.9 188.05 150.97 188.05 151.04C188.12 151.18 188.26 151.39 188.4 151.46C188.54 151.6 188.68 151.74 188.82 151.88C189.1 152.16 189.38 152.44 189.59 152.79C189.8 153.07 190.01 153.42 190.22 153.7C190.43 154.05 190.64 154.33 190.85 154.68C190.85 154.75 190.99 154.68 190.99 154.61Z" fill="#C5C8D3"/>
<path d="M204.22 128.99C203.17 130.18 202.19 131.44 201.28 132.77C200.37 134.1 199.6 135.43 199.04 136.9L198.97 136.69C199.74 137.53 200.51 138.44 201.35 139.35L201.56 139.56L201.28 139.7L197.22 142.36L197.36 142.08C197.71 143.62 197.99 145.09 198.27 146.63C198.55 148.17 198.83 149.71 199.04 151.18C199.25 152.72 199.53 154.26 199.67 155.8C199.81 157.34 200.02 158.88 200.02 160.42C199.88 158.88 199.67 157.34 199.39 155.8C199.18 154.26 198.9 152.72 198.62 151.25L197.78 146.7L196.87 142.15L196.8 141.94L196.94 141.87L201 139.21L200.93 139.56C200.16 138.65 199.39 137.81 198.62 136.9L198.55 136.76L198.62 136.62C199.25 135.15 200.09 133.75 201.07 132.49C202.05 131.3 203.03 130.04 204.22 128.99Z" fill="#C5C8D3"/>
<path d="M215.7 200.67C215.7 200.67 211.08 201.16 206.25 200.67C204.01 200.46 201.42 199.83 201.42 199.83C201.42 199.83 202.75 165.81 203.03 150.9C203.24 141.17 204.43 134.45 205.9 130.81C206.39 129.48 207.02 128.57 207.58 128.01C207.72 127.87 207.86 127.73 208 127.66C211.85 125.35 220.95 127.94 220.95 127.94C220.95 127.94 219.83 130.18 219.13 132.42C219.06 132.77 218.92 133.12 218.85 133.47C217.8 138.09 217.73 139.98 216.47 153.21C215.35 166.44 215.7 200.67 215.7 200.67Z" fill="#75AAF5"/>
<path d="M221.02 127.87C221.02 127.87 219.9 130.11 219.2 132.35C215 133.82 212.55 134.24 209.4 133.61C207.58 133.26 206.32 132.07 205.9 130.74C206.39 129.41 207.02 128.5 207.58 127.94C207.72 127.8 207.86 127.73 208 127.59C208.14 127.45 208.21 127.38 208.21 127.24C208.35 126.61 208.35 126.33 208.35 125.98C208.35 125.7 208.28 125.42 208.21 124.93C208.07 123.6 207.93 122.2 207.93 122.2L210.24 120.66L219.27 111.7L219.41 114.64C219.41 114.64 219.27 123.25 220.32 126.96C220.53 127.38 220.74 127.66 221.02 127.87Z" fill="#FE9C70"/>
<path d="M214.79 119.12C214.79 119.12 214.16 123.32 208.35 125.98C208.35 125.7 208.28 125.42 208.21 124.93C208.07 123.6 207.93 122.2 207.93 122.2L210.24 120.66L214.79 119.12Z" fill="#F28A61"/>
<path d="M193.3 156.01C193.3 156.01 191.2 156.22 191.97 161.54C192.6 165.95 193.09 166.86 194.7 167.42C196.31 168.05 198.62 165.74 198.62 165.67C198.62 165.53 198.41 161.05 198.2 160.49C198.06 160 197.29 158.81 197.01 158.53C196.73 158.25 194.7 156.64 194.7 156.64L194.14 156.22C194.07 156.29 193.58 156.08 193.3 156.01Z" fill="#E0E0E0"/>
<path d="M210.31 161.05L208.35 173.02C201.35 169.52 194.07 165.04 189.1 162.03C185.67 159.93 182.52 158.18 182.52 158.18C182.52 158.18 182.1 157.69 183.01 155.31C183.57 153.84 184.62 153.98 184.62 153.98C184.62 153.98 196.87 157.13 207.23 160.14C208.42 160.49 209.4 160.77 210.31 161.05Z" fill="#FE9C70"/>
<path d="M237.61 141.03C238.03 143.83 237.61 147.05 237.54 149.29C237.47 150.76 237.4 152.3 236.98 153.77C236.28 156.22 234.74 158.39 233.27 160.49C231.38 163.15 229.42 165.67 227.46 168.26C225.99 170.29 224.8 173.65 222.56 174.98C220.11 176.73 217.59 177.99 211.29 175.61C204.92 173.16 194.56 167.42 194.56 167.42C196.03 166.79 196.31 162.24 195.54 159.44C194.77 156.29 193.23 156.01 193.16 156.01C193.16 156.01 212.76 160.98 212.83 160.98C212.83 160.98 217.8 152.37 218.29 151.6C220.53 148.03 222.7 144.53 224.94 140.96C227.25 137.25 231.17 132.91 235.58 136.76C236.84 137.74 237.4 139.28 237.61 141.03Z" fill="white"/>
<path d="M204.5 107.29C204.78 108.83 204.22 110.44 203.31 111.84C202.68 112.82 201.98 111.7 200.86 111.49C199.11 111.21 198.97 108.9 198.9 104C198.13 101.9 198.34 98.82 198.55 98.54C199.25 97.42 200.93 97.14 202.26 97.28" fill="#191C26"/>
<path d="M208.07 123.81C208.91 123.81 210.66 123.32 211.08 123.11C212.83 122.48 215.77 120.52 216.19 118.91C214.37 119.89 211.08 121.64 208 121.92C208 122.48 208.07 123.32 208.07 123.81Z" fill="#F28A61"/>
<path d="M217.94 118.84C217.24 119.54 216.05 120.17 214.72 120.8C211.71 122.13 207.79 123.18 205.41 123.11C203.17 123.04 201.56 119.05 200.3 114.64C200.09 114.01 199.95 113.31 199.81 112.61C198.69 106.31 200.51 98.89 203.24 96.09C205.97 93.36 209.33 91.4 213.32 90.98C219.34 90.28 221.02 96.58 221.37 101.34C221.72 106.66 222.14 114.99 217.94 118.84Z" fill="#FE9C70"/>
<path d="M204.01 109.18C204.08 110.3 203.94 111.42 203.59 112.47C203.52 112.61 203.52 112.75 203.45 112.89L203.31 113.24C203.31 113.31 203.31 113.31 203.24 113.38C203.24 113.38 203.31 113.45 203.45 113.59C203.94 113.94 204.29 114.43 204.5 114.99C204.08 114.64 203.59 114.29 203.17 114.08C203.1 114.01 202.89 114.01 202.75 113.8C202.68 113.73 202.61 113.52 202.61 113.45C202.61 113.31 202.61 113.24 202.68 113.17C202.75 113.03 202.82 112.89 202.82 112.75C202.89 112.68 202.89 112.54 202.96 112.4C203.24 111.28 203.59 110.23 204.01 109.18Z" fill="#EF8359"/>
<path d="M218.57 100.43C217.17 101.83 207.16 102.04 203.73 101.13C200.72 100.29 198.48 98.96 197.01 96.16C196.52 95.25 196.03 94.2 196.03 93.15C196.03 92.1 196.73 90.98 197.78 90.77C197.36 91.26 197.85 92.1 198.48 92.24C199.11 92.38 199.74 92.1 200.3 91.82C203.31 90.42 206.46 89.09 209.75 88.88C213.6 88.6 221.65 91.33 220.32 96.58" fill="#191C26"/>
<path d="M215.98 98.54C215.07 99.45 214.72 100.71 214.58 101.97C214.3 103.86 214.3 105.82 215 107.64C215.21 108.13 215.21 110.51 215.56 110.44C215.7 110.44 215.84 108.55 216.26 107.57C216.89 106.1 219.27 105.68 220.18 106.73C221.72 108.41 220.6 110.23 219.9 111.35C219.48 112.05 218.92 112.75 218.78 113.52C218.57 114.5 218.29 117.93 218.85 118.84C219.34 119.54 220.18 116.32 220.67 115.69C224.59 111.14 228.93 99.1 223.19 95.95C222.35 95.46 219.55 95.04 218.64 95.46" fill="#191C26"/>
<path d="M214.16 111.77C214.16 111.77 215.35 111.28 216.12 108.83" stroke="white" stroke-width="0.6182" stroke-miterlimit="10"/>
<path d="M218.92 112.19C218.92 112.19 218.57 117.79 216.26 119.33" stroke="white" stroke-width="0.6182" stroke-miterlimit="10"/>
<path d="M216.61 119.26C216.61 119.26 215.98 119.96 214.65 120.8C212.83 121.99 209.68 123.32 205.34 123.11C203.1 123.04 201.49 119.05 200.23 114.64C200.02 114.01 201.7 111.98 204.36 111.84C207.16 111.7 209.82 114.5 214.37 111.42C214.37 111.49 214.93 116.95 216.61 119.26Z" fill="white"/>
<path d="M210.03 136.34C210.31 141.94 208.91 148.1 204.5 151.88C200.37 155.45 194.49 156.08 189.45 154.19C188.05 153.63 186.72 152.93 185.32 152.44C184.06 151.95 182.73 151.74 181.4 151.46C178.67 150.83 176.08 149.64 173.21 149.64C170.55 149.64 168.1 150.97 166.07 152.58C164.11 154.05 162.5 155.94 161.31 158.11C159.7 160.91 158.51 163.99 156.06 166.23C153.96 168.19 151.3 168.96 148.43 169.17C148.01 169.17 148.01 169.8 148.43 169.87C150.88 170.08 153.26 169.59 155.36 168.26C157.74 166.72 159.35 164.34 160.68 161.89C162.01 159.44 163.2 156.99 165.16 154.96C167.05 153.07 169.64 151.25 172.37 150.83C175.38 150.41 178.18 151.81 181.05 152.51C182.38 152.79 183.78 153.07 185.04 153.49C186.51 154.05 187.98 154.82 189.45 155.31C194.42 157.06 200.16 156.36 204.36 153.14C209.47 149.22 211.01 142.5 210.59 136.41C210.52 135.99 210.03 135.99 210.03 136.34Z" fill="#2E2F44"/>
<path d="M192.6 192.83C192.6 192.83 188.61 224.54 186.16 240.29L197.15 238.05C197.15 238.05 200.72 214.88 201.49 199.2C201.84 191.57 192.6 192.83 192.6 192.83Z" fill="white"/>
<path d="M187.49 154.82C187.49 154.82 184.62 153.49 183.15 152.16C181.68 150.83 180.14 149.36 179.65 149.15C179.16 148.94 177.13 148.45 176.85 148.45C176.5 148.45 176.57 149.57 177.27 149.92C178.32 150.48 178.6 150.69 178.95 150.97C179.37 151.32 178.53 151.25 177.13 150.76C176.15 150.41 173.42 148.38 172.3 148.31C171.11 148.24 172.16 149.64 172.93 150.27C173.7 150.97 175.87 152.44 175.87 152.44C175.87 152.44 176.15 153.84 176.36 154.12C176.57 154.47 176.29 155.03 176.36 155.59C176.43 156.15 176.64 156.57 176.64 156.78C176.71 157.06 176.71 158.04 177.2 158.32C177.62 158.6 183.36 158.53 183.92 158.88C184.48 159.3 187.49 154.82 187.49 154.82Z" fill="#FE9C70"/>
<path d="M218.15 109.32C217.87 109.18 217.52 109.39 217.38 109.6C217.24 109.88 217.17 110.23 217.17 110.51C217.17 110.79 217.31 111.14 217.59 111.21C217.87 111.28 218.15 111.14 218.29 110.93C218.5 110.65 218.5 110.3 218.5 110.02C218.5 109.81 218.43 109.53 218.29 109.32C218.15 109.11 217.8 109.04 217.59 109.18C217.38 109.39 217.31 109.67 217.24 109.95C217.17 110.3 217.17 110.65 217.38 110.93C217.52 111.14 217.8 111.21 218.08 111.21C218.85 111.07 218.5 110.02 218.36 109.6C218.22 109.32 218.08 108.9 217.66 109.04C217.31 109.11 217.17 109.53 217.1 109.81C217.03 110.16 216.96 110.51 217.03 110.79C217.1 111.07 217.31 111.35 217.66 111.35C217.94 111.35 218.15 111.28 218.36 111.07C218.57 110.86 218.71 110.58 218.64 110.23C218.64 109.88 218.5 109.53 218.29 109.25C218.22 109.11 218.15 108.97 217.94 108.9C217.8 108.83 217.59 108.83 217.45 108.97C217.17 109.18 217.1 109.46 217.03 109.74C216.96 110.09 216.89 110.44 216.96 110.79C217.1 111.28 217.66 111.77 218.22 111.56C218.57 111.42 218.71 111.14 218.71 110.86C218.71 110.72 218.71 110.58 218.71 110.37C218.71 110.23 218.71 110.02 218.64 109.88C218.57 109.53 218.29 109.32 218.01 109.18C217.66 109.11 217.38 109.18 217.17 109.46C217.03 109.67 217.03 110.02 217.03 110.23C217.03 110.51 217.1 110.79 217.31 111.07C217.52 111.28 217.87 111.35 218.15 111.21C218.43 111.07 218.57 110.79 218.64 110.51C218.78 110.02 218.92 109.32 218.43 108.97C217.87 108.62 217.17 109.11 217.1 109.67C217.03 110.02 217.1 110.37 217.24 110.72C217.38 111.07 217.52 111.42 217.94 111.35C218.29 111.28 218.43 110.93 218.5 110.58C218.57 110.3 218.57 110.02 218.5 109.67C218.43 109.39 218.29 109.11 218.08 108.9C218.01 108.83 217.8 108.76 217.66 108.9C217.38 109.18 217.24 109.53 217.24 109.95C217.24 110.3 217.31 110.72 217.59 111C217.73 111.14 217.94 111.21 218.15 111.21C218.36 111.21 218.5 111 218.64 110.79C218.78 110.51 218.85 110.16 218.78 109.88C218.71 109.53 218.5 109.25 218.15 109.18C218.01 109.18 217.87 109.18 217.87 109.32C217.66 109.74 217.8 110.23 218.15 110.51C218.29 110.65 218.5 110.65 218.57 110.44C218.71 110.16 218.85 109.88 218.71 109.6C218.71 109.32 218.36 109.18 218.15 109.32C217.87 109.39 217.73 109.74 217.73 110.02C217.73 110.3 217.8 110.58 217.94 110.79C218.01 110.93 218.29 111 218.36 110.86C218.71 110.44 218.85 109.6 218.43 109.18C218.29 109.04 218.15 108.97 218.01 108.97C217.8 108.97 217.66 109.11 217.59 109.32C217.45 109.6 217.45 109.88 217.52 110.16C217.59 110.51 217.8 110.72 218.08 110.93C218.22 111 218.43 110.93 218.43 110.86C218.57 110.58 218.64 110.23 218.71 109.95C218.71 109.67 218.71 109.39 218.64 109.11C218.36 108.55 217.59 108.69 217.31 109.18C217.17 109.46 217.17 109.81 217.31 110.09C217.38 110.37 217.52 110.72 217.87 110.72C218.15 110.72 218.43 110.58 218.5 110.37C218.57 110.23 218.57 110.09 218.57 109.95C218.57 109.81 218.57 109.6 218.5 109.46C218.43 109.32 218.22 109.25 218.08 109.18C217.87 109.18 217.66 109.25 217.66 109.46C217.59 109.6 217.66 109.81 217.8 109.95C217.87 110.02 217.87 110.02 217.94 110.09C217.94 110.09 218.01 110.09 218.01 110.16H218.08C218.15 110.16 218.15 110.16 218.15 110.16C218.29 110.16 218.36 110.09 218.36 109.95C218.36 109.81 218.22 109.67 218.15 109.74C218.15 109.74 218.22 109.74 218.15 109.74C218.22 109.74 218.15 109.81 218.15 109.74C218.15 109.74 218.15 109.81 218.15 109.74L218.08 109.81C218.08 109.74 218.08 109.74 218.01 109.67C218.01 109.81 218.01 109.95 218.01 110.09V110.16C218.01 110.16 218.01 110.16 218.01 110.23C218.01 110.23 217.94 110.3 217.94 110.23C217.94 110.23 217.87 110.23 217.94 110.23C217.87 110.23 217.94 110.23 217.94 110.23V110.16C217.87 110.09 217.87 109.88 217.87 109.81C217.87 109.67 217.87 109.6 217.94 109.46C217.94 109.39 217.94 109.46 217.94 109.46C217.94 109.46 218.01 109.46 218.01 109.39C217.94 109.39 218.01 109.39 218.08 109.39C218.08 109.39 218.08 109.39 218.15 109.39C218.15 109.39 218.15 109.39 218.22 109.39C218.22 109.39 218.15 109.39 218.22 109.39C218.22 109.39 218.22 109.39 218.29 109.39C218.36 109.46 218.36 109.6 218.36 109.67C218.36 110.02 218.29 110.37 218.15 110.65C218.29 110.65 218.43 110.58 218.5 110.58C218.36 110.51 218.29 110.3 218.22 110.16V110.09V110.02C218.22 109.95 218.22 109.95 218.22 109.88C218.22 109.95 218.22 109.88 218.22 109.81V109.74C218.22 109.67 218.22 109.74 218.22 109.67C218.22 109.67 218.22 109.67 218.22 109.6C218.22 109.6 218.22 109.6 218.15 109.6C218.15 109.6 218.15 109.6 218.08 109.6C218.15 109.6 218.15 109.67 218.15 109.67C218.22 109.74 218.22 109.88 218.22 109.95C218.22 110.16 218.15 110.37 218.01 110.51C218.15 110.51 218.29 110.58 218.43 110.58C218.36 110.44 218.29 110.37 218.29 110.23C218.29 110.16 218.29 110.09 218.29 110.02C218.29 109.95 218.36 109.88 218.36 109.88H218.29C218.29 109.88 218.29 109.88 218.36 109.95C218.36 109.88 218.36 110.02 218.36 109.95C218.36 109.95 218.36 109.95 218.36 110.02V110.09C218.36 110.16 218.29 110.23 218.22 110.3C218.36 110.3 218.5 110.23 218.64 110.23C218.5 110.16 218.5 110.09 218.5 109.95V109.88V109.81C218.5 109.74 218.5 109.81 218.5 109.74V109.67C218.43 109.74 218.29 109.74 218.22 109.81H218.29C218.22 109.81 218.29 109.81 218.29 109.81C218.22 109.81 218.29 109.81 218.29 109.81C218.29 109.81 218.29 109.81 218.29 109.88C218.29 109.88 218.36 109.95 218.29 109.88V109.95V110.02C218.29 109.95 218.29 110.02 218.29 110.02C218.29 110.09 218.29 110.16 218.29 110.23C218.29 110.23 218.29 110.23 218.29 110.3V110.37V110.44C218.29 110.37 218.29 110.44 218.29 110.51L218.22 110.58C218.22 110.58 218.15 110.65 218.15 110.58C218.15 110.58 218.15 110.58 218.08 110.58C218.01 110.58 218.01 110.51 217.94 110.44C217.87 110.3 217.8 110.16 217.8 110.09C217.87 109.88 218.01 109.6 218.15 109.32C218.08 109.32 217.94 109.32 217.8 109.32C218.08 109.6 218.15 109.95 218.15 110.3C218.15 110.37 218.15 110.3 218.15 110.3V110.37C218.15 110.44 218.15 110.44 218.08 110.51C218.08 110.58 218.01 110.65 217.94 110.72C217.94 110.72 217.94 110.72 218.01 110.72C218.01 110.72 218.01 110.72 218.08 110.72C218.08 110.72 218.08 110.72 218.08 110.65C218.08 110.65 218.01 110.58 218.08 110.58C218.08 110.65 218.08 110.51 218.08 110.51C218.08 110.44 218.08 110.44 218.01 110.37C217.94 110.16 217.87 109.88 217.87 109.67C217.87 109.6 217.87 109.6 217.87 109.53V109.46C217.87 109.53 217.87 109.46 217.87 109.46C217.87 109.46 217.87 109.46 217.87 109.39C217.94 109.32 217.87 109.39 217.87 109.39C217.87 109.39 217.87 109.39 217.94 109.32C217.94 109.32 218.01 109.25 217.94 109.32C218.01 109.39 218.08 109.39 218.15 109.32C218.15 109.39 218.08 109.39 218.15 109.32C218.15 109.39 218.22 109.39 218.15 109.32C218.15 109.32 218.22 109.32 218.22 109.39C218.29 109.39 218.22 109.39 218.22 109.39C218.29 109.39 218.22 109.39 218.22 109.39C218.22 109.39 218.29 109.39 218.29 109.46C218.29 109.46 218.29 109.39 218.29 109.46V109.53C218.29 109.6 218.29 109.46 218.29 109.53C218.29 109.53 218.29 109.53 218.29 109.6V109.67C218.29 109.6 218.29 109.67 218.29 109.74C218.29 109.95 218.29 110.02 218.22 110.23C218.22 110.3 218.15 110.37 218.15 110.44C218.15 110.51 218.08 110.51 218.08 110.58C218.08 110.58 218.08 110.65 218.01 110.65C218.01 110.72 218.01 110.65 218.01 110.65C218.01 110.65 218.01 110.65 217.94 110.72C217.94 110.72 217.87 110.79 217.94 110.72C217.94 110.72 217.87 110.72 217.94 110.72C217.87 110.72 217.94 110.72 217.94 110.72C217.94 110.72 217.87 110.72 217.94 110.72H217.87C217.87 110.72 217.8 110.65 217.87 110.72C217.87 110.72 217.87 110.72 217.87 110.65C217.87 110.72 217.87 110.65 217.87 110.65V110.58C217.87 110.65 217.87 110.58 217.87 110.58C217.87 110.51 217.87 110.51 217.8 110.44V110.37C217.8 110.37 217.8 110.37 217.8 110.3C217.8 110.23 217.8 110.16 217.8 110.02C217.8 109.95 217.8 109.95 217.8 109.88V109.81V109.74C217.8 109.74 217.8 109.74 217.8 109.67C217.8 109.6 217.8 109.67 217.8 109.67V109.6C217.8 109.53 217.8 109.6 217.8 109.6C217.8 109.6 217.87 109.53 217.8 109.6C217.8 109.6 217.8 109.6 217.87 109.6C217.94 109.53 217.87 109.6 217.87 109.6H217.94C217.94 109.6 218.01 109.6 217.94 109.6H218.01C218.08 109.6 217.94 109.6 218.01 109.6H218.08C218.15 109.67 218.22 109.74 218.22 109.81C218.29 110.02 218.29 110.23 218.29 110.44C218.29 110.51 218.29 110.65 218.29 110.72C218.29 110.79 218.29 110.79 218.22 110.86C218.22 110.93 218.22 110.86 218.22 110.86L218.15 110.93C218.15 110.93 218.08 111 218.15 110.93C218.15 110.93 218.01 110.93 218.08 110.93C218.01 110.93 218.01 110.93 217.94 110.93C218.01 110.93 217.94 110.93 217.94 110.93H217.87H217.8C217.87 110.93 217.8 110.93 217.8 110.93C217.73 110.93 217.73 110.86 217.66 110.86C217.66 110.86 217.59 110.86 217.59 110.79C217.59 110.79 217.59 110.79 217.59 110.72C217.59 110.79 217.59 110.72 217.59 110.72C217.45 110.51 217.45 110.3 217.52 110.09C217.52 109.88 217.59 109.67 217.66 109.46C217.66 109.39 217.73 109.32 217.73 109.32C217.8 109.32 217.73 109.32 217.73 109.32C217.73 109.32 217.73 109.25 217.73 109.32C217.73 109.39 217.8 109.46 217.87 109.6C217.94 109.67 217.94 109.81 218.01 109.95C218.01 110.09 218.08 110.16 218.08 110.3C218.08 110.37 218.08 110.37 218.08 110.44V110.51C218.08 110.51 218.08 110.58 218.08 110.51C218.01 110.58 218.01 110.65 217.94 110.65C217.94 110.65 217.94 110.65 217.87 110.65H217.8C217.8 110.65 217.73 110.65 217.8 110.65C217.73 110.65 217.73 110.65 217.66 110.65C217.73 110.65 217.66 110.65 217.66 110.65H217.59C217.66 110.65 217.52 110.65 217.52 110.65C217.52 110.65 217.45 110.65 217.45 110.58C217.31 110.44 217.38 110.23 217.38 110.02C217.38 109.81 217.45 109.53 217.59 109.39C217.59 109.32 217.66 109.32 217.66 109.32C217.66 109.32 217.66 109.32 217.73 109.32C217.8 109.32 217.8 109.39 217.8 109.46C217.94 109.67 218.01 109.88 218.01 110.16C218.01 110.3 218.08 110.37 218.08 110.51C218.08 110.58 218.08 110.58 218.08 110.65C218.08 110.72 218.08 110.72 218.01 110.72C217.94 110.72 217.94 110.72 217.87 110.72C217.8 110.72 217.73 110.65 217.66 110.65C217.66 110.65 217.59 110.58 217.59 110.51C217.52 110.37 217.52 110.3 217.52 110.16C217.52 109.95 217.59 109.74 217.66 109.53C217.66 109.46 217.73 109.46 217.73 109.39C217.8 109.46 217.87 109.67 217.87 109.81C217.87 110.09 217.87 110.72 217.45 110.72C217.31 110.72 217.24 110.58 217.24 110.44C217.24 110.23 217.24 110.02 217.31 109.81C217.38 109.67 217.52 109.53 217.66 109.6C217.73 109.6 217.87 109.6 217.87 109.46C218.29 109.46 218.22 109.39 218.15 109.32Z" fill="#2E2F44"/>
<path d="M218.29 110.44C219.13 110.58 220.11 110.51 220.95 110.79C222 111.14 222.35 112.05 222.49 113.1C222.84 115.27 222.91 117.51 223.05 119.68C223.33 123.67 223.33 127.94 221.09 131.44C220.18 132.91 218.85 134.24 217.24 134.94C215.49 135.71 213.46 136.06 211.57 136.13C207.79 136.2 204.15 134.73 202.12 131.44C201 129.55 200.44 127.31 200.3 125.14C200.09 122.62 200.58 120.1 200.51 117.51C200.51 117.3 200.16 117.23 200.09 117.44C199.39 119.89 199.18 122.62 199.32 125.14C199.46 127.31 199.88 129.41 200.86 131.37C202.75 135.08 206.46 137.04 210.52 137.18C214.58 137.32 218.85 136.13 221.37 132.77C224.1 129.13 224.38 124.44 224.1 120.03C224.03 118.56 223.89 117.09 223.75 115.55C223.68 114.36 223.68 113.03 223.26 111.91C222.42 109.88 220.11 109.46 218.22 110.09C217.94 110.02 218.01 110.37 218.29 110.44Z" fill="#2E2F44"/>
<path d="M211.71 137.04C211.78 137.04 211.78 136.9 211.71 136.9C211.64 136.9 211.64 137.04 211.71 137.04Z" fill="#2E2F44"/>
<path d="M212.9 161.05C213.39 162.03 214.16 162.8 214.65 163.78C215.07 164.62 215.35 165.53 215.49 166.44C215.49 166.65 215.77 166.58 215.84 166.37C215.91 165.88 215.84 165.39 215.7 164.9C215.56 164.41 215.42 163.99 215.21 163.57C215 163.15 214.72 162.66 214.44 162.24C214.09 161.75 213.74 161.26 213.32 160.77C213.04 160.7 212.83 160.84 212.9 161.05Z" fill="#C5C8D3"/>
<path d="M213.88 160C214.23 160.28 214.65 160.49 215 160.77C215.35 161.05 215.7 161.33 216.05 161.61C216.33 161.89 216.61 162.1 216.82 162.45C216.96 162.73 217.1 163.08 216.89 163.36C216.96 163.36 217.03 163.36 217.1 163.36C216.96 163.29 216.82 163.15 216.75 163.01C216.68 162.87 216.61 162.73 216.47 162.73C216.4 162.73 216.4 162.73 216.33 162.8C216.26 162.94 216.33 163.15 216.47 163.29C216.61 163.43 216.68 163.57 216.89 163.71C216.96 163.78 217.1 163.78 217.17 163.71C217.8 163.08 217.24 162.03 216.68 161.54C216.33 161.19 215.91 160.84 215.49 160.56C215.07 160.28 214.65 159.93 214.09 159.79C213.88 159.65 213.74 159.86 213.88 160Z" fill="#C5C8D3"/>
<path d="M217.87 178.06C217.94 179.95 218.08 181.91 218.22 183.8C218.36 185.69 218.43 187.58 218.57 189.47C218.78 193.25 218.85 197.03 218.85 200.81C218.85 208.3 218.64 215.86 218.78 223.35C218.85 227.55 219.13 231.82 219.62 235.95C219.62 236.09 219.83 236.09 219.83 235.95C218.92 228.46 218.92 220.9 218.92 213.41C218.99 205.85 219.06 198.36 218.78 190.87C218.71 188.77 218.64 186.67 218.5 184.57C218.36 182.4 218.29 180.3 218.08 178.13C218.01 177.99 217.87 177.99 217.87 178.06Z" fill="#C5C8D3"/>
<path d="M200.3 171.9C200.3 176.1 200.37 180.23 200.37 184.43C200.44 188.56 200.58 192.76 200.23 196.89C199.95 201.02 199.25 205.08 198.69 209.21C198.13 213.41 197.57 217.54 197.01 221.74C196.38 226.43 195.82 231.19 195.19 235.88C195.19 236.02 195.4 236.09 195.4 235.88C196.52 227.55 197.71 219.15 198.83 210.82C199.39 206.69 199.95 202.63 200.37 198.5C200.79 194.37 200.72 190.24 200.65 186.04C200.58 181.28 200.51 176.59 200.44 171.83C200.37 171.83 200.3 171.83 200.3 171.9Z" fill="#C5C8D3"/>
<path d="M181.96 167.35C182.8 167.35 183.64 167.49 184.48 167.63C184.9 167.7 185.32 167.77 185.67 167.91C186.09 167.98 186.51 168.19 186.93 168.26C187 168.26 187.07 168.19 187 168.12C186.65 167.91 186.23 167.84 185.81 167.7C185.39 167.56 184.97 167.49 184.55 167.42C183.71 167.28 182.87 167.21 181.96 167.21C181.89 167.21 181.89 167.35 181.96 167.35Z" fill="#C5C8D3"/>
<path d="M215.49 177.29C217.1 177.92 218.99 177.5 220.53 176.87C222.28 176.1 223.75 174.98 225.01 173.51C226.34 171.9 227.32 170.01 228.44 168.26C229.63 166.3 230.89 164.34 232.29 162.45C233.83 160.35 235.51 158.25 237.12 156.22C237.19 156.15 237.05 156.01 236.98 156.08C233.97 159.23 231.38 162.87 229 166.58C226.83 169.94 225.15 173.86 221.51 175.89C219.83 176.87 217.59 177.64 215.63 176.87C215.35 176.87 215.21 177.22 215.49 177.29Z" fill="#C5C8D3"/>
<path d="M228.3 137.53C229.21 136.55 230.33 135.85 231.59 135.5C232.22 135.29 232.85 135.22 233.48 135.15C234.11 135.15 234.74 135.22 235.44 135.29C235.65 135.29 235.65 135.01 235.51 134.94C234.88 134.66 234.18 134.66 233.55 134.73C232.85 134.8 232.15 134.87 231.52 135.08C230.26 135.5 229.07 136.27 228.16 137.32C227.95 137.46 228.16 137.67 228.3 137.53Z" fill="#C5C8D3"/>
<path d="M226.62 138.37C226.62 138.37 226.55 138.37 226.55 138.44C226.55 138.44 226.55 138.44 226.48 138.44C226.48 138.44 226.41 138.44 226.48 138.44C226.41 138.44 226.34 138.51 226.2 138.58C226.06 138.72 225.99 138.79 225.85 138.93C225.78 139.07 225.71 139.21 225.64 139.35C225.64 139.42 225.57 139.49 225.57 139.56C225.57 139.63 225.57 139.7 225.57 139.7C225.57 139.77 225.64 139.84 225.71 139.91C225.71 139.84 225.64 139.77 225.64 139.77C225.64 139.84 225.64 139.91 225.64 139.98C225.64 140.19 225.92 140.19 225.92 140.05C225.92 139.98 225.99 139.91 225.99 139.84C225.92 139.91 225.92 139.91 225.85 139.98C225.99 139.98 225.99 139.84 226.06 139.77V139.7C226.06 139.63 226.06 139.77 226.06 139.7C226.06 139.7 226.06 139.63 226.13 139.63C226.2 139.49 226.27 139.35 226.34 139.28C226.34 139.28 226.34 139.28 226.34 139.21C226.34 139.14 226.34 139.21 226.34 139.21L226.41 139.14C226.48 139.07 226.48 139.07 226.55 139C226.62 138.93 226.69 138.86 226.69 138.79C226.69 138.79 226.69 138.79 226.76 138.72C226.76 138.72 226.83 138.72 226.76 138.72C226.83 138.65 226.9 138.58 226.83 138.44C226.76 138.37 226.69 138.37 226.62 138.37Z" fill="#C5C8D3"/>
<path d="M216.12 154.89C217.73 153.28 218.71 151.32 219.69 149.36C220.18 148.38 220.67 147.4 221.3 146.42C221.58 145.93 221.93 145.51 222.28 145.09C222.63 144.67 223.05 144.32 223.4 143.9C223.54 143.76 223.33 143.62 223.19 143.69C222.28 144.11 221.58 145.16 221.09 145.93C220.46 146.84 219.9 147.89 219.41 148.87C218.43 150.9 217.45 153 215.98 154.68C215.84 154.82 215.98 155.03 216.12 154.89Z" fill="#C5C8D3"/>
<path d="M162.43 170.01C161.8 169.87 161.1 169.38 160.54 169.1C159.84 168.75 159.21 168.33 158.51 167.98C156.34 166.86 153.54 166.93 151.44 168.19C151.3 168.26 151.09 168.4 151.09 168.61C151.02 168.96 151.58 169.17 151.93 169.17C152.84 169.24 153.75 169.38 154.66 169.38C154.8 170.5 155.5 171.48 156.34 172.11C157.18 172.74 158.23 173.16 159.28 173.37C160.26 173.58 161.24 173.79 162.22 173.79C162.64 172.81 162.71 171.83 162.71 170.78C162.71 170.71 162.64 169.87 162.57 169.87C162.57 170.01 162.57 170.01 162.43 170.01Z" fill="#FE9C70"/>
<g opacity="0.2">
<path d="M152.91 169.52C153.26 169.59 153.61 169.59 153.96 169.66C154.31 169.66 154.73 169.66 155.08 169.87C155.64 170.15 156.06 170.85 156.41 171.34C156.83 171.83 157.25 172.32 157.74 172.67C158.16 173.02 158.79 173.37 159.35 173.3C159.42 173.3 159.49 173.16 159.42 173.09C158.79 172.81 158.23 172.6 157.67 172.18C157.11 171.76 156.69 171.2 156.27 170.64C155.92 170.22 155.57 169.66 155.01 169.52C154.38 169.31 153.54 169.45 152.91 169.45C152.77 169.38 152.84 169.52 152.91 169.52Z" fill="#49161A"/>
</g>
<g opacity="0.2">
<path d="M151.93 168.05C152.7 167.63 153.75 167.49 154.66 167.42C155.29 167.35 155.92 167.28 156.55 167.42C156.62 167.42 156.69 167.35 156.62 167.28C156.41 167.21 156.2 167.21 155.92 167.21C155.5 167.21 155.08 167.21 154.59 167.28C153.68 167.28 152.7 167.49 151.93 168.05C151.86 167.98 151.86 168.05 151.93 168.05Z" fill="#49161A"/>
</g>
<path d="M183.43 166.51C183.85 166.37 184.34 166.3 184.76 166.3C184.97 166.3 185.18 166.3 185.39 166.37C185.53 166.37 185.6 166.44 185.74 166.44C185.88 166.44 186.02 166.51 186.09 166.51C186.16 166.44 186.3 166.37 186.23 166.23C186.16 165.95 185.81 165.88 185.53 165.81C185.25 165.74 184.97 165.74 184.76 165.74C184.2 165.74 183.71 165.88 183.29 166.16C183.08 166.3 183.15 166.58 183.43 166.51Z" fill="#C5C8D3"/>
<path d="M208.07 108.2C207.79 108.34 207.72 108.83 207.72 109.11C207.72 109.32 207.72 109.6 207.79 109.81C207.79 110.02 207.93 110.23 208.07 110.44C208.21 110.58 208.35 110.65 208.56 110.65C208.63 110.65 208.77 110.65 208.84 110.58C208.91 110.51 208.98 110.44 209.05 110.37C209.12 110.3 209.12 110.23 209.12 110.09C209.05 110.16 209.05 110.3 208.98 110.37C209.12 110.23 209.19 110.02 209.19 109.88C209.19 109.74 209.26 109.53 209.26 109.39C209.26 109.04 209.12 108.69 208.98 108.41C208.91 108.2 208.7 108.2 208.49 108.2C208.35 108.2 208.28 108.27 208.21 108.41C208.14 108.48 208.07 108.55 208.07 108.69C208.07 108.83 208.07 108.9 208.14 108.97C208.21 109.04 208.28 109.11 208.42 109.18C208.56 109.18 208.63 109.18 208.77 109.11L208.84 109.04C208.91 109.04 208.91 108.97 208.91 108.9C208.91 108.9 208.91 108.97 208.84 108.97C208.84 108.97 208.77 108.97 208.84 108.97C208.84 108.97 208.84 108.97 208.77 108.97C208.63 108.9 208.42 108.83 208.28 108.76C208.35 108.83 208.35 108.9 208.42 108.97C208.42 109.04 208.42 108.9 208.42 108.97V109.04C208.42 109.11 208.42 109.11 208.49 109.18C208.49 109.18 208.49 109.18 208.49 109.25C208.49 109.25 208.49 109.39 208.49 109.25C208.49 109.32 208.49 109.32 208.49 109.39C208.49 109.46 208.49 109.53 208.49 109.67C208.49 109.6 208.49 109.6 208.49 109.53C208.49 109.6 208.49 109.67 208.42 109.74V109.81C208.42 109.81 208.42 109.88 208.42 109.81C208.42 109.81 208.42 109.74 208.42 109.81C208.42 109.81 208.42 109.81 208.49 109.74C208.63 109.67 208.77 109.67 208.91 109.6C208.84 109.6 208.77 109.6 208.7 109.6C208.77 109.6 208.77 109.6 208.84 109.6C208.91 109.6 208.91 109.6 208.98 109.67L209.05 109.74C209.05 109.74 208.98 109.74 208.98 109.67L209.05 109.74L208.98 109.67C208.98 109.74 208.98 109.74 209.05 109.81C209.05 109.74 208.98 109.74 208.98 109.67C208.98 109.74 208.98 109.74 208.98 109.81C208.98 109.53 208.98 109.32 208.98 109.04C208.98 109.11 208.98 109.11 208.98 109.18C208.98 109.04 208.98 108.9 209.05 108.83C209.05 108.9 209.05 108.9 209.05 108.97C209.05 108.76 209.12 108.55 209.05 108.34C208.98 108.27 208.91 108.13 208.77 108.13C208.28 108.06 208.21 108.13 208.07 108.2Z" fill="#191C26"/>
<path d="M201.63 108.9C201.28 108.97 201.21 109.32 201.14 109.6C201.07 109.88 201.14 110.16 201.21 110.44C201.28 110.58 201.35 110.79 201.49 110.86C201.63 110.93 201.7 110.93 201.84 110.93C201.98 110.86 202.05 110.79 202.12 110.72C202.26 110.51 202.33 110.23 202.33 109.95C202.33 109.67 202.26 109.39 202.12 109.11C201.98 108.9 201.77 108.76 201.56 108.76C201.35 108.76 201.07 108.9 201 109.11C200.86 109.46 200.86 109.81 200.93 110.23C200.93 110.37 201 110.51 201.07 110.65C201.14 110.72 201.21 110.79 201.28 110.86C201.42 110.93 201.63 110.93 201.77 110.86C202.12 110.72 202.26 110.23 202.26 109.88C202.26 109.74 202.26 109.53 202.19 109.39C202.19 109.32 202.12 109.18 202.05 109.11C201.98 108.97 201.91 108.9 201.77 108.83C201.63 108.76 201.42 108.76 201.28 108.83C201.14 108.9 201.07 109.11 201.14 109.32C201.14 109.39 201.21 109.46 201.21 109.6C201.21 109.67 201.28 109.67 201.28 109.74C201.28 109.67 201.28 109.67 201.21 109.6C201.21 109.67 201.28 109.74 201.28 109.88C201.28 109.81 201.28 109.81 201.28 109.74C201.28 109.81 201.28 109.95 201.28 110.02C201.28 109.95 201.28 109.95 201.28 109.88C201.28 109.95 201.21 110.02 201.21 110.16C201.21 110.09 201.21 110.09 201.28 110.02C201.28 110.02 201.28 110.09 201.21 110.09L201.28 110.02C201.28 110.02 201.28 110.02 201.21 110.09L201.28 110.02C201.28 110.02 201.28 110.02 201.21 110.02C201.28 110.02 201.28 110.02 201.35 109.95C201.42 109.95 201.42 109.95 201.49 109.95C201.49 109.95 201.49 109.95 201.42 109.95C201.49 109.95 201.49 109.95 201.56 109.95C201.63 109.95 201.63 109.95 201.7 110.02L201.77 110.09C201.77 110.09 201.77 110.09 201.7 110.02L201.77 110.09C201.77 110.09 201.77 110.02 201.7 110.02C201.7 110.09 201.7 110.09 201.77 110.16C201.77 110.09 201.7 110.02 201.7 109.88C201.7 109.95 201.7 109.95 201.7 110.02C201.7 109.88 201.7 109.74 201.7 109.6C201.7 109.67 201.7 109.67 201.7 109.74C201.7 109.6 201.7 109.53 201.77 109.39C201.77 109.46 201.77 109.46 201.7 109.53C201.7 109.53 201.7 109.53 201.7 109.46L201.63 109.53L201.56 109.6C201.49 109.6 201.49 109.6 201.42 109.67C201.35 109.67 201.35 109.67 201.28 109.67C201.21 109.67 201.21 109.67 201.14 109.67C201.14 109.67 201.14 109.67 201.21 109.67C201.14 109.67 201.14 109.67 201.07 109.6C201.07 109.6 201.07 109.6 201.14 109.6L201.07 109.53C201.14 109.6 201.14 109.6 201.21 109.67L201.14 109.6C201.21 109.67 201.21 109.74 201.28 109.81C201.28 109.81 201.28 109.74 201.21 109.74C201.28 109.81 201.28 109.95 201.28 110.02C201.28 110.02 201.28 110.16 201.28 110.02V110.09C201.28 110.09 201.28 110.09 201.28 110.16C201.28 110.23 201.28 110.16 201.28 110.09V110.16C201.28 110.23 201.28 110.23 201.21 110.3C201.21 110.37 201.21 110.3 201.21 110.3C201.21 110.3 201.21 110.3 201.21 110.37V110.44L201.28 110.37C201.35 110.3 201.42 110.3 201.49 110.37C201.49 110.37 201.56 110.37 201.56 110.44C201.63 110.51 201.63 110.51 201.56 110.44C201.56 110.44 201.56 110.44 201.56 110.37C201.56 110.44 201.56 110.44 201.56 110.44V110.37C201.56 110.3 201.56 110.3 201.49 110.23V110.16C201.49 110.23 201.49 110.23 201.49 110.16C201.49 110.16 201.49 110.16 201.49 110.09C201.49 110.02 201.49 109.88 201.49 109.74V109.67C201.49 109.67 201.49 109.67 201.49 109.6C201.49 109.67 201.49 109.67 201.49 109.6C201.49 109.53 201.49 109.53 201.56 109.46C201.56 109.39 201.56 109.39 201.56 109.32C201.56 109.25 201.56 109.39 201.56 109.25C201.56 109.18 201.56 109.11 201.56 109.04C201.91 108.9 201.77 108.83 201.63 108.9Z" fill="#191C26"/>
<path d="M207.72 106.31C208 106.1 208.35 105.96 208.7 105.89C209.05 105.82 209.4 105.75 209.75 105.75C210.17 105.75 210.59 105.82 211.01 105.96C211.43 106.1 211.85 106.38 212.27 106.45C212.48 106.52 212.62 106.24 212.48 106.1C212.2 105.68 211.57 105.54 211.15 105.4C210.66 105.26 210.17 105.19 209.68 105.19C208.84 105.19 207.93 105.47 207.44 106.17C207.3 106.31 207.58 106.45 207.72 106.31Z" fill="#191C26"/>
<path d="M202.68 106.03C202.54 105.89 202.47 105.75 202.33 105.68C202.19 105.61 201.98 105.54 201.84 105.47C201.49 105.33 201.14 105.33 200.79 105.33C200.44 105.33 200.09 105.4 199.74 105.54C199.6 105.61 199.39 105.68 199.25 105.75C199.11 105.82 198.97 106.03 198.97 106.17C198.97 106.24 199.04 106.24 199.04 106.31C199.18 106.38 199.32 106.31 199.46 106.24C199.6 106.17 199.74 106.1 199.88 106.03C200.16 105.96 200.44 105.89 200.72 105.89C201 105.89 201.28 105.89 201.56 105.96C201.7 106.03 201.84 106.03 201.98 106.1C202.12 106.17 202.26 106.17 202.4 106.24C202.68 106.38 202.82 106.1 202.68 106.03Z" fill="#191C26"/>
<path d="M207.86 197.17C207.86 197.8 207.93 198.43 208 199.06C208.07 199.69 208.14 200.32 208.21 200.95C208.35 202.21 208.49 203.47 208.63 204.66C208.77 205.71 208.77 206.76 209.33 207.74C209.82 208.65 210.59 209.42 211.36 210.12C211.64 210.33 211.99 209.98 211.71 209.77C210.94 209.07 210.17 208.3 209.68 207.39C209.19 206.41 209.19 205.22 209.05 204.17C208.91 202.98 208.77 201.86 208.63 200.67C208.56 200.11 208.49 199.55 208.42 198.99C208.35 198.43 208.28 197.8 208.14 197.24C208.14 196.89 207.86 196.96 207.86 197.17Z" fill="#40507F"/>
<path d="M201.49 195.84C202.54 196.33 203.59 196.54 204.71 196.75C205.83 196.96 206.95 197.31 208.07 197.52C209.26 197.66 210.45 197.66 211.64 197.59C212.9 197.52 214.23 197.38 215.49 197.24C215.91 197.17 215.91 196.61 215.49 196.61C213.11 196.61 210.73 197.17 208.28 196.89C207.16 196.75 206.04 196.4 204.92 196.19C203.8 195.98 202.68 195.91 201.63 195.56C201.49 195.49 201.35 195.77 201.49 195.84Z" fill="#40507F"/>
<path d="M210.87 198.08C210.73 199.34 210.94 200.67 211.01 202C211.08 203.4 211.22 204.87 211.36 206.27C211.64 209.14 211.99 212.01 212.27 214.88C212.34 215.58 212.48 216.35 212.55 217.05C212.62 217.4 212.62 217.75 212.69 218.1C212.76 218.38 212.76 218.59 212.97 218.8C213.04 218.8 213.04 218.8 213.11 218.8C213.46 218.45 213.18 217.68 213.11 217.26C213.04 216.63 212.97 215.93 212.9 215.3C212.76 213.9 212.55 212.43 212.41 211.03C212.06 208.16 211.78 205.29 211.57 202.35C211.43 200.88 211.5 199.41 211.22 198.01C211.22 197.8 210.94 197.87 210.87 198.08Z" fill="#40507F"/>
<defs>
<linearGradient id="paint0_linear_4_2557" x1="87.2702" y1="51.0676" x2="104.219" y2="168.598" gradientUnits="userSpaceOnUse">
<stop stop-color="white"/>
<stop offset="1" stop-color="white" stop-opacity="0"/>
</linearGradient>
</defs>
</svg>
