<svg width="369" height="367" viewBox="0 0 369 367" fill="none" xmlns="http://www.w3.org/2000/svg">
<g clip-path="url(#clip0_287_3764)">
<path d="M326.101 17.2044C300.577 1.34279 269.848 -0.41962 242.897 12.8404C219.892 24.0862 202.009 43.2209 179.004 54.4667C147.52 69.8248 113.012 78.2173 81.192 92.9879C49.4555 107.675 18.9784 130.754 7.55993 163.904C-5.87352 203.012 -1.08786 249.003 19.3981 284.838C52.8139 342.998 119.058 363.643 182.782 362.888C317.537 361.293 386.971 198.145 364.974 80.9028C360.272 55.4738 348.518 31.1358 326.101 17.2044Z" fill="#0094DE"/>
<path opacity="0.7" d="M326.101 17.2044C300.577 1.34279 269.848 -0.41962 242.897 12.8404C219.892 24.0862 202.009 43.2209 179.004 54.4667C147.52 69.8248 113.012 78.2173 81.192 92.9879C49.4555 107.675 18.9784 130.754 7.55993 163.904C-5.87352 203.012 -1.08786 249.003 19.3981 284.838C52.8139 342.998 119.058 363.643 182.782 362.888C317.537 361.293 386.971 198.145 364.974 80.9028C360.272 55.4738 348.518 31.1358 326.101 17.2044Z" fill="white"/>
<path d="M79.5914 234.064L72.5388 235.323L71.1115 227.686L62.7156 229.197L64.1429 236.834L57.0903 238.093L58.6856 246.821L65.7381 245.562L67.0815 253.199L75.4774 251.688L74.0501 243.967L81.1026 242.708L79.5914 234.064Z" stroke="#263077" stroke-miterlimit="10" stroke-linecap="round" stroke-linejoin="round"/>
<path d="M149.949 117.074L143.232 114.724L145.835 107.339L137.775 104.569L135.172 111.871L128.455 109.437L125.517 117.745L132.233 120.179L129.631 127.481L137.691 130.334L140.293 123.033L147.01 125.383L149.949 117.074Z" stroke="#263077" stroke-miterlimit="10" stroke-linecap="round" stroke-linejoin="round"/>
<path d="M320.469 204.523L314.089 207.88L310.478 200.998L302.922 205.027L306.616 211.824L300.235 215.181L304.349 222.986L310.73 219.629L314.34 226.511L321.897 222.567L318.203 215.685L324.583 212.328L320.469 204.523Z" stroke="#263077" stroke-miterlimit="10" stroke-linecap="round" stroke-linejoin="round"/>
<path d="M50.1215 215.853C52.95 215.853 55.243 213.561 55.243 210.733C55.243 207.906 52.95 205.614 50.1215 205.614C47.293 205.614 45 207.906 45 210.733C45 213.561 47.293 215.853 50.1215 215.853Z" stroke="#263077" stroke-miterlimit="10" stroke-linecap="round" stroke-linejoin="round"/>
<path d="M130.134 142.083C130.134 142.839 129.547 143.426 128.791 143.426C128.035 143.426 127.448 142.839 127.448 142.083C127.448 141.328 128.035 140.741 128.791 140.741C129.547 140.741 130.134 141.328 130.134 142.083Z" stroke="#263077" stroke-miterlimit="10" stroke-linecap="round" stroke-linejoin="round"/>
<path d="M67.9209 118.753C67.9209 121.438 65.738 123.536 63.1353 123.536C60.4486 123.536 58.3496 121.354 58.3496 118.753C58.3496 116.151 60.5325 113.969 63.1353 113.969C65.738 113.969 67.9209 116.067 67.9209 118.753Z" stroke="#263077" stroke-miterlimit="10" stroke-linecap="round" stroke-linejoin="round"/>
<path d="M279.497 183.794C279.497 185.304 278.322 186.479 276.811 186.479C275.299 186.479 274.124 185.304 274.124 183.794C274.124 182.283 275.299 181.108 276.811 181.108C278.322 181.024 279.497 182.283 279.497 183.794Z" stroke="#263077" stroke-miterlimit="10" stroke-linecap="round" stroke-linejoin="round"/>
<path d="M252.043 100.877C255.382 100.877 258.088 98.1714 258.088 94.8342C258.088 91.497 255.382 88.7917 252.043 88.7917C248.704 88.7917 245.998 91.497 245.998 94.8342C245.998 98.1714 248.704 100.877 252.043 100.877Z" stroke="#263077" stroke-miterlimit="10" stroke-linecap="round" stroke-linejoin="round"/>
<path d="M208.356 149.469C208.691 149.972 218.347 151.903 223.3 159.12C228.254 166.338 230.605 172.464 230.605 172.464C230.605 172.464 238.917 177.416 243.199 181.528C247.481 185.64 252.602 191.095 256.548 193.949C260.494 196.802 268.554 202.173 270.653 208.551C270.653 208.551 258.479 241.785 255.037 249.171C251.595 256.556 243.115 272.166 243.115 272.166L228.002 336.368H140.349L137.326 314.38C137.326 314.38 110.459 309.092 99.2089 299.273C99.2089 299.273 98.1174 274.935 102.819 253.199C107.521 231.463 123.473 186.311 134.304 172.548C134.304 172.548 151.599 164.323 166.796 161.638C166.796 161.638 176.703 153.833 183.168 152.994C189.717 152.07 208.356 149.469 208.356 149.469Z" fill="white"/>
<path d="M138.586 324.199C146.394 325.709 153.194 326.968 161.087 326.884C168.979 326.8 177.123 325.038 183.588 320.506C184.931 319.583 186.19 318.492 187.786 318.072C191.228 317.065 194.67 319.415 198.029 320.422C202.394 321.765 207.096 321.094 211.378 319.499C215.66 317.904 219.438 315.387 223.216 312.869C222.629 320.59 222.461 328.311 222.713 336.032L228.086 336.284L241.939 275.439C241.939 275.439 218.263 302.882 206.76 311.107L184.679 305.4C184.679 305.4 182.58 307.162 178.214 308.001C178.214 308.001 176.199 315.722 164.949 315.722C153.698 315.722 137.494 314.212 137.494 314.212L138.586 324.199Z" fill="#0094DE"/>
<path opacity="0.5" d="M138.586 324.199C146.394 325.709 153.194 326.968 161.087 326.884C168.979 326.8 177.123 325.038 183.588 320.506C184.931 319.583 186.19 318.492 187.786 318.072C191.228 317.065 194.67 319.415 198.029 320.422C202.394 321.765 207.096 321.094 211.378 319.499C215.66 317.904 219.438 315.387 223.216 312.869C222.629 320.59 222.461 328.311 222.713 336.032L228.086 336.284L241.939 275.439C241.939 275.439 218.263 302.882 206.76 311.107L184.679 305.4C184.679 305.4 182.58 307.162 178.214 308.001C178.214 308.001 176.199 315.722 164.949 315.722C153.698 315.722 137.494 314.212 137.494 314.212L138.586 324.199Z" fill="white"/>
<path d="M115.917 210.733C115.917 210.733 105.59 260.584 106.178 277.705C106.178 277.705 120.115 273.76 129.854 277.705C129.854 277.705 113.314 275.858 106.178 283.412C99.041 291.049 121.038 310.939 164.949 306.91C164.949 306.91 173.681 309.68 178.13 308.085C178.13 308.085 176.955 316.058 164.865 315.806C152.775 315.303 117.596 315.051 99.2929 299.189C99.2929 299.189 97.026 253.367 115.917 210.733Z" fill="#0094DE"/>
<path opacity="0.6" d="M115.917 210.733C115.917 210.733 105.59 260.584 106.178 277.705C106.178 277.705 120.115 273.76 129.854 277.705C129.854 277.705 113.314 275.858 106.178 283.412C99.041 291.049 121.038 310.939 164.949 306.91C164.949 306.91 173.681 309.68 178.13 308.085C178.13 308.085 176.955 316.058 164.865 315.806C152.775 315.303 117.596 315.051 99.2929 299.189C99.2929 299.189 97.026 253.367 115.917 210.733Z" fill="white"/>
<path d="M136.906 220.301C136.906 220.301 139.929 242.373 144.798 246.989C149.668 251.604 172.505 250.094 181.572 255.045C181.572 255.045 190.052 240.359 205.417 231.127L184.595 263.941L166.544 259.661L144.547 256.304L142.699 260.584H139.425C139.425 260.5 139.005 237.002 136.906 220.301Z" fill="#0094DE"/>
<path opacity="0.5" d="M136.906 220.301C136.906 220.301 139.929 242.373 144.798 246.989C149.668 251.604 172.505 250.094 181.572 255.045C181.572 255.045 190.052 240.359 205.417 231.127L184.595 263.941L166.544 259.661L144.547 256.304L142.699 260.584H139.425C139.425 260.5 139.005 237.002 136.906 220.301Z" fill="white"/>
<path d="M223.133 175.317C232.536 180.856 233.627 187.151 235.558 191.599C230.689 192.606 225.567 193.613 221.537 196.55C216.5 200.243 213.729 206.285 211.63 212.16C209.615 217.699 207.936 223.406 206.593 229.197C211.126 220.972 217.675 213.922 225.483 208.803C230.017 205.782 235.642 203.432 240.764 205.11C236.398 206.957 231.528 209.475 230.605 214.006C230.437 214.762 230.437 215.601 230.689 216.356C231.444 218.538 234.131 219.126 236.23 220.133C240.26 222.231 242.275 226.847 242.443 231.379C242.611 235.827 241.268 240.275 239.84 244.555C238.665 248.331 237.406 252.024 236.23 255.801C234.719 260.584 233.124 265.452 230.353 269.648C227.582 273.844 223.384 277.369 218.431 278.208C216.332 278.544 214.149 278.376 212.302 277.537C210.791 276.866 209.531 275.691 208.272 274.684C202.395 269.9 195.09 266.795 187.618 265.788C197.357 272.25 201.975 283.915 206.005 294.909C204.158 291.636 201.471 288.951 198.281 287.02C197.441 286.517 196.434 286.013 195.426 286.097C192.739 286.349 191.9 289.706 190.305 291.804C188.373 294.322 184.931 295.245 181.741 294.825C178.634 294.406 175.696 292.979 172.925 291.468C161.003 285.342 149.165 279.215 137.242 273.089L134.724 280.642C134.724 280.642 163.186 303.302 206.677 311.358C206.677 311.358 234.971 289.035 244.962 269.228C254.953 249.422 270.569 208.803 270.569 208.803C270.569 208.803 264.86 197.977 255.121 192.354C255.121 192.354 247.816 188.913 246.305 184.633C244.794 180.353 231.025 173.051 231.025 173.051C231.025 173.051 232.872 177.332 223.133 175.317Z" fill="#0094DE"/>
<path opacity="0.6" d="M223.133 175.317C232.536 180.856 233.627 187.151 235.558 191.599C230.689 192.606 225.567 193.613 221.537 196.55C216.5 200.243 213.729 206.285 211.63 212.16C209.615 217.699 207.936 223.406 206.593 229.197C211.126 220.972 217.675 213.922 225.483 208.803C230.017 205.782 235.642 203.432 240.764 205.11C236.398 206.957 231.528 209.475 230.605 214.006C230.437 214.762 230.437 215.601 230.689 216.356C231.444 218.538 234.131 219.126 236.23 220.133C240.26 222.231 242.275 226.847 242.443 231.379C242.611 235.827 241.268 240.275 239.84 244.555C238.665 248.331 237.406 252.024 236.23 255.801C234.719 260.584 233.124 265.452 230.353 269.648C227.582 273.844 223.384 277.369 218.431 278.208C216.332 278.544 214.149 278.376 212.302 277.537C210.791 276.866 209.531 275.691 208.272 274.684C202.395 269.9 195.09 266.795 187.618 265.788C197.357 272.25 201.975 283.915 206.005 294.909C204.158 291.636 201.471 288.951 198.281 287.02C197.441 286.517 196.434 286.013 195.426 286.097C192.739 286.349 191.9 289.706 190.305 291.804C188.373 294.322 184.931 295.245 181.741 294.825C178.634 294.406 175.696 292.979 172.925 291.468C161.003 285.342 149.165 279.215 137.242 273.089L134.724 280.642C134.724 280.642 163.186 303.302 206.677 311.358C206.677 311.358 234.971 289.035 244.962 269.228C254.953 249.422 270.569 208.803 270.569 208.803C270.569 208.803 264.86 197.977 255.121 192.354C255.121 192.354 247.816 188.913 246.305 184.633C244.794 180.353 231.025 173.051 231.025 173.051C231.025 173.051 232.872 177.332 223.133 175.317Z" fill="white"/>
<path d="M220.11 98.1073C220.11 98.1073 222.041 75.8674 212.469 73.7693C202.898 71.6712 197.525 62.8591 197.525 62.8591L163.521 72.3426L158.232 92.7361L161.59 103.059C161.59 103.059 162.262 112.626 162.43 117.41C162.598 122.193 162.43 125.802 166.04 131.593C169.65 137.3 173.009 143.091 180.733 148.042V161.134C180.733 161.134 175.947 175.15 178.55 183.71C178.55 183.71 180.145 185.388 184.511 182.871C188.877 180.353 207.6 167.848 214.149 154.756L216.164 121.522C216.164 121.522 221.537 122.361 223.888 117.41C227.33 112.626 227.162 107.003 225.819 102.387C224.476 97.8555 218.766 100.793 218.766 100.793L220.11 98.1073Z" fill="#999999"/>
<path d="M181.069 130.67C181.069 130.67 183.756 127.313 188.709 127.649C188.709 127.649 192.823 121.186 197.105 122.361C197.105 122.361 198.448 129.159 193.243 131.929C186.526 135.37 181.069 130.67 181.069 130.67Z" fill="#737373"/>
<path d="M168.475 69.4891C168.475 69.4891 160.331 80.1475 160.835 91.3094C161.339 102.471 162.934 110.36 162.43 118.92C161.926 127.481 170.994 141.916 180.313 147.706C187.282 152.07 195.93 151.315 202.73 146.783C210.287 141.748 214.485 132.684 215.996 124.04C216.164 123.201 216.248 122.361 216.332 121.438" stroke="#263238" stroke-miterlimit="10" stroke-linecap="round" stroke-linejoin="round"/>
<path d="M180.313 147.706C180.313 147.706 181.657 159.708 180.313 163.82C178.886 168.352 177.123 178.842 178.634 183.626C180.146 188.41 208.776 168.352 214.317 154.672C214.317 154.672 215.072 127.984 217.004 121.354" stroke="#263238" stroke-miterlimit="10" stroke-linecap="round" stroke-linejoin="round"/>
<path d="M179.558 130.334C179.558 130.334 192.571 134.027 197.861 120.599" stroke="#263238" stroke-miterlimit="10" stroke-linecap="round" stroke-linejoin="round"/>
<path d="M180.565 150.644C180.565 150.644 183.336 159.204 189.297 159.708C195.258 160.211 210.202 148.21 215.324 134.111V127.061C215.324 127.061 211.126 145.524 198.868 148.881C186.61 152.322 180.817 147.958 180.817 147.958L180.565 150.644Z" fill="#263238"/>
<path d="M197.105 122.361C191.312 121.942 188.709 127.649 188.709 127.649C183.756 127.061 181.069 130.67 181.069 130.67C181.069 130.67 185.183 134.866 191.732 132.6C198.28 130.334 197.105 122.361 197.105 122.361Z" stroke="#263238" stroke-miterlimit="10" stroke-linecap="round" stroke-linejoin="round"/>
<path d="M182.58 97.0162C182.58 99.7018 182.58 102.387 182.244 104.989C181.909 107.339 180.817 109.605 179.894 111.871C179.054 113.885 177.627 116.99 178.802 119.172C180.145 121.606 184.511 119.172 184.511 119.172" stroke="#263238" stroke-miterlimit="10" stroke-linecap="round" stroke-linejoin="round"/>
<path d="M187.282 118.669C188.793 118.837 190.892 118.669 191.312 116.067" stroke="#263238" stroke-miterlimit="10" stroke-linecap="round" stroke-linejoin="round"/>
<path d="M192.151 93.8271C192.151 93.8271 197.105 88.9595 202.814 93.8271" stroke="#263238" stroke-width="2" stroke-miterlimit="10" stroke-linecap="round" stroke-linejoin="round"/>
<path d="M175.192 95.9252C175.192 95.9252 171.246 90.8898 166.124 95.9252" stroke="#263238" stroke-width="2" stroke-miterlimit="10" stroke-linecap="round" stroke-linejoin="round"/>
<path d="M213.225 108.682C213.225 108.682 217.759 97.9394 223.552 100.205C227.582 101.8 227.834 108.766 225.735 113.549C223.552 118.333 222.545 123.368 215.408 120.599" stroke="#263238" stroke-miterlimit="10" stroke-linecap="round" stroke-linejoin="round"/>
<path d="M213.981 107.003C213.981 107.003 209.699 105.493 208.859 98.443C208.104 91.4773 212.385 84.4276 210.79 79.3083C209.195 74.1889 196.601 76.7905 193.747 67.9785C193.747 67.9785 184.343 75.0281 166.04 73.5175C166.04 73.5175 162.178 80.0636 161.506 84.0919C160.835 87.9524 160.415 96.2609 161.59 102.975C161.59 103.227 161.674 103.394 161.674 103.646C163.018 110.444 156.469 94.3307 156.637 87.4489C156.805 80.5671 152.691 71.839 158.064 65.2929C163.437 58.7469 183.336 54.9703 187.282 51.949C191.228 48.9277 198.868 57.0684 207.6 60.0896C216.332 63.1109 223.72 66.7196 222.545 79.1404C221.453 91.5612 222.628 93.2397 222.628 99.8697C222.712 99.8697 218.598 98.359 213.981 107.003Z" fill="#263238"/>
<path d="M197.441 102.975C197.441 104.653 196.769 106.08 196.014 106.08C195.174 106.08 194.586 104.737 194.586 102.975C194.586 101.296 195.258 99.8697 196.014 99.8697C196.853 99.8697 197.441 101.212 197.441 102.975Z" fill="#263238"/>
<path d="M175.192 102.975C175.192 104.653 174.52 106.08 173.764 106.08C172.925 106.08 172.337 104.737 172.337 102.975C172.337 101.296 173.009 99.8697 173.764 99.8697C174.52 99.8697 175.192 101.212 175.192 102.975Z" fill="#263238"/>
<path d="M192.151 107.003C192.151 107.003 195.174 110.192 198.952 110.612" stroke="#263238" stroke-miterlimit="10" stroke-linecap="round" stroke-linejoin="round"/>
<path d="M171.666 110.612C171.666 110.612 177.123 110.192 178.382 107.003" stroke="#263238" stroke-miterlimit="10" stroke-linecap="round" stroke-linejoin="round"/>
<path d="M184.427 185.724C188.541 183.122 193.915 184.129 198.364 185.976C200.799 186.983 203.15 188.242 205.585 189.333C206.76 189.836 208.02 190.34 209.279 190.676C212.386 191.515 211.21 187.654 211.042 185.976C210.79 183.542 210.622 181.108 210.287 178.674C210.203 178.171 210.203 177.583 210.455 177.164C210.706 176.744 211.21 176.576 211.63 176.408C217.003 174.73 222.797 175.485 228.422 175.569C228.926 175.569 229.513 175.569 229.933 175.317C230.773 174.73 230.689 173.555 230.437 172.548C228.506 164.239 221.621 156.015 214.233 151.903" stroke="#263238" stroke-miterlimit="10" stroke-linecap="round" stroke-linejoin="round"/>
<path d="M180.817 153.161C177.123 154.672 173.345 156.351 170.154 158.7C168.979 159.54 167.888 160.463 166.964 161.554C166.292 162.309 165.621 163.316 165.621 164.323C165.621 165.33 166.208 166.17 166.964 166.841C167.552 167.345 168.139 167.68 168.811 168.016C170.322 168.771 172.085 169.443 172.841 171.037C173.009 171.373 173.093 171.709 173.009 172.128C172.925 172.464 172.757 172.716 172.505 172.968C171.246 174.478 168.979 175.737 169.147 177.751C169.231 179.262 170.826 180.269 172.253 180.94C173.681 181.612 175.276 182.367 175.78 183.794" stroke="#263238" stroke-miterlimit="10" stroke-linecap="round" stroke-linejoin="round"/>
<path d="M158.904 74.5246C159.408 71.1676 162.934 68.9856 166.292 68.4821C169.651 67.8946 173.093 68.4821 176.535 68.2303C182.244 67.7267 187.618 64.6215 190.892 59.9218" stroke="white" stroke-miterlimit="10" stroke-linecap="round" stroke-linejoin="round"/>
<path d="M162.682 65.0412C168.811 61.4324 177.374 65.209 183.252 61.3485C185.015 60.2575 186.274 58.579 187.617 56.9005" stroke="white" stroke-miterlimit="10" stroke-linecap="round" stroke-linejoin="round"/>
<path d="M240.428 202.761C218.599 207.125 210.455 223.154 210.455 223.154L184.595 263.857" stroke="#263238" stroke-miterlimit="10" stroke-linecap="round" stroke-linejoin="round"/>
<path d="M221.957 198.397C223.804 196.718 225.819 195.291 228.002 194.284" stroke="#263238" stroke-miterlimit="10" stroke-linecap="round" stroke-linejoin="round"/>
<path d="M206.676 229.113C206.676 229.113 209.447 214.426 217.339 203.6" stroke="#263238" stroke-miterlimit="10" stroke-linecap="round" stroke-linejoin="round"/>
<path d="M139.425 260.5C139.425 260.5 138.334 215.433 134.388 208.551" stroke="#263238" stroke-miterlimit="10" stroke-linecap="round" stroke-linejoin="round"/>
<path d="M230.605 172.548C230.605 172.548 243.199 180.101 248.824 187.235C254.449 194.368 267.631 199.068 270.653 208.635C270.653 208.635 253.274 263.438 234.971 283.244C216.752 303.05 206.676 311.19 206.676 311.19C206.676 311.19 162.85 303.553 134.388 279.719L144.547 256.304C144.547 256.304 173.261 259.913 184.595 263.941C195.93 267.97 206.676 292.391 206.676 292.391" stroke="#263238" stroke-miterlimit="10" stroke-linecap="round" stroke-linejoin="round"/>
<path d="M184.595 263.941C184.595 263.941 204.661 267.802 211.21 276.949" stroke="#263238" stroke-miterlimit="10" stroke-linecap="round" stroke-linejoin="round"/>
<path d="M242.359 273.341L228.086 336.284H140.349L137.41 314.296" stroke="#263238" stroke-miterlimit="10" stroke-linecap="round" stroke-linejoin="round"/>
<path d="M178.13 308.085C173.261 317.988 166.88 315.806 166.88 315.806C117.512 317.653 99.2927 299.189 99.2927 299.189C99.2927 299.189 96.774 273.257 106.513 238.177C116.252 203.096 134.388 172.464 134.388 172.464C142.448 167.093 160.415 162.897 165.536 161.806C166.376 161.638 166.88 161.554 166.88 161.554" stroke="#263238" stroke-miterlimit="10" stroke-linecap="round" stroke-linejoin="round"/>
<path d="M166.88 315.806C166.88 315.806 164.277 315.387 164.949 298.098" stroke="#263238" stroke-miterlimit="10" stroke-linecap="round" stroke-linejoin="round"/>
<path d="M135.731 280.726C135.731 280.726 123.389 276.362 108.108 286.936" stroke="#263238" stroke-miterlimit="10" stroke-linecap="round" stroke-linejoin="round"/>
<path d="M110.879 276.949C110.879 276.949 127.083 272.166 134.387 279.803" stroke="#263238" stroke-miterlimit="10" stroke-linecap="round" stroke-linejoin="round"/>
<path d="M132.625 279.383L134.723 280.474L142.7 260.5C142.7 260.5 134.388 259.158 121.29 275.439C121.29 275.523 126.915 275.187 132.625 279.383Z" fill="#999999" stroke="#263238" stroke-miterlimit="10"/>
<path d="M164.949 298.014V306.91C164.949 306.91 176.283 310.267 184.595 305.484L164.949 298.014Z" fill="#999999" stroke="#263238" stroke-miterlimit="10"/>
<path d="M226.238 175.485C226.238 175.653 226.238 175.821 226.155 175.989C225.819 177.332 217.171 209.894 189.548 224.413C189.297 224.581 189.045 224.581 188.793 224.581C188.205 224.581 187.617 224.245 187.282 223.658C186.862 222.818 187.198 221.811 187.953 221.392C213.141 208.216 222.041 178.087 222.796 175.317L226.238 175.485Z" fill="#263238"/>
<path d="M166.88 166.841C164.025 173.051 160.331 183.878 159.911 198.397C159.911 199.32 159.911 200.159 159.911 201.082C159.911 201.334 159.911 201.502 159.911 201.753C159.659 201.753 159.407 201.753 159.155 201.837C158.232 202.005 157.392 202.257 156.553 202.677C156.553 201.418 156.553 200.243 156.553 199.068C156.889 180.269 162.514 167.429 165.536 161.89C166.376 161.722 166.88 161.638 166.88 161.638C166.208 162.393 165.536 163.4 165.536 164.407C165.536 165.33 166.124 166.17 166.88 166.841Z" fill="#263238"/>
<path d="M199.96 216.776C201.891 219.545 200.296 223.993 196.35 226.931C192.403 229.868 187.618 229.868 185.603 227.182C183.672 224.413 185.267 219.965 189.213 217.028C193.159 214.174 197.945 214.09 199.96 216.776Z" fill="white" stroke="#263238" stroke-miterlimit="10" stroke-linecap="round" stroke-linejoin="round"/>
<path d="M195.006 215.181C196.433 217.112 195.258 220.301 192.487 222.315C189.717 224.329 186.274 224.413 184.931 222.483C183.504 220.552 184.679 217.363 187.45 215.349C190.22 213.335 193.663 213.251 195.006 215.181Z" fill="white" stroke="#263238" stroke-miterlimit="10" stroke-linecap="round" stroke-linejoin="round"/>
<path d="M172.841 249.255C172.085 249.842 171.078 249.674 170.49 248.919C169.986 248.164 170.07 247.156 170.826 246.569C170.994 246.485 176.619 241.617 174.1 225.504C173.848 224.161 173.596 222.651 173.26 221.14C172.169 216.272 170.574 210.062 167.215 205.53C165.284 202.928 162.682 201.586 159.827 201.837C159.575 201.837 159.323 201.837 159.071 201.921C158.148 202.089 157.308 202.341 156.469 202.761C154.118 203.936 152.187 206.118 151.179 208.971L150.843 209.81C149.584 213.419 147.485 219.378 146.226 225.588C144.882 232.134 144.462 239.1 146.813 243.883C148.157 246.653 150.256 248.415 153.362 249.422C154.286 249.674 154.705 250.681 154.454 251.52C154.202 252.192 153.53 252.695 152.858 252.695C152.69 252.695 152.523 252.695 152.355 252.611C148.493 251.353 145.638 248.919 143.875 245.394C141.188 239.939 141.524 232.554 142.867 225.588C144.127 218.874 146.394 212.496 147.737 208.719L148.073 207.88C149.584 203.684 152.69 200.495 156.553 199.152C157.224 198.9 157.98 198.732 158.652 198.648C159.071 198.564 159.491 198.564 159.911 198.564C163.773 198.397 167.383 200.243 169.902 203.684C173.68 208.719 175.443 215.349 176.535 220.552C176.955 222.315 177.207 224.077 177.458 225.672C180.145 243.632 173.176 249.003 172.841 249.255Z" fill="#263238" stroke="#263238" stroke-miterlimit="10"/>
<path d="M151.683 252.276C151.683 252.276 157.812 254.794 159.323 252.276C160.834 249.758 159.659 248.583 157.476 248.331C155.377 248.163 151.179 248.331 151.179 248.331L151.683 252.276Z" fill="#263238" stroke="#263238" stroke-miterlimit="10"/>
<path d="M154.454 251.437C154.202 252.108 153.53 252.611 152.858 252.611C152.69 252.611 152.523 252.611 152.355 252.528C148.493 251.269 145.638 248.835 143.875 245.31C141.188 239.855 141.524 232.47 142.867 225.504H146.226C144.882 232.134 144.462 239.016 146.813 243.799C148.157 246.569 150.256 248.331 153.362 249.338C154.286 249.59 154.789 250.597 154.454 251.437Z" fill="white" stroke="#263238" stroke-miterlimit="10" stroke-linecap="round" stroke-linejoin="round"/>
<path d="M167.215 247.408C166.712 247.996 166.46 248.835 166.544 249.59C166.796 250.765 168.055 251.52 169.23 251.437C170.406 251.353 171.497 250.597 172.253 249.758C173.093 248.835 176.031 242.708 173.344 243.716C171.497 244.471 168.559 245.73 167.215 247.408Z" fill="#263238" stroke="#263238" stroke-miterlimit="10"/>
<path d="M172.841 249.255C172.085 249.842 171.078 249.674 170.49 248.919C169.986 248.164 170.07 247.156 170.826 246.569C170.994 246.485 176.619 241.701 174.1 225.504H177.458C180.145 243.632 173.177 249.003 172.841 249.255Z" fill="white" stroke="#263238" stroke-miterlimit="10" stroke-linecap="round" stroke-linejoin="round"/>
<path opacity="0.2" d="M187.954 100.877C187.954 100.877 198.532 95.4217 208.272 100.877C208.272 100.877 208.44 109.017 204.745 112.29C203.486 113.465 197.441 113.717 195.258 113.465C186.022 112.71 187.954 100.877 187.954 100.877Z" fill="white"/>
<path opacity="0.2" d="M181.321 100.877C181.321 100.877 170.742 95.4217 161.003 100.877C161.003 100.877 160.835 109.017 164.529 112.29C165.788 113.465 171.833 113.717 174.016 113.465C183.168 112.71 181.321 100.877 181.321 100.877Z" fill="white"/>
<path d="M187.954 100.877C187.954 100.877 198.532 95.4217 208.272 100.877C208.272 100.877 208.44 109.017 204.745 112.29C203.486 113.465 197.441 113.717 195.258 113.465C186.022 112.71 187.954 100.877 187.954 100.877Z" stroke="#263238" stroke-miterlimit="10"/>
<path d="M181.321 100.877C181.321 100.877 170.742 95.4217 161.003 100.877C161.003 100.877 160.835 109.017 164.529 112.29C165.788 113.465 171.833 113.717 174.016 113.465C183.168 112.71 181.321 100.877 181.321 100.877Z" stroke="#263238" stroke-miterlimit="10"/>
<path d="M181.321 100.877C181.321 100.877 183.672 99.1143 187.954 100.877" stroke="#263238" stroke-miterlimit="10"/>
<path d="M208.188 100.877L212.637 102.975" stroke="#263238" stroke-miterlimit="10"/>
<path d="M36 358.608L67.0648 329.318H313.653L332.375 358.608H36Z" fill="white" stroke="#263238" stroke-miterlimit="10" stroke-linecap="round" stroke-linejoin="round"/>
<path d="M332.375 358.608H36V366.496H332.375V358.608Z" fill="#263238" stroke="#263238" stroke-miterlimit="10" stroke-linecap="round" stroke-linejoin="round"/>
<path d="M151 351.39V345.348H199.696V351.39H190.293H151Z" fill="white" stroke="#263238" stroke-miterlimit="10"/>
<path d="M151 345.348L179.714 326.045L218.167 326.968L199.696 345.348H151Z" fill="white" stroke="#263238" stroke-miterlimit="10" stroke-linecap="round" stroke-linejoin="round"/>
<path d="M199.696 351.39L218.167 332.927V326.968L199.696 345.348V351.39Z" fill="white" stroke="#263238" stroke-miterlimit="10" stroke-linecap="round" stroke-linejoin="round"/>
<path d="M198.353 343.753C198.353 343.753 194.491 344.508 194.491 347.865C194.491 351.222 197.849 352.229 197.849 352.229" stroke="#263238" stroke-width="2" stroke-miterlimit="10" stroke-linecap="round" stroke-linejoin="round"/>
<path d="M194.491 343.753C194.491 343.753 190.629 344.508 190.629 347.865C190.629 351.222 193.987 352.229 193.987 352.229" stroke="#263238" stroke-width="2" stroke-miterlimit="10" stroke-linecap="round" stroke-linejoin="round"/>
<path d="M190.629 343.753C190.629 343.753 186.767 344.508 186.767 347.865C186.767 351.222 190.125 352.229 190.125 352.229" stroke="#263238" stroke-width="2" stroke-miterlimit="10" stroke-linecap="round" stroke-linejoin="round"/>
<path d="M186.682 343.753C186.682 343.753 182.82 344.508 182.82 347.865C182.82 351.222 186.179 352.229 186.179 352.229" stroke="#263238" stroke-width="2" stroke-miterlimit="10" stroke-linecap="round" stroke-linejoin="round"/>
<path d="M182.821 343.753C182.821 343.753 178.958 344.508 178.958 347.865C178.958 351.222 182.317 352.229 182.317 352.229" stroke="#263238" stroke-width="2" stroke-miterlimit="10" stroke-linecap="round" stroke-linejoin="round"/>
<path d="M178.958 343.753C178.958 343.753 175.096 344.508 175.096 347.865C175.096 351.222 178.455 352.229 178.455 352.229" stroke="#263238" stroke-width="2" stroke-miterlimit="10" stroke-linecap="round" stroke-linejoin="round"/>
<path d="M175.013 343.753C175.013 343.753 171.15 344.508 171.15 347.865C171.15 351.222 174.509 352.229 174.509 352.229" stroke="#263238" stroke-width="2" stroke-miterlimit="10" stroke-linecap="round" stroke-linejoin="round"/>
<path d="M171.15 343.753C171.15 343.753 167.288 344.508 167.288 347.865C167.288 351.222 170.646 352.229 170.646 352.229" stroke="#263238" stroke-width="2" stroke-miterlimit="10" stroke-linecap="round" stroke-linejoin="round"/>
<path d="M166.784 343.753C166.784 343.753 162.922 344.508 162.922 347.865C162.922 351.222 166.281 352.229 166.281 352.229" stroke="#263238" stroke-width="2" stroke-miterlimit="10" stroke-linecap="round" stroke-linejoin="round"/>
<path d="M162.418 343.753C162.418 343.753 158.556 344.508 158.556 347.865C158.556 351.222 161.915 352.229 161.915 352.229" stroke="#263238" stroke-width="2" stroke-miterlimit="10" stroke-linecap="round" stroke-linejoin="round"/>
<path d="M157.549 343.753C157.549 343.753 153.687 344.508 153.687 347.865C153.687 351.222 157.045 352.229 157.045 352.229" stroke="#263238" stroke-width="2" stroke-miterlimit="10" stroke-linecap="round" stroke-linejoin="round"/>
<path d="M182.233 330.745C179.546 332.172 177.447 334.521 176.188 337.291C179.714 336.2 182.484 333.598 185.171 331.081C184.164 333.514 183.24 335.864 182.233 338.298C184.919 338.13 187.438 336.536 188.781 334.27C187.858 334.605 187.354 335.948 187.942 336.787C190.377 336.452 191.888 334.102 193.147 331.92C193.399 333.095 193.483 334.354 193.399 335.528C195.414 335.78 197.513 335.528 199.444 334.773" stroke="#263238" stroke-width="0.75" stroke-miterlimit="10" stroke-linecap="round" stroke-linejoin="round"/>
<path d="M233.568 299.945H148.937V346.355H233.568V299.945Z" fill="white" stroke="#263238" stroke-miterlimit="10" stroke-linecap="round" stroke-linejoin="round"/>
<path d="M148.601 346.355L135 333.43V286.936L148.601 299.945V346.355Z" fill="white" stroke="#263238" stroke-miterlimit="10" stroke-linecap="round" stroke-linejoin="round"/>
<path d="M233.568 299.945L219.967 286.936H135.336L148.937 299.945H233.568Z" fill="white" stroke="#263238" stroke-miterlimit="10" stroke-linecap="round" stroke-linejoin="round"/>
<path d="M202.419 317.317H194.947V309.512H184.368V317.317H176.224V327.891H184.368V335.696H194.947V327.891H202.419V317.317Z" fill="#263077" stroke="#263238" stroke-miterlimit="10"/>
<path d="M190.497 299.945L176.896 286.936" stroke="#263238" stroke-miterlimit="10" stroke-linecap="round" stroke-linejoin="round"/>
<path d="M92.1537 102.473C102.023 92.6081 102.023 76.6138 92.1537 66.7488C82.2846 56.8838 66.2836 56.8838 56.4145 66.7488C46.5454 76.6138 46.5454 92.6081 56.4145 102.473C66.2836 112.338 82.2846 112.338 92.1537 102.473Z" fill="white" stroke="#263238" stroke-miterlimit="10" stroke-linecap="round" stroke-linejoin="round"/>
<path d="M95.2879 80.735C95.2879 84.0919 93.1889 87.281 89.8305 88.3721L78.58 92.1486L64.8108 96.7645C60.6128 98.1912 55.995 95.9252 54.5677 91.729C54.3159 90.8898 54.1479 90.0505 54.1479 89.2113C54.1479 85.8543 56.2469 82.6652 59.6053 81.5742L72.1152 77.378L84.6251 73.1818C88.823 71.7551 93.4408 74.021 94.8681 78.2172C95.2039 79.0565 95.2879 79.8957 95.2879 80.735Z" fill="white"/>
<path d="M95.2879 80.735C95.2879 84.0919 93.189 87.281 89.8306 88.3721L78.5801 92.1486C78.0763 84.3437 74.1303 79.3082 72.1152 77.2941L84.6251 73.0979C88.8231 71.6712 93.4408 73.9371 94.8681 78.1333C95.204 79.0565 95.2879 79.8957 95.2879 80.735Z" fill="#0094DE"/>
<path d="M95.2879 80.735C95.2879 84.0919 93.1889 87.281 89.8305 88.3721L78.58 92.1486L64.8108 96.7645C60.6128 98.1912 55.995 95.9252 54.5677 91.729C54.3159 90.8898 54.1479 90.0505 54.1479 89.2113C54.1479 85.8543 56.2469 82.6652 59.6053 81.5742L72.1152 77.378L84.6251 73.1818C88.823 71.7551 93.4408 74.021 94.8681 78.2172C95.2039 79.0565 95.2879 79.8957 95.2879 80.735Z" stroke="#263238" stroke-miterlimit="10" stroke-linecap="round" stroke-linejoin="round"/>
<path d="M78.4961 92.2326C78.4961 92.2326 78.5801 84.1758 72.0312 77.378" stroke="#263238" stroke-miterlimit="10" stroke-linecap="round" stroke-linejoin="round"/>
<path d="M92.6011 77.7137C93.1048 78.469 93.3567 79.4761 93.3567 80.651" stroke="white" stroke-miterlimit="10" stroke-linecap="round" stroke-linejoin="round"/>
<path d="M75.3057 78.5529L85.3807 75.196C87.2278 74.6085 89.2429 74.7764 90.8381 75.7834" stroke="white" stroke-miterlimit="10" stroke-linecap="round" stroke-linejoin="round"/>
<path d="M246.091 50.2801C258.944 44.8418 264.953 30.0181 259.513 17.1703C254.072 4.32249 239.243 -1.68414 226.389 3.7541C213.536 9.19233 207.527 24.0161 212.968 36.8639C218.408 49.7117 233.238 55.7183 246.091 50.2801Z" fill="white" stroke="#263238" stroke-miterlimit="10" stroke-linecap="round" stroke-linejoin="round"/>
<path d="M244.903 37.6819L222.822 30.2966C219.044 29.0377 216.945 24.8415 218.204 21.0649C219.463 17.2884 223.661 15.1903 227.44 16.4491L249.521 23.8344C253.299 25.0933 255.398 29.2895 254.138 33.0661C252.879 36.8427 248.765 38.9408 244.903 37.6819Z" fill="#0094DE"/>
<path d="M228.783 29.7091L232.477 20.8971" stroke="#263238" stroke-miterlimit="10" stroke-linecap="round" stroke-linejoin="round"/>
<path d="M240.957 33.7375L244.651 24.9255" stroke="#263238" stroke-miterlimit="10" stroke-linecap="round" stroke-linejoin="round"/>
<path d="M231.805 30.2127C232.223 30.2127 232.561 29.8745 232.561 29.4573C232.561 29.0402 232.223 28.702 231.805 28.702C231.388 28.702 231.05 29.0402 231.05 29.4573C231.05 29.8745 231.388 30.2127 231.805 30.2127Z" fill="#263238"/>
<path d="M239.194 31.6394C239.194 32.059 238.858 32.3947 238.438 32.3947C238.018 32.3947 237.683 32.059 237.683 31.6394C237.683 31.2198 238.018 30.8841 238.438 30.8841C238.858 30.8841 239.194 31.2198 239.194 31.6394Z" fill="#263238"/>
<path d="M234.744 23.5827C235.161 23.5827 235.5 23.2445 235.5 22.8274C235.5 22.4102 235.161 22.072 234.744 22.072C234.327 22.072 233.988 22.4102 233.988 22.8274C233.988 23.2445 234.327 23.5827 234.744 23.5827Z" fill="#263238"/>
<path d="M241.964 24.9255C241.964 25.3451 241.629 25.6808 241.209 25.6808C240.789 25.6808 240.453 25.3451 240.453 24.9255C240.453 24.5058 240.789 24.1701 241.209 24.1701C241.629 24.1701 241.964 24.5058 241.964 24.9255Z" fill="#263238"/>
<path d="M244.903 37.6819L222.822 30.2966C219.044 29.0377 216.945 24.8415 218.204 21.0649C219.463 17.2884 223.661 15.1903 227.44 16.4491L249.521 23.8344C253.299 25.0933 255.398 29.2895 254.138 33.0661C252.879 36.8427 248.765 38.9408 244.903 37.6819Z" stroke="#263238" stroke-miterlimit="10" stroke-linecap="round" stroke-linejoin="round"/>
<path d="M140.794 50.9419C154.751 50.9419 166.065 39.6321 166.065 25.6808C166.065 11.7294 154.751 0.419621 140.794 0.419621C126.836 0.419621 115.522 11.7294 115.522 25.6808C115.522 39.6321 126.836 50.9419 140.794 50.9419Z" fill="white" stroke="#263238" stroke-miterlimit="10" stroke-linecap="round" stroke-linejoin="round"/>
<path d="M155.234 26.3522V36.6748C155.234 39.2765 153.555 41.4585 151.54 41.4585H130.047C127.948 41.4585 126.353 39.3604 126.353 36.6748V26.3522C126.353 23.7505 128.032 21.5685 130.047 21.5685H133.573V15.526H147.846V21.5685H151.54C153.555 21.5685 155.234 23.7505 155.234 26.3522Z" fill="white" stroke="#263238" stroke-miterlimit="10" stroke-linecap="round" stroke-linejoin="round"/>
<path d="M155.234 27.5271H126.269V33.9893H155.234V27.5271Z" fill="#0094DE" stroke="#263238" stroke-miterlimit="10"/>
<path d="M150.701 17.708H131.054V13.0082C131.054 10.4905 133.069 8.47633 135.588 8.47633H146.167C148.686 8.47633 150.701 10.4905 150.701 13.0082V17.708Z" fill="#0094DE" stroke="#263238" stroke-miterlimit="10"/>
<path d="M134.497 8.81203V17.708" stroke="#263238" stroke-miterlimit="10" stroke-linecap="round" stroke-linejoin="round"/>
<path d="M139.114 8.56026V17.708" stroke="#263238" stroke-miterlimit="10" stroke-linecap="round" stroke-linejoin="round"/>
<path d="M143.732 8.56026V17.708" stroke="#263238" stroke-miterlimit="10" stroke-linecap="round" stroke-linejoin="round"/>
<path d="M148.35 9.0638V17.708" stroke="#263238" stroke-miterlimit="10" stroke-linecap="round" stroke-linejoin="round"/>
<path d="M75.9651 163.87C78.2234 150.103 68.8889 137.113 55.116 134.855C41.3431 132.598 28.3472 141.929 26.089 155.696C23.8307 169.463 33.1652 182.453 46.9381 184.711C60.711 186.968 73.7069 177.638 75.9651 163.87Z" fill="white" stroke="#263238" stroke-miterlimit="10" stroke-linecap="round" stroke-linejoin="round"/>
<path d="M63.8519 166.253C66.6073 160.429 62.8263 152.864 55.4069 149.357C47.9874 145.85 39.7391 147.728 36.9837 153.552C34.2283 159.377 38.0093 166.941 45.4287 170.448C52.8482 173.956 61.0965 172.077 63.8519 166.253Z" fill="#0094DE" stroke="#263238" stroke-miterlimit="10" stroke-linecap="round" stroke-linejoin="round"/>
<path d="M64.8253 164.285C67.4022 158.838 63.4766 151.579 56.0572 148.072C48.6377 144.565 40.534 146.137 37.957 151.584C35.3801 157.031 39.3057 164.29 46.7251 167.797C54.1446 171.304 62.2483 169.732 64.8253 164.285Z" fill="#0094DE" stroke="#263238" stroke-miterlimit="10" stroke-linecap="round" stroke-linejoin="round"/>
<path d="M55.6593 150.476L46.5078 163.4" stroke="#263238" stroke-miterlimit="10" stroke-linecap="round" stroke-linejoin="round"/>
<path d="M50.1182 148.378C52.2171 148.63 53.7284 149.217 53.7284 149.217" stroke="white" stroke-miterlimit="10" stroke-linecap="round" stroke-linejoin="round"/>
<path d="M41.9741 160.547C41.9741 160.547 37.2724 155.427 41.8902 150.476C42.9816 149.301 44.325 148.713 45.7523 148.462" stroke="white" stroke-miterlimit="10" stroke-linecap="round" stroke-linejoin="round"/>
<path d="M342.232 163.816C344.489 150.049 335.153 137.06 321.38 134.804C307.607 132.548 294.612 141.88 292.355 155.647C290.099 169.414 299.434 182.403 313.207 184.659C326.98 186.915 339.975 177.584 342.232 163.816Z" fill="white" stroke="#263238" stroke-miterlimit="10" stroke-linecap="round" stroke-linejoin="round"/>
<path d="M331.885 162.309C331.717 162.561 331.465 162.897 331.297 163.148C327.519 168.436 321.642 173.303 317.36 174.226V174.142C313.162 173.219 307.537 168.52 303.758 163.484C303.507 163.232 303.339 162.897 303.171 162.645C299.56 157.442 297.965 151.903 302.079 149.721C310.307 145.105 317.444 155.008 317.444 155.008C317.444 155.008 324.58 145.189 332.808 149.804C336.67 151.987 335.327 157.19 331.885 162.309Z" fill="#0094DE" stroke="#263238" stroke-miterlimit="10"/>
<path d="M331.885 162.309C331.717 162.561 331.465 162.897 331.297 163.148H329.198L326.847 166.338L325.252 157.022L322.733 163.4H316.772L313.75 168.52L311.399 158.197L308.376 163.568H303.759C303.507 163.316 303.339 162.981 303.171 162.729H307.873L311.735 155.931L314.086 166.254L316.352 162.477H322.23L325.588 153.917L327.351 164.323L328.862 162.393H331.885V162.309Z" fill="white"/>
<path d="M293.011 110.192C306.969 110.192 318.283 98.8825 318.283 84.9312C318.283 70.9798 306.969 59.67 293.011 59.67C279.054 59.67 267.74 70.9798 267.74 84.9312C267.74 98.8825 279.054 110.192 293.011 110.192Z" fill="white" stroke="#263238" stroke-miterlimit="10" stroke-linecap="round" stroke-linejoin="round"/>
<path d="M291.165 73.1818C291.417 73.7693 289.905 74.9442 287.806 75.8674C285.707 76.7905 283.776 77.1262 283.525 76.6227C283.273 76.0352 284.784 74.8603 286.883 73.9371C288.982 73.0139 290.913 72.6782 291.165 73.1818Z" fill="white" stroke="#263238" stroke-miterlimit="10" stroke-linecap="round" stroke-linejoin="round"/>
<path d="M302.499 96.6805L294.943 100.289L288.142 86.3579L283.44 76.7066L290.997 73.0139L295.614 82.4974L302.499 96.6805Z" fill="white" stroke="#263238" stroke-miterlimit="10" stroke-linecap="round" stroke-linejoin="round"/>
<path d="M284.868 79.56L288.142 78.0494L284.868 79.56Z" fill="#0094DE"/>
<path d="M284.868 79.56L288.142 78.0494" stroke="#263238" stroke-miterlimit="10" stroke-linecap="round" stroke-linejoin="round"/>
<path d="M286.295 82.5813L289.569 81.0707L286.295 82.5813Z" fill="#0094DE"/>
<path d="M286.295 82.5813L289.569 81.0707" stroke="#263238" stroke-miterlimit="10" stroke-linecap="round" stroke-linejoin="round"/>
<path d="M297.881 98.9465L301.743 104.066L299.812 97.9394L297.881 98.9465Z" fill="white" stroke="#263238" stroke-miterlimit="10" stroke-linecap="round" stroke-linejoin="round"/>
<path d="M302.499 96.6805C300.736 98.4429 298.469 99.7018 296.034 100.121L294.943 100.289L288.142 86.3579L295.614 82.4974L302.499 96.6805Z" fill="#0094DE" stroke="#263238" stroke-miterlimit="10"/>
<path d="M289.569 89.0434L292.676 87.6167" stroke="#263238" stroke-miterlimit="10" stroke-linecap="round" stroke-linejoin="round"/>
<path d="M291.249 92.2326L294.271 90.8058L291.249 92.2326Z" fill="#0094DE"/>
<path d="M291.249 92.2326L294.271 90.8058" stroke="#263238" stroke-miterlimit="10" stroke-linecap="round" stroke-linejoin="round"/>
<path d="M286.127 75.4477L283.692 70.0766L285.539 68.9856L288.142 74.4407L286.127 75.4477Z" fill="white" stroke="#263238" stroke-miterlimit="10" stroke-linecap="round" stroke-linejoin="round"/>
<path d="M290.157 68.3142L289.569 67.0553L279.494 71.5872L280.082 72.8461C280.334 73.3496 282.769 72.7622 285.539 71.5872C288.394 70.3284 290.409 68.9017 290.157 68.3142Z" fill="white" stroke="#263238" stroke-miterlimit="10" stroke-linecap="round" stroke-linejoin="round"/>
<path d="M289.653 67.0553C289.401 66.5518 286.967 67.1393 284.196 68.3142C281.425 69.5731 279.326 70.9998 279.578 71.5033C279.83 72.0069 282.265 71.4194 285.035 70.2444C287.806 69.0695 289.821 67.5589 289.653 67.0553Z" fill="white" stroke="#263238" stroke-miterlimit="10" stroke-linecap="round" stroke-linejoin="round"/>
</g>
<defs>
<clipPath id="clip0_287_3764">
<rect width="369" height="367" fill="white"/>
</clipPath>
</defs>
</svg>
