<svg width="353" height="349" viewBox="0 0 353 349" fill="none" xmlns="http://www.w3.org/2000/svg">
<ellipse cx="176.5" cy="293.5" rx="176.5" ry="55.5" fill="url(#paint0_linear_91_2385)" fill-opacity="0.7"/>
<path d="M68.9487 15.2863H47.2639V22.1877H68.9487V15.2863Z" fill="#EBEBEB"/>
<path d="M218.196 97.0176H196.511V103.919H218.196V97.0176Z" fill="#EBEBEB"/>
<path d="M56.8544 6.58396C53.2525 6.64564 44.0198 6.79982 40.5414 6.843H35.1695L35.4532 6.55929V13.4607L35.1449 13.1523C38.7467 13.1523 47.93 13.2017 51.4085 13.251L56.8297 13.3188L56.6817 13.4607L56.8297 6.55929L56.8544 6.58396ZM56.8544 6.58396L56.9962 13.4854V13.6334H56.8482C54.1407 13.6704 48.7071 13.7321 46.0058 13.7506L35.1634 13.7937H34.855V13.4854V6.58396V6.30643H35.1325H40.6031C44.0568 6.34343 53.2464 6.49762 56.8173 6.55929L56.8544 6.58396Z" fill="#EBEBEB"/>
<path d="M118.214 155.263C114.613 155.325 105.38 155.479 101.901 155.516H96.5296L96.8133 155.239V162.14L96.5049 161.832C100.107 161.832 109.29 161.875 112.769 161.924L118.19 161.992L118.042 162.14L118.19 155.239L118.214 155.263ZM118.214 155.263L118.362 162.165V162.307H118.214C115.507 162.307 110.08 162.405 107.372 162.424L96.5296 162.467H96.2212V162.158V155.257V154.973H96.4987L101.969 155.004C105.423 155.041 114.619 155.195 118.184 155.257L118.214 155.263Z" fill="#EBEBEB"/>
<path d="M106.12 146.549C102.518 146.61 93.2856 146.764 89.8072 146.801H84.4353L84.719 146.524V153.425L84.4107 153.117C88.0125 153.117 97.1958 153.16 100.674 153.209L106.095 153.277L105.947 153.425L106.095 146.524L106.12 146.549ZM106.12 146.549L106.268 153.45V153.592H106.12C103.413 153.623 97.9791 153.691 95.2777 153.709L84.4353 153.752H84.127V153.444V146.542V146.259H84.4107H89.8812C93.335 146.296 102.525 146.45 106.095 146.512L106.12 146.549Z" fill="#EBEBEB"/>
<path d="M94.075 155.251H72.3901V162.152H94.075V155.251Z" fill="#EBEBEB"/>
<path d="M290.305 6.58398H268.62V13.4854H290.305V6.58398Z" fill="#EBEBEB"/>
<path d="M278.211 219.701H256.526V226.602H278.211V219.701Z" fill="#EBEBEB"/>
<path d="M290.306 210.999C286.704 211.06 277.471 211.215 273.993 211.258H268.621L268.905 210.974V217.875L268.596 217.567C272.198 217.567 281.381 217.616 284.86 217.666L290.281 217.734L290.133 217.875L290.281 210.974L290.306 210.999ZM290.306 210.999L290.454 217.9V218.048H290.306C287.598 218.085 282.171 218.147 279.463 218.171L268.621 218.208H268.312V217.894L268.343 210.993V210.715H268.621H274.091C277.545 210.752 286.741 210.912 290.306 210.968V210.999Z" fill="#EBEBEB"/>
<path d="M68.9485 219.701C65.3467 219.763 56.114 219.917 52.6356 219.96H47.2637L47.5474 219.676V226.578L47.239 226.269L58.0814 226.313C60.7828 226.313 66.2225 226.399 68.9239 226.436L68.7758 226.578L68.9239 219.676L68.9485 219.701ZM68.9485 219.701L69.0965 226.602V226.75H68.9485C66.241 226.787 60.8075 226.849 58.1061 226.874L47.2637 226.911H46.9553V226.596V219.695V219.405H47.2329H52.7034C56.1572 219.442 65.3467 219.602 68.9177 219.658L68.9485 219.701Z" fill="#EBEBEB"/>
<path d="M133.177 52.9757L132.054 60.9934C131.962 61.7956 131.707 62.5705 131.306 63.2713C130.905 63.972 130.365 64.584 129.721 65.0702C129.076 65.5563 128.339 65.9065 127.555 66.0994C126.771 66.2923 125.956 66.3241 125.159 66.1926C123.559 65.9632 122.115 65.11 121.142 63.8192C120.169 62.5284 119.746 60.905 119.966 59.3036L121.761 46.4752C121.761 46.3519 121.903 46.3704 121.921 46.247C121.816 46.1052 121.816 46.1052 121.829 45.9818C122.096 44.3995 122.959 42.9794 124.24 42.0127C125.521 41.046 127.123 40.6059 128.718 40.7826C130.543 41.0608 132.405 40.974 134.197 40.527C135.988 40.0801 137.673 39.282 139.154 38.1789C140.635 37.0759 141.882 35.69 142.823 34.1014C143.764 32.5129 144.38 30.7533 144.636 28.9247C144.892 27.0962 144.782 25.235 144.314 23.4492C143.845 21.6633 143.026 19.9882 141.905 18.5211C140.784 17.054 139.383 15.824 137.783 14.9024C136.183 13.9808 134.416 13.386 132.585 13.1524C130.19 12.8093 127.747 13.103 125.501 14.0037C123.256 14.9045 121.287 16.3806 119.793 18.2837C119.293 18.926 118.67 19.4628 117.961 19.8632C117.252 20.2636 116.471 20.5196 115.662 20.6165C114.854 20.7134 114.034 20.6493 113.251 20.4278C112.467 20.2063 111.735 19.8318 111.097 19.326C110.472 18.8277 109.951 18.2104 109.564 17.5098C109.178 16.8093 108.935 16.0392 108.848 15.244C108.76 14.4489 108.832 13.6443 109.057 12.8767C109.282 12.1092 109.657 11.3938 110.16 10.7717C112.834 7.35808 116.314 4.66221 120.287 2.92635C124.261 1.19049 128.604 0.469013 132.925 0.826755C137.247 1.1845 141.411 2.61025 145.045 4.9759C148.68 7.34155 151.669 10.573 153.745 14.3799C155.821 18.1867 156.919 22.4498 156.94 26.7859C156.961 31.1221 155.904 35.3955 153.865 39.2223C151.826 43.049 148.868 46.3091 145.257 48.7098C141.645 51.1104 137.495 52.5763 133.177 52.9757V52.9757ZM129.396 79.9831L129.082 82.2034C128.992 83.0069 128.74 83.7837 128.34 84.4866C127.941 85.1894 127.402 85.8037 126.758 86.2918C126.113 86.7799 125.376 87.1318 124.591 87.3259C123.806 87.5201 122.99 87.5524 122.193 87.4211C120.591 87.1948 119.145 86.3422 118.171 85.0507C117.197 83.7591 116.776 82.1339 117 80.532L117.308 78.3117C117.549 76.7173 118.406 75.2809 119.693 74.3102C120.981 73.3396 122.598 72.9118 124.197 73.1187C124.992 73.2208 125.759 73.4803 126.453 73.8823C127.147 74.2842 127.753 74.8204 128.237 75.4596C128.722 76.0987 129.073 76.8279 129.272 77.6046C129.471 78.3813 129.513 79.1899 129.396 79.9831V79.9831Z" fill="#EBEBEB"/>
<path d="M73.4262 91.3621L75.2209 97.9058C75.4164 98.5524 75.4783 99.2321 75.4029 99.9035C75.3275 100.575 75.1164 101.224 74.7824 101.811C74.4484 102.398 73.9985 102.912 73.46 103.319C72.9215 103.727 72.3057 104.022 71.6499 104.184C70.3447 104.542 68.9509 104.368 67.774 103.699C66.597 103.031 65.7331 101.924 65.3715 100.619L62.4913 90.1347C62.4913 90.0422 62.5714 90.0114 62.5406 89.9065C62.4111 89.8387 62.4111 89.8387 62.3802 89.7339C62.0601 88.4292 62.2518 87.0515 62.916 85.8838C63.5801 84.7161 64.6662 83.8471 65.9512 83.4554C67.4878 83.1022 68.9369 82.4415 70.2114 81.5133C71.4858 80.5851 72.5592 79.4084 73.3668 78.0543C74.1743 76.7002 74.6994 75.1966 74.9104 73.6341C75.1214 72.0717 75.0138 70.4827 74.5943 68.9628C74.1748 67.443 73.4519 66.0239 72.4693 64.7909C71.4867 63.5579 70.2646 62.5366 68.8767 61.7885C67.4888 61.0404 65.9639 60.5811 64.3937 60.4381C62.8236 60.295 61.2407 60.4714 59.7406 60.9564C57.7864 61.4856 56.0065 62.5209 54.5804 63.9579C53.1542 65.3949 52.1324 67.1826 51.618 69.1407C51.4496 69.8028 51.1511 70.4248 50.7399 70.9705C50.3287 71.5161 49.8131 71.9745 49.223 72.3189C48.6329 72.6633 47.9802 72.8868 47.3029 72.9765C46.6256 73.0662 45.9372 73.0202 45.2778 72.8411C44.6318 72.665 44.0269 72.3628 43.498 71.9521C42.9691 71.5414 42.5266 71.0302 42.1959 70.4479C41.8652 69.8656 41.6528 69.2236 41.571 68.559C41.4892 67.8944 41.5396 67.2201 41.7192 66.575C42.6408 63.0637 44.4203 59.8363 46.8978 57.1828C49.3753 54.5294 52.4732 52.5331 55.9132 51.3732C59.3532 50.2133 63.0275 49.9263 66.6058 50.5378C70.1842 51.1494 73.5546 52.6404 76.4142 54.8768C79.2737 57.1133 81.5328 60.0251 82.9886 63.3508C84.4443 66.6764 85.0509 70.3116 84.7541 73.9297C84.4572 77.5478 83.2661 81.0354 81.2878 84.0793C79.3094 87.1231 76.6059 89.6278 73.42 91.3682L73.4262 91.3621ZM79.4826 113.38L79.9822 115.187C80.1774 115.835 80.2387 116.517 80.1622 117.189C80.0857 117.862 79.8731 118.512 79.5372 119.1C79.2014 119.688 78.7495 120.202 78.2089 120.609C77.6683 121.017 77.0504 121.31 76.3927 121.472C75.0868 121.826 73.6937 121.649 72.5175 120.98C71.3413 120.311 70.4774 119.204 70.1143 117.901L69.6085 116.087C69.2709 114.782 69.4549 113.397 70.1215 112.224C70.7882 111.052 71.885 110.186 73.1795 109.809C73.8274 109.621 74.5066 109.564 75.1768 109.642C75.847 109.721 76.4947 109.933 77.0817 110.265C77.6687 110.598 78.183 111.045 78.5943 111.58C79.0056 112.115 79.3056 112.727 79.4765 113.38H79.4826Z" fill="#EBEBEB"/>
<path d="M105.331 120.781L105.065 125.801C105.048 126.302 104.929 126.793 104.716 127.246C104.503 127.7 104.2 128.105 103.826 128.437C103.452 128.77 103.014 129.023 102.539 129.182C102.064 129.341 101.562 129.401 101.063 129.36C100.061 129.306 99.1222 128.856 98.4515 128.111C97.7809 127.365 97.4335 126.383 97.4856 125.382L97.905 117.364C97.905 117.29 97.9914 117.296 97.9975 117.216C98.0037 117.136 97.9174 117.136 97.9235 117.056C98.0036 116.063 98.4603 115.139 99.2 114.473C99.9397 113.807 100.906 113.449 101.902 113.472C103.035 113.533 104.17 113.369 105.241 112.991C106.311 112.613 107.297 112.027 108.142 111.268C108.986 110.509 109.673 109.591 110.162 108.567C110.652 107.542 110.935 106.431 110.995 105.297C111.056 104.164 110.892 103.029 110.514 101.958C110.136 100.888 109.551 99.9018 108.791 99.0574C108.032 98.2129 107.114 97.5263 106.09 97.0366C105.065 96.547 103.954 96.2639 102.821 96.2035C101.321 96.1195 99.8267 96.4315 98.4865 97.1081C97.1462 97.7847 96.0077 98.8022 95.1852 100.058C94.9116 100.484 94.556 100.851 94.139 101.138C93.7221 101.425 93.2521 101.626 92.7567 101.729C92.2612 101.833 91.7501 101.836 91.2532 101.74C90.7564 101.644 90.2836 101.449 89.8626 101.168C89.4495 100.894 89.0948 100.54 88.8189 100.128C88.5431 99.7153 88.3515 99.2525 88.2552 98.7658C88.1589 98.2792 88.1598 97.7782 88.2578 97.2919C88.3559 96.8056 88.5491 96.3435 88.8265 95.9322C90.2967 93.6773 92.3042 91.8232 94.6685 90.5364C97.0328 89.2496 99.6799 88.5704 102.372 88.56C105.063 88.5496 107.716 89.2083 110.09 90.4768C112.464 91.7452 114.486 93.5838 115.973 95.8272C117.461 98.0706 118.368 100.649 118.612 103.329C118.857 106.01 118.432 108.709 117.374 111.185C116.317 113.66 114.662 115.834 112.556 117.512C110.451 119.189 107.961 120.316 105.312 120.793L105.331 120.781ZM104.436 137.686L104.362 139.074C104.348 139.574 104.232 140.067 104.022 140.522C103.811 140.977 103.511 141.384 103.138 141.719C102.765 142.054 102.329 142.31 101.854 142.471C101.38 142.632 100.878 142.696 100.378 142.657C99.3756 142.603 98.4355 142.153 97.7647 141.405C97.0939 140.658 96.7473 139.675 96.801 138.673L96.8751 137.285C96.9417 136.288 97.3945 135.356 98.1372 134.687C98.8799 134.017 99.8542 133.664 100.853 133.702C101.352 133.722 101.842 133.842 102.294 134.054C102.745 134.267 103.15 134.568 103.484 134.939C103.818 135.31 104.074 135.744 104.238 136.216C104.401 136.688 104.469 137.188 104.436 137.686V137.686Z" fill="#DBDBDB"/>
<path d="M253.973 29.5578H204.621V78.9099H253.973V29.5578Z" fill="white"/>
<path d="M202.049 26.9798V81.4633H256.538V26.9798H202.049ZM253.973 78.8976H204.633V29.5578H253.973V78.8976Z" fill="#DBDBDB"/>
<path d="M250.414 69.3442V52.2849H211.948V69.3442H250.414Z" fill="#EBEBEB"/>
<path d="M239.146 64.0895V44.3782H219.435V64.0895H239.146Z" fill="#C7C7C7"/>
<path d="M258.641 26.986H256.538V81.4756H258.641V26.986Z" fill="#C7C7C7"/>
<path d="M279.475 102.081H230.123V151.433H279.475V102.081Z" fill="white"/>
<path d="M251.494 109.976H238.61V147.202H251.494V109.976Z" fill="#C7C7C7"/>
<path d="M227.558 99.5093V154.03H282.041V99.5093H227.558ZM279.475 151.433H230.136V102.093H279.475V151.433Z" fill="#DBDBDB"/>
<path d="M264.655 116.902H244.95V136.607H264.655V116.902Z" fill="#EBEBEB"/>
<path d="M284.15 99.5093H282.047V153.999H284.15V99.5093Z" fill="#C7C7C7"/>
<path d="M186.038 128.879C217.159 161.4 255.91 229.409 248.293 242.977C239.806 258.069 196.486 212.491 196.677 209.87C196.831 207.89 181.968 166.698 170.669 136.767C159.37 106.836 178.341 120.836 186.038 128.879Z" fill="#D3766A"/>
<path d="M196.381 209.882C195.098 205.485 174.85 151.187 169.084 134.022C163.317 116.858 168.979 111.659 185.946 127.559C202.912 143.459 239.831 196.258 248.009 224.111C255.891 250.939 242.144 250.73 224.19 238.148C209.487 227.842 196.381 209.882 196.381 209.882Z" fill="#0094DE"/>
<path d="M167.721 120.528C167.604 120.485 167.486 120.442 167.363 120.386C167.411 120.234 167.475 120.087 167.554 119.948C167.789 120.041 168.029 120.127 168.27 120.207C170.212 120.824 172.587 121.028 174.295 119.689C174.488 119.538 174.666 119.369 174.826 119.184L175.294 119.418C173.555 121.503 170.212 121.441 167.721 120.528ZM181.135 123.365L180.66 122.989C180.389 123.12 180.117 123.244 179.846 123.359C175.96 125.067 171.162 126.788 167.801 129.674L167.949 130.291C169.735 128.751 171.738 127.483 173.894 126.529C176.269 125.382 178.773 124.475 181.135 123.365ZM185.452 134.935C186.598 133.47 187.869 132.108 189.251 130.865C189.128 130.729 188.999 130.6 188.875 130.47C185.329 133.554 182.788 138.266 179.414 141.257C177.559 142.978 175.33 144.245 172.901 144.957C172.957 145.118 173.012 145.278 173.074 145.438C174.756 144.958 176.344 144.192 177.768 143.175C180.956 141.01 183.09 137.896 185.458 134.911L185.452 134.935ZM202.974 147.147C197.843 154.11 188.536 155.781 180.37 157.015C179.383 157.163 178.397 157.323 177.41 157.521C177.478 157.699 177.539 157.884 177.607 158.069C181.055 157.366 184.601 157.07 188.03 156.287C193.747 154.98 199.748 152.272 203.332 147.609L202.974 147.147ZM209.962 207.175C206.434 206.293 203.227 207.465 200.125 209.105C199.107 209.648 198.077 210.222 197.041 210.758L197.392 211.215C201.574 209.062 205.601 206.379 210.418 207.946C211.991 208.458 213.502 209.463 214.119 211.03C214.92 213.071 214.02 215.199 212.595 216.71C210.603 218.813 207.883 219.652 205.25 220.645L205.706 221.157L207.982 220.268C211.121 219.035 214.809 216.741 215.038 212.966C215.204 209.926 212.725 207.859 209.968 207.175H209.962ZM197.689 169.553C200.155 166.044 202.468 162.399 204.954 158.884C206.027 157.36 207.156 155.8 208.389 154.338L208.038 153.863C207.378 154.64 206.755 155.436 206.15 156.238C203.646 159.562 201.401 163.071 199.07 166.513C195.555 171.7 191.429 177.54 186.013 181.136C186.081 181.327 186.149 181.512 186.223 181.703C190.861 178.626 194.592 173.908 197.695 169.547L197.689 169.553ZM198.922 178.804C198.731 180.311 198.951 181.84 199.559 183.231C200.167 184.622 201.14 185.823 202.376 186.705C205.25 188.679 208.463 187.464 210.505 184.935C211.738 183.442 212.583 181.728 213.662 180.149C214.91 178.292 216.459 176.656 218.245 175.308C219.294 174.531 220.448 173.908 221.674 173.457L221.322 172.921C220.558 173.212 219.823 173.573 219.127 174C215.642 176.122 213.52 179.397 211.386 182.758C210.289 184.472 208.969 186.298 206.94 186.946C206.074 187.188 205.159 187.192 204.291 186.959C203.423 186.726 202.633 186.263 202.006 185.62C199.045 182.857 198.854 178.607 201.087 175.357C203.443 171.915 207.519 170.065 211.374 168.832C213.348 168.215 215.383 167.685 217.375 167.049L217.036 166.55C213.027 167.839 208.753 168.739 205.318 170.774C202.363 172.532 199.496 175.271 198.953 178.817L198.922 178.804ZM231.61 189.48C229.942 191.492 227.964 193.224 225.75 194.612C222.137 197.011 217.982 198.469 213.662 198.855C209.389 199.242 205.13 197.967 201.771 195.296C198.842 192.94 196.221 190.017 192.335 189.376C191.234 189.193 190.112 189.17 189.005 189.308C189.085 189.524 189.159 189.733 189.239 189.924C190.764 189.755 192.308 189.915 193.766 190.393C195.814 191.078 197.503 192.478 199.107 193.865C200.597 195.271 202.235 196.512 203.992 197.566C205.72 198.491 207.6 199.099 209.542 199.361C213.419 199.833 217.352 199.302 220.965 197.819C224.869 196.277 229.13 193.625 231.967 190.109L231.61 189.48ZM231.64 242.761C232.214 243.07 232.781 243.378 233.336 243.625C235.24 244.056 237.069 244.767 238.764 245.734C239.479 245.934 240.206 246.091 240.941 246.203C239.065 245.028 237.054 244.084 234.952 243.39C233.875 243.071 232.767 242.865 231.647 242.774L231.64 242.761ZM234.724 194.945L234.453 194.464C229.247 195.58 224.387 199.305 222.451 204.048C220.921 207.792 221.834 211.449 223.45 215.001C224.466 216.988 225.358 219.035 226.121 221.132C226.728 223.06 227.067 225.063 227.126 227.083C227.261 230.982 226.267 234.837 224.264 238.185L224.745 238.518C226.289 235.982 227.253 233.137 227.57 230.186C227.984 226.446 227.451 222.663 226.022 219.183C224.338 215.088 221.476 211.054 222.321 206.404C223.407 200.841 228.914 196.172 234.749 194.957L234.724 194.945ZM248.33 225.307C246.646 225.849 244.919 226.247 243.167 226.498C241.07 226.757 238.542 226.664 237.308 224.647C236.42 223.192 236.581 221.323 237.062 219.757C238.116 216.34 240.879 214.378 243.488 212.214C243.42 212.041 243.34 211.868 243.26 211.696C241.946 212.775 240.565 213.793 239.381 214.927C237.259 216.963 235.68 220.194 236.18 223.192C236.796 226.954 240.62 227.478 243.797 226.985C245.376 226.693 246.934 226.293 248.459 225.788C248.465 225.653 248.404 225.486 248.354 225.32L248.33 225.307Z" fill="white"/>
<path opacity="0.1" d="M224.19 238.148C209.487 227.848 196.381 209.882 196.381 209.882C195.104 205.485 174.844 151.187 169.084 134.022C166.956 127.676 166.383 122.97 167.369 120.362L224.19 238.148Z" fill="black"/>
<path d="M195.382 248.737H75.1965C75.1965 248.737 99.7801 153.203 140.393 113.67C145.839 108.366 167.049 109.26 171.94 117.247C190.263 147.202 195.715 248.312 195.382 248.737Z" fill="#0094DE"/>
<path d="M180.099 195.216C175.375 201.926 180.512 211.067 188.043 212.645C189.59 212.961 191.189 212.908 192.711 212.491L192.767 213.108C191.361 213.491 189.891 213.579 188.45 213.367C181.752 212.325 176.115 205.189 177.91 198.392C179.291 193.095 184.694 189.406 190.047 189.24C190.047 189.462 190.103 189.678 190.133 189.9C189.673 189.906 189.214 189.943 188.758 190.011C187.04 190.254 185.388 190.84 183.9 191.734C182.413 192.629 181.12 193.813 180.099 195.216V195.216ZM80.3586 231.74L80.1736 231.586C80.1058 231.789 80.0441 231.993 79.9824 232.202C84.6759 236.082 85.6442 243.07 87.149 248.75H87.7658C86.1622 242.798 85.2864 235.934 80.3586 231.74ZM100.446 197.202C104.116 196.968 107.847 195.74 110.08 192.663C111.807 190.288 112.707 186.946 111.43 184.17C109.95 180.957 106.336 180.106 103.104 180.186C101.704 180.217 100.323 180.353 98.9474 180.507L98.6884 181.123C100.93 180.754 103.211 180.677 105.473 180.895C107.459 181.167 109.414 182.036 110.524 183.775C110.965 184.53 111.252 185.364 111.368 186.23C111.484 187.096 111.428 187.976 111.202 188.82C110.265 192.86 106.971 195.407 103.049 196.258C99.5765 197.011 96.0425 196.604 92.5641 196.104L92.342 196.666C95.0192 197.111 97.7337 197.29 100.446 197.202V197.202ZM105.621 242.157C102.117 241.54 96.4927 244.883 94.6055 240.307C93.187 236.877 95.2222 233.047 97.3932 230.469C100.039 227.343 103.456 225.005 106.829 222.729C113.059 218.517 128.15 205.621 120.947 200.156C114.23 195.068 105.602 209.913 100.551 214.57C96.0857 218.677 89.5482 222.396 83.1587 222.304L82.9736 222.853C89.431 222.964 95.8143 219.288 100.613 215.31C106.928 210.08 113.151 196.48 120.447 200.65C126.504 204.11 115.211 216.241 108.957 220.552C105.806 222.729 102.531 224.771 99.6567 227.336C97.1157 229.594 94.624 232.381 93.8531 235.786C93.2857 238.302 93.5755 241.534 96.135 242.854C97.7632 243.699 99.6073 243.378 101.328 243.051C103.493 242.632 105.522 242.379 107.533 243.47C108.536 244.024 109.415 244.777 110.115 245.684C110.816 246.591 111.322 247.633 111.603 248.744H112.263C112.263 248.744 112.263 248.744 112.263 248.713C111.418 245.586 108.852 242.761 105.602 242.163L105.621 242.157ZM149.589 166.032C148.071 165.157 146.333 164.737 144.583 164.824C142.833 164.91 141.145 165.499 139.721 166.519C136.637 168.702 134.743 172.23 133.294 175.634C131.678 179.44 130.21 183.652 127.065 186.471C125.363 188.006 122.68 189.351 120.589 187.704C119.226 186.631 118.739 184.738 118.659 183.066C118.541 179.489 120.675 176.109 122.809 173.408C125.017 170.602 127.595 168.116 129.822 165.322C131.888 162.732 133.701 159.772 134.188 156.441C134.429 154.795 134.188 153.012 132.838 151.908C131.671 151.082 130.231 150.737 128.816 150.946C125.313 151.285 122.322 153.832 120.213 156.497C119.037 158.007 118.004 159.624 117.129 161.326C116.173 163.145 115.464 165.088 114.496 166.877C113.373 168.974 111.443 169.991 109.111 169.276C107.578 168.769 106.249 167.783 105.318 166.463C105.232 166.642 105.146 166.821 105.066 167C106.78 169.103 109.346 170.744 112.078 169.856C113.811 169.288 114.742 167.722 115.458 166.155C116.284 164.305 117.086 162.498 118.06 160.746C120.015 157.225 122.735 153.617 126.596 152.056C128.218 151.402 130.297 151.137 131.906 151.982C134.145 153.16 133.861 155.911 133.276 157.989C131.314 164.878 124.832 169.233 120.941 174.962C119.164 177.59 117.69 180.76 118.11 184.01C118.492 186.933 120.577 189.653 123.815 188.944C127.62 188.117 130.099 184.102 131.647 180.858C133.411 177.158 134.595 173.204 137.106 169.923C139.616 166.642 143.47 164.447 147.646 165.871C152.117 167.395 154.677 171.811 154.843 176.356C155.152 184.664 149.292 191.54 143.322 196.554C137.574 201.371 131.08 205.294 125.764 210.629C119.874 216.564 116.041 224.231 114.829 232.505C114.082 237.58 114.089 243.686 116.142 248.725H116.919C116.311 247.232 115.861 245.68 115.575 244.093C113.996 235.619 115.92 226.442 120.164 219.01C124.253 211.85 130.679 206.947 137.186 202.118C142.909 197.868 148.904 193.44 152.524 187.143C156.397 180.501 157.316 170.343 149.57 166.038L149.589 166.032ZM169.614 205.251C169.549 203.367 169.044 201.524 168.142 199.869C167.239 198.213 165.963 196.791 164.415 195.716C163.012 194.752 161.356 194.224 159.654 194.199C157.952 194.174 156.28 194.652 154.849 195.574C151.883 197.473 149.965 200.835 149.231 204.208C148.164 209.111 149.052 214.144 149.151 219.09C149.314 228.574 146.752 237.905 141.768 245.974C141.182 246.918 140.535 247.825 139.869 248.737H140.707C142.715 245.994 144.388 243.021 145.691 239.881C147.496 235.694 148.722 231.281 149.336 226.763C149.983 222.001 149.681 217.333 149.428 212.578C149.188 208.001 149.336 203.209 152.006 199.299C154.356 195.858 158.463 193.748 162.54 195.463C166.617 197.177 168.905 201.519 168.991 205.837C169.238 214.761 162.824 222.254 158.426 229.439C156.33 232.856 154.448 236.47 153.567 240.405C152.956 243.147 152.864 245.98 153.295 248.756H153.912C153.413 245.606 153.598 242.386 154.455 239.314C156.718 231.296 162.62 224.999 166.389 217.727C168.368 213.854 169.867 209.611 169.596 205.257L169.614 205.251ZM187.531 232.387C185.237 229.649 181.912 227.83 178.28 228.187C174.949 228.514 172.026 230.654 171.31 234.016C170.49 237.901 172.544 241.935 174.672 245.049C175.498 246.283 176.436 247.473 177.33 248.719H178.027C176.349 246.314 174.468 244.032 173.191 241.373C171.341 237.525 170.724 232.246 175.042 229.772C178.687 227.669 183.177 228.891 186.081 231.654C189.227 234.651 190.701 238.931 191.577 243.082C191.965 244.932 192.261 246.782 192.557 248.719H193.143C192.243 242.903 191.367 237.001 187.512 232.406L187.531 232.387ZM149.601 110.494C149.264 110.526 148.931 110.563 148.602 110.605C147.195 112.245 145.573 113.687 143.779 114.891C141.31 116.573 138.574 117.824 135.687 118.591L134.935 119.443C135.632 119.301 136.322 119.122 137.001 118.906C141.521 117.45 146.468 114.521 149.601 110.494ZM150.464 127.596C149.723 126.119 149.532 124.427 149.928 122.822C150.618 119.689 153.122 116.655 156.404 116.131C160.653 115.44 164.008 119.177 167.721 120.528C169.608 121.219 171.976 121.422 173.777 120.577C173.709 120.429 173.635 120.288 173.568 120.152C171.958 120.966 169.947 120.769 168.27 120.207C164.495 118.974 161.486 115.502 157.286 115.551C151.735 115.625 147.479 122.687 149.885 127.664C150.729 129.391 152.352 130.563 153.739 131.796C155.189 132.999 156.351 134.512 157.137 136.224C157.846 137.831 158.221 139.564 158.239 141.32C158.257 143.076 157.918 144.817 157.242 146.438C156.6 148.008 155.521 149.361 154.133 150.337C152.744 151.312 151.105 151.868 149.41 151.939C147.792 151.979 146.187 151.649 144.716 150.975C143.245 150.301 141.948 149.299 140.923 148.047C139.939 146.818 139.379 145.304 139.326 143.73C139.27 141.621 140.066 139.573 140.559 137.563C141.343 134.571 141.46 130.649 138.037 129.28C135.292 128.176 132.042 129.551 129.896 131.296C127.028 133.622 125.868 137.291 124.265 140.486C122.55 143.897 120.046 147.135 115.97 147.505C115.711 147.505 115.458 147.542 115.205 147.542C115.094 147.739 114.983 147.942 114.866 148.158H115.026C118.319 148.189 121.07 146.475 122.976 143.841C125.221 140.757 126.183 136.934 128.354 133.788C130.204 131.118 134.17 128.651 137.513 129.705C142.379 131.241 139.936 137.26 139.135 140.628C138.407 143.668 138.746 146.536 140.899 148.917C144.864 153.29 152.352 153.851 156.225 149.102C160.197 144.205 159.345 136.335 154.837 132.074C153.382 130.661 151.47 129.489 150.464 127.596ZM168.183 145.352C171.458 146.586 175.073 145.075 177.774 143.206C178.92 142.404 179.978 141.484 180.932 140.461L180.784 139.931C180.346 140.4 179.889 140.85 179.421 141.269C176.577 143.792 172.248 146.327 168.35 144.846C164.335 143.323 163.484 138.636 164.754 134.978C166.185 130.828 170.114 128.311 173.895 126.535C174.598 126.206 175.307 125.892 176.022 125.592C175.967 125.431 175.899 125.277 175.831 125.117C170.046 127.627 163.99 130.877 163.638 137.809C163.478 141.004 165.044 144.162 168.183 145.352ZM188.641 179.162C186.177 181.343 183.262 182.953 180.105 183.88C175.695 185.114 171.224 184.041 168.424 180.285C167.22 178.6 166.31 176.723 165.735 174.734C164.976 172.267 164.427 169.609 165.118 167.074C166.241 162.818 170.324 160.154 174.295 158.908C177.7 157.835 181.277 157.477 184.78 156.904C184.737 156.706 184.7 156.509 184.663 156.287C183.22 156.546 181.783 156.774 180.383 156.984C176.22 157.601 171.946 158.464 168.553 161.116C167.011 162.251 165.802 163.781 165.055 165.545C164.307 167.308 164.048 169.24 164.304 171.138C164.791 174.95 166.315 179.156 169.047 181.907C171.779 184.657 175.603 185.441 179.328 184.651C182.815 183.831 186.045 182.164 188.733 179.797C188.69 179.606 188.641 179.384 188.641 179.162Z" fill="white"/>
<path d="M247.17 242.28C238.536 251.223 221.304 252.019 172.106 253.826C165.322 254.078 150.612 206.509 157.865 205.867C167.005 205.059 202.647 203.912 205.262 204.153C227.336 206.219 253.017 236.217 247.17 242.28Z" fill="#D3766A"/>
<path d="M173.697 207.015C173.697 207.015 154.313 202.697 143.427 203.592C128.854 204.782 116.759 211.813 111.868 215.063C101.661 221.847 81.6478 245.284 87.4267 252.247C92.6382 258.525 111.856 233.51 111.856 233.51C111.856 233.51 88.0497 255.781 95.7097 262.189C103.37 268.597 124.031 238.284 124.031 238.284C124.031 238.284 100.089 261.72 109.031 267.073C115.816 271.125 136.051 244.729 136.051 244.729C136.051 244.729 115.606 265.044 122.378 269.472C129.865 274.406 150.094 251.211 150.094 251.211C169.214 259.66 181.783 255.861 190.393 252.093C192.477 251.18 173.697 207.015 173.697 207.015Z" fill="#D3766A"/>
<path d="M119.596 225.276C116.703 227.793 113.762 230.321 111.103 233.084C108.445 235.847 105.886 238.703 103.493 241.719C97.6336 249.077 95.1172 254.597 95.3084 254.27C99.8662 246.61 109.228 236.569 111.887 233.806C114.545 231.043 117.055 228.157 119.707 225.394C119.775 225.307 119.664 225.221 119.596 225.276Z" fill="#263238"/>
<path d="M129.748 234.694C126.196 238.062 122.544 241.281 119.14 244.809C115.736 248.337 112.843 251.951 109.698 255.688C109.457 255.972 109.698 256.009 109.944 255.731C113.225 252.123 116.544 249.04 119.868 245.475C123.192 241.91 126.381 238.203 129.822 234.774C129.89 234.719 129.804 234.645 129.748 234.694Z" fill="#263238"/>
<path d="M139.918 241.207C134.225 246.079 129.433 252 124.881 257.915C124.653 258.211 124.962 258.223 125.208 257.915C130.105 252.265 133.898 247.794 140.084 241.38C140.183 241.306 140.035 241.102 139.918 241.207Z" fill="#263238"/>
<path d="M163.54 204.535L197.991 257.699C197.991 257.699 240.547 253.776 248.478 243.914C253.708 237.426 227.663 204.486 203.098 204.054L163.54 204.535Z" fill="#0094DE"/>
<path d="M169.596 205.257C169.714 207.673 169.385 210.089 168.628 212.386L168.214 211.77C168.775 209.845 169.037 207.846 168.991 205.843C168.979 205.391 168.942 204.94 168.88 204.492H169.497C169.547 204.739 169.579 204.994 169.596 205.257ZM178.847 228.169L179.217 228.736C181.777 228.841 184.208 229.886 186.045 231.672C189.19 234.669 190.664 238.95 191.54 243.1C191.978 245.154 192.292 247.282 192.619 249.422L193.384 250.606C192.391 244.186 191.774 237.494 187.506 232.406C185.348 229.822 182.264 228.039 178.853 228.169H178.847ZM226.041 219.214C224.807 216.26 223 213.342 222.396 210.197L221.822 209.858C222.124 211.646 222.678 213.382 223.469 215.014C224.485 217 225.377 219.048 226.139 221.144C226.747 223.072 227.086 225.075 227.145 227.096C227.391 235.218 222.945 243.181 214.84 245.463C207.55 247.516 199.28 244.365 197.238 236.637C196.337 233.347 196.704 229.838 198.268 226.806C200.335 222.976 204.158 221.798 207.97 220.287C211.109 219.053 214.797 216.759 215.025 212.985C215.204 209.901 212.725 207.853 209.968 207.169C206.44 206.287 203.233 207.459 200.131 209.099C196.363 211.091 192.496 213.577 188.043 212.639C185.93 212.156 183.977 211.14 182.368 209.688C180.76 208.236 179.549 206.396 178.853 204.344H178.107C178.864 206.635 180.223 208.679 182.042 210.265C183.86 211.85 186.071 212.917 188.444 213.355C196.461 214.588 202.351 205.337 210.412 207.933C211.985 208.445 213.496 209.451 214.113 211.017C214.914 213.059 214.014 215.186 212.589 216.697C209.469 219.991 204.572 220.176 200.994 222.748C195.919 226.399 195 233.818 197.578 239.227C200.618 245.611 208.241 247.781 214.742 246.061C222.1 244.112 226.787 237.574 227.601 230.18C228.007 226.452 227.472 222.682 226.047 219.214H226.041ZM241.805 227.164L241.354 226.609C239.769 226.565 238.215 226.115 237.327 224.672C236.776 223.706 236.559 222.585 236.71 221.483L236.174 220.947C236.057 221.699 236.057 222.464 236.174 223.216C236.692 226.189 239.214 227.145 241.811 227.164H241.805ZM234.959 243.403C232.048 242.539 228.631 242.385 225.819 243.686C222.821 245.068 221.551 248.004 221.964 251.223C222.113 252.176 222.319 253.119 222.581 254.048L223.099 253.949C222.482 251.42 221.97 248.898 223.345 246.597C225.122 243.637 229.081 243.082 232.22 243.446C236.155 243.902 239.418 246.11 242.798 247.991L243.47 247.652C240.67 246.104 237.981 244.297 234.959 243.403Z" fill="white"/>
<path d="M230.66 216.038C218.294 205.96 214.113 204.221 194.648 203.986C194.488 203.986 194.457 204.19 194.617 204.196C215.963 205.158 225.818 213.046 230.518 216.198C230.641 216.272 230.771 216.13 230.66 216.038Z" fill="#263238"/>
<path d="M210.653 251.71C207.18 245.66 203.381 239.801 199.551 233.954C195.721 228.107 191.934 222.236 187.975 216.494C185.736 213.238 183.516 209.975 181.191 206.799C181.129 206.718 180.975 206.799 181.03 206.891C184.496 212.935 188.271 218.813 192.039 224.672C195.807 230.531 199.65 236.39 203.541 242.194C205.743 245.469 208.001 248.707 210.326 251.883C210.468 252.037 210.757 251.883 210.653 251.71Z" fill="#263238"/>
<path opacity="0.1" d="M206.983 204.381L178.613 227.817L163.521 204.535L203.091 204.054C203.554 204.054 204.023 204.085 204.492 204.116L206.706 204.356L206.983 204.381Z" fill="black"/>
<path d="M125.887 146.53C120.836 203.555 128.73 248.978 152.672 252.253C168.572 254.424 164.588 206.207 164.551 205.177C164.428 201.649 162.596 172.224 151.322 140.215C138.919 105.005 128.144 121.052 125.887 146.53Z" fill="#D3766A"/>
<path d="M125.887 146.53C120.836 203.555 128.73 248.978 152.672 252.253C168.572 254.424 170.799 213.762 170.762 212.732C170.632 209.204 162.596 172.224 151.322 140.215C138.919 105.005 128.144 121.052 125.887 146.53Z" fill="#0094DE"/>
<path d="M152.703 144.273C156.188 155.01 159.358 165.859 162.435 176.714C165.365 187.612 168.492 198.497 170.33 209.642C166.154 190.523 157.902 163.448 152.703 144.267V144.273Z" fill="#263238"/>
<path d="M155.651 146.937C156.441 150.021 157.033 153.308 156.305 156.429C156.397 153.302 155.818 150.058 155.651 146.937Z" fill="#263238"/>
<path d="M128.41 133.807C128.132 134.208 127.879 134.615 127.633 135.04C127.76 134.469 127.896 133.907 128.04 133.356C128.586 132.598 129.229 131.914 129.951 131.321C132.098 129.576 135.348 128.2 138.093 129.304C141.516 130.674 141.398 134.596 140.615 137.587C140.091 139.598 139.295 141.645 139.382 143.755C139.435 145.328 139.995 146.843 140.979 148.072C142.004 149.324 143.301 150.325 144.772 151C146.243 151.674 147.848 152.004 149.465 151.964C151.364 151.913 153.19 151.222 154.646 150.002C154.714 150.194 154.776 150.385 154.837 150.582C150.761 153.728 144.494 152.827 140.985 148.96C138.833 146.579 138.518 143.712 139.221 140.671C140.023 137.304 142.465 131.284 137.599 129.748C134.226 128.669 130.254 131.136 128.41 133.807ZM134.195 156.46C134.435 154.813 134.195 153.031 132.844 151.927C131.679 151.092 130.235 150.741 128.817 150.946C127.627 151.069 126.473 151.423 125.418 151.988C125.418 152.204 125.381 152.42 125.369 152.636C125.767 152.413 126.179 152.217 126.603 152.05C128.225 151.396 130.303 151.131 131.913 151.976C134.152 153.154 133.868 155.905 133.282 157.983C131.845 163.028 127.984 166.716 124.506 170.577C124.506 170.855 124.506 171.132 124.506 171.404C126.276 169.374 128.157 167.444 129.834 165.335C131.9 162.751 133.707 159.796 134.195 156.46ZM152.568 187.155C156.398 180.501 157.317 170.343 149.57 166.038C148.052 165.163 146.315 164.743 144.565 164.83C142.815 164.916 141.127 165.505 139.702 166.525C136.619 168.708 134.725 172.236 133.276 175.641C131.66 179.446 130.192 183.658 127.047 186.477C126.321 187.142 125.486 187.678 124.58 188.062C124.58 188.284 124.58 188.5 124.61 188.716C127.972 187.544 130.211 183.868 131.648 180.858C133.411 177.158 134.596 173.204 137.106 169.923C139.616 166.642 143.471 164.447 147.646 165.871C152.117 167.395 154.677 171.811 154.843 176.356C155.152 184.664 149.293 191.54 143.323 196.554C137.852 201.137 131.709 204.911 126.547 209.864C126.59 210.154 126.633 210.444 126.683 210.727C129.975 207.612 133.478 204.727 137.167 202.093C142.953 197.88 148.941 193.452 152.568 187.155ZM166.401 217.684C168.251 214.138 169.652 210.215 169.627 206.188C169.627 205.874 169.627 205.571 169.596 205.257C169.496 203.571 169.078 201.92 168.363 200.391C167.496 198.495 166.118 196.879 164.384 195.722C162.982 194.758 161.325 194.23 159.623 194.205C157.921 194.18 156.25 194.658 154.819 195.58C151.852 197.48 149.934 200.841 149.2 204.214C148.133 209.118 149.021 214.15 149.12 219.097C149.292 228.575 146.74 237.903 141.768 245.974C141.633 246.196 141.491 246.412 141.349 246.634C141.516 246.795 141.688 246.949 141.861 247.103C143.352 244.815 144.633 242.398 145.691 239.881C147.496 235.694 148.722 231.281 149.336 226.763C149.983 222.001 149.681 217.333 149.428 212.578C149.188 208.001 149.336 203.209 152.006 199.299C154.356 195.858 158.464 193.748 162.54 195.463C166.617 197.177 168.905 201.519 168.992 205.837C169.238 214.761 162.824 222.254 158.427 229.439C156.33 232.856 154.449 236.47 153.567 240.405C152.74 244.137 152.87 248.017 153.943 251.685C154.005 251.908 154.079 252.13 154.146 252.352C154.356 252.352 154.566 252.352 154.763 252.308C153.388 248.101 153.283 243.581 154.461 239.314C156.731 231.271 162.633 224.956 166.401 217.684Z" fill="white"/>
<path d="M124.801 154.35C124.733 168.27 125.091 182.209 126.244 196.073C127.706 213.423 131.795 249.996 153.998 251.722C157.477 251.932 160.684 251.254 163.496 249.077C167.708 246.061 171.23 242.181 174.597 238.259C181.301 230.34 187.383 221.551 193.02 213.009L191.669 211.634L193.069 212.96C191.293 215.97 189.412 218.912 187.518 221.835C181.875 230.254 168.856 249.589 159.29 252.358C147.572 254.954 138.764 246.906 134.003 236.976C123.518 214.816 124.135 178.891 124.783 154.332L124.801 154.35Z" fill="#263238"/>
<path d="M123.654 157.798C123.95 160.438 124.382 162.985 124.666 165.625C123.711 163.133 123.364 160.45 123.654 157.798Z" fill="#263238"/>
<path d="M165.501 144.162C165.501 144.162 144.981 125.388 132.122 126.276L121.52 136.329C121.52 136.329 117.974 137.624 116.784 135.385C113.854 129.835 112.855 116.266 124.252 107.064C134.694 98.6212 156.73 99.5401 171.489 102.908C185.674 106.139 193.692 114.151 189.677 123.458C185.662 132.764 165.501 144.162 165.501 144.162Z" fill="#0094DE"/>
<path opacity="0.1" d="M166.765 139.808C166.765 139.808 182.492 127.763 183.929 120.88C185.366 113.997 171.489 107.928 162.583 105.677C148.799 102.18 139.529 103.37 132.122 110.913C124.715 118.456 166.765 139.808 166.765 139.808Z" fill="black"/>
<path d="M169.035 137.513C161.683 138.438 150.532 126.159 146.64 116.754C146.375 116.137 147.997 109.79 149.607 102.019C150.563 97.3013 151.519 92.0281 152.043 87.1497C152.148 86.1444 181.838 97.8626 181.838 97.8626C181.838 97.8626 177.737 107.768 176.873 116.279C176.815 116.952 176.815 117.629 176.873 118.302C176.873 118.394 176.873 118.511 176.873 118.641C177.089 122.508 176.139 136.613 169.035 137.513Z" fill="#D3766A"/>
<path d="M173.722 118.462C174.765 118.613 175.82 118.671 176.874 118.635C176.874 118.505 176.874 118.394 176.874 118.295C176.809 117.623 176.809 116.945 176.874 116.273C177.731 107.774 181.808 97.8688 181.808 97.8688C181.808 97.8688 157.705 88.3524 152.821 87.1991C153.228 92.9348 155.719 116.131 173.722 118.462Z" fill="#263238"/>
<path d="M142.311 62.597C141.54 73.976 154.288 103.37 163.441 108.458C176.707 115.859 194.895 112.609 200.236 97.4802C205.435 82.8078 188.141 44.7977 178.249 40.5421C163.687 34.2698 143.452 45.7845 142.311 62.597Z" fill="#D3766A"/>
<path d="M176.602 74.8703C176.553 74.8024 176.485 75.0306 176.522 75.1108C177.435 77.072 178.15 79.465 176.639 80.8897C176.59 80.9391 176.639 81.0316 176.701 80.9946C178.773 79.7487 177.78 76.5786 176.602 74.8703Z" fill="#263238"/>
<path d="M173.944 73.5566C170.65 74.6852 173.136 81.1919 176.189 80.1496C179.242 79.1073 176.707 72.6191 173.944 73.5566Z" fill="#263238"/>
<path d="M188.863 69.8746C188.863 69.7883 189.054 69.8746 189.085 69.9918C189.788 72.0332 190.935 74.2474 193.026 74.2227C193.088 74.2227 193.119 74.3214 193.026 74.3399C190.707 74.8764 189.202 71.9161 188.863 69.8746Z" fill="#263238"/>
<path d="M189.874 67.0684C193.02 65.582 195.764 72.0024 192.847 73.3592C189.93 74.7161 187.216 68.3019 189.874 67.0684Z" fill="#263238"/>
<path d="M171.144 73.8156C172.043 73.497 172.924 73.1306 173.784 72.7178C174.795 72.2861 175.634 72.0455 176.251 71.0834C176.397 70.7934 176.444 70.4628 176.382 70.1435C176.321 69.8243 176.155 69.5345 175.911 69.3195C174.82 68.4499 173.444 68.6719 172.211 69.1468C170.951 69.5716 169.895 70.4514 169.25 71.6138C168.578 72.835 169.91 74.198 171.144 73.8156Z" fill="#263238"/>
<path d="M190.022 61.6842C189.081 61.8401 188.132 61.9471 187.179 62.0049C186.088 62.1159 185.224 62.3133 184.219 61.7767C183.95 61.5939 183.748 61.3275 183.646 61.0187C183.543 60.7098 183.545 60.3758 183.651 60.0683C184.194 58.7793 185.502 58.3106 186.803 58.1255C188.118 57.8928 189.473 58.1589 190.602 58.8718C191.786 59.5872 191.281 61.4251 190.022 61.6842Z" fill="#263238"/>
<path d="M181.795 93.5885C182.455 93.8784 183.189 94.341 183.942 94.1251C184.686 93.8227 185.359 93.3666 185.915 92.7868C185.926 92.7726 185.941 92.7627 185.958 92.7588C185.975 92.7548 185.993 92.7572 186.009 92.7653C186.025 92.7735 186.037 92.787 186.043 92.8034C186.05 92.8197 186.05 92.8379 186.045 92.8546C185.907 93.3613 185.636 93.8216 185.26 94.1874C184.883 94.5531 184.415 94.8107 183.905 94.933C182.93 95.1181 182.178 94.5013 181.635 93.7551C181.561 93.6379 181.697 93.533 181.795 93.5885Z" fill="#263238"/>
<path d="M183.041 90.3999C185.2 88.3955 188.592 87.4457 190.794 86.8968C191.009 86.7735 191.046 86.2307 190.997 85.9964L189.215 81.7902C189.887 81.8518 193.242 82.0245 192.884 81.2413C189.912 74.7654 186.606 67.5618 182.282 61.7397C182.256 61.6939 182.213 61.6604 182.162 61.6465C182.111 61.6326 182.057 61.6395 182.011 61.6657C181.965 61.6919 181.932 61.7352 181.918 61.7861C181.904 61.8369 181.911 61.8913 181.937 61.9371C184.546 68.2711 188.253 74.1117 190.979 80.4395C189.93 80.4395 188.197 80.384 187.401 80.717C187.204 80.8589 189.517 85.0713 189.708 85.7867C189.708 85.7867 185.169 86.1506 182.671 89.555C182.017 90.4185 182.005 91.3559 183.041 90.3999Z" fill="#263238"/>
<path d="M148.867 90.5048C153.838 90.0484 155.263 81.9073 155.349 78.6632C155.435 75.4191 150.884 63.3494 151.476 58.3106C152.068 53.2717 156.737 49.966 160.85 49.6761C164.964 49.3862 171.594 52.4145 174.228 51.1316C176.861 49.8488 175.276 43.6813 177.176 42.9597C181.357 41.3747 187.044 49.9907 189.548 54.2894C189.548 54.2894 184.151 33.32 161.961 39.4874C141.725 45.0382 140.547 60.9688 141.084 67.5063C142.101 79.9707 148.867 90.5048 148.867 90.5048Z" fill="#263238"/>
<path d="M178.576 88.1796C176.925 88.6551 175.174 88.6578 173.522 88.1875C171.87 87.7171 170.383 86.7925 169.231 85.5189C168.078 84.2453 167.306 82.6737 167.003 80.9831C166.699 79.2924 166.876 77.5505 167.513 75.9554C168.151 74.3604 169.223 72.9762 170.608 71.9605C171.994 70.9447 173.636 70.3381 175.349 70.2096C177.062 70.0811 178.776 70.4359 180.298 71.2337C181.819 72.0314 183.086 73.2401 183.954 74.7222C185.181 76.8233 185.524 79.325 184.909 81.679C184.294 84.0329 182.77 86.0468 180.673 87.2792C180.013 87.6642 179.309 87.9666 178.576 88.1796V88.1796ZM173.839 71.7187C173.204 71.9006 172.594 72.1639 172.026 72.5019C170.289 73.5259 169.008 75.1734 168.443 77.1089C167.878 79.0444 168.072 81.1224 168.986 82.9198C169.899 84.7173 171.464 86.0989 173.36 86.7834C175.257 87.468 177.343 87.404 179.194 86.6044C181.045 85.8049 182.521 84.3299 183.323 82.4799C184.124 80.6298 184.191 78.5438 183.508 76.6465C182.826 74.7493 181.446 73.1835 179.65 72.268C177.853 71.3524 175.775 71.156 173.839 71.7187V71.7187Z" fill="#EBEBEB"/>
<path d="M197.948 79.9214C194.574 80.8959 190.547 78.324 188.697 73.9081C187.772 71.8134 187.529 69.4816 188 67.2411C188.175 66.2791 188.579 65.3734 189.178 64.6005C189.777 63.8276 190.553 63.2102 191.441 62.8005C193.168 62.0727 195.142 62.3133 197.023 63.4543C198.951 64.6874 200.445 66.4923 201.297 68.6164C203.252 73.2852 202.018 78.2685 198.546 79.7179C198.352 79.8 198.152 79.868 197.948 79.9214ZM192.342 63.7811C192.191 63.8242 192.043 63.8757 191.897 63.9353C191.189 64.2706 190.571 64.772 190.098 65.3969C189.624 66.0219 189.309 66.7518 189.178 67.5248C188.764 69.5105 188.98 71.5756 189.794 73.4332C191.497 77.4729 195.185 79.7981 198.04 78.5954C200.896 77.3927 201.827 73.1372 200.131 69.0913C199.382 67.2057 198.062 65.6014 196.357 64.5027C195.774 64.1099 195.116 63.8428 194.425 63.7186C193.734 63.5943 193.024 63.6156 192.342 63.7811V63.7811Z" fill="#EBEBEB"/>
<path d="M184.077 75.8201L182.986 75.2588C183.818 73.6429 186.18 70.9416 189.153 72.2923L188.654 73.4086C185.989 72.1997 184.157 75.7029 184.077 75.8201Z" fill="#EBEBEB"/>
<path d="M147.319 93.8229L146.085 93.7242C146.129 93.1568 146.597 88.1118 148.953 86.644C151.155 85.2748 166.913 80.3285 167.579 80.1188L167.949 81.2906C163.428 82.7029 151.297 86.6193 149.601 87.6801C148.034 88.6546 147.405 92.4414 147.319 93.8229Z" fill="#EBEBEB"/>
<path d="M156.712 86.6502C156.712 86.6502 147.319 78.5214 143.433 82.1232C139.548 85.725 148.411 98.7261 154.171 99.3552C159.931 99.9842 160.61 94.6555 160.61 94.6555L156.712 86.6502Z" fill="#D3766A"/>
<path d="M146.085 85.7867C146.066 85.7867 146.047 85.7945 146.033 85.8084C146.019 85.8223 146.011 85.8411 146.011 85.8607C146.011 85.8803 146.019 85.8992 146.033 85.913C146.047 85.9269 146.066 85.9347 146.085 85.9347C150.156 86.496 152.968 89.4255 155.226 92.6264C153.782 91.541 152.099 91.1709 150.6 92.941C150.526 93.0335 150.656 93.163 150.754 93.1137C152.179 92.4044 153.338 92.3921 154.664 93.3419C155.574 94.072 156.401 94.8992 157.131 95.8088C157.39 96.0926 157.939 95.7657 157.717 95.4203C157.705 95.3915 157.688 95.3645 157.668 95.3401C156.57 90.6343 151.229 84.9541 146.085 85.7867Z" fill="#263238"/>
<path d="M166.765 139.808C166.765 139.808 149.934 113.374 129.951 111.369L132.122 126.276C132.122 126.276 143.989 125.906 165.501 144.162L166.765 139.808Z" fill="#0094DE"/>
<path d="M126.769 126.714C130.395 126.14 134.04 126.825 137.494 127.787C140.954 128.817 144.286 130.239 147.424 132.024C150.587 133.771 153.63 135.726 156.533 137.877L160.807 141.226L164.933 144.772L165.396 145.173L165.889 144.902C169.535 142.867 173.038 140.586 176.374 138.075C178.061 136.841 179.672 135.507 181.197 134.078C182.736 132.669 184.135 131.114 185.372 129.434C182.523 132.468 179.149 134.867 175.739 137.174C174.024 138.315 172.26 139.388 170.478 140.418C168.695 141.448 166.907 142.49 165.093 143.422L166.043 143.545L161.911 139.875C160.486 138.71 159.031 137.575 157.594 136.446C156.157 135.318 154.566 134.325 153.005 133.363C151.445 132.4 149.841 131.438 148.164 130.649C144.869 128.934 141.368 127.649 137.747 126.825C136.853 126.603 135.928 126.48 135.015 126.325C134.102 126.171 133.164 126.134 132.246 126.122C130.4 126.008 128.548 126.208 126.769 126.714V126.714Z" fill="#263238"/>
<path d="M121.52 136.329C123.493 134.887 125.366 133.313 127.126 131.617C128.912 129.949 130.582 128.161 132.122 126.264C130.146 127.702 128.271 129.274 126.51 130.97C124.729 132.643 123.062 134.433 121.52 136.329V136.329Z" fill="#263238"/>
<path d="M159.148 134.541C158.517 140.833 158.43 147.168 158.889 153.475C159.179 157.878 162.238 173.488 167.073 172.495C171.909 171.502 163.071 162.01 160.949 153.832C158.803 145.519 160.53 139.363 160.394 134.362L159.148 134.541Z" fill="#0094DE"/>
<g opacity="0.1">
<path d="M159.148 134.541C158.517 140.833 158.43 147.168 158.889 153.475C159.179 157.878 162.238 173.488 167.073 172.495C171.909 171.502 163.071 162.01 160.949 153.832C158.803 145.519 160.53 139.363 160.394 134.362L159.148 134.541Z" fill="black"/>
</g>
<path d="M175.64 135.324C177.802 140.634 179.503 146.121 180.722 151.723C181.604 155.627 182.954 169.991 178.495 170.367C174.036 170.744 179.285 160.234 179.026 152.562C178.773 144.779 175.689 139.845 174.511 135.484L175.64 135.324Z" fill="#0094DE"/>
<g opacity="0.1">
<path d="M175.64 135.324C177.802 140.634 179.503 146.121 180.722 151.723C181.604 155.627 182.954 169.991 178.495 170.367C174.036 170.744 179.285 160.234 179.026 152.562C178.773 144.779 175.689 139.845 174.511 135.484L175.64 135.324Z" fill="black"/>
</g>
<path d="M157.125 248.793C170.249 246.776 191.755 217.209 205.386 183.418C207.982 176.985 158.038 150.977 156.046 158.131C149.706 181.08 137.29 211.097 137.691 229.612C138.018 244.007 148.053 250.193 157.125 248.793Z" fill="#D3766A"/>
<path d="M180.487 133.776C177.305 129.878 176.818 118.974 173.962 112.547C171.107 106.121 162.737 103.105 161.263 105.467C159.789 107.829 161.973 110.21 162.657 120.769C163.095 127.553 157.896 141.121 160.116 153.456C161.233 159.642 183.707 137.674 180.487 133.776Z" fill="#F7A9A0"/>
<path d="M180.487 133.776C177.305 129.878 176.818 118.974 173.962 112.547C171.107 106.121 162.737 103.105 161.263 105.467C159.789 107.829 161.973 110.21 162.657 120.769C163.095 127.553 157.896 141.121 160.116 153.456C161.233 159.642 183.707 137.674 180.487 133.776Z" fill="#D3766A"/>
<path opacity="0.06" d="M180.487 133.776C177.305 129.878 176.818 118.974 173.962 112.547C171.107 106.121 162.737 103.105 161.263 105.467C159.789 107.829 161.973 110.21 162.657 120.769C163.095 127.553 157.896 141.121 160.116 153.456C161.233 159.642 183.707 137.674 180.487 133.776Z" fill="black"/>
<path d="M205.293 100.613C209.752 104.77 198.564 114.891 198.564 114.891C198.564 114.891 202.629 113.793 206.163 115.767C210.209 118.018 208.445 125.357 208.445 125.357C208.445 125.357 212.793 125.098 216.314 127.553C219.972 130.106 219.244 137.76 219.244 137.76C219.244 137.76 223.426 139.746 224.943 144.051C227.545 151.421 219.392 160.259 215.445 166.729C211.208 173.655 205.891 182.252 202.845 186.52L155.078 162.22C155.078 162.22 163.262 125.69 169.744 119.436C175.227 114.169 198.509 94.2546 205.293 100.613Z" fill="#D3766A"/>
<path d="M198.373 114.86C191.219 119.066 185.088 124.975 179.254 130.741C179.227 130.768 179.212 130.805 179.212 130.843C179.212 130.881 179.227 130.918 179.254 130.945C179.281 130.972 179.318 130.987 179.356 130.987C179.394 130.987 179.431 130.972 179.458 130.945C185.212 125.141 192.656 120.738 198.626 115.175C198.668 115.141 198.694 115.092 198.7 115.039C198.706 114.986 198.69 114.933 198.657 114.891C198.623 114.849 198.575 114.823 198.521 114.817C198.468 114.811 198.415 114.827 198.373 114.86Z" fill="#263238"/>
<path d="M207.865 125.092C206.274 126.091 205.022 127.614 203.764 128.984C202.407 130.458 201.075 131.963 199.773 133.48C197.158 136.522 194.619 139.629 192.156 142.799C192.045 142.941 192.237 143.144 192.36 143.002C194.969 139.974 197.627 136.983 200.378 134.072C201.747 132.612 203.128 131.173 204.522 129.755C205.811 128.416 207.291 127.115 208.266 125.511C208.293 125.485 208.315 125.454 208.331 125.419C208.346 125.384 208.355 125.346 208.355 125.308C208.356 125.27 208.35 125.232 208.336 125.197C208.322 125.161 208.301 125.129 208.275 125.101C208.249 125.074 208.217 125.052 208.182 125.036C208.148 125.021 208.11 125.013 208.072 125.012C208.034 125.011 207.996 125.017 207.96 125.031C207.925 125.045 207.893 125.066 207.865 125.092V125.092Z" fill="#263238"/>
<path d="M219.151 137.883C217.733 138.697 216.684 140.35 215.642 141.584C214.483 142.998 213.313 144.404 212.133 145.802C209.777 148.596 207.421 151.39 204.966 154.104C204.843 154.239 205.046 154.443 205.17 154.307C207.674 151.563 210.215 148.855 212.694 146.086C213.928 144.729 215.138 143.364 216.327 141.991C217.351 140.825 218.763 139.487 219.293 138.001C219.3 137.982 219.3 137.961 219.294 137.942C219.289 137.923 219.278 137.906 219.262 137.893C219.247 137.881 219.228 137.873 219.209 137.871C219.189 137.869 219.169 137.874 219.151 137.883V137.883Z" fill="#263238"/>
<path d="M199.983 99.3737C191.873 102.729 182.153 109.858 176.454 114.287C174.327 115.935 172.287 117.693 170.342 119.554C168.455 121.447 167.221 123.871 166.025 126.245C165.205 127.855 164.508 129.526 163.817 131.179C165.05 126.862 166.531 122.273 169.602 118.844C171.521 116.886 173.569 115.058 175.732 113.374C181.468 108.964 187.352 104.493 194.025 101.612L199.983 99.3737Z" fill="#263238"/>
<path d="M145.771 171.459L193.045 212.985C193.045 212.985 168.325 252.938 156.798 252.154C145.271 251.371 132.745 243.908 133.689 216.198C133.917 209.259 145.771 171.459 145.771 171.459Z" fill="#0094DE"/>
<path d="M137.229 202.136L136.612 202.58C136.699 202.247 136.791 201.914 136.878 201.575C139.067 199.953 141.256 198.325 143.341 196.573C148.602 192.169 153.752 186.323 154.708 179.304L155.176 179.717C154.746 182.321 153.855 184.828 152.543 187.118C148.941 193.452 142.952 197.88 137.229 202.136ZM164.397 195.728C162.994 194.764 161.337 194.236 159.635 194.211C157.933 194.186 156.262 194.664 154.831 195.586C151.864 197.486 149.946 200.847 149.212 204.221C148.145 209.124 149.034 214.156 149.132 219.103C149.299 228.487 146.795 237.725 141.91 245.74C142.077 245.913 142.249 246.079 142.422 246.24C143.67 244.202 144.765 242.075 145.697 239.875C147.502 235.688 148.728 231.275 149.342 226.757C149.99 221.995 149.687 217.327 149.434 212.571C149.194 207.995 149.342 203.203 152.012 199.293C154.362 195.851 158.47 193.742 162.547 195.457C166.623 197.171 168.905 201.519 168.992 205.837C169.238 214.761 162.824 222.254 158.427 229.439C156.33 232.856 154.449 236.47 153.567 240.405C152.74 244.137 152.87 248.017 153.943 251.686C153.957 251.738 153.973 251.789 153.992 251.84L154.652 251.945C153.386 247.838 153.321 243.455 154.467 239.314C156.731 231.296 162.633 224.999 166.401 217.727C168.369 213.91 169.867 209.654 169.596 205.3C169.537 203.408 169.036 201.557 168.133 199.894C167.23 198.231 165.951 196.802 164.397 195.722V195.728ZM178.249 228.212C174.918 228.539 171.995 230.679 171.28 234.04C170.774 236.446 171.366 238.913 172.396 241.176C172.538 241.01 172.692 240.843 172.84 240.677C171.255 236.914 170.99 232.116 175.011 229.797C176.066 229.21 177.234 228.855 178.437 228.757C179.64 228.659 180.851 228.821 181.986 229.23C182.11 229.063 182.227 228.897 182.356 228.73C181.044 228.251 179.64 228.072 178.249 228.206V228.212ZM192.533 212.541C191.055 212.907 189.514 212.935 188.024 212.621C182.202 211.387 177.811 205.664 178.298 200.027L177.682 199.466C176.726 205.911 182.104 212.356 188.444 213.342C189.973 213.565 191.532 213.453 193.014 213.015L193.045 212.96L192.533 212.541Z" fill="white"/>
<path d="M145.247 188.635C147.56 190.566 149.718 192.7 151.914 194.76C154.109 196.82 156.293 198.91 158.445 201.026C162.746 205.257 167.012 209.518 171.243 213.811C172.396 214.989 173.549 216.167 174.684 217.37C175.819 218.572 176.948 220.09 178.175 221.354C178.189 221.375 178.196 221.401 178.194 221.427C178.191 221.452 178.18 221.476 178.162 221.495C178.143 221.513 178.119 221.524 178.094 221.527C178.068 221.529 178.042 221.523 178.021 221.508C176.948 220.49 175.726 219.621 174.629 218.622C173.531 217.623 172.378 216.525 171.267 215.458C169.096 213.365 166.934 211.264 164.779 209.155C160.462 204.936 156.188 200.687 152.025 196.332C149.675 193.865 147.227 191.448 145.025 188.851C144.996 188.822 144.98 188.782 144.981 188.741C144.982 188.7 144.998 188.661 145.028 188.632C145.057 188.604 145.097 188.588 145.138 188.589C145.179 188.589 145.218 188.606 145.247 188.635V188.635Z" fill="#263238"/>
<path d="M151.124 176.165L145.66 171.589L145.925 171.515C143.328 181.308 140.461 191.028 137.772 200.792C136.53 205.013 135.5 209.295 134.688 213.62C133.984 219.25 133.967 224.946 134.638 230.58C133.28 224.984 132.842 219.203 133.343 213.466C134.682 203.999 137.716 194.865 140.541 185.768C142.15 180.864 143.853 175.998 145.697 171.175L145.876 171.336L151.118 176.165H151.124Z" fill="#263238"/>
<path d="M286.66 194.391C278.569 205.345 270.138 218.056 268.084 231.791C268.084 231.995 268.392 232.062 268.442 231.859C269.372 228.113 270.567 224.438 272.019 220.862C277.335 219.401 282.553 218.198 285.347 212.919C288.196 207.491 287.814 200.423 287.289 194.509C287.252 194.206 286.821 194.206 286.66 194.391Z" fill="#10B5BF"/>
<path d="M272.099 220.757C275.732 212.604 280.394 204.42 286.321 197.716C286.329 197.707 286.341 197.701 286.353 197.701C286.365 197.7 286.377 197.704 286.386 197.713C286.395 197.721 286.4 197.732 286.401 197.744C286.402 197.756 286.397 197.768 286.389 197.777C282.51 202.557 279.556 207.756 276.675 213.048C279.358 210.328 282.288 207.892 284.829 205.03C284.878 204.969 284.958 205.03 284.909 205.11C282.386 208.133 279.636 211.414 276.361 213.652C275.481 215.272 274.591 216.899 273.69 218.531C273.912 218.408 274.141 218.297 274.363 218.186C274.406 218.186 274.437 218.229 274.4 218.247C274.147 218.377 273.9 218.506 273.641 218.617C273.215 219.388 272.796 220.159 272.358 220.93C272.259 221.078 272.019 220.93 272.099 220.757Z" fill="#263238"/>
<path d="M274.8 217.914C276.974 216.694 279.05 215.308 281.011 213.77C281.06 213.726 281.141 213.77 281.085 213.844C279.196 215.481 277.127 216.898 274.918 218.068C274.788 218.118 274.702 217.97 274.8 217.914Z" fill="#263238"/>
<path d="M267.147 229.75C267.147 229.916 267.449 229.91 267.443 229.75C267.486 225.229 267.443 220.683 267.517 216.138C268.676 213.8 271.162 212.505 272.895 210.637C274.138 209.266 275.22 207.757 276.12 206.14C278.203 202.279 279.476 198.034 279.864 193.664C280.339 188.828 278.501 172.861 276.466 173.416C275.405 173.7 271.982 181.612 271.075 184.221C269.603 188.535 268.526 192.973 267.856 197.481C266.203 208.108 266.351 219.037 267.147 229.75Z" fill="#10B5BF"/>
<path d="M267.116 210.242C267.362 204.518 268.651 198.74 269.854 193.189C271.155 187.206 272.679 181.575 275.756 176.241C275.812 176.142 275.96 176.241 275.904 176.333C273.853 180.482 272.265 184.844 271.168 189.34C271.377 189.013 271.624 188.724 271.84 188.403C271.926 188.286 272.124 188.403 272.037 188.52C271.764 189.004 271.441 189.459 271.075 189.877C271.063 189.881 271.05 189.881 271.038 189.877C269.977 194.151 269.219 198.511 268.571 202.884L268.719 202.718C268.75 202.681 268.806 202.718 268.787 202.767C268.707 202.915 268.614 203.057 268.528 203.205C268.195 205.419 267.911 207.627 267.591 209.816C271.532 206.449 274.893 202.477 276.792 197.58C276.792 197.58 276.842 197.58 276.829 197.58C274.979 202.656 272.037 207.164 267.523 210.248C267.443 210.865 267.362 211.426 267.276 212.012C267.276 212.135 267.066 212.104 267.066 212.012C267.066 211.488 267.066 210.963 267.116 210.445C267.098 210.435 267.083 210.42 267.072 210.402C267.062 210.385 267.057 210.364 267.057 210.344C267.057 210.323 267.062 210.303 267.072 210.285C267.083 210.267 267.098 210.252 267.116 210.242V210.242Z" fill="#263238"/>
<path d="M268.972 201.94C271.988 197.444 274.8 193.078 276.99 188.113C276.99 188.057 277.113 188.113 277.088 188.15C275.238 193.084 272.629 198.092 269.114 202.058C269.052 202.138 268.91 202.033 268.972 201.94Z" fill="#263238"/>
<path d="M272.975 187.003C274.208 184.795 275.541 182.642 276.712 180.391C276.749 180.33 276.836 180.391 276.805 180.447C275.845 182.797 274.627 185.033 273.172 187.114C273.086 187.225 272.907 187.126 272.975 187.003Z" fill="#263238"/>
<path d="M272.518 187.959V188.002C272.518 188.002 272.463 187.959 272.518 187.959Z" fill="#263238"/>
<path d="M264.087 216.668C264.027 219.666 263.674 222.651 263.033 225.58C263.076 225.901 263.125 226.197 263.168 226.555C264.096 223.319 264.632 219.983 264.766 216.619C264.794 216.572 264.808 216.519 264.808 216.465C264.808 216.411 264.794 216.357 264.766 216.311V216.311C264.9 211.799 264.569 207.285 263.779 202.841C262.379 194.533 259.32 186.553 253.523 180.323C253.475 180.288 253.42 180.263 253.362 180.25C253.304 180.237 253.243 180.236 253.185 180.249C253.126 180.261 253.071 180.285 253.023 180.321C252.975 180.356 252.935 180.401 252.906 180.453C250.568 186.405 251.382 193.503 253.375 199.436C254.459 202.649 256.009 205.685 257.975 208.447C259.937 211.247 262.472 213.609 264.087 216.668Z" fill="#10B5BF"/>
<path d="M254.208 183.105C259.703 192.023 263.527 202.594 263.989 213.128C263.989 213.313 263.687 213.363 263.662 213.171C263.533 212.228 263.385 211.29 263.237 210.359C260.961 208.182 258.63 205.888 257.001 203.162C257.001 203.118 257.045 203.057 257.082 203.106C258.97 205.418 260.992 207.617 263.138 209.693C262.727 207.366 262.256 205.073 261.726 202.816C261.578 202.644 261.436 202.471 261.288 202.304C261.14 202.138 261.356 202.027 261.454 202.144L261.584 202.286C260.812 199.19 259.852 196.144 258.71 193.164C257.316 191.499 255.749 190.08 254.732 188.045C254.728 188.035 254.727 188.025 254.73 188.015C254.734 188.005 254.741 187.996 254.75 187.991C254.759 187.986 254.769 187.984 254.78 187.986C254.79 187.988 254.799 187.994 254.806 188.002C255.626 189.155 256.415 190.309 257.347 191.376C257.717 191.801 258.124 192.196 258.506 192.609C257.243 189.376 255.742 186.24 254.016 183.228C254.012 183.204 254.015 183.18 254.025 183.157C254.034 183.135 254.05 183.116 254.071 183.103C254.091 183.09 254.115 183.083 254.139 183.083C254.164 183.084 254.187 183.091 254.208 183.105Z" fill="#263238"/>
<path d="M255.317 194.108C257.093 196.495 259.116 198.777 260.769 201.25C260.819 201.318 260.714 201.392 260.652 201.336C258.531 199.344 256.736 196.63 255.2 194.176C255.151 194.102 255.249 194.034 255.317 194.108Z" fill="#263238"/>
<path d="M261.016 201.799L261.09 201.879C261.146 201.928 261.09 202.008 261.01 201.959L260.936 201.885C260.88 201.829 260.967 201.749 261.016 201.799Z" fill="#263238"/>
<path d="M245.598 200.251C246.042 204.839 248.453 210.316 251.395 213.85C252.69 215.389 254.293 216.639 256.101 217.519C258.136 218.531 260.27 219.69 262.373 220.517C263.376 223.065 264.12 225.708 264.593 228.405L264.797 227.708C263.446 216.095 255.928 206.165 246.295 199.794C246.22 199.749 246.134 199.726 246.047 199.728C245.96 199.73 245.876 199.756 245.803 199.804C245.73 199.851 245.672 199.919 245.636 199.998C245.6 200.077 245.586 200.164 245.598 200.251Z" fill="#10B5BF"/>
<path d="M248.922 203.68C248.854 203.618 248.922 203.501 249.02 203.556C254.304 207.483 258.515 212.675 261.269 218.654C261.337 218.808 261.121 218.95 261.028 218.79C260.584 218.007 260.128 217.248 259.665 216.496C257.47 216.082 255.391 214.534 253.763 213.067C253.72 213.03 253.763 212.968 253.825 213.005C254.666 213.77 255.6 214.425 256.606 214.954C257.501 215.41 258.457 215.694 259.394 216.058C258.572 214.771 257.723 213.537 256.847 212.357C254.478 211.458 252.256 210.211 250.254 208.657C250.245 208.654 250.238 208.649 250.232 208.642C250.225 208.636 250.221 208.628 250.218 208.62C250.215 208.611 250.214 208.602 250.214 208.593C250.215 208.584 250.218 208.576 250.223 208.568C250.227 208.56 250.233 208.554 250.241 208.548C250.248 208.543 250.257 208.54 250.265 208.538C250.274 208.537 250.283 208.537 250.292 208.54C250.301 208.542 250.309 208.546 250.316 208.552C252.299 209.753 254.345 210.846 256.446 211.827C255.107 210.062 253.665 208.378 252.129 206.782C251.382 206.387 250.624 205.992 249.902 205.548C249.89 205.54 249.881 205.528 249.877 205.514C249.873 205.5 249.874 205.485 249.88 205.472C249.886 205.459 249.897 205.448 249.91 205.442C249.923 205.435 249.938 205.434 249.952 205.437C250.552 205.649 251.125 205.931 251.66 206.276C250.772 205.394 249.878 204.525 248.922 203.68Z" fill="#263238"/>
<path d="M249.125 207.689C249.255 207.768 249.379 207.856 249.495 207.954C249.532 207.954 249.495 208.034 249.446 208.015C249.32 207.943 249.198 207.863 249.082 207.775C248.996 207.775 249.082 207.645 249.125 207.689Z" fill="#263238"/>
<path d="M279.802 253.562H253.455L255.583 229.571L256.051 224.279H277.212L277.674 229.571L279.802 253.562Z" fill="#455A64"/>
<path d="M277.674 229.571H255.583L256.051 224.279H277.212L277.674 229.571Z" fill="#263238"/>
<path d="M278.47 220.579H254.793V225.815H278.47V220.579Z" fill="#455A64"/>
<path d="M228.07 61.3203C228.178 62.5936 227.907 63.8705 227.29 64.9897C226.673 66.1088 225.738 67.02 224.604 67.6081C223.469 68.1961 222.186 68.4347 220.916 68.2936C219.646 68.1525 218.446 67.6381 217.468 66.8153C216.49 65.9926 215.778 64.8984 215.422 63.6712C215.066 62.4439 215.082 61.1386 215.467 59.9202C215.852 58.7018 216.59 57.625 217.588 56.8259C218.585 56.0267 219.796 55.5411 221.07 55.4304C221.916 55.3568 222.769 55.4508 223.579 55.7071C224.389 55.9634 225.141 56.3768 225.791 56.9239C226.441 57.471 226.977 58.1409 227.368 58.8952C227.759 59.6496 227.997 60.4737 228.07 61.3203V61.3203Z" fill="white"/>
<path d="M228.07 61.3203C228.625 67.0684 221.785 70.7072 217.295 67.0252C216.615 66.4595 216.053 65.7644 215.643 64.9802C215.233 64.196 214.983 63.3383 214.907 62.4567C214.83 61.5751 214.93 60.6872 215.199 59.8442C215.468 59.0012 215.902 58.2201 216.475 57.5458C220.262 53.1423 227.632 55.5537 228.07 61.3203V61.3203ZM228.07 61.3203C227.57 55.6894 220.416 53.5061 216.882 57.885C215.853 59.1559 215.356 60.7758 215.495 62.405C215.634 64.0342 216.399 65.5463 217.628 66.6244C221.859 70.3248 228.538 66.9451 228.063 61.3203H228.07Z" fill="#263238"/>
<path d="M210.937 68.0306C210.997 68.739 210.847 69.4496 210.504 70.0725C210.161 70.6953 209.641 71.2025 209.01 71.5299C208.378 71.8572 207.664 71.9901 206.957 71.9116C206.251 71.8332 205.583 71.5469 205.039 71.0891C204.495 70.6312 204.099 70.0224 203.901 69.3394C203.703 68.6565 203.712 67.9302 203.926 67.2523C204.141 66.5744 204.552 65.9754 205.107 65.531C205.662 65.0866 206.337 64.8168 207.045 64.7556C207.995 64.6753 208.938 64.9749 209.668 65.5888C210.397 66.2026 210.854 67.0807 210.937 68.0306Z" fill="white"/>
<path d="M210.936 68.0305C210.987 68.6503 210.884 69.2729 210.634 69.8427C210.385 70.4124 209.999 70.9114 209.509 71.2948C209.02 71.6783 208.443 71.9342 207.83 72.0397C207.217 72.1451 206.588 72.0968 205.998 71.899C205.409 71.7012 204.878 71.3601 204.452 70.9064C204.027 70.4527 203.721 69.9005 203.562 69.2994C203.403 68.6983 203.396 68.0671 203.541 67.4624C203.685 66.8577 203.978 66.2985 204.393 65.8349C204.884 65.2934 205.521 64.9063 206.228 64.7208C206.935 64.5353 207.681 64.5594 208.374 64.7901C209.068 65.0208 209.679 65.4483 210.134 66.0203C210.589 66.5924 210.868 67.2844 210.936 68.012V68.0305ZM210.936 68.0305C210.394 63.4851 203.819 64.0895 204.078 68.6473C204.602 73.1619 211.183 72.6253 210.936 68.0305Z" fill="#263238"/>
<path d="M284.533 33.5975C284.931 36.8819 284.459 40.2131 283.165 43.2578C281.87 46.3025 279.799 48.9537 277.158 50.946C274.516 52.9383 271.398 54.2018 268.115 54.61C264.832 55.0182 261.499 54.5567 258.45 53.2718C256.968 55.2078 255.059 56.7755 252.872 57.8527C250.684 58.9299 248.278 59.4875 245.84 59.4822C243.401 59.4768 240.997 58.9086 238.815 57.8217C236.632 56.7349 234.73 55.1588 233.256 53.2162C232.566 53.4274 231.858 53.576 231.141 53.6603C228.676 53.9605 226.176 53.5397 223.945 52.4488C221.714 51.3579 219.847 49.6438 218.57 47.5138C217.293 45.3839 216.661 42.9294 216.749 40.4475C216.838 37.9656 217.645 35.5628 219.071 33.5297C216.283 29.9906 214.853 25.5712 215.038 21.0696C215.223 16.5681 217.013 12.2813 220.083 8.98365C223.152 5.68597 227.3 3.59486 231.777 3.08805C236.254 2.58124 240.764 3.69216 244.493 6.22011C246.241 4.03564 248.535 2.3529 251.144 1.34306C253.753 0.333229 256.582 0.0323193 259.345 0.470945C262.108 0.909572 264.705 2.07208 266.873 3.84024C269.04 5.60839 270.701 7.9191 271.686 10.5373C272.344 10.3131 273.024 10.158 273.715 10.0748C275.816 9.81774 277.945 10.2102 279.816 11.1994C281.687 12.1885 283.21 13.7269 284.181 15.6077C285.151 17.4885 285.523 19.6213 285.245 21.7195C284.967 23.8176 284.054 25.7804 282.627 27.3437C283.628 29.2987 284.274 31.4163 284.533 33.5975Z" fill="white"/>
<path d="M284.533 33.5975C284.932 36.8896 284.461 40.2289 283.167 43.282C281.872 46.3352 279.8 48.9954 277.156 50.997C274.512 52.9987 271.389 54.2719 268.099 54.6895C264.809 55.107 261.468 54.6543 258.407 53.3766L258.537 53.3396C257.045 55.2969 255.121 56.8833 252.915 57.9753C250.709 59.0673 248.281 59.6354 245.82 59.6354C243.358 59.6354 240.93 59.0673 238.724 57.9753C236.519 56.8833 234.595 55.2969 233.102 53.3396L233.312 53.4075C232.349 53.7038 231.352 53.8758 230.345 53.9194C219.478 54.5916 212.614 42.2937 218.862 33.3693V33.7024C209.549 22.0274 216.931 4.49324 231.758 2.86502C236.284 2.35896 240.842 3.49244 244.605 6.05978L244.352 6.10295C252.055 -3.51214 267.467 -1.03899 271.778 10.5004L271.661 10.4448C272.475 10.1659 273.324 10.0019 274.184 9.95762C276.262 9.80335 278.339 10.2764 280.146 11.3156C281.952 12.3548 283.405 13.9123 284.317 15.7864C285.228 17.6606 285.556 19.7652 285.258 21.8279C284.96 23.8906 284.05 25.8164 282.646 27.3561C283.653 29.3032 284.295 31.4188 284.539 33.5975H284.533ZM284.533 33.5975C284.267 31.4133 283.616 29.2937 282.609 27.3376C284.129 25.641 285.045 23.4889 285.213 21.2171C285.381 18.9453 284.792 16.6817 283.538 14.7798C282.285 12.8779 280.436 11.4447 278.282 10.704C276.128 9.96324 273.789 9.95671 271.63 10.6854C267.393 -0.681273 252.191 -3.1606 244.635 6.36815L244.531 6.50383L244.383 6.40515C240.695 3.89987 236.229 2.80527 231.801 3.32142C217.394 4.98663 210.357 21.978 219.293 33.3632L219.423 33.5297L219.306 33.6962C213.262 42.2628 219.848 54.1229 230.321 53.5246C231.343 53.4825 232.355 53.3062 233.33 53.0004C234.777 54.9481 236.655 56.5338 238.818 57.6329C240.981 58.732 243.369 59.3146 245.795 59.3349C248.221 59.3553 250.619 58.8127 252.8 57.75C254.981 56.6873 256.885 55.1333 258.364 53.2101L258.42 53.1423L258.494 53.1793C261.532 54.4599 264.852 54.9212 268.125 54.5172C271.397 54.1131 274.505 52.8579 277.141 50.8768C279.776 48.8957 281.845 46.258 283.142 43.227C284.44 40.1961 284.919 36.8779 284.533 33.6037V33.5975Z" fill="#263238"/>
<path d="M252.32 32.5614L252.166 35.1703C252.159 35.4302 252.098 35.6859 251.989 35.9216C251.879 36.1574 251.722 36.3684 251.528 36.5416C251.334 36.7147 251.107 36.8465 250.86 36.9289C250.614 37.0112 250.353 37.0424 250.094 37.0205C249.574 36.9903 249.087 36.7552 248.74 36.3667C248.394 35.9783 248.215 35.4682 248.244 34.9482L248.478 30.779C248.478 30.7359 248.521 30.742 248.527 30.6988C248.533 30.6557 248.466 30.6803 248.466 30.6187C248.508 30.1034 248.747 29.6242 249.132 29.2798C249.518 28.9355 250.021 28.7525 250.538 28.7684C251.139 28.8209 251.744 28.7521 252.317 28.5662C252.891 28.3804 253.421 28.0812 253.877 27.6865C254.333 27.2918 254.704 26.8095 254.97 26.2684C255.236 25.7272 255.391 25.1382 255.425 24.5362C255.458 23.9342 255.371 23.3316 255.168 22.764C254.964 22.1964 254.649 21.6755 254.24 21.2322C253.832 20.7888 253.338 20.432 252.789 20.183C252.24 19.9339 251.646 19.7977 251.044 19.7824C250.265 19.7364 249.488 19.8962 248.791 20.2459C248.093 20.5957 247.501 21.1229 247.072 21.7745C246.936 22.0043 246.755 22.2043 246.54 22.3622C246.325 22.5202 246.08 22.6329 245.82 22.6935C245.561 22.7542 245.291 22.7614 245.028 22.715C244.766 22.6685 244.515 22.5692 244.292 22.4231C244.068 22.277 243.877 22.0871 243.729 21.865C243.581 21.6428 243.48 21.393 243.431 21.1306C243.383 20.8682 243.388 20.5987 243.447 20.3383C243.505 20.078 243.616 19.8322 243.772 19.6159C244.54 18.4468 245.587 17.4869 246.818 16.8225C248.05 16.1581 249.426 15.81 250.825 15.8095C252.224 15.8091 253.602 16.1562 254.833 16.8198C256.065 17.4834 257.112 18.4426 257.881 19.6113C258.65 20.7799 259.117 22.1213 259.239 23.5149C259.361 24.9086 259.136 26.3107 258.582 27.5954C258.028 28.8801 257.163 30.007 256.066 30.8749C254.969 31.7428 253.673 32.3245 252.296 32.5676L252.32 32.5614ZM251.827 41.3439L251.784 42.0655C251.775 42.3251 251.714 42.5804 251.604 42.8158C251.494 43.0511 251.338 43.2617 251.144 43.4347C250.95 43.6077 250.723 43.7396 250.477 43.8223C250.231 43.905 249.97 43.9368 249.711 43.9157C249.192 43.8824 248.706 43.6455 248.36 43.2564C248.013 42.8674 247.834 42.3575 247.861 41.8373L247.904 41.1157C247.941 40.5982 248.178 40.1153 248.565 39.7698C248.952 39.4242 249.458 39.2433 249.977 39.2655C250.236 39.2772 250.49 39.3406 250.724 39.4521C250.958 39.5635 251.168 39.7208 251.34 39.9145C251.513 40.1082 251.644 40.3345 251.728 40.58C251.812 40.8255 251.845 41.0852 251.827 41.3439V41.3439Z" fill="#0094DE"/>
<defs>
<linearGradient id="paint0_linear_91_2385" x1="176.5" y1="238" x2="176.5" y2="349" gradientUnits="userSpaceOnUse">
<stop stop-color="#A8D5FF"/>
<stop offset="0.505208" stop-color="white" stop-opacity="0"/>
</linearGradient>
</defs>
</svg>
