<svg width="54" height="51" viewBox="0 0 54 51" fill="none" xmlns="http://www.w3.org/2000/svg">
<path d="M25.7134 2C24.2812 7.57332 24.2812 11.7125 25.7134 14.4175C27.8615 18.4749 32.836 20.7189 26.4309 26.1309C20.0258 31.543 13.5318 27.0016 9.52239 27.0016C5.51303 27.0016 2 31.5162 2 38.2372C2 42.7179 2.82362 46.4666 4.47088 49.4832" stroke="white" stroke-width="2.5" stroke-linecap="round" stroke-linejoin="round"/>
<path d="M34.4408 2C32.6397 8.65892 33.0499 12.8821 35.6719 14.6695C39.6047 17.3508 39.9061 11.751 47.1323 15.0828C54.3585 18.4146 52.4797 30.029 48.3233 36.0074C44.1667 41.9859 35.2946 48.027 26.9737 46.9841C18.6528 45.9411 15.5588 35.7632 14.4877 35.7632C13.4167 35.7632 11.1537 35.7949 10.7118 40.0081C10.4172 42.8167 11.2546 45.9751 13.224 49.4832" stroke="white" stroke-width="2.5" stroke-linecap="round" stroke-linejoin="round"/>
<path d="M41.5137 31.1022C40.7913 33.2591 39.571 34.9114 37.8526 36.1129C36.1344 37.3144 33.9533 38.0226 31.3096 38.2374" stroke="white" stroke-width="2.5" stroke-linecap="round"/>
</svg>
