<svg width="44" height="50" viewBox="0 0 44 50" fill="none" xmlns="http://www.w3.org/2000/svg">
<path d="M42.0668 5.11661L42.0666 5.11627C41.7961 4.82812 35.3379 -1.91225 26.2528 0.53349C22.2719 1.60492 19.3524 4.3311 17.5757 8.63583C17.1352 9.70333 15.7989 10.1403 12.8093 10.1944C12.6726 10.1969 12.5362 10.2031 12.4013 10.2094C12.1665 10.2202 11.7303 10.2408 11.6669 10.1813C11.4892 10.0156 11.4259 9.75983 11.5057 9.52938C11.9541 8.23366 12.5226 7.28053 12.9214 6.70869C13.5758 5.76892 13.4338 4.47629 12.5913 3.70173L11.5317 2.72789L10.7196 1.97097C10.198 1.48422 9.49463 1.27021 8.78992 1.38166C8.08625 1.49364 7.48445 1.9155 7.1386 2.53973C6.29985 4.05511 5.00721 6.49399 4.50146 7.46339L4.40164 7.65343C0.539999 14.9877 -0.0910807 22.3604 2.52586 29.5669C4.90157 36.1084 8.75192 41.7975 13.3679 45.5859C16.9114 48.4939 20.5486 50 23.9067 49.9998C25.0636 49.9998 26.1878 49.8209 27.2631 49.4591C31.2987 48.1009 34.0965 43.5046 35.1412 36.5167C36.0361 30.5312 35.4561 23.4376 33.6274 18.0044C32.5445 14.7871 29.833 12.5846 25.3382 11.2711C25.1276 11.2096 24.959 11.0576 24.8756 10.854C24.7921 10.6499 24.8054 10.4233 24.9123 10.2324C25.6885 8.84488 26.7499 7.98626 28.1574 7.60754C32.9915 6.30601 36.5836 9.98171 36.7251 10.1295C38.1072 11.6024 40.43 11.6755 41.9028 10.2938C43.375 8.91199 43.4488 6.58919 42.0668 5.11661ZM40.145 8.42148C39.7048 8.83426 39.0107 8.81252 38.5882 8.36258C38.3945 8.16055 33.7767 3.43396 27.4893 5.12774C25.4081 5.68777 23.7867 6.98348 22.6706 8.97842C22.1794 9.85622 22.1167 10.8944 22.4985 11.8272C22.8798 12.7582 23.652 13.4542 24.6174 13.7362C28.2971 14.8114 30.3865 16.4281 31.1928 18.8237C32.8997 23.8949 33.439 30.529 32.6008 36.137C31.7189 42.0363 29.4745 46.005 26.4434 47.0251C23.1652 48.1285 18.993 46.8802 14.997 43.6005C10.732 40.1003 7.16018 34.8049 4.93958 28.6903C2.57997 22.1926 3.16328 15.5174 6.67377 8.85019L6.77821 8.65107C7.32385 7.60549 8.45709 5.47307 9.21966 4.08387L10.6815 5.43489C10.2026 6.15175 9.57595 7.25228 9.07858 8.68959C8.667 9.87916 8.99572 11.2021 9.91563 12.0599C10.7696 12.8562 11.7815 12.8089 12.5206 12.7748C12.6315 12.7697 12.7438 12.7642 12.856 12.7623C14.8965 12.7254 18.6949 12.6567 19.9497 9.61584C21.4059 6.08806 23.7511 3.86661 26.9204 3.01347C34.5332 0.964597 39.9637 6.62839 40.1943 6.87391C40.6071 7.31409 40.585 8.00835 40.145 8.42148Z" fill="white"/>
<path d="M7.9697 22.2318C7.88803 21.6067 7.31414 21.1646 6.69042 21.247C6.06499 21.3281 5.62378 21.9008 5.70493 22.5261C5.74945 22.8699 6.84981 31.0046 11.4756 36.2089C11.6981 36.459 12.0056 36.5883 12.316 36.592C12.5903 36.5953 12.8665 36.5003 13.0879 36.3037C13.5592 35.8846 13.6017 35.1629 13.1827 34.6914C9.03069 30.0206 7.9798 22.309 7.9697 22.2318Z" fill="white"/>
<path d="M15.1428 40.1147C15.8085 40.1147 16.3481 39.575 16.3481 38.9094C16.3481 38.2437 15.8085 37.704 15.1428 37.704C14.4771 37.704 13.9375 38.2437 13.9375 38.9094C13.9375 39.575 14.4771 40.1147 15.1428 40.1147Z" fill="white"/>
</svg>
