<svg width="55" height="51" viewBox="0 0 55 51" fill="none" xmlns="http://www.w3.org/2000/svg">
<path d="M53.9747 39.4015L47.0063 17.6254C45.3835 12.5535 39.9014 8.32784 34.6394 11.2442C33.7884 11.7158 33.0616 12.328 32.4742 13.0413L30.8842 11.9482V1.24397C30.8842 0.563416 30.3327 0.0120087 29.6522 0.0120087H24.7243C24.0437 0.0120087 23.4923 0.563416 23.4923 1.24397V11.9482L21.9022 13.0413C21.3148 12.328 20.5881 11.7158 19.7371 11.2442C14.5327 8.36002 9.01635 12.4806 7.3702 17.6252L0.401984 39.4015C-1.71306 46.0114 4.90087 52.0481 11.2878 49.3539L19.0615 46.0745C21.8036 44.9178 23.5753 42.2472 23.5753 39.2711V20.8614L25.0554 19.8438C26.3314 18.9667 28.0456 18.9664 29.3215 19.844L30.8015 20.8616V39.2713C30.8015 42.2472 32.5733 44.9179 35.3154 46.0746L43.089 49.354C49.4836 52.052 56.087 46.0029 53.9747 39.4015ZM21.1116 39.2713H21.1114C21.1114 41.2543 19.9309 43.0336 18.1038 43.8044L10.3301 47.0838C5.87751 48.962 1.2771 44.7512 2.74897 40.1526L9.7174 18.3763C10.8823 14.7346 14.776 11.3117 18.543 13.3994C20.0514 14.2355 21.0347 15.685 21.1116 17.7772V39.2713ZM30.7983 17.8694C28.5676 16.3366 25.7995 16.3402 23.5786 17.8691C23.5552 16.9716 23.4791 16.1419 23.1294 15.188L25.4225 13.6116C25.7569 13.3817 25.9565 13.002 25.9565 12.5963V2.47603H28.4205V12.5964C28.4205 13.0021 28.6202 13.3817 28.9544 13.6117L31.2477 15.1882C30.9071 16.1147 30.8228 16.9372 30.7983 17.8694ZM44.0467 47.0837L36.273 43.8043C34.4459 43.0336 33.2653 41.2543 33.2653 39.2711V17.7852C33.3405 15.7051 34.307 14.2455 35.834 13.3993C39.5961 11.314 43.492 14.7265 44.6596 18.3763L51.628 40.1524C53.1013 44.7565 48.4938 48.9601 44.0467 47.0837Z" fill="white"/>
</svg>
