<svg width="70" height="70" viewBox="0 0 70 70" fill="none" xmlns="http://www.w3.org/2000/svg">
<circle cx="35" cy="35" r="35" fill="white"/>
<mask id="mask0_137_1320" style="mask-type:alpha" maskUnits="userSpaceOnUse" x="0" y="0" width="70" height="70">
<circle cx="35" cy="35" r="35" fill="#F9D8B9"/>
</mask>
<g mask="url(#mask0_137_1320)">
<path d="M68.2125 112.637H9.94728C9.72967 110.406 18.5973 63.0758 29.097 47.8974C30.2938 46.1565 40.4671 44.9053 44.2209 49.2031C64.0235 71.9434 68.6477 112.092 68.2125 112.637Z" fill="#6F84F0"/>
<path d="M21.4807 64.599V112.636H20.1206V68.6248C20.6102 67.2647 21.0454 65.9047 21.4807 64.599Z" fill="#3C3575"/>
<path d="M32.3064 46.5374V112.637H30.9463V46.8638C31.3815 46.755 31.8167 46.6462 32.3064 46.5374Z" fill="#3C3575"/>
<path d="M43.133 48.1694V112.582H41.7729V47.4078C42.2626 47.6254 42.6978 47.8974 43.133 48.1694Z" fill="#3C3575"/>
<path d="M53.9587 63.6742V112.636H52.5986V61.1716C53.0339 61.9877 53.5235 62.8037 53.9587 63.6742Z" fill="#3C3575"/>
<path d="M44.2207 49.1487C44.5471 49.5295 44.8735 49.8559 45.1456 50.2367H27.6279C27.8999 49.7471 28.172 49.3119 28.444 48.8767H44.0031C44.0575 48.9855 44.1663 49.0943 44.2207 49.1487Z" fill="#3C3575"/>
<path d="M51.7829 59.7572C52.0549 60.1924 52.327 60.682 52.5446 61.1172H22.7319C22.8951 60.682 23.0584 60.1924 23.2216 59.7572H51.7829Z" fill="#3C3575"/>
<path d="M27.7376 51.8144C26.1055 56.1122 19.8492 71.1273 16.4763 81.899C14.1914 89.1346 13.3209 95.1733 12.8313 96.8054C12.8313 96.8054 30.0225 91.2563 33.8851 91.2563C39.8694 91.2563 49.3898 103.714 47.0505 105.238C43.3511 107.686 25.7791 116.009 11.7432 118.675C4.12687 120.09 -10.2898 110.406 -9.14736 102.681C-7.56968 91.8547 12.0152 63.3478 19.4684 55.2418C23.331 50.9984 29.7505 46.5918 27.7376 51.8144Z" fill="#F9D8B9"/>
<path d="M-10.1812 104.966C-9.80038 112.745 -0.0623102 119.328 5.59556 119.654C15.3336 120.253 44.6022 111.712 44.6022 111.712L33.2321 89.7874C33.2321 89.7874 13.3207 96.5333 12.8311 96.751C12.9943 96.1525 17.8905 77.7101 20.1211 71.617C20.2299 71.2905 20.3931 70.9097 20.5019 70.5833C21.1547 68.8968 22.0251 66.6663 22.95 64.2182C23.494 62.8581 24.038 61.4981 24.5821 60.0836C26.9758 54.0993 29.3151 48.4415 29.3151 48.4415C25.9421 48.9855 22.678 50.7264 17.2377 56.4386C11.7975 62.1509 -10.7796 92.0723 -10.1812 104.966Z" fill="#6F84F0"/>
<path d="M10.655 64.4902V119.437C10.2198 119.491 9.73014 119.546 9.29492 119.6V66.3399C9.78455 65.6871 10.2198 65.0886 10.655 64.4902Z" fill="#3C3575"/>
<path d="M21.4812 52.4128V67.9176C21.1003 68.8968 20.7739 69.7673 20.4475 70.5833C20.3387 70.9097 20.2299 71.2361 20.1211 71.5082V53.5553C20.6107 53.1201 21.0459 52.7393 21.4812 52.4128Z" fill="#3C3575"/>
<path d="M29.1518 48.9311C29.043 49.2575 28.8254 49.6927 28.6077 50.2911H24.4731C25.5068 49.6927 26.4316 49.2575 27.3565 48.9311H29.1518Z" fill="#3C3575"/>
<path d="M24.7449 59.7572C24.6905 59.866 24.6361 59.9748 24.5816 60.0836C24.4728 60.41 24.3096 60.7364 24.2008 61.0628H13.3203C13.7011 60.5732 14.0819 60.138 14.4084 59.7028H24.7449V59.7572Z" fill="#3C3575"/>
<path d="M6.73828 99.9607L12.8314 96.751C12.9946 96.1526 17.8908 77.7101 20.1213 71.617C20.2301 71.2906 20.3933 70.9098 20.5021 70.5833C21.155 68.8969 22.0254 66.6663 22.9503 64.2182L6.73828 99.9607Z" fill="#3C3575"/>
<path d="M6.13965 97.9478C7.66292 97.9478 16.857 95.4997 18.217 96.751C26.3774 104.476 28.9887 102.898 30.7296 103.932C44.2215 111.712 62.2287 120.797 68.6482 120.851C78.3863 120.906 82.2489 112.745 80.6712 105.02C77.4614 89.733 56.8973 59.9748 47.54 52.0864C42.5894 47.8974 42.9702 54.2081 45.0375 61.0629C46.2344 65.0887 48.3561 71.0729 50.4778 76.9484C52.3819 82.1711 57.3869 95.5541 57.4957 95.8805V95.9349C57.4957 95.9893 57.4413 95.9893 57.3869 95.9349C56.9517 95.8805 45.4183 90.4403 33.8306 87.4481C29.7504 86.4145 21.2636 84.8912 18.217 86.2513C16.4217 87.0673 16.3673 88.1554 16.3673 88.1554C16.3673 88.1554 14.8985 88.0466 13.3752 89.2978C12.3415 90.1138 12.0695 91.3107 12.0695 91.3107C12.0695 91.3107 10.4919 91.5283 9.67582 92.4532C8.69657 93.5412 8.58777 94.7381 8.58777 94.7381C6.35726 95.2821 6.13965 97.9478 6.13965 97.9478Z" fill="#F9D8B9"/>
<path d="M42.4261 89.7874C40.3044 89.0802 39.3251 89.0802 39.3251 89.0802L27.1934 109.536C27.1934 109.536 60.5965 121.559 67.4513 122.266C74.306 122.973 82.0856 117.587 82.2488 108.937C82.412 96.8598 62.7183 67.8088 52.7626 56.5475C48.1928 51.3792 42.9157 47.6798 41.5556 48.4959C39.978 49.4751 42.8613 55.949 44.3846 60.7909C47.2135 69.7129 57.3324 95.9349 57.3324 95.9349C57.3324 95.9349 44.983 90.6035 42.4261 89.7874Z" fill="#6F84F0"/>
<path d="M43.1335 48.6047V57.0915C42.6439 55.7314 42.1543 54.317 41.7734 53.1201V48.3871C42.0999 48.3327 42.5895 48.3871 43.1335 48.6047Z" fill="#3C3575"/>
<path d="M53.9592 57.9075V87.0673C53.524 85.9249 53.0887 84.728 52.5991 83.4768V56.3299C52.6535 56.3843 52.7079 56.4387 52.7623 56.4931C53.1431 56.9827 53.524 57.4179 53.9592 57.9075Z" fill="#3C3575"/>
<path d="M45.9623 50.2911H41.1204C41.066 49.7471 41.066 49.2575 41.2292 48.9311H43.7862C44.439 49.2575 45.1462 49.6927 45.9623 50.2911Z" fill="#3C3575"/>
<path d="M56.5702 61.0629H44.4928C44.4384 60.9541 44.4384 60.8453 44.384 60.7909C44.2752 60.4645 44.1664 60.0837 44.0576 59.7028H55.4822C55.8086 60.1925 56.1894 60.6277 56.5702 61.0629Z" fill="#3C3575"/>
<path d="M47.4313 71.1274C47.9209 71.9434 48.4649 72.7594 48.9001 73.6299C48.9001 73.6843 48.9545 73.6843 48.9545 73.7387C48.3017 71.7802 47.7033 69.8217 47.1048 67.8088C47.0504 67.7 47.2681 67.6456 47.3225 67.7544C50.2058 75.0443 52.8715 82.3887 55.4284 89.733C56.1357 91.8003 56.7885 93.8676 57.4413 95.9349C57.4413 95.9893 57.3325 96.0437 57.3325 95.9893C56.5709 94.1941 55.7549 92.4532 55.0476 90.6035C54.3404 88.8082 53.6332 86.9585 52.9803 85.1088C51.7835 81.8991 50.641 78.6893 49.553 75.4252C49.2266 74.8811 48.8457 74.2827 48.5193 73.7387C48.0297 72.9226 47.6489 71.9978 47.2681 71.1274C47.2681 71.073 47.3769 71.0185 47.4313 71.1274Z" fill="#3C3575"/>
<path d="M30.2392 56.4386C33.3945 57.5811 39.4876 53.2833 42.0989 49.5295C42.2621 49.2575 42.2077 46.3197 42.2621 42.7836C42.3165 40.6075 42.4253 38.2138 42.643 36.0377L28.4983 37.8329C28.4983 37.8329 29.3143 42.566 28.8791 46.4286C28.8247 46.755 28.7703 47.027 28.6615 47.299C28.6615 47.3534 28.6615 47.4078 28.6071 47.4622C28.1719 49.0943 27.1926 55.3506 30.2392 56.4386Z" fill="#F9D8B9"/>
<path d="M28.6073 47.4078C28.5529 47.5166 28.5529 47.6254 28.5529 47.7342C37.0397 47.3534 40.2495 43.654 42.3168 40.0634C42.3712 38.7034 42.48 37.3433 42.6432 36.0377L28.4985 37.8329C28.4985 37.8329 29.3146 42.566 28.8794 46.4286C28.825 46.755 28.7705 47.027 28.6617 47.299C28.6617 47.299 28.6617 47.3534 28.6073 47.4078Z" fill="#3C3575"/>
<path d="M46.4511 18.4112C47.92 23.3075 45.3087 37.5065 41.7725 40.6619C36.713 45.2317 28.3895 45.6669 24.5269 39.5194C20.7731 33.5895 24.5269 15.2015 28.4439 12.3181C34.2105 8.12913 44.275 11.1757 46.4511 18.4112Z" fill="#F9D8B9"/>
<path d="M34.3736 26.354C34.3736 26.2996 34.428 26.4084 34.428 26.4628C34.2104 27.3876 34.156 28.5301 34.972 29.0197V29.0741C33.9384 28.7477 34.0472 27.2244 34.3736 26.354Z" fill="#3C3575"/>
<path d="M35.407 25.5379C36.9847 25.7011 36.5495 28.8021 35.0806 28.6389C33.6661 28.4757 34.1014 25.3747 35.407 25.5379Z" fill="#3C3575"/>
<path d="M28.4977 25.4835C28.4977 25.4291 28.3889 25.5379 28.3889 25.5379C28.2801 26.5172 28.0081 27.6052 27.0833 27.7684C27.0289 27.7684 27.0289 27.8229 27.0833 27.8229C28.2257 27.8773 28.5522 26.4084 28.4977 25.4835Z" fill="#3C3575"/>
<path d="M27.7912 24.3411C26.2679 24.0147 25.7239 27.1156 27.1383 27.3876C28.5528 27.714 29.0968 24.6131 27.7912 24.3411Z" fill="#3C3575"/>
<path d="M36.8213 24.2867C36.4405 24.1235 36.0597 23.9059 35.6789 23.6883C35.2437 23.4707 34.8628 23.3074 34.6452 22.8722C34.5364 22.6546 34.6452 22.2194 34.8628 22.1106C35.4069 21.7842 36.0053 21.893 36.5493 22.165C37.1477 22.437 37.5286 22.8178 37.8006 23.4162C38.0182 23.9603 37.3654 24.5043 36.8213 24.2867Z" fill="#3C3575"/>
<path d="M26.8115 22.6002C27.2467 22.6002 27.682 22.4914 28.1172 22.437C28.6068 22.3826 28.9876 22.3826 29.3684 22.0562C29.586 21.893 29.586 21.4578 29.4228 21.2401C29.042 20.7505 28.4436 20.6417 27.8452 20.6961C27.1923 20.7505 26.7027 20.9681 26.2675 21.4034C25.8323 21.893 26.2675 22.6546 26.8115 22.6002Z" fill="#3C3575"/>
<path d="M33.5032 35.2216C33.2312 35.4392 32.9592 35.7112 32.6328 35.6568C32.3064 35.6568 31.9255 35.4392 31.6535 35.276C31.5991 35.276 31.5991 35.276 31.5991 35.3304C31.8167 35.7112 32.3064 36.0376 32.7416 36.0376C33.1768 36.0376 33.4488 35.6568 33.612 35.276C33.612 35.2216 33.5032 35.2216 33.5032 35.2216Z" fill="#3C3575"/>
<path d="M32.8503 32.2295C32.1975 32.9911 31.3271 33.3175 30.4566 33.3719C30.0758 33.3719 29.6406 33.3719 29.2598 33.2631C29.2054 33.2631 29.0966 33.2087 29.0422 33.2087C28.9878 33.2087 28.9334 33.1543 28.8245 33.1543C28.7157 33.0999 28.6613 33.0455 28.6613 32.9367C28.6613 32.8823 28.6613 32.8823 28.6613 32.8279V32.7191C28.7701 31.9574 28.9878 30.8694 28.9878 30.8694C28.7157 30.9782 27.2469 31.4134 27.3013 31.0326C27.9541 27.8773 28.6613 24.3411 29.967 21.2945C30.0214 21.1857 30.1846 21.2401 30.1302 21.3489C29.6406 24.4499 28.6069 27.3876 28.0629 30.4886C28.5525 30.3798 29.3142 30.1622 29.695 30.2166C29.8038 30.271 29.2054 32.3383 29.2054 32.7191C29.2054 32.7191 29.2054 32.7191 29.2054 32.7735C30.4022 33.0999 31.4359 32.8823 32.7415 32.1751C32.8503 32.0663 32.9591 32.1207 32.8503 32.2295Z" fill="#3C3575"/>
<path d="M44.7094 31.0326C42.1525 30.4342 42.6965 23.9059 42.6965 23.9059C42.6965 23.9059 39.5956 22.3826 39.1059 16.3983C39.1059 16.3983 36.3858 22.0562 25.7773 19.7713C25.7773 19.7713 25.3965 17.16 27.083 14.2766C27.083 14.2766 25.6141 16.2351 23.8732 19.8257C23.8732 19.8257 22.1323 10.686 30.0207 8.23793C33.1761 7.25868 37.7459 7.91151 44.4374 12.0461C44.4374 12.0461 46.1783 7.96592 46.9399 8.61875C47.7015 9.21718 45.7975 13.0254 45.7975 13.0254C45.7975 13.0254 48.9528 12.3725 49.388 13.0254C49.7688 13.6238 46.7767 14.1134 46.7767 14.1134C46.7767 14.1134 51.3465 16.0175 50.0409 21.4034C48.7896 26.1908 45.9607 31.3046 44.7094 31.0326Z" fill="#3C3575"/>
<path d="M45.8519 13.8958C48.6264 14.059 50.9657 16.2895 51.0745 19.1184C51.1833 20.6961 50.6393 22.2738 49.9865 23.6883C49.3336 25.2115 48.3544 26.5172 47.3207 27.8773C47.2663 27.9317 47.1575 27.8229 47.2119 27.7685C48.1368 26.626 48.844 25.2115 49.388 23.7971C49.8776 22.4914 50.3673 21.0225 50.4761 19.6081C50.5849 16.7791 48.5176 14.4398 45.7975 14.059C45.7431 14.0046 45.7431 13.8958 45.8519 13.8958Z" fill="#3C3575"/>
<path d="M36.2232 7.25867C38.0185 7.8027 39.7049 8.67314 41.2826 9.65239C42.8059 10.5772 44.2203 11.6653 45.3628 13.0798C45.4172 13.1342 45.3084 13.243 45.254 13.1886C42.7515 10.9036 39.5961 9.32597 36.4408 8.07471C33.503 6.93226 29.9125 6.60584 27.4099 8.83635C27.3555 8.89075 27.3011 8.83635 27.3555 8.78194C29.6405 6.44263 33.231 6.33383 36.2232 7.25867Z" fill="#3C3575"/>
<path d="M43.3497 29.999C43.3497 29.999 46.6682 25.4836 48.7355 26.6804C50.8028 27.8773 48.2459 34.46 45.7434 35.3304C43.2952 36.2009 42.4248 33.916 42.4248 33.916L43.3497 29.999Z" fill="#F9D8B9"/>
<path d="M47.9741 28.5301C48.0285 28.5301 48.0285 28.5845 47.9741 28.5845C46.2332 29.2373 45.3083 30.815 44.6555 32.4471C45.1995 31.8486 45.9068 31.4678 46.7228 32.1207C46.7772 32.1751 46.7228 32.2295 46.6684 32.2295C45.9612 32.0663 45.4715 32.1751 44.9819 32.7191C44.6555 33.0999 44.3835 33.5895 44.1659 34.0791C44.0571 34.2424 43.7851 34.1335 43.8939 33.9703C43.8939 33.9703 43.8939 33.9703 43.8939 33.9159C43.8395 31.6854 45.6347 28.6933 47.9741 28.5301Z" fill="#3C3575"/>
<path d="M27.3019 49.8559C27.3019 49.8015 27.3563 49.8015 27.3019 49.8559C27.0842 52.6849 26.649 59.2132 31.4365 58.9956C33.3405 58.8868 35.1358 57.8531 36.6591 56.8195C38.1824 55.7858 39.5968 54.5345 40.7937 53.1745C42.1538 51.7056 42.6434 50.9984 43.677 49.9103C43.7314 49.8559 43.8402 49.9103 43.7858 49.9647C42.7522 51.5424 42.6434 51.9232 41.2833 53.5009C39.9777 55.0242 38.5088 56.3842 36.7679 57.5267C35.1902 58.5603 33.2861 59.594 31.2188 59.594C29.2604 59.594 27.9003 58.4515 27.4107 56.7651C26.7578 54.589 26.8666 52.032 27.3019 49.8559Z" fill="#3C3575"/>
</g>
</svg>
