<svg width="47" height="52" viewBox="0 0 47 52" fill="none" xmlns="http://www.w3.org/2000/svg">
<path d="M14.7414 25.0222C14.3968 26.5982 12.9909 27.7818 11.3132 27.7818C10.8659 27.7818 10.5033 28.1444 10.5033 28.5918C10.5033 29.0392 10.8659 29.4017 11.3132 29.4017C13.8806 29.4017 16.0132 27.5057 16.3851 25.0404C17.957 24.8704 19.4081 24.17 20.5314 23.0234C20.8445 22.7039 20.8392 22.191 20.5197 21.8781C20.2002 21.5652 19.6874 21.5702 19.3743 21.8897C18.3809 22.9038 17.0522 23.4622 15.6328 23.4622C12.7448 23.4622 10.3953 21.1126 10.3953 18.2246C10.3953 17.7772 10.0326 17.4147 9.58533 17.4147C9.13803 17.4147 8.77539 17.7772 8.77539 18.2246C8.77539 21.7035 11.38 24.5836 14.7414 25.0222Z" fill="white" stroke="white" stroke-width="0.5"/>
<path d="M18.1706 32.0476C18.1706 31.6002 17.808 31.2376 17.3607 31.2376C13.5795 31.2376 10.5033 34.3139 10.5033 38.0951C10.5033 38.1342 10.5047 38.1734 10.5053 38.2126C10.2041 38.172 9.89742 38.1491 9.58533 38.1491C9.13803 38.1491 8.77539 38.5116 8.77539 38.959C8.77539 39.4064 9.13803 39.7689 9.58533 39.7689C12.4733 39.7689 14.8229 42.1185 14.8229 45.0065C14.8229 45.4539 15.1855 45.8165 15.6328 45.8165C16.0801 45.8165 16.4428 45.4539 16.4428 45.0065C16.4428 42.1328 14.665 39.6678 12.1522 38.6494C12.1329 38.4659 12.1231 38.2803 12.1231 38.0951C12.1231 35.2071 14.4727 32.8575 17.3607 32.8575C17.808 32.8575 18.1706 32.495 18.1706 32.0476Z" fill="white" stroke="white" stroke-width="0.5"/>
<path d="M45.8164 25.1361C45.8164 23.2921 45.0799 21.5447 43.7781 20.2596C43.9842 19.6 44.0886 18.9177 44.0886 18.2246C44.0886 14.8905 41.6963 12.1059 38.5384 11.4936C38.7798 10.892 38.905 10.2471 38.905 9.58531C38.905 7.47333 37.6217 5.65583 35.7942 4.8703C32.7494 2.44525 29.4192 1 26.8639 1C25.4435 1 24.1839 1.69849 23.4082 2.76933C22.6325 1.69849 21.3729 1 19.9525 1C17.3972 1 14.0671 2.44525 11.0222 4.8703C9.19471 5.65583 7.91145 7.47333 7.91145 9.58531C7.91145 10.2471 8.03661 10.892 8.27797 11.4936C5.12009 12.1059 2.72786 14.8905 2.72786 18.2246C2.72786 18.9177 2.83207 19.5999 3.03834 20.2596C1.7365 21.5447 1 23.2921 1 25.1361C1 26.5775 1.44806 27.9159 2.21091 29.0211C1.41814 30.1671 1 31.5039 1 32.9114C1 35.4048 2.35929 37.6892 4.51145 38.8937C4.47441 39.2017 4.45572 39.5125 4.45572 39.8229C4.45572 43.1862 6.64957 46.1597 9.83261 47.1731C11.2172 49.5427 13.7392 51 16.4968 51C19.52 51 22.1414 49.2526 23.4082 46.7155C24.6751 49.2526 27.2964 51 30.3197 51C33.0772 51 35.5992 49.5427 36.9838 47.1731C40.1668 46.1596 42.3607 43.1861 42.3607 39.8229C42.3607 39.5125 42.342 39.2017 42.305 38.8937C44.4571 37.6892 45.8164 35.4048 45.8164 32.9114C45.8164 31.5039 45.3983 30.1671 44.6055 29.0211C45.3684 27.9159 45.8164 26.5775 45.8164 25.1361ZM16.4968 49.3801C14.2258 49.3801 12.1565 48.1281 11.0962 46.1127C10.9911 45.9131 10.8078 45.7663 10.59 45.7077C7.93197 44.9923 6.07559 42.5725 6.07559 39.8229C6.07559 39.4114 6.11706 38.9994 6.19881 38.5978C6.27462 38.2256 6.08143 37.8505 5.73423 37.6961C3.84233 36.8551 2.61987 34.9769 2.61987 32.9114C2.61987 31.972 2.8635 31.0741 3.3284 30.2787C4.53747 31.3447 6.12268 31.9935 7.85745 31.9935C8.30475 31.9935 8.66739 31.631 8.66739 31.1836C8.66739 30.7362 8.30475 30.3736 7.85745 30.3736C4.96944 30.3736 2.61987 28.0241 2.61987 25.1361C2.61987 23.5814 3.30583 22.1162 4.50194 21.1165C4.77192 20.8908 4.86534 20.5166 4.73305 20.1906C4.47732 19.5604 4.34773 18.8989 4.34773 18.2246C4.34773 15.3366 6.6973 12.987 9.58531 12.987C12.4733 12.987 14.8229 15.3366 14.8229 18.2246C14.8229 18.672 15.1855 19.0346 15.6328 19.0346C16.0801 19.0346 16.4428 18.672 16.4428 18.2246C16.4428 14.5916 13.6024 11.6109 10.0258 11.3828C9.70162 10.8409 9.53132 10.2247 9.53132 9.58531C9.53132 8.14158 10.4078 6.89903 11.6564 6.3608C11.7046 6.34644 11.7519 6.32765 11.7976 6.30389C12.1845 6.1568 12.6033 6.07559 13.041 6.07559C14.3971 6.07559 15.6077 6.8338 16.2004 8.05454C16.3959 8.45702 16.8806 8.62484 17.2828 8.42927C17.6852 8.23391 17.853 7.74935 17.6576 7.34698C16.9809 5.95356 15.7002 4.95205 14.2254 4.5973C16.2925 3.33596 18.3276 2.61987 19.9525 2.61987C21.4113 2.61987 22.5983 3.8067 22.5983 5.26566V15.7463C21.8705 15.169 20.9514 14.8229 19.9525 14.8229C19.5052 14.8229 19.1425 15.1854 19.1425 15.6328C19.1425 16.0802 19.5052 16.4428 19.9525 16.4428C21.4113 16.4428 22.5983 17.6296 22.5983 19.0886V38.5571C21.5913 37.2579 20.1716 36.2773 18.5016 35.8286C18.0698 35.713 17.6254 35.9687 17.5093 36.4006C17.3932 36.8327 17.6494 37.277 18.0813 37.393C20.7408 38.1076 22.5983 40.5278 22.5983 43.2786C22.5983 46.643 19.8611 49.3801 16.4968 49.3801ZM41.0822 37.6962C40.735 37.8506 40.5418 38.2256 40.6176 38.5979C40.6994 38.9995 40.7408 39.4116 40.7408 39.823C40.7408 42.5726 38.8844 44.9924 36.2265 45.7078C36.0086 45.7664 35.8252 45.9132 35.7202 46.1129C34.6599 48.1281 32.5906 49.3801 30.3197 49.3801C26.9553 49.3801 24.2181 46.643 24.2181 43.2786C24.2181 43.0509 24.2076 42.8251 24.1878 42.6014C24.207 42.5322 24.2181 42.4595 24.2181 42.3841V15.6328C24.2181 14.1739 25.4051 12.987 26.8639 12.987C27.3112 12.987 27.6739 12.6245 27.6739 12.1771C27.6739 11.7297 27.3112 11.3672 26.8639 11.3672C25.865 11.3672 24.9459 11.7133 24.2181 12.2906V5.26566C24.2181 3.8067 25.4051 2.61987 26.8639 2.61987C28.4888 2.61987 30.5239 3.33596 32.591 4.5973C31.1162 4.95194 29.8355 5.95356 29.1589 7.34698C28.9634 7.74946 29.1312 8.23402 29.5336 8.42927C29.936 8.62473 30.4205 8.45702 30.616 8.05454C31.2087 6.8338 32.4193 6.07559 33.7754 6.07559C34.2131 6.07559 34.6321 6.1568 35.0188 6.30389C35.0644 6.32765 35.1117 6.34633 35.1597 6.36069C36.4085 6.89892 37.2851 8.14147 37.2851 9.58531C37.2851 10.2247 37.1148 10.8409 36.7906 11.3828C33.214 11.6109 30.3737 14.5916 30.3737 18.2246C30.3737 18.672 30.7363 19.0346 31.1836 19.0346C31.6309 19.0346 31.9935 18.672 31.9935 18.2246C31.9935 15.3366 34.3431 12.987 37.2311 12.987C40.1191 12.987 42.4687 15.3366 42.4687 18.2246C42.4687 18.8989 42.3391 19.5604 42.0835 20.1906C41.9512 20.5167 42.0446 20.8908 42.3146 21.1165C43.5106 22.1162 44.1965 23.5814 44.1965 25.1361C44.1965 28.0241 41.847 30.3736 38.959 30.3736C38.5117 30.3736 38.149 30.7362 38.149 31.1836C38.149 31.631 38.5117 31.9935 38.959 31.9935C40.6937 31.9935 42.2789 31.3447 43.488 30.2787C43.953 31.0741 44.1965 31.972 44.1965 32.9114C44.1965 34.9769 42.9741 36.8551 41.0822 37.6962Z" fill="white" stroke="white" stroke-width="0.5"/>
<path d="M37.2309 26.9179C35.5531 26.9179 34.1473 25.7342 33.8027 24.1583C37.164 23.7196 39.7687 20.8396 39.7687 17.3607C39.7687 16.9133 39.4061 16.5507 38.9588 16.5507C38.5115 16.5507 38.1488 16.9133 38.1488 17.3607C38.1488 20.2487 35.7992 22.5982 32.9112 22.5982C31.4919 22.5982 30.1632 22.0398 29.1698 21.0258C28.8568 20.7063 28.344 20.7011 28.0244 21.0141C27.7049 21.3272 27.6996 21.8399 28.0126 22.1595C29.136 23.306 30.587 24.0065 32.159 24.1764C32.5309 26.6418 34.6635 28.5378 37.2309 28.5378C37.6782 28.5378 38.0408 28.1752 38.0408 27.7278C38.0408 27.2804 37.6782 26.9179 37.2309 26.9179Z" fill="white" stroke="white" stroke-width="0.5"/>
<path d="M34.639 36.4212C34.3269 36.4212 34.0202 36.4441 33.719 36.4847C33.7197 36.4455 33.7211 36.4063 33.7211 36.3672C33.7211 32.586 30.6449 29.5097 26.8636 29.5097C26.4163 29.5097 26.0537 29.8723 26.0537 30.3197C26.0537 30.7671 26.4163 31.1296 26.8636 31.1296C29.7517 31.1296 32.1012 33.4792 32.1012 36.3672C32.1012 36.5523 32.0914 36.738 32.0722 36.9215C29.5593 37.9399 27.7816 40.4049 27.7816 43.2786C27.7816 43.7261 28.1442 44.0886 28.5915 44.0886C29.0388 44.0886 29.4014 43.7261 29.4014 43.2786C29.4014 40.3906 31.751 38.0411 34.639 38.0411C35.0863 38.0411 35.449 37.6785 35.449 37.2311C35.449 36.7837 35.0863 36.4212 34.639 36.4212Z" fill="white" stroke="white" stroke-width="0.5"/>
</svg>
