<svg width="353" height="348" viewBox="0 0 353 348" fill="none" xmlns="http://www.w3.org/2000/svg">
<ellipse cx="176.5" cy="292.5" rx="176.5" ry="55.5" fill="url(#paint0_linear_16_365)" fill-opacity="0.7"/>
<path d="M259.016 13.0204C257.033 1.31467 239.037 -3.95183 239.378 3.6814L156.841 4.15048C151.127 4.19312 146.479 9.33169 146.479 15.643L146.308 232.785C146.308 239.331 151.02 244.682 156.841 244.725L241.127 245.45C241.66 246.559 242.619 247.54 244.176 248.392C253.835 248.606 258.483 243.83 260.167 238.435C260.722 236.985 261.02 235.386 260.999 233.702C260.658 230.866 259.634 15.7496 259.016 13.0204Z" fill="#408BFF"/>
<path d="M243.259 248.435L146.522 247.817C140.488 247.774 135.605 242.273 135.605 235.557L135.967 12.2528C135.967 5.74963 140.786 0.483131 146.714 0.461809L241.575 0.163303C247.545 0.141981 252.428 5.40848 252.47 11.933L254.197 236.282C254.24 242.998 249.357 248.456 243.259 248.435Z" fill="#408BFF"/>
<path d="M244.602 246.793C244.197 246.857 243.792 246.879 243.387 246.879L146.671 246.154C141.49 246.111 137.247 241.292 137.247 235.407L137.588 12.3381C137.588 6.66644 141.767 2.0396 146.863 2.01827L241.724 1.61316C241.873 1.61316 242.022 1.61316 242.172 1.61316C244.56 1.71977 246.799 2.80718 248.462 4.66219C250.167 6.55983 251.106 9.07581 251.127 11.7624L252.833 236.324C252.854 241.676 249.336 246.175 244.602 246.793Z" fill="black"/>
<path d="M247.779 12.9138L249.421 236.708L140.466 236.047L140.743 12.9138H247.779Z" fill="#AAE0FF"/>
<path d="M195.05 46.4744C195.029 46.4531 195.029 46.4531 195.008 46.4318C189.677 52.146 181.17 56.8155 172.065 58.8198C172.065 59.4381 172.044 62.807 171.98 78.3293C171.895 99.0541 191.596 109.161 194.666 110.717C185.669 74.3208 192.726 52.2953 195.05 46.4744Z" fill="#F5F9FF"/>
<path d="M195.05 46.4744C192.705 52.2953 185.669 74.3208 194.666 110.717C197.63 109.353 217.587 99.246 217.694 78.5212C217.758 62.9989 217.779 59.63 217.779 59.0117C208.717 56.9435 200.338 52.21 195.05 46.4744Z" fill="#E3EEFF"/>
<path d="M194.667 111.144L194.496 111.058C188.526 108.031 184.347 104.449 181.873 101.975C175.008 95.1096 171.554 87.1352 171.596 78.3079L171.682 58.4999L171.98 58.436C180.871 56.4957 189.379 51.9115 194.731 46.1546L195.008 45.856L195.328 46.1972C200.658 51.9754 209.059 56.6236 217.843 58.6278L218.142 58.6918V58.9903C218.142 59.5234 218.121 62.082 218.078 72.679L218.057 78.4998C217.971 99.7577 197.183 109.95 194.816 111.037L194.667 111.144ZM172.449 59.1182L172.364 78.3079C172.279 96.7513 187.801 106.751 194.667 110.269C197.673 108.862 217.204 98.8622 217.289 78.4998L217.31 72.679C217.353 63.4253 217.374 60.291 217.374 59.3101C208.696 57.2632 200.381 52.679 195.008 46.9648C189.613 52.6364 181.234 57.1353 172.449 59.1182Z" fill="white"/>
<path d="M194.709 107.028L194.347 106.837C192.193 105.728 188.014 103.255 184.027 99.2886C177.908 93.1906 174.816 86.1544 174.859 78.3719L174.944 61.2291L175.52 61.0799C182.897 59.1822 189.613 55.6854 194.453 51.2505L194.986 50.7601L195.541 51.2931C200.338 55.7494 207.012 59.2888 214.325 61.2504L214.901 61.3997L214.816 78.5425C214.773 86.3249 211.639 93.3398 205.455 99.3739C201.554 103.191 197.46 105.6 195.349 106.687L195.306 106.709C195.221 106.751 195.136 106.794 195.072 106.837L194.709 107.028ZM176.458 62.4018L176.394 78.3719C176.351 85.7279 179.294 92.4017 185.114 98.2012C188.76 101.826 192.556 104.15 194.709 105.301C196.756 104.235 200.658 101.933 204.368 98.3078C210.232 92.5723 213.238 85.9198 213.259 78.5638L213.323 62.5937C206.223 60.6108 199.741 57.178 194.922 52.8709C190.104 57.114 183.579 60.4828 176.458 62.4018Z" fill="#296ACC"/>
<path d="M185.754 75.5147V89.1181C185.754 90.6319 204.24 90.6319 204.24 89.1181V75.5147H185.754ZM195.925 82.7215V86.5808C195.925 87.0925 195.498 87.5189 194.987 87.5189C194.475 87.5189 194.048 87.0925 194.048 86.5808V82.7215C193.259 82.3591 192.705 81.5702 192.705 80.632C192.705 79.374 193.729 78.3505 194.987 78.3505C196.245 78.3505 197.268 79.374 197.268 80.632C197.289 81.5702 196.735 82.3804 195.925 82.7215Z" fill="#296ACC"/>
<path d="M202.62 74.534H200.743V73.6171C200.743 70.4402 198.163 67.8602 194.986 67.8602C191.81 67.8602 189.23 70.4402 189.23 73.6171V74.534H187.353V73.6171C187.353 69.4167 190.765 65.9839 194.986 65.9839C199.187 65.9839 202.62 69.3954 202.62 73.6171V74.534Z" fill="#296ACC"/>
<path d="M220.828 121.506H167.396V132.06H220.828V121.506Z" fill="white"/>
<path d="M178.078 129.438C179.35 129.438 180.381 128.407 180.381 127.135C180.381 125.863 179.35 124.832 178.078 124.832C176.806 124.832 175.775 125.863 175.775 127.135C175.775 128.407 176.806 129.438 178.078 129.438Z" fill="#296ACC"/>
<path d="M185.988 129.438C187.26 129.438 188.291 128.407 188.291 127.135C188.291 125.863 187.26 124.832 185.988 124.832C184.717 124.832 183.686 125.863 183.686 127.135C183.686 128.407 184.717 129.438 185.988 129.438Z" fill="#296ACC"/>
<path d="M193.899 129.438C195.17 129.438 196.201 128.407 196.201 127.135C196.201 125.863 195.17 124.832 193.899 124.832C192.627 124.832 191.596 125.863 191.596 127.135C191.596 128.407 192.627 129.438 193.899 129.438Z" fill="#296ACC"/>
<path d="M201.809 129.438C203.081 129.438 204.112 128.407 204.112 127.135C204.112 125.863 203.081 124.832 201.809 124.832C200.537 124.832 199.506 125.863 199.506 127.135C199.506 128.407 200.537 129.438 201.809 129.438Z" fill="#296ACC"/>
<path d="M209.72 129.438C210.991 129.438 212.022 128.407 212.022 127.135C212.022 125.863 210.991 124.832 209.72 124.832C208.448 124.832 207.417 125.863 207.417 127.135C207.417 128.407 208.448 129.438 209.72 129.438Z" fill="#296ACC"/>
<path d="M201.063 146.9H186.756C184.73 146.9 183.089 145.259 183.089 143.233C183.089 141.207 184.73 139.566 186.756 139.566H201.063C203.089 139.566 204.73 141.207 204.73 143.233C204.73 145.259 203.089 146.9 201.063 146.9Z" fill="#296ACC"/>
<path d="M216.927 159.608H172.854V162.913H216.927V159.608Z" fill="#80D1FF"/>
<path d="M231.745 166.943H158.654V170.248H231.745V166.943Z" fill="#80D1FF"/>
<path d="M228.675 174.299H161.703V177.604H228.675V174.299Z" fill="#80D1FF"/>
<path d="M107.567 162.316C102.279 167.668 97.6524 172.934 93.2174 182.742C91.9808 179.544 92.2793 180.248 89.3155 173.233C87.9509 169.928 79.1237 171.804 78.9105 174.704C78.9105 174.704 77.3326 194.917 86.6716 202.892C96.0106 210.845 122.322 177.604 122.322 177.604C130.744 166.111 116.608 155.131 107.567 162.316Z" fill="#007382"/>
<path d="M175.328 233.638C165.413 252.998 93.0256 246.111 80.5523 235.578C71.3412 222.06 104.689 215.45 105.435 215.429C121.831 214.981 144.411 216.431 152.748 216.431C172.108 219.416 177.503 226.26 175.328 233.638Z" fill="#092E66"/>
<path d="M105.286 225.514C118.74 228.712 130.701 229.757 145.392 227.497C145.392 227.497 122.898 237.433 122.77 237.817C122.642 238.179 105.286 225.514 105.286 225.514Z" fill="#051733"/>
<path d="M173.601 235.877C159.102 251.932 97.226 250.397 109.124 235.791C119.934 234.448 149.614 227.22 152.215 225.813C161.341 218.414 179.486 227.199 173.601 235.877Z" fill="#092E66"/>
<path d="M164.305 247.348C163.58 244.107 159.87 242.06 155.882 240.759C153.942 243.019 151.32 247.476 151.149 254.149C159.976 256.154 165.541 252.913 164.305 247.348Z" fill="#73CCFF"/>
<path d="M144.688 239.331C144.688 239.331 140.978 238.691 139.912 243.126C139.55 244.619 138.462 247.646 142.087 249.992C145.69 251.975 148.185 253.51 151.17 254.171C151.341 247.497 153.963 243.041 155.904 240.781C150.722 239.096 144.688 239.331 144.688 239.331Z" fill="#AAE0FF"/>
<path d="M143.537 239.842C150.595 241.527 146.97 250.247 143.324 249.714C147.29 250.269 73.1962 250.29 80.4243 227.881C80.4456 227.881 80.4456 227.881 80.4456 227.881C83.2175 223.169 91.8315 219.075 98.8251 222.167C115.051 230.759 130.317 236.729 143.537 239.842Z" fill="#092E66"/>
<path d="M146.181 249.245C146.181 249.245 139.891 248.755 142.066 243.68C144.241 238.627 148.676 241.591 148.676 241.591C148.676 241.591 151.042 246.751 146.181 249.245Z" fill="#AAE0FF"/>
<path d="M146.479 249.672C146.33 249.672 146.202 249.544 146.202 249.395C146.053 244.768 148.889 241.761 149.017 241.633C149.123 241.527 149.315 241.506 149.422 241.633C149.528 241.74 149.55 241.932 149.422 242.039C149.401 242.06 146.629 245.002 146.778 249.373C146.778 249.544 146.65 249.672 146.479 249.672Z" fill="white"/>
<path d="M148.27 250.354C148.121 250.354 147.993 250.226 147.993 250.077C147.844 245.45 150.68 242.444 150.808 242.316C150.914 242.209 151.106 242.209 151.213 242.316C151.319 242.422 151.341 242.614 151.213 242.721C151.192 242.742 148.42 245.685 148.569 250.056C148.548 250.226 148.42 250.354 148.27 250.354Z" fill="white"/>
<path d="M150.147 250.823C149.997 250.823 149.869 250.695 149.869 250.546C149.72 245.919 152.556 242.913 152.684 242.785C152.791 242.678 152.982 242.678 153.089 242.785C153.196 242.891 153.217 243.083 153.089 243.19C153.068 243.211 150.296 246.154 150.445 250.525C150.445 250.695 150.317 250.823 150.147 250.823Z" fill="white"/>
<path d="M144.283 249.437C142.77 250.269 104.603 252.039 83.3455 238.371C76.4372 233.915 80.0619 227.518 80.0619 227.518C80.0619 227.518 85.0086 246.047 144.283 249.437Z" fill="#051733"/>
<path d="M140.019 239.672C139.976 239.672 139.934 239.672 139.891 239.651C112.365 231.506 99.6993 223.062 99.5714 222.977C99.3795 222.849 99.3155 222.572 99.4648 222.38C99.5927 222.188 99.8699 222.124 100.062 222.273C100.19 222.359 112.77 230.738 140.147 238.84C140.381 238.904 140.509 239.139 140.445 239.373C140.381 239.544 140.211 239.672 140.019 239.672Z" fill="#051733"/>
<path d="M122.578 233.51C122.365 233.51 122.194 233.361 122.151 233.147C122.109 232.913 122.258 232.678 122.492 232.657C122.663 232.636 140.019 229.501 146.735 226.623C146.949 226.538 147.204 226.623 147.311 226.857C147.396 227.071 147.311 227.326 147.077 227.433C140.275 230.354 123.367 233.403 122.642 233.531C122.642 233.51 122.62 233.51 122.578 233.51Z" fill="#051733"/>
<path d="M153.772 216.41C154.369 221.037 121.426 222.145 104.561 215.429C102.045 204.981 93.3455 157.412 119.337 157.561C147.396 157.732 151.106 203.808 153.772 216.41Z" fill="white"/>
<path d="M79.9126 174.512L79.5288 168.627L85.7121 167.689L88.0576 172.977C88.3134 174.555 80.1685 176.069 79.9126 174.512Z" fill="#F7A594"/>
<path d="M85.9894 168.606L87.4819 159.054C87.4819 159.054 85.3071 158.436 85.0939 161.037C84.8806 163.617 80.6589 165.259 81.7463 167.775C82.8551 170.312 85.9894 168.606 85.9894 168.606Z" fill="#F7A594"/>
<path d="M79.7208 168.883C79.7208 168.883 75.0726 161.804 74.6675 157.775C74.6249 156.303 75.2858 155.856 75.2858 155.856L85.8402 166.218C85.8402 166.218 86.5225 168.329 85.7122 169.224C84.902 170.099 81.8317 171.399 79.7208 168.883Z" fill="#F7A594"/>
<path d="M86.2454 166.367C86.2454 166.367 86.352 168.052 85.3925 167.711C82.578 166.879 82.4075 162.743 82.4075 162.743L86.2454 166.367Z" fill="#CC7767"/>
<path d="M90.4031 168.457L70.7443 150.205C70.7443 150.205 70.062 150.141 69.6143 150.461L90.3391 169.459C90.4884 168.99 90.4031 168.457 90.4031 168.457Z" fill="#404040"/>
<path d="M69.6141 150.44C69.3156 150.653 69.1237 151.016 69.3369 151.698C69.8913 153.361 87.226 169.352 88.9957 169.949C89.8486 170.248 90.211 169.885 90.339 169.459L69.6141 150.44Z" fill="black"/>
<path d="M74.7099 156.772C74.7099 156.772 74.9018 155.131 77.8655 157.135C81.4476 159.587 83.8783 163.937 83.0681 165.067C82.0446 166.495 73.9423 160.056 74.7099 156.772Z" fill="#F7A594"/>
<path d="M114.028 158.372C95.3924 162.465 100.403 206.964 101.725 216.623C105.243 218.03 116.629 220.802 121.107 221.57C112.13 200.354 107.439 160.376 114.028 158.372Z" fill="#007382"/>
<path d="M124.966 158.99C122.898 169.096 111.789 168.819 111.64 163.169C111.618 163.02 111.618 162.849 111.618 162.7L110.723 150.44L110.616 148.947L111.597 148.755L120.424 147.007L120.744 146.943L121 147.711L122.13 150.909L124.966 158.99Z" fill="#F7A594"/>
<path d="M124.689 158.222C121.171 166.474 125.819 209.565 129.038 222.444C137.738 225.386 150.851 221.079 154.347 216.687C151.874 204.917 147.887 163.83 124.689 158.222Z" fill="#007382"/>
<path d="M123.814 173.212C122.45 180.632 125.051 193.51 127.055 200.184C132.386 204.107 140.659 202.081 140.659 196.069C140.893 190.632 140.403 184.533 139.102 177.647C137.823 162.146 124.497 162.295 123.814 173.212Z" fill="#007382"/>
<path d="M115.67 183.212C110.19 181.229 107.354 189.118 111.363 191.847C120.851 198.265 135.606 206.879 138.228 201.378C142.045 193.339 128.164 187.177 115.67 183.212Z" fill="#007382"/>
<path d="M110.616 189.416L106.565 187.263C104.006 185.28 108.505 181.207 110.339 181.868L113.495 183.851C115.072 185.365 112.791 189.246 110.616 189.416Z" fill="#F7A594"/>
<path d="M106.928 187.348C103.601 186.644 104.753 183.276 105.499 179.459C102.834 167.945 117.461 187.647 106.928 187.348Z" fill="#F7A594"/>
<path d="M108.399 177.966C108.399 177.966 107.311 176.282 104.923 172.508C103.857 172.721 103.281 174.597 104.71 176.261C105.989 177.71 107.823 178.691 108.399 177.966Z" fill="#F7A594"/>
<path d="M105.136 176.964C102.727 175.6 101.021 179.566 101.661 182.657C102.62 187.391 106.139 185.045 107.205 183.787C109.102 181.484 108.079 178.627 105.136 176.964Z" fill="#F7A594"/>
<path d="M124.134 186.516C124.006 186.516 123.878 186.41 123.857 186.282C123.836 186.175 122.13 175.685 124.241 168.606C124.284 168.457 124.454 168.372 124.603 168.414C124.753 168.457 124.838 168.627 124.795 168.777C122.727 175.728 124.412 186.09 124.433 186.197C124.454 186.346 124.348 186.495 124.198 186.538C124.156 186.516 124.156 186.516 124.134 186.516Z" fill="#003331"/>
<path d="M134.134 202.7C129.401 202.7 123.772 199.715 123.452 199.544C123.303 199.459 123.26 199.288 123.345 199.16C123.431 199.011 123.601 198.968 123.729 199.054C123.836 199.118 134.646 204.853 138.612 200.504C142.087 196.708 139.486 180.226 139.465 180.056C139.443 179.907 139.55 179.757 139.699 179.736C139.849 179.715 139.998 179.821 140.019 179.971C140.126 180.653 142.663 196.9 139.017 200.887C137.802 202.231 136.032 202.7 134.134 202.7Z" fill="#003331"/>
<path d="M130.296 189.011C130.254 189.011 130.211 189.011 130.19 188.99C123.26 185.919 114.582 183.126 114.497 183.084C114.348 183.041 114.262 182.87 114.305 182.721C114.348 182.572 114.518 182.487 114.667 182.529C114.753 182.551 123.452 185.365 130.424 188.457C130.574 188.521 130.637 188.691 130.574 188.841C130.51 188.947 130.403 189.011 130.296 189.011Z" fill="white"/>
<path d="M111.597 162.913C111.341 160.205 109.849 150.013 111.576 148.755L120.403 147.007C122.428 158.137 114.88 163.681 111.597 162.913Z" fill="#D97661"/>
<path d="M123.686 145.024C123.26 154.128 115.158 161.186 109.124 160.845C103.089 160.504 95.6908 152.828 96.1172 143.723C96.5437 134.619 103.068 127.54 110.68 127.903C118.292 128.244 124.134 135.92 123.686 145.024Z" fill="#F7A594"/>
<path d="M115.499 129.161C107.865 122.913 102.727 127.263 97.9507 131.975C94.6032 135.28 92.2365 137.668 88.5691 137.775C94.4113 147.348 108.953 143.297 114.39 135.088C114.198 140.12 119.571 144.96 123.686 144.981C125.69 139.63 123.238 127.967 115.499 129.161Z" fill="#0E0E0E"/>
<path d="M123.075 148.416C124.745 147.96 125.729 146.237 125.273 144.567C124.817 142.897 123.094 141.913 121.424 142.368C119.754 142.824 118.77 144.547 119.226 146.217C119.681 147.887 121.405 148.871 123.075 148.416Z" fill="#F7A594"/>
<path d="M105.413 154.235C105.179 154.235 104.966 154.192 104.774 154.064C103.985 153.51 104.752 148.841 105.008 147.412C105.03 147.305 105.115 147.242 105.222 147.263C105.328 147.284 105.392 147.369 105.371 147.476C104.859 150.269 104.582 153.467 104.987 153.745C105.52 154.128 106.778 153.446 107.226 153.169C107.311 153.105 107.418 153.126 107.482 153.233C107.546 153.318 107.524 153.425 107.439 153.489C107.29 153.574 106.245 154.235 105.413 154.235Z" fill="#BD4A31"/>
<path d="M110.978 146.346C111.149 147.071 111.554 147.604 111.916 147.519C112.279 147.433 112.449 146.794 112.279 146.047C112.108 145.323 111.703 144.789 111.341 144.875C110.978 144.96 110.829 145.621 110.978 146.346Z" fill="#0E0E0E"/>
<path d="M99.4433 149.182C99.5925 149.864 99.9976 150.354 100.317 150.269C100.659 150.205 100.808 149.587 100.659 148.905C100.509 148.222 100.104 147.732 99.7844 147.817C99.4433 147.902 99.294 148.499 99.4433 149.182Z" fill="#0E0E0E"/>
<path d="M110.765 156.09C110.467 156.09 110.275 156.069 110.253 156.069C110.147 156.047 110.083 155.962 110.104 155.856C110.126 155.749 110.211 155.685 110.317 155.685C110.339 155.685 112.215 155.92 113.558 154.789C114.411 154.065 114.88 152.934 114.944 151.421C114.944 151.314 115.03 151.229 115.136 151.25C115.243 151.25 115.328 151.335 115.307 151.442C115.243 153.062 114.731 154.278 113.793 155.088C112.769 155.962 111.469 156.09 110.765 156.09Z" fill="#803221"/>
<path d="M109.635 144.47C109.529 144.47 109.443 144.384 109.443 144.278C109.486 143.531 109.976 142.934 110.765 142.7C111.554 142.465 112.343 142.7 112.791 143.297C112.855 143.382 112.834 143.489 112.748 143.553C112.663 143.617 112.556 143.595 112.492 143.51C112.151 143.041 111.512 142.849 110.893 143.041C110.403 143.19 109.87 143.595 109.848 144.278C109.806 144.384 109.742 144.47 109.635 144.47Z" fill="#803221"/>
<path d="M98.5691 147.114C98.4412 147.114 98.3772 147.007 98.3772 146.9C98.4838 145.792 99.1448 145.301 99.7205 145.237C100.424 145.152 101.106 145.6 101.362 146.346C101.405 146.453 101.341 146.559 101.256 146.581C101.149 146.623 101.042 146.559 101.021 146.474C100.829 145.898 100.296 145.536 99.7631 145.6C99.3154 145.664 98.825 146.026 98.7397 146.922C98.7397 147.05 98.6757 147.114 98.5691 147.114Z" fill="#803221"/>
<path d="M74.8378 127.284H34.9232C32.7697 127.284 31 125.536 31 123.361V107.519C31 105.344 32.7697 103.596 34.9232 103.596H74.8164C76.9913 103.596 78.7397 105.365 78.7397 107.519V123.361C78.761 125.536 76.9913 127.284 74.8378 127.284Z" fill="#AAE0FF"/>
<path d="M70.8718 123.446V134.15L59.9763 123.254L70.8718 123.446Z" fill="#AAE0FF"/>
<path d="M41.6279 117.13C42.4439 116.314 42.4439 114.991 41.6279 114.175C40.8118 113.359 39.4888 113.359 38.6728 114.175C37.8568 114.991 37.8568 116.314 38.6728 117.13C39.4888 117.946 40.8118 117.946 41.6279 117.13Z" fill="white"/>
<path d="M49.1631 116.13C49.4272 115.006 48.7305 113.882 47.607 113.618C46.4836 113.354 45.3588 114.05 45.0948 115.174C44.8307 116.297 45.5274 117.422 46.6509 117.686C47.7743 117.95 48.8991 117.253 49.1631 116.13Z" fill="white"/>
<path d="M56.1402 116.136C56.4042 115.012 55.7075 113.887 54.5841 113.623C53.4607 113.359 52.3359 114.056 52.0718 115.18C51.8078 116.303 52.5045 117.428 53.6279 117.692C54.7514 117.956 55.8761 117.259 56.1402 116.136Z" fill="white"/>
<path d="M63.145 116C63.3298 114.86 62.5563 113.787 61.4171 113.602C60.278 113.417 59.2047 114.191 59.0198 115.33C58.8349 116.469 59.6085 117.543 60.7476 117.727C61.8868 117.912 62.9601 117.139 63.145 116Z" fill="white"/>
<path d="M69.539 117.133C70.355 116.317 70.355 114.994 69.539 114.178C68.723 113.362 67.4 113.362 66.584 114.178C65.768 114.994 65.7679 116.317 66.584 117.133C67.4 117.949 68.723 117.949 69.539 117.133Z" fill="white"/>
<path d="M118.718 94.4699H93.409C90.829 94.4699 88.7395 92.3804 88.7395 89.8004V71.0372C88.7395 68.4573 90.829 66.3677 93.409 66.3677H118.718C121.298 66.3677 123.388 68.4573 123.388 71.0372V89.8004C123.388 92.3804 121.298 94.4699 118.718 94.4699Z" fill="#AAE0FF"/>
<path d="M101.277 93.5957L105.242 100.547L109.613 93.5957H101.277Z" fill="#AAE0FF"/>
<path d="M105.328 79.7578L98.4197 74.5553H112.194L105.328 79.7578Z" fill="#296ACC"/>
<path d="M112.791 75.8986V84.939H97.8228V75.8986L105.328 81.5275L112.791 75.8986Z" fill="#296ACC"/>
<defs>
<linearGradient id="paint0_linear_16_365" x1="176.5" y1="237" x2="176.5" y2="348" gradientUnits="userSpaceOnUse">
<stop stop-color="#A8D5FF"/>
<stop offset="0.505208" stop-color="white" stop-opacity="0"/>
</linearGradient>
</defs>
</svg>
