<svg width="353" height="344" viewBox="0 0 353 344" fill="none" xmlns="http://www.w3.org/2000/svg">
<ellipse cx="176.5" cy="288.5" rx="176.5" ry="55.5" fill="url(#paint0_linear_1149_1477)" fill-opacity="0.7"/>
<g clip-path="url(#clip0_1149_1477)">
<path d="M294.783 0H264.687L243.453 243.03H273.549C282.135 243.03 289.705 236.104 290.444 227.517L309 15.4202C309.739 6.92523 303.369 0 294.783 0Z" fill="#407BFF"/>
<path d="M288.69 0H186.954C178.369 0 170.798 6.92523 170.06 15.5125L151.504 227.609C150.765 236.197 157.135 243.122 165.629 243.122H267.364C275.95 243.122 283.52 236.197 284.259 227.609L302.815 15.5125C303.553 6.92523 297.183 0 288.69 0Z" fill="#407BFF"/>
<path opacity="0.3" d="M288.69 0H186.954C178.369 0 170.798 6.92523 170.06 15.5125L151.504 227.609C150.765 236.197 157.135 243.122 165.629 243.122H267.364C275.95 243.122 283.52 236.197 284.259 227.609L302.815 15.5125C303.553 6.92523 297.183 0 288.69 0Z" fill="white"/>
<path opacity="0.4" d="M288.228 4.98618H261.363C259.794 4.98618 258.317 6.00188 257.671 7.5716C255.547 13.2041 250.008 16.9899 244.192 16.9899H228.313C222.497 16.9899 217.604 13.1118 216.496 7.5716C216.219 6.09421 214.835 4.98618 213.265 4.98618H186.4C180.584 4.98618 175.414 9.69533 174.953 15.5125L156.397 227.609C155.843 233.427 160.182 238.136 165.998 238.136H267.733C273.55 238.136 278.719 233.427 279.181 227.609L297.737 15.5125C298.383 9.69533 294.044 4.98618 288.228 4.98618Z" fill="white"/>
<path d="M262.933 120.13H191.755C189.631 120.13 188.062 118.375 188.247 116.344L188.616 112.281C188.801 110.157 190.647 108.495 192.77 108.495H263.948C266.072 108.495 267.641 110.25 267.456 112.281L267.087 116.344C266.903 118.468 264.964 120.13 262.933 120.13Z" fill="white"/>
<path d="M261.363 137.766H190.185C188.062 137.766 186.493 136.012 186.677 133.98L187.047 129.917C187.231 127.794 189.078 126.132 191.201 126.132H262.379C264.502 126.132 266.072 127.886 265.887 129.917L265.518 133.98C265.333 136.012 263.487 137.766 261.363 137.766Z" fill="white"/>
<path opacity="0.1" d="M241.238 8.95664C241.053 11.2651 238.93 13.2041 236.622 13.2041C234.314 13.2041 232.56 11.2651 232.744 8.95664C232.929 6.64823 235.052 4.70917 237.36 4.70917C239.761 4.70917 241.422 6.5559 241.238 8.95664Z" fill="black"/>
<path opacity="0.1" d="M239.299 8.95664C239.207 10.2493 238.099 11.265 236.807 11.265C235.514 11.265 234.591 10.2493 234.683 8.95664C234.776 7.66392 235.883 6.64822 237.176 6.64822C238.468 6.64822 239.484 7.66392 239.299 8.95664Z" fill="black"/>
<g opacity="0.8">
<path d="M275.673 15.9742C275.027 15.9742 274.473 15.4202 274.565 14.7738L274.75 12.4654C274.842 11.8191 275.396 11.265 276.134 11.265C276.781 11.265 277.335 11.8191 277.242 12.4654L277.058 14.7738C276.965 15.4202 276.411 15.9742 275.673 15.9742Z" fill="white"/>
<path d="M285.643 15.9742C284.997 15.9742 284.443 15.4202 284.535 14.7738L284.997 9.41833C285.089 8.77198 285.643 8.21796 286.382 8.21796C287.028 8.21796 287.582 8.77198 287.49 9.41833L287.028 14.7738C286.936 15.4202 286.29 15.9742 285.643 15.9742Z" fill="white"/>
<path d="M280.658 15.9742C280.012 15.9742 279.458 15.4202 279.55 14.7739L279.92 10.9881C280.012 10.3417 280.566 9.78769 281.304 9.78769C281.951 9.78769 282.504 10.3417 282.412 10.9881L282.043 14.7739C281.951 15.4202 281.397 15.9742 280.658 15.9742Z" fill="white"/>
</g>
<g opacity="0.8">
<path d="M190.647 15.9742H184.369C184 15.9742 183.723 15.6972 183.723 15.2355L184 11.9114C184 11.5421 184.369 11.1727 184.739 11.1727H191.016C191.385 11.1727 191.662 11.4497 191.662 11.9114L191.385 15.2355C191.385 15.6972 191.016 15.9742 190.647 15.9742Z" fill="white"/>
<path d="M193.509 15.1432C193.14 15.1432 192.863 14.8662 192.863 14.4045L192.955 12.8348C192.955 12.4654 193.324 12.0961 193.693 12.0961C194.063 12.0961 194.34 12.3731 194.34 12.8348L194.247 14.4045C194.247 14.7739 193.97 15.1432 193.509 15.1432Z" fill="white"/>
</g>
<path d="M251.172 93.3607C263.585 81.4768 264.815 62.615 253.921 51.2315C243.027 39.8481 224.133 40.2538 211.72 52.1377C199.307 64.0216 198.077 82.8835 208.971 94.2669C219.866 105.65 238.76 105.245 251.172 93.3607Z" fill="white"/>
<path d="M231.544 71.6531C223.697 71.6531 217.143 74.6078 216.496 81.0714L215.85 88.2736H244.192L244.838 81.0714C245.485 74.6078 239.391 71.6531 231.544 71.6531Z" fill="#407BFF"/>
<path d="M231.821 68.606C235.422 68.606 237.176 65.6512 237.453 62.0501C237.73 58.449 236.622 55.4942 232.929 55.4942C229.329 55.4942 227.575 58.449 227.298 62.0501C227.021 65.7435 228.128 68.606 231.821 68.606Z" fill="#407BFF"/>
<path d="M259.609 114.128C257.671 114.128 256.009 114.867 255.917 116.436L255.732 118.191H262.748L262.933 116.436C263.117 114.867 261.548 114.128 259.609 114.128Z" fill="#407BFF"/>
<path d="M259.702 113.389C260.625 113.389 260.994 112.65 261.086 111.727C261.179 110.804 260.902 110.065 259.979 110.065C259.055 110.065 258.686 110.804 258.594 111.727C258.502 112.65 258.778 113.389 259.702 113.389Z" fill="#407BFF"/>
<path d="M238.099 155.31H210.403C207.172 155.31 204.772 152.724 205.049 149.493C205.326 146.261 208.188 143.676 211.419 143.676H239.114C242.346 143.676 244.746 146.261 244.469 149.493C244.192 152.724 241.33 155.31 238.099 155.31Z" fill="#407BFF"/>
<path d="M234.683 220.684H205.049C201.633 220.684 199.14 217.914 199.417 214.498L201.264 192.891C201.541 189.474 204.587 186.704 208.003 186.704H237.637C241.053 186.704 243.546 189.474 243.269 192.891L241.422 214.498C241.145 217.914 238.191 220.684 234.683 220.684Z" fill="#407BFF"/>
<g opacity="0.6">
<path d="M225.544 198.339C225.728 196.307 224.159 194.645 222.128 194.645C220.097 194.645 218.25 196.307 218.066 198.339C217.973 199.539 218.435 200.647 219.358 201.293L218.712 208.773C218.62 209.973 219.543 210.989 220.743 210.989C221.943 210.989 223.051 209.973 223.143 208.773L223.79 201.293C224.805 200.647 225.451 199.539 225.544 198.339Z" fill="white"/>
</g>
<path d="M238.007 191.136H234.222L235.145 180.425C235.699 173.962 230.898 168.791 224.528 168.791C218.158 168.791 212.434 174.054 211.88 180.425L210.957 191.136H207.172L208.095 180.425C208.834 171.93 216.404 164.913 224.897 164.913C233.391 164.913 239.761 171.838 239.022 180.425L238.007 191.136Z" fill="#407BFF"/>
<path d="M260.071 130.471L260.163 129.456C260.256 128.44 259.517 127.517 258.409 127.517C257.394 127.517 256.47 128.348 256.378 129.456L256.286 130.471C255.824 130.471 255.455 130.841 255.455 131.21L255.178 133.98C255.178 134.442 255.455 134.719 255.917 134.719H259.702C260.163 134.719 260.532 134.35 260.532 133.98L260.809 131.21C260.809 130.841 260.532 130.471 260.071 130.471ZM258.409 127.978C259.24 127.978 259.794 128.625 259.702 129.456L259.609 130.471H256.747L256.84 129.456C256.932 128.625 257.671 127.978 258.409 127.978Z" fill="#407BFF"/>
<path d="M202.833 131.579L201.541 131.302C201.356 131.302 201.264 131.118 201.356 130.933L201.91 129.64C202.002 129.363 201.725 129.179 201.448 129.363L200.433 130.379C200.34 130.471 200.156 130.471 200.063 130.379L199.233 129.363C199.048 129.179 198.679 129.363 198.771 129.64L199.14 130.933C199.14 131.118 199.048 131.21 198.863 131.302L197.479 131.579C197.202 131.672 197.109 132.041 197.386 132.133L198.679 132.41C198.863 132.41 198.956 132.595 198.863 132.78L198.309 134.073C198.217 134.35 198.494 134.534 198.771 134.35L199.787 133.334C199.879 133.241 200.063 133.241 200.156 133.334L200.987 134.35C201.171 134.534 201.541 134.35 201.448 134.073L201.079 132.78C201.079 132.595 201.171 132.503 201.356 132.41L202.741 132.133C203.11 132.041 203.11 131.672 202.833 131.579Z" fill="#263238"/>
<path d="M211.603 131.579L210.311 131.302C210.126 131.302 210.034 131.118 210.126 130.933L210.68 129.64C210.772 129.363 210.495 129.179 210.219 129.363L209.203 130.379C209.111 130.471 208.926 130.471 208.834 130.379L208.003 129.363C207.818 129.179 207.449 129.363 207.541 129.64L207.911 130.933C207.911 131.118 207.818 131.21 207.634 131.302L206.249 131.579C205.972 131.672 205.88 132.041 206.156 132.133L207.449 132.41C207.634 132.41 207.726 132.595 207.634 132.78L207.08 134.073C206.987 134.35 207.264 134.534 207.541 134.35L208.557 133.334C208.649 133.241 208.834 133.241 208.926 133.334L209.757 134.35C209.942 134.534 210.311 134.35 210.219 134.073L209.849 132.78C209.849 132.595 209.942 132.503 210.126 132.41L211.511 132.133C211.88 132.041 211.88 131.672 211.603 131.579Z" fill="#263238"/>
<path d="M220.281 131.579L218.989 131.302C218.804 131.302 218.712 131.118 218.804 130.933L219.358 129.64C219.451 129.363 219.174 129.179 218.897 129.363L217.881 130.379C217.789 130.471 217.604 130.471 217.512 130.379L216.681 129.363C216.496 129.179 216.127 129.363 216.219 129.64L216.589 130.933C216.589 131.118 216.496 131.21 216.312 131.302L214.927 131.579C214.65 131.672 214.558 132.041 214.835 132.133L216.127 132.41C216.312 132.41 216.404 132.595 216.312 132.78L215.758 134.073C215.665 134.35 215.942 134.534 216.219 134.35L217.235 133.334C217.327 133.241 217.512 133.241 217.604 133.334L218.435 134.35C218.62 134.534 218.989 134.35 218.897 134.073L218.527 132.78C218.527 132.595 218.62 132.503 218.804 132.41L220.189 132.133C220.558 132.041 220.651 131.672 220.281 131.579Z" fill="#263238"/>
<path d="M229.052 131.579L227.759 131.302C227.575 131.302 227.482 131.118 227.575 130.933L228.128 129.64C228.221 129.363 227.944 129.179 227.667 129.363L226.651 130.379C226.559 130.471 226.374 130.471 226.282 130.379L225.451 129.363C225.267 129.179 224.897 129.363 224.99 129.64L225.359 130.933C225.359 131.118 225.267 131.21 225.082 131.302L223.697 131.579C223.42 131.672 223.328 132.041 223.605 132.133L224.897 132.41C225.082 132.41 225.174 132.595 225.082 132.78L224.528 134.073C224.436 134.35 224.713 134.534 224.99 134.35L226.005 133.334C226.097 133.241 226.282 133.241 226.374 133.334L227.205 134.35C227.39 134.534 227.759 134.35 227.667 134.073L227.298 132.78C227.298 132.595 227.39 132.503 227.575 132.41L228.959 132.133C229.329 132.041 229.329 131.672 229.052 131.579Z" fill="#263238"/>
<path d="M237.822 131.579L236.529 131.302C236.345 131.302 236.253 131.118 236.345 130.933L236.899 129.64C236.991 129.363 236.714 129.179 236.437 129.363L235.422 130.379C235.329 130.471 235.145 130.471 235.052 130.379L234.221 129.363C234.037 129.179 233.668 129.363 233.76 129.64L234.129 130.933C234.129 131.118 234.037 131.21 233.852 131.302L232.467 131.579C232.19 131.672 232.098 132.041 232.375 132.133L233.668 132.41C233.852 132.41 233.945 132.595 233.852 132.78L233.298 134.073C233.206 134.35 233.483 134.534 233.76 134.35L234.775 133.334C234.868 133.241 235.052 133.241 235.145 133.334L235.976 134.35C236.16 134.534 236.529 134.35 236.437 134.073L236.068 132.78C236.068 132.595 236.16 132.503 236.345 132.41L237.73 132.133C238.007 132.041 238.099 131.672 237.822 131.579Z" fill="#263238"/>
<path d="M246.5 131.579L245.207 131.302C245.023 131.302 244.93 131.118 245.023 130.933L245.577 129.64C245.669 129.363 245.392 129.179 245.115 129.363L244.1 130.379C244.007 130.471 243.823 130.471 243.73 130.379L242.899 129.363C242.715 129.179 242.346 129.363 242.438 129.64L242.807 130.933C242.807 131.118 242.715 131.21 242.53 131.302L241.145 131.579C240.868 131.672 240.776 132.041 241.053 132.133L242.346 132.41C242.53 132.41 242.623 132.595 242.53 132.78L241.976 134.073C241.884 134.35 242.161 134.534 242.438 134.35L243.453 133.334C243.546 133.241 243.73 133.241 243.823 133.334L244.654 134.35C244.838 134.534 245.207 134.35 245.115 134.073L244.746 132.78C244.746 132.595 244.838 132.503 245.023 132.41L246.408 132.133C246.777 132.041 246.777 131.672 246.5 131.579Z" fill="#263238"/>
<path d="M225.451 112.466H209.019C208.003 112.466 207.08 113.297 206.988 114.313C206.895 115.328 207.634 116.159 208.649 116.159H225.174C226.19 116.159 227.113 115.328 227.205 114.313C227.205 113.297 226.467 112.466 225.451 112.466Z" fill="#263238"/>
<path d="M242.161 112.466H232.652C231.637 112.466 230.714 113.297 230.621 114.313C230.529 115.328 231.267 116.159 232.283 116.159H241.792C242.807 116.159 243.731 115.328 243.823 114.313C243.915 113.297 243.177 112.466 242.161 112.466Z" fill="#263238"/>
<path d="M254.716 196.123C248.531 198.616 243.084 202.217 239.391 206.28C237.176 204.433 234.129 203.14 230.437 202.586L229.975 202.494L229.79 204.71L230.067 204.802C233.76 206.187 236.714 208.68 238.653 211.912L238.93 212.466L239.299 211.912C243.084 205.818 248.623 200.739 254.901 197.508L255.086 197.415L255.178 195.938L254.716 196.123Z" fill="#263238"/>
<path opacity="0.2" d="M172.183 14.3121C171.075 16.3435 170.245 18.5596 170.06 20.9604L156.304 178.209H198.863L207.449 145.43L204.68 112.65L213.265 79.871L210.496 47.0916L219.081 14.3121H172.183Z" fill="black"/>
<path d="M206.618 37.858L215.204 5.07852H107.652L99.0665 37.858L101.836 70.6374L93.3427 103.417L96.1123 136.196L87.6189 168.976H195.171L203.756 136.196L200.894 103.417L209.48 70.6374L206.618 37.858Z" fill="#407BFF"/>
<path opacity="0.7" d="M206.618 37.858L215.204 5.07852H107.652L99.0665 37.858L101.836 70.6374L93.3427 103.417L96.1123 136.196L87.6189 168.976H195.171L203.756 136.196L200.894 103.417L209.48 70.6374L206.618 37.858Z" fill="white"/>
<path opacity="0.5" d="M206.618 37.858H99.0664L107.652 5.07852H215.204L206.618 37.858Z" fill="white"/>
<path opacity="0.5" d="M200.894 103.417H93.3427L101.836 70.6374H209.48L200.894 103.417Z" fill="white"/>
<path opacity="0.5" d="M195.171 168.976H87.6189L96.1123 136.196H203.756L195.171 168.976Z" fill="white"/>
<path opacity="0.2" d="M192.216 51.6161C191.293 51.8931 190.093 52.0778 188.801 52.0778C186.862 52.0778 185.2 51.7084 184.277 51.1544C184 50.9697 183.723 50.8774 183.446 50.8774C183.169 50.8774 182.892 50.9697 182.708 51.0621C182.708 51.0621 182.708 51.0621 182.615 51.0621C182.246 51.2467 181.784 51.4314 181.323 51.6161C180.4 51.8931 179.384 51.9854 178.184 51.9854C177.907 51.9854 177.538 51.9854 177.261 51.9854C176.338 51.8931 175.507 51.8007 174.768 51.5237C174.676 51.5237 174.491 51.4314 174.399 51.4314C173.568 51.3391 172.829 51.9854 172.829 52.9088V53.9245H131.009C127.778 53.9245 125.193 56.5099 125.193 59.7417V65.6512C125.193 68.883 127.778 71.4684 131.009 71.4684H178.553C178.645 71.4684 178.738 71.4684 178.83 71.4684C179.384 71.9301 179.846 72.2994 180.4 72.7611C181.046 73.3151 181.784 73.7768 182.523 74.3308C183.077 74.7002 183.723 74.7002 184.277 74.3308C190.278 69.991 194.063 67.0363 194.063 58.8183V52.9088C194.155 51.9854 193.232 51.2467 192.216 51.6161Z" fill="black"/>
<path d="M177.63 68.329H130.086C126.854 68.329 124.27 65.7436 124.27 62.5118V56.6023C124.27 53.3705 126.854 50.7851 130.086 50.7851H177.63C180.861 50.7851 183.446 53.3705 183.446 56.6023V62.5118C183.538 65.7436 180.861 68.329 177.63 68.329Z" fill="#407BFF"/>
<path d="M187.97 48.846C186.031 48.846 184.369 48.4766 183.446 47.9226C182.892 47.6456 182.338 47.6456 181.784 47.9226C180.861 48.4766 179.199 48.846 177.261 48.846C175.968 48.846 174.768 48.6613 173.845 48.3843C172.922 48.1073 171.906 48.7537 171.906 49.7694V55.6789C171.906 63.8968 175.784 66.8516 181.692 71.1914C182.246 71.5608 182.892 71.5608 183.446 71.1914C189.447 66.8516 193.232 63.8968 193.232 55.6789V49.7694C193.232 48.7537 192.216 48.015 191.293 48.3843C190.37 48.6613 189.262 48.846 187.97 48.846Z" fill="#407BFF"/>
<path opacity="0.3" d="M187.97 48.846C186.031 48.846 184.369 48.4766 183.446 47.9226C182.892 47.6456 182.338 47.6456 181.784 47.9226C180.861 48.4766 179.199 48.846 177.261 48.846C175.968 48.846 174.768 48.6613 173.845 48.3843C172.922 48.1073 171.906 48.7537 171.906 49.7694V55.6789C171.906 63.8968 175.784 66.8516 181.692 71.1914C182.246 71.5608 182.892 71.5608 183.446 71.1914C189.447 66.8516 193.232 63.8968 193.232 55.6789V49.7694C193.232 48.7537 192.216 48.015 191.293 48.3843C190.37 48.6613 189.262 48.846 187.97 48.846Z" fill="white"/>
<path opacity="0.2" d="M181.784 47.8303C180.861 48.3843 179.199 48.7537 177.261 48.7537C175.968 48.7537 174.768 48.569 173.845 48.292C172.922 48.015 171.906 48.6613 171.906 49.677V55.5866C171.906 63.8045 175.784 66.7593 181.692 71.0991C181.969 71.2838 182.246 71.3761 182.615 71.3761V47.6456C182.338 47.6456 182.061 47.738 181.784 47.8303Z" fill="white"/>
<path d="M191.201 54.0168C187.323 55.5866 184 57.9873 181.877 60.5727C180.399 59.3723 178.276 58.5413 175.876 58.172H175.599V59.557L175.784 59.6494C178.276 60.5727 180.307 62.1424 181.784 64.2662L181.969 64.6355L182.154 64.2662C184.277 60.2957 187.6 56.9716 191.478 54.9402L191.57 54.8479V53.9245L191.201 54.0168Z" fill="#263238"/>
<path d="M213.265 14.3122H209.203C206.895 14.3122 205.233 12.4654 205.418 10.2494L205.787 6.18655C205.972 3.87814 208.003 2.12375 210.219 2.12375H214.281C216.589 2.12375 218.25 3.97048 218.066 6.18655L217.696 10.2494C217.512 12.4654 215.573 14.3122 213.265 14.3122Z" fill="#407BFF"/>
<path d="M215.019 6.18654L214.096 5.17084L211.88 7.20224L210.034 5.17084L208.926 6.18654L210.773 8.21794L208.557 10.2493L209.48 11.265L211.696 9.1413L213.542 11.265L214.65 10.2493L212.711 8.21794L215.019 6.18654Z" fill="white"/>
<path d="M122.054 49.5847C124.454 52.1701 126.67 54.8478 128.886 57.5256C131.101 60.2033 133.317 62.9734 135.44 65.7435C135.533 65.8359 135.533 65.8359 135.533 65.8359C135.533 65.8359 135.533 65.8359 135.533 65.9282C135.533 65.9282 135.533 66.0205 135.625 66.0205C135.625 66.1129 135.717 66.1129 135.809 66.2052C135.902 66.2976 136.086 66.3899 136.363 66.4822C136.456 66.4822 136.548 66.4822 136.64 66.4822C136.733 66.4822 136.733 66.4822 136.825 66.4822H136.917C137.01 66.4822 136.917 66.4822 137.102 66.3899L139.41 65.0972C142.549 63.4351 145.595 61.8654 148.919 60.388L151.596 63.7121C149.011 66.1129 146.242 69.0676 143.564 71.2837L141.441 72.9458C141.349 73.0381 141.164 73.1305 141.072 73.2228C140.887 73.3151 140.795 73.4075 140.61 73.4998C140.241 73.6845 139.964 73.8691 139.595 74.0538C138.856 74.3308 138.117 74.5155 137.379 74.7002C135.809 74.8848 134.24 74.7925 132.763 74.2385C132.024 73.9615 131.286 73.5921 130.64 73.1304C130.27 72.9458 129.993 72.6688 129.716 72.3918C129.532 72.2994 129.439 72.1147 129.255 72.0224L128.886 71.6531C126.485 69.16 123.993 66.5746 121.685 64.0815C119.284 61.4961 116.976 58.9106 114.761 56.2329L122.054 49.5847Z" fill="#B55B52"/>
<path d="M147.626 62.4194L149.75 55.4942L155.381 58.3566C155.381 58.3566 154.55 63.4351 150.396 64.2661L147.626 62.4194Z" fill="#B55B52"/>
<path d="M152.058 53.5551L157.135 54.9402L155.381 58.2643L149.75 55.4942L152.058 53.5551Z" fill="#B55B52"/>
<path d="M92.3272 51.4314C91.6809 54.3861 90.9424 57.2486 90.2038 60.2033C89.373 63.0658 88.5421 66.0205 87.7112 68.883L87.342 69.991L87.1573 70.545C87.1573 70.6374 87.065 70.7297 87.065 70.7297C86.9727 71.0067 86.8804 71.2837 86.8804 71.6531C86.8804 72.2994 86.9727 72.9458 87.4343 73.5921C87.4343 73.6845 87.8035 74.0538 87.9882 74.3308L88.7267 75.1618L90.2038 76.8239C91.2194 77.9319 92.2349 79.1323 93.1581 80.3327L89.9269 84.0261C88.6344 83.2875 87.3419 82.4564 86.0495 81.6254L84.1108 80.3327L83.1876 79.6863C82.9106 79.5017 82.6337 79.317 82.0798 78.8553C80.3257 77.3779 79.0332 75.2542 78.5716 72.9458C78.2947 71.7454 78.2947 70.545 78.387 69.3446C78.387 69.0676 78.4793 68.6983 78.4793 68.5136L78.5716 67.9596L78.7563 66.8516C79.3102 63.8968 79.8641 60.942 80.418 57.9873C81.0643 55.0325 81.7105 52.0777 82.449 49.2153L92.3272 51.4314Z" fill="#B55B52"/>
<path d="M90.0192 79.871L93.8042 77.9319L95.466 84.3955C95.466 84.3955 92.4195 85.5959 90.0192 84.0261V79.871Z" fill="#B55B52"/>
<path d="M99.0665 75.9005L99.2511 81.8101L95.0044 84.5802L93.5273 78.0243L99.0665 75.9005Z" fill="#B55B52"/>
<path d="M111.53 20.868C111.622 21.3297 111.899 21.6067 112.268 21.6067C112.545 21.5144 112.73 21.145 112.637 20.6834C112.545 20.2217 112.268 19.9447 111.899 19.9447C111.622 20.037 111.437 20.4064 111.53 20.868Z" fill="#263238"/>
<path d="M111.899 21.6991C111.899 21.6991 113.468 24.0998 114.853 25.2079C114.207 26.1312 112.73 26.0389 112.73 26.0389L111.899 21.6991Z" fill="#A02724"/>
<path d="M109.314 18.7443C109.222 18.7443 109.222 18.7443 109.129 18.6519C109.037 18.5596 109.037 18.3749 109.129 18.2826C110.145 17.1746 111.437 17.3592 111.437 17.3592C111.622 17.3592 111.714 17.5439 111.622 17.6362C111.622 17.8209 111.437 17.9132 111.345 17.8209C111.345 17.8209 110.329 17.6362 109.499 18.5596C109.499 18.6519 109.406 18.7443 109.314 18.7443Z" fill="#263238"/>
<path d="M98.2357 27.3316C99.2512 31.579 100.267 39.3353 96.6663 42.1977C96.6663 42.1977 98.051 46.5376 107.745 46.5376C118.361 46.5376 112.822 43.7675 112.822 43.7675C107.006 42.6594 107.191 37.5809 108.206 34.3491L98.2357 27.3316Z" fill="#B55B52"/>
<path d="M95.4661 42.9364C94.8199 41.7361 94.1736 40.4434 95.5584 39.9817C97.1279 39.52 107.283 38.689 110.329 39.52C109.406 41.182 110.976 43.1211 110.976 43.1211L95.4661 42.9364Z" fill="#263238"/>
<path d="M103.959 241.09H110.606L111.253 227.702H104.606L103.959 241.09Z" fill="#B55B52"/>
<path d="M61.6772 239.244L68.4165 239.613L72.4786 226.409L65.7393 226.04L61.6772 239.244Z" fill="#B55B52"/>
<path d="M68.232 239.059L61.8619 237.674C61.585 237.582 61.4003 237.766 61.308 237.951L59.0924 242.752C58.9077 243.214 59.1847 243.861 59.7386 243.953C61.9543 244.415 63.0621 244.507 65.8317 245.061C67.5857 245.43 71.4631 246.354 73.7711 246.908C76.0791 247.369 77.0023 245.153 76.0791 244.692C71.9247 242.752 70.1707 241.09 69.0628 239.521C68.8782 239.336 68.5089 239.151 68.232 239.059Z" fill="#263238"/>
<path d="M110.237 240.444H103.959C103.682 240.444 103.498 240.629 103.498 240.813L102.39 245.984C102.298 246.538 102.667 247 103.221 247C105.529 247 108.76 246.815 111.622 246.815C114.945 246.815 117.9 247 121.777 247C124.177 247 124.824 244.599 123.808 244.415C119.284 243.399 115.592 243.307 111.714 240.906C111.253 240.629 110.699 240.444 110.237 240.444Z" fill="#263238"/>
<path d="M84.5724 44.1368C79.5872 46.5376 78.2024 61.0344 78.2024 61.0344L90.6655 66.7593C90.6655 66.7593 93.712 62.2348 93.989 55.0325C94.1736 47.5533 89.7423 41.6437 84.5724 44.1368Z" fill="#263238"/>
<path opacity="0.4" d="M91.3118 53.0934C89.0961 56.6022 89.2808 61.9577 90.0193 66.5746L90.5732 66.8516C90.5732 66.8516 93.6197 62.3271 93.8967 55.1248C93.8967 54.6632 93.8967 54.2015 93.8967 53.8321L91.3118 53.0934Z" fill="black"/>
<path d="M119.284 43.7675C119.284 43.7675 125.47 50.6927 119.654 93.8138C110.329 93.8138 93.2504 93.8138 88.7268 93.8138C88.5421 89.1047 91.4963 65.8359 86.8804 43.4905C86.8804 43.4905 92.1426 42.3824 97.2201 42.1977C101.19 42.0131 106.914 41.9207 110.422 42.1977C114.945 42.5671 119.284 43.7675 119.284 43.7675Z" fill="#407BFF"/>
<path opacity="0.6" d="M119.284 43.7675C119.284 43.7675 125.47 50.6927 119.654 93.8138C110.329 93.8138 93.2504 93.8138 88.7268 93.8138C88.5421 89.1047 91.4963 65.8359 86.8804 43.4905C86.8804 43.4905 92.1426 42.3824 97.2201 42.1977C101.19 42.0131 106.914 41.9207 110.422 42.1977C114.945 42.5671 119.284 43.7675 119.284 43.7675Z" fill="#FAFAFA"/>
<path opacity="0.2" d="M121.962 56.9716L121.869 56.8792L115.684 53.5551C115.038 63.0658 119.284 68.9753 121.777 71.5607C122.146 65.4665 122.146 60.665 121.962 56.9716Z" fill="black"/>
<path opacity="0.2" d="M111.253 227.702L110.883 234.627H104.236L104.606 227.702H111.253Z" fill="black"/>
<path opacity="0.2" d="M65.7393 226.04L72.4786 226.409L70.3553 233.242L63.616 232.873L65.7393 226.04Z" fill="black"/>
<path d="M96.1123 23.0841C97.5894 28.6243 98.1433 31.9484 101.651 34.2568C106.821 37.7656 113.191 33.7028 113.376 27.8856C113.561 22.6224 111.068 14.4045 105.16 13.2964C99.2511 12.0961 94.6352 17.4516 96.1123 23.0841Z" fill="#B55B52"/>
<path d="M108.668 93.8138C108.668 93.8138 102.113 138.043 98.5127 154.664C94.5429 172.854 73.4019 232.873 73.4019 232.873L63.0621 230.656C63.0621 230.656 76.3561 181.718 79.6796 156.326C80.972 146.446 82.5415 130.471 84.4802 117.175C86.4189 104.248 88.7268 93.9061 88.7268 93.9061H108.668V93.8138Z" fill="#263238"/>
<path d="M75.8021 229.364L73.8634 233.15L62.2312 230.656L63.2467 227.148L75.8021 229.364Z" fill="#407BFF"/>
<path opacity="0.6" d="M75.8021 229.364L73.8634 233.15L62.2312 230.656L63.2467 227.148L75.8021 229.364Z" fill="white"/>
<path opacity="0.6" d="M104.513 109.603C96.9432 111.081 97.6817 139.428 98.6049 154.017C100.821 143.675 103.959 123.915 106.175 109.788C105.713 109.511 105.16 109.419 104.513 109.603Z" fill="black"/>
<path d="M119.654 93.8138C119.654 93.8138 122.7 137.12 122.146 154.756C121.5 173.131 112.822 233.242 112.822 233.242H102.944C102.944 233.242 102.575 174.147 102.113 156.141C101.651 136.473 99.2511 93.8138 99.2511 93.8138H119.654Z" fill="#263238"/>
<path d="M114.576 229.364L114.022 233.427H102.113L101.836 229.825L114.576 229.364Z" fill="#407BFF"/>
<path opacity="0.6" d="M114.576 229.364L114.022 233.427H102.113L101.836 229.825L114.576 229.364Z" fill="white"/>
<path d="M115.684 51.8931C115.684 63.5275 121.869 68.329 121.869 68.329L131.932 58.5413C131.932 58.5413 128.516 52.6318 123.808 47.2762C117.992 40.5357 115.684 44.4138 115.684 51.8931Z" fill="#263238"/>
<path opacity="0.2" d="M113.007 29.917C112.73 30.6557 112.084 31.8561 110.422 32.3177C107.929 33.0564 107.929 35.0878 107.929 35.0878C110.237 34.3491 112.268 32.4101 113.007 29.917Z" fill="black"/>
<path d="M110.422 12.0037C112.453 9.41831 109.314 9.23363 109.314 9.23363C110.145 6.09419 106.452 7.75625 106.452 7.75625C104.236 4.70915 102.944 8.4026 102.944 8.4026C100.636 5.81718 100.174 10.0647 100.174 10.0647C97.8663 6.74055 96.6662 11.542 96.6662 11.542C94.5429 8.12559 93.2504 12.5577 93.2504 12.5577C88.7268 11.0804 90.8501 15.6972 90.8501 15.6972C87.065 15.7895 90.1115 18.7443 90.1115 18.7443C85.5879 18.7443 89.5576 21.3297 89.5576 21.3297C85.9572 23.7305 90.4808 24.2845 90.4808 24.2845C87.5266 28.9013 92.6042 27.1469 92.6042 27.1469C90.5731 31.6714 95.0968 29.64 95.0968 29.64C94.8198 33.9798 97.3124 32.7794 98.5126 32.0407C98.7895 32.9641 99.1588 33.8875 99.9897 33.9798C101.559 34.1645 101.836 31.2097 101.836 31.2097C101.836 31.2097 103.313 32.3177 104.513 31.7637C105.713 31.1174 105.252 29.5477 105.252 29.5477C105.252 29.5477 106.175 30.2863 107.006 29.5477C107.56 29.1783 107.56 26.2235 106.821 25.2078L109.222 24.2845C109.222 24.2845 110.976 24.0075 110.237 21.6991C109.406 19.3906 110.145 17.4516 110.145 17.4516C112.822 16.1589 110.606 14.6815 110.606 14.6815C113.93 12.6501 110.422 12.0037 110.422 12.0037Z" fill="#263238"/>
<path d="M105.529 23.2688C105.898 24.7462 106.821 25.9465 107.837 26.6852C109.314 27.7933 110.514 26.6852 110.329 25.0232C110.237 23.4534 109.314 21.0527 107.652 20.591C106.083 20.1293 105.067 21.6067 105.529 23.2688Z" fill="#B55B52"/>
</g>
<defs>
<linearGradient id="paint0_linear_1149_1477" x1="176.5" y1="233" x2="176.5" y2="344" gradientUnits="userSpaceOnUse">
<stop stop-color="#A8D5FF"/>
<stop offset="0.505208" stop-color="white" stop-opacity="0"/>
</linearGradient>
<clipPath id="clip0_1149_1477">
<rect width="250" height="247" fill="white" transform="translate(59)"/>
</clipPath>
</defs>
</svg>
