<svg width="353" height="363" viewBox="0 0 353 363" fill="none" xmlns="http://www.w3.org/2000/svg">
<g clip-path="url(#clip0_93_2610)">
<path d="M225.255 84.7214L211.274 92.2232L189.597 51.8229C182.463 38.5266 166.024 33.516 152.805 40.6086C139.586 47.7013 134.671 64.1693 141.805 77.4656L145.784 84.8809L131.548 92.5192L127.57 85.1039C116.32 64.1366 124.16 37.8662 145.259 26.5452C166.104 15.3606 192.328 23.3538 203.579 44.321L225.255 84.7214Z" fill="url(#paint0_linear_93_2610)"/>
<path d="M214.885 62.9528L137.097 104.69C131.758 107.555 129.886 113.828 132.63 118.942L161.578 172.895C164.322 178.009 170.585 179.917 175.923 177.053L253.712 135.315C258.796 132.588 260.922 126.178 258.178 121.064L229.23 67.1113C226.232 62.1337 219.969 60.2249 214.885 62.9528ZM198.62 117.454L205.48 130.239C206.577 132.285 205.875 134.637 203.842 135.728C201.808 136.82 199.46 136.104 198.362 134.058L191.502 121.273C188.274 121.359 184.731 119.637 183.085 116.569C180.615 111.966 182.254 106.477 186.829 104.022C191.405 101.567 196.885 103.237 199.354 107.839C200.884 111.3 200.476 114.812 198.62 117.454Z" fill="url(#paint1_linear_93_2610)"/>
</g>
<path d="M166.014 222.636C171.466 208.275 190.764 182.818 224.343 195.887" stroke="#263077" stroke-width="1.5"/>
<path d="M138.39 214.506C142.738 199.772 142.774 167.828 108.132 157.918" stroke="#263077" stroke-width="1.5"/>
<rect x="132.853" y="231.575" width="18.9071" height="18.9071" transform="rotate(-27.5973 132.853 231.575)" fill="#DEF1FF"/>
<rect x="90.5898" y="119.923" width="18.9071" height="18.9071" transform="rotate(-27.5973 90.5898 119.923)" fill="#263077" fill-opacity="0.7"/>
<rect x="55" y="184.43" width="13.3462" height="13.3462" transform="rotate(-27.5973 55 184.43)" fill="#173F7D"/>
<ellipse cx="176.5" cy="307.5" rx="176.5" ry="55.5" fill="url(#paint2_linear_93_2610)" fill-opacity="0.7"/>
<defs>
<linearGradient id="paint0_linear_93_2610" x1="128.329" y1="86.216" x2="204.118" y2="45.5513" gradientUnits="userSpaceOnUse">
<stop stop-color="#0678B0"/>
<stop offset="0.432292" stop-color="#0094DE"/>
<stop offset="1" stop-color="#0094DE"/>
</linearGradient>
<linearGradient id="paint1_linear_93_2610" x1="147.118" y1="145.944" x2="243.493" y2="94.2334" gradientUnits="userSpaceOnUse">
<stop stop-color="#0678B0"/>
<stop offset="1" stop-color="#0094DE"/>
</linearGradient>
<linearGradient id="paint2_linear_93_2610" x1="176.5" y1="252" x2="176.5" y2="363" gradientUnits="userSpaceOnUse">
<stop stop-color="#A8D5FF"/>
<stop offset="0.505208" stop-color="white" stop-opacity="0"/>
</linearGradient>
<clipPath id="clip0_93_2610">
<rect width="109.338" height="147.411" fill="white" transform="translate(96.959 52.4608) rotate(-28.2159)"/>
</clipPath>
</defs>
</svg>
