<svg width="353" height="339" viewBox="0 0 353 339" fill="none" xmlns="http://www.w3.org/2000/svg">
<ellipse cx="176.5" cy="283.5" rx="176.5" ry="55.5" fill="url(#paint0_linear_22_892)" fill-opacity="0.7"/>
<path d="M272.312 13.3354C269.331 10.864 264.81 9.5261 260.994 9.25666C233.911 7.33344 229.955 63.9801 234.106 76.6436C238.256 89.3071 235.563 93.4602 214.237 100.085C192.91 106.709 203.142 119.456 205.741 126.917C208.341 134.377 213.485 140.677 197.942 148.081C182.39 155.496 187.794 160.085 187.794 160.085C187.794 160.085 216.465 189.435 214.887 180.042C213.308 170.649 216.168 156.452 241.877 155.375C252.953 154.91 269.907 149.624 273.667 137.759C274.54 135 275.153 130.772 274.484 127.92C273.565 123.953 270.956 120.831 269.517 117.096C266.147 108.4 274.596 102.026 279.452 96.2103C281.986 93.1721 284.521 90.0597 286.471 86.5942C290.5 79.403 288.996 71.7008 284.605 65.0764C282.497 61.8989 279.572 58.5263 278.653 54.7356C277.669 50.6662 278.523 45.101 278.765 40.9201C278.95 37.6404 279.257 34.3607 279.08 31.0717C278.727 24.9397 277.298 17.4512 272.312 13.3354Z" fill="url(#paint1_linear_22_892)"/>
<g opacity="0.8">
<path d="M185.547 176.558C185.362 176.623 185.148 176.549 185.055 176.363C184.953 176.168 185.027 175.926 185.222 175.824C185.343 175.759 197.413 169.404 210.885 158.942C223.289 149.299 239.463 134.099 246.009 116.418C251.477 101.655 256.463 77.2475 259.685 49.4584C262.582 24.5402 263.037 6.10706 261.802 2.688C261.727 2.4836 261.839 2.25133 262.043 2.177C262.247 2.10268 262.479 2.21417 262.554 2.41857C263.993 6.42295 263.083 27.1231 260.474 49.5513C257.243 77.4055 252.239 101.878 246.751 116.697C240.141 134.554 223.856 149.875 211.358 159.584C197.84 170.092 185.714 176.474 185.594 176.53C185.575 176.539 185.566 176.549 185.547 176.558Z" fill="white"/>
<path d="M259.638 54.2897C259.434 54.364 259.221 54.3083 259.146 54.1039C259.044 53.8344 248.952 26.6492 235.935 20.508C235.73 20.415 235.656 20.1828 235.749 19.9877C235.842 19.7833 236.083 19.7089 236.288 19.8018C249.602 26.0825 259.49 52.6917 259.908 53.8251C259.973 54.0295 259.843 54.2154 259.638 54.2897Z" fill="white"/>
<path d="M254.708 85.8138C254.55 85.8695 254.374 85.823 254.263 85.693C254.123 85.5257 254.142 85.2656 254.318 85.1262C254.393 85.0612 261.83 78.9664 270.993 73.8471C283.388 66.9253 292.887 65.0021 299.219 68.1053C299.414 68.1982 299.497 68.4398 299.404 68.6442C299.302 68.8393 299.07 68.9229 298.866 68.83C284.28 61.676 255.117 85.5072 254.82 85.7487C254.792 85.7766 254.755 85.7952 254.708 85.8138Z" fill="white"/>
<path d="M222.351 150.237C222.314 150.255 222.268 150.255 222.221 150.265C221.999 150.265 221.822 150.088 221.813 149.875C221.813 149.754 221.609 138.094 219.167 125.811C216.929 114.541 212.315 100.428 203.012 97.1765C202.807 97.1022 202.696 96.8792 202.77 96.6655C202.844 96.4518 203.067 96.3496 203.281 96.424C211.033 99.1369 216.651 108.976 219.956 125.662C222.407 138.019 222.611 149.744 222.621 149.865C222.621 150.032 222.509 150.181 222.351 150.237Z" fill="white"/>
<path d="M238.897 131.404C238.739 131.46 238.544 131.413 238.442 131.265C238.312 131.088 238.349 130.837 238.525 130.707C239.816 129.75 270.232 107.378 282.098 109.515C282.311 109.552 282.46 109.766 282.423 109.979C282.386 110.193 282.172 110.342 281.959 110.305C270.427 108.233 239.314 131.125 239.008 131.358C238.971 131.367 238.934 131.386 238.897 131.404Z" fill="white"/>
</g>
<path d="M296.081 96.7677C294.112 93.4416 290.315 90.645 286.805 89.0934C261.969 78.1209 239.092 130.085 238.72 143.399C238.349 156.713 234.412 159.723 212.101 158.729C189.79 157.735 195.111 173.204 195.036 181.101C194.962 188.999 197.673 196.673 180.534 198.382C163.394 200.092 166.932 206.242 166.932 206.242C166.932 206.242 183.988 243.573 185.677 234.19C187.367 224.806 194.86 212.43 219.418 220.123C229.993 223.44 247.736 224.202 255.284 214.307C257.039 212.003 259.044 208.24 259.379 205.323C259.852 201.281 258.459 197.453 258.367 193.449C258.144 184.121 268.245 180.98 274.782 177.162C278.198 175.164 281.634 173.093 284.633 170.491C290.863 165.093 292.042 157.326 290.148 149.605C289.238 145.898 287.622 141.736 288.04 137.861C288.486 133.699 291.178 128.756 292.812 124.891C294.094 121.862 295.496 118.889 296.433 115.73C298.197 109.859 299.377 102.333 296.081 96.7677Z" fill="url(#paint2_linear_22_892)"/>
<g opacity="0.8">
<path d="M159.235 220.978C159.04 220.978 158.863 220.829 158.836 220.634C158.808 220.411 158.956 220.216 159.179 220.179C159.309 220.16 172.818 218.265 189.029 212.978C203.968 208.11 224.32 199.274 236.455 184.855C246.594 172.814 259.536 151.538 271.968 126.48C283.119 104.015 289.776 86.8265 289.776 83.1844C289.776 82.9614 289.953 82.7849 290.176 82.7849C290.398 82.7849 290.575 82.9614 290.575 83.1844C290.575 87.4397 282.711 106.607 272.683 126.833C260.223 151.946 247.244 173.278 237.068 185.366C224.803 199.934 204.302 208.835 189.261 213.74C172.985 219.045 159.42 220.95 159.281 220.969C159.272 220.978 159.253 220.978 159.235 220.978Z" fill="white"/>
<path d="M270.306 131.098C270.084 131.098 269.907 130.93 269.907 130.707C269.907 130.419 269.601 101.404 259.416 91.2118C259.258 91.0538 259.258 90.803 259.416 90.645C259.574 90.4871 259.824 90.4871 259.982 90.645C270.39 101.06 270.696 129.49 270.706 130.689C270.706 130.921 270.529 131.098 270.306 131.098Z" fill="white"/>
<path d="M255.015 159.008C254.848 159.008 254.699 158.905 254.634 158.738C254.56 158.534 254.671 158.301 254.875 158.227C254.968 158.199 264.021 154.966 274.382 153.256C288.384 150.943 297.975 152.337 302.886 157.409C303.044 157.567 303.035 157.818 302.877 157.976C302.719 158.134 302.468 158.125 302.31 157.967C291.011 146.298 255.498 158.85 255.145 158.98C255.098 158.998 255.052 159.008 255.015 159.008Z" fill="white"/>
<path d="M202.77 208.677C202.724 208.677 202.687 208.667 202.64 208.658C202.427 208.584 202.315 208.361 202.39 208.147C202.427 208.036 206.178 196.989 208.035 184.604C209.743 173.241 210.17 158.404 202.51 152.197C202.334 152.058 202.315 151.807 202.455 151.631C202.594 151.454 202.845 151.435 203.021 151.575C209.399 156.75 211.359 167.908 208.824 184.734C206.948 197.193 203.179 208.296 203.142 208.407C203.095 208.574 202.937 208.677 202.77 208.677Z" fill="white"/>
<path d="M224.71 196.552C224.533 196.552 224.376 196.441 224.329 196.264C224.264 196.05 224.385 195.827 224.598 195.762C226.13 195.298 262.331 184.539 272.767 190.569C272.962 190.68 273.027 190.922 272.916 191.117C272.804 191.312 272.563 191.377 272.368 191.266C262.22 185.412 225.202 196.422 224.831 196.533C224.793 196.552 224.756 196.552 224.71 196.552Z" fill="white"/>
</g>
<path d="M212.835 3.14326L212.547 5.19655C211.6 5.243 210.662 5.36378 209.752 5.56818L208.982 3.65426C208.768 3.13397 208.174 2.88311 207.654 3.0968L204.367 4.45327C203.838 4.66697 203.587 5.27087 203.791 5.79117L204.571 7.72367C203.773 8.23467 203.021 8.80142 202.324 9.44249L200.672 8.16035C200.226 7.81658 199.576 7.9002 199.233 8.35546L197.023 11.1799C196.67 11.6351 196.744 12.2762 197.19 12.6293L198.843 13.9207C198.406 14.7476 198.035 15.6209 197.729 16.5407L195.63 16.262C195.064 16.1877 194.544 16.5872 194.46 17.1539L193.931 20.7124C193.848 21.2791 194.238 21.8087 194.804 21.883L196.912 22.1617C196.939 23.128 197.042 24.0664 197.227 24.9862L195.25 25.8131C194.72 26.0361 194.451 26.6493 194.665 27.1881L195.983 30.5421C196.197 31.081 196.8 31.3319 197.329 31.1089L199.307 30.282C199.808 31.0903 200.375 31.8522 201.006 32.5676L199.688 34.2771C199.335 34.7416 199.409 35.4013 199.855 35.7543L202.677 37.9749C203.132 38.3279 203.782 38.2443 204.144 37.7798L205.444 36.0795C206.28 36.5255 207.152 36.8878 208.072 37.1851L207.775 39.3128C207.691 39.8981 208.09 40.4277 208.657 40.502L212.222 40.9665C212.788 41.0409 213.317 40.6321 213.401 40.0467L213.689 37.9377C214.654 37.9005 215.611 37.7705 216.539 37.5568L217.319 39.5079C217.533 40.0467 218.145 40.3069 218.675 40.0746L221.999 38.6624C222.528 38.4394 222.788 37.8169 222.565 37.278L221.785 35.3455C222.602 34.8252 223.363 34.2213 224.069 33.5617L225.694 34.8252C226.149 35.1783 226.799 35.0854 227.151 34.6301L229.333 31.7407C229.677 31.2761 229.593 30.6165 229.138 30.2634L227.523 29.0091C227.959 28.1544 228.331 27.2532 228.618 26.3241L230.633 26.5842C231.2 26.6585 231.72 26.2497 231.794 25.683L232.249 22.1153C232.323 21.5485 231.924 21.019 231.357 20.9539L229.352 20.6938C229.315 19.7182 229.185 18.7613 228.981 17.8415L230.847 17.061C231.367 16.8381 231.617 16.2341 231.404 15.7046L230.039 12.4156C229.825 11.886 229.222 11.6444 228.702 11.8581L226.827 12.6386C226.316 11.8395 225.74 11.0777 225.1 10.3809L226.334 8.76426C226.678 8.31829 226.594 7.66793 226.149 7.32416L223.345 5.16867C222.899 4.82491 222.259 4.90853 221.906 5.35449L220.662 6.97111C219.835 6.54373 218.962 6.18138 218.053 5.90266L218.331 3.86795C218.405 3.31049 218.015 2.79949 217.458 2.72517L213.958 2.26991C213.429 2.19558 212.909 2.5858 212.835 3.14326ZM200.495 19.7461C201.507 12.7036 207.96 7.77013 214.924 8.68993C221.878 9.60044 226.771 16.0297 225.833 23.0723C224.895 30.1612 218.424 35.1969 211.386 34.2678C204.358 33.348 199.483 26.8351 200.495 19.7461Z" fill="#D8DEE8"/>
<path d="M159.198 2.03764L158.752 5.20584C157.285 5.27088 155.837 5.46599 154.435 5.78188L153.237 2.82737C152.912 2.01906 151.993 1.63814 151.176 1.97261L146.097 4.06306C145.28 4.39754 144.89 5.32663 145.215 6.13494L146.422 9.12661C145.196 9.90704 144.027 10.799 142.95 11.7838L140.396 9.80484C139.709 9.27526 138.706 9.40533 138.168 10.1022L134.76 14.4689C134.213 15.1657 134.333 16.1691 135.02 16.708L137.583 18.6962C136.905 19.9784 136.33 21.3349 135.865 22.7378L132.616 22.3104C131.743 22.1989 130.935 22.8121 130.805 23.6947L129.988 29.2043C129.858 30.0869 130.462 30.8952 131.334 31.0067L134.593 31.4341C134.63 32.9206 134.798 34.3886 135.085 35.8101L132.012 37.083C131.186 37.4267 130.787 38.3744 131.112 39.2013L133.145 44.3763C133.47 45.2032 134.408 45.6027 135.234 45.2497L138.289 43.9675C139.059 45.2218 139.932 46.4017 140.907 47.4981L138.864 50.146C138.316 50.8614 138.428 51.8927 139.124 52.4408L143.497 55.8692C144.194 56.4173 145.215 56.278 145.763 55.5626L147.777 52.9332C149.068 53.6208 150.424 54.1875 151.844 54.6428L151.389 57.9225C151.259 58.8237 151.881 59.6413 152.763 59.7621L158.278 60.4867C159.16 60.5982 159.977 59.9664 160.098 59.0652L160.544 55.8041C162.048 55.7391 163.515 55.544 164.954 55.2188L166.161 58.229C166.495 59.0652 167.433 59.4554 168.259 59.1117L173.403 56.9283C174.229 56.5753 174.619 55.6183 174.276 54.7914L173.069 51.7997C174.322 50.9914 175.511 50.0716 176.606 49.0496L179.122 51.01C179.828 51.5582 180.831 51.4188 181.369 50.7034L184.739 46.2345C185.278 45.5191 185.148 44.4971 184.442 43.9582L181.954 42.0257C182.632 40.7064 183.198 39.3128 183.644 37.8634L186.764 38.2722C187.636 38.3837 188.435 37.7612 188.555 36.8785L189.261 31.3597C189.373 30.4771 188.76 29.6688 187.887 29.5573L184.777 29.1485C184.712 27.6434 184.526 26.1661 184.201 24.7353L187.079 23.5275C187.887 23.1838 188.277 22.2547 187.933 21.4371L185.826 16.3456C185.492 15.5373 184.563 15.1471 183.755 15.4816L180.859 16.6894C180.069 15.4537 179.178 14.2831 178.185 13.196L180.097 10.6968C180.626 9.99995 180.496 9.00583 179.809 8.47624L175.483 5.1501C174.796 4.62052 173.802 4.75059 173.264 5.44741L171.333 7.95595C170.051 7.2963 168.705 6.73884 167.294 6.30217L167.721 3.16184C167.842 2.29779 167.238 1.49877 166.365 1.38728L160.962 0.681172C160.117 0.560391 159.318 1.17359 159.198 2.03764ZM140.136 27.7084C141.696 16.8288 151.677 9.19164 162.438 10.6039C173.199 12.0161 180.756 21.9481 179.308 32.8463C177.85 43.8096 167.851 51.5861 156.979 50.1645C146.097 48.7337 138.558 38.6531 140.136 27.7084Z" fill="#D8DEE8"/>
<path d="M154.026 32.7255L130.369 229.46C130.016 232.406 132.049 235.054 134.891 235.342L233.409 246.166C239.444 246.537 242.75 243.453 243.121 240.322L267.957 31.1553C268.329 28.0336 265.367 25.2092 259.304 25.2092L159.885 27.3089C157.016 27.3461 154.379 29.7896 154.026 32.7255Z" fill="url(#paint3_linear_22_892)"/>
<path d="M149.588 32.3818L125.81 230.111C125.457 233.075 127.491 235.732 130.35 236.02L232.49 246.193C235.693 246.509 238.627 244.196 238.999 241.037L263.974 30.793C264.346 27.662 261.997 25.1349 258.756 25.1906L155.484 26.9373C152.596 26.9837 149.95 29.4365 149.588 32.3818Z" fill="url(#paint4_linear_22_892)"/>
<path d="M151.529 43.2893L129.487 226.617C129.153 229.386 131.065 231.867 133.739 232.127L229.798 241.474C232.778 241.762 235.498 239.597 235.851 236.661L258.933 42.4438C259.276 39.5264 257.094 37.1666 254.086 37.1944L157.044 38.2257C154.342 38.2536 151.863 40.5392 151.529 43.2893Z" fill="#D8DEE8"/>
<path d="M203.04 32.2516C202.91 33.3015 203.671 34.147 204.729 34.1377C205.788 34.1284 206.753 33.2551 206.874 32.2052C207.004 31.146 206.243 30.3098 205.184 30.3191C204.126 30.3284 203.17 31.2018 203.04 32.2516Z" fill="url(#paint5_linear_22_892)"/>
<path d="M168.139 166.357C187.804 129.973 217.18 119.084 226.028 81.5864C230.81 61.3136 227.551 41.9142 222.064 25.8131L258.756 25.1906C261.997 25.1348 264.346 27.6527 263.974 30.793L238.999 241.037C238.627 244.187 235.694 246.509 232.49 246.193L152.197 238.194C151.603 205.592 159.374 182.569 168.139 166.357Z" fill="white"/>
<path d="M52.6197 53.2491C52.6197 33.9147 69.4712 18.2503 89.6931 18.2503C109.321 18.2503 124.807 33.0971 124.807 51.4095C124.807 69.7219 109.321 85.3585 89.6931 86.3619C69.4712 87.3932 52.6197 72.5835 52.6197 53.2491Z" fill="url(#paint6_linear_22_892)"/>
<path d="M54.8015 51.7068C54.8015 32.3724 71.1703 16.708 90.8072 16.708C109.868 16.708 124.91 31.5548 124.91 49.8672C124.91 68.1796 109.868 83.8162 90.8072 84.8196C71.1703 85.8509 54.8015 71.0412 54.8015 51.7068Z" fill="url(#paint7_linear_22_892)"/>
<g opacity="0.5">
<path d="M60.4002 51.5582C60.4002 35.3177 74.1507 22.1525 90.6494 22.1525C106.665 22.1525 119.302 34.6302 119.302 50.0066C119.302 65.3923 106.665 78.5297 90.6494 79.3659C74.1507 80.2485 60.4002 67.808 60.4002 51.5582Z" fill="white"/>
</g>
<path opacity="0.5" d="M89.5167 24.6517C105.533 24.6517 118.169 37.1294 118.169 52.5059C118.169 56.1665 117.445 59.6877 116.145 62.9581C118.169 59.0188 119.311 54.6149 119.311 50.0066C119.311 34.6209 106.675 22.1525 90.6587 22.1525C77.9295 22.1525 66.853 29.9847 62.4428 41.0223C67.4286 31.3226 77.7717 24.6517 89.5167 24.6517Z" fill="white"/>
<path d="M76.9732 47.5909V61.7689C76.9732 65.8661 80.4178 69.0994 84.6609 68.9879L95.171 68.7092C99.3584 68.5977 102.738 65.2251 102.738 61.165V47.1357L76.9732 47.5909ZM86.6478 62.2427L88.5975 56.3244C87.7619 55.8877 87.1956 55.0422 87.1956 54.0481C87.1956 52.5894 88.4118 51.3909 89.9159 51.363C91.42 51.3352 92.6363 52.4872 92.6363 53.9366C92.6363 54.9215 92.07 55.7948 91.2344 56.2686L93.1841 62.094L86.6478 62.2427Z" fill="white"/>
<path d="M99.7483 45.9093C98.6341 45.9279 97.7335 45.0638 97.7335 43.9768C97.7335 39.8144 94.2332 36.4604 89.9252 36.5162C85.5986 36.5719 82.0704 40.0281 82.0704 44.2183C82.0704 45.3054 81.1512 46.2066 80.0185 46.2252C78.8858 46.2437 77.9666 45.3704 77.9666 44.2834C77.9666 37.9005 83.3424 32.6512 89.9252 32.5768C96.4708 32.5025 101.763 37.5846 101.763 43.9024C101.763 44.9988 100.862 45.8907 99.7483 45.9093Z" fill="white"/>
<path d="M124.083 126.768C124.083 126.768 123.368 124.083 123.879 123.405C124.39 122.717 127.482 119.976 127.184 120.868C126.887 121.76 126.442 122.355 126.442 122.355C126.442 122.355 128.113 123.126 127.036 124.287C125.968 125.449 125.606 125.718 125.55 126.759C125.485 127.809 124.798 128.171 124.083 126.768Z" fill="url(#paint8_linear_22_892)"/>
<path d="M94.3355 242.514C94.3355 242.514 93.9548 244.837 94.0012 245.654C94.0477 246.481 103.202 246.899 103.295 246.286C103.388 245.664 101.782 244.688 100.649 244.335C99.5163 243.991 96.211 243.062 96.211 243.062L94.3355 242.514Z" fill="url(#paint9_linear_22_892)"/>
<path d="M96.5637 240.201L96.2759 243.081C96.2759 243.081 95.2082 243.787 94.2797 243.239L93.8155 240.099L96.5637 240.201Z" fill="url(#paint10_linear_22_892)"/>
<path d="M78.0039 246.268C78.0039 246.268 77.6232 248.59 77.6696 249.408C77.7161 250.235 86.8707 250.653 86.9635 250.04C87.0564 249.417 85.4501 248.442 84.3174 248.089C83.1847 247.745 79.8794 246.816 79.8794 246.816L78.0039 246.268Z" fill="url(#paint11_linear_22_892)"/>
<path d="M80.2322 243.964L79.9444 246.844C79.9444 246.844 78.8766 247.55 77.9482 247.002L77.4839 243.861L80.2322 243.964Z" fill="url(#paint12_linear_22_892)"/>
<path d="M94.9018 164.917C95.9603 167.063 97.0187 169.209 98.0772 171.355C98.9314 183.601 99.3492 196.924 99.0799 211.167C98.8757 221.768 98.3093 231.802 97.5015 241.223C96.0717 241.158 94.6326 241.093 93.2028 241.028C91.1323 236.912 88.6812 230.668 88.4583 222.966C88.2262 214.929 90.6588 213.861 90.5009 206.168C90.2967 196.199 86.1186 193.533 83.8996 181.538C83.0454 176.948 82.4791 170.956 83.1568 163.69C87.0564 164.099 90.9745 164.508 94.9018 164.917Z" fill="url(#paint13_linear_22_892)"/>
<path opacity="0.3" d="M83.1382 163.69C85.2551 163.913 87.372 164.136 89.4889 164.35C93.2956 170.983 94.3633 177.896 93.6948 180.953C92.7478 185.273 90.2502 186.657 90.3802 190.996C90.5195 195.288 93.0449 196.403 94.6511 201.467C95.7653 204.97 95.4682 208.194 94.8368 214.493C93.5648 227.184 90.5009 231.068 93.0635 235.23C93.7969 236.41 95.1061 237.822 97.6779 238.9C97.6129 239.68 97.5572 240.461 97.4829 241.232C96.0531 241.167 94.614 241.102 93.1842 241.037C91.1137 236.921 88.6626 230.678 88.4397 222.975C88.2076 214.939 90.6402 213.87 90.4823 206.177C90.2781 196.208 86.1 193.542 83.881 181.547C83.0268 176.958 82.4604 170.965 83.1382 163.69Z" fill="url(#paint14_linear_22_892)"/>
<path d="M89.2103 168.782C87.2234 179.615 85.4686 191.219 84.1038 203.52C82.4511 218.367 81.5691 232.368 81.2256 245.376C79.6472 245.422 78.0781 245.469 76.4997 245.506C70.2976 233.223 69.9169 224.899 70.8082 219.473C71.1518 217.382 72.0895 213.285 72.3031 207.162C72.4516 202.898 72.1824 199.646 71.8388 195.744C71.0961 187.187 70.1862 185.319 70.0562 178.769C69.9355 172.628 69.9076 169.516 71.6624 167.704C76.2862 162.919 88.3004 168.363 89.2103 168.782Z" fill="url(#paint15_linear_22_892)"/>
<path d="M123.257 126.359C124.306 126.285 125.355 126.211 126.395 126.136C128.865 136.124 127.092 145.814 121.521 149.373C112.812 154.938 96.6195 144.449 93.1192 133.03C91.5779 128.013 91.9307 120.785 95.004 119.372C95.8581 118.982 97.1858 118.917 100.055 120.534C108.634 125.356 108.857 134.461 113.22 135.232C115.161 135.585 118.29 134.349 123.257 126.359Z" fill="url(#paint16_linear_22_892)"/>
<path d="M99.2748 173.557C100.779 171.049 98.8849 168.633 98.4578 163.895C97.9657 158.515 100.036 157.623 102.088 148.704C103.453 142.776 104.753 137.081 103.193 130.429C102.441 127.233 101.178 121.825 96.703 119.205C94.3911 117.858 91.2344 117.988 85.023 118.313C77.3353 118.713 73.4915 118.917 70.6225 120.432C70.2047 120.655 61.4865 125.402 60.883 133.132C60.2702 141.011 68.8399 142.061 69.9819 152.569C70.4926 157.279 69.5827 164.536 68.9885 169.237C68.4221 173.752 68.0229 174.904 68.9142 176.279C71.0589 179.578 77.6324 178.639 90.7701 176.753C95.9324 176.01 98.1514 175.425 99.2748 173.557Z" fill="url(#paint17_linear_22_892)"/>
<path d="M79.2851 150.878C78.728 152.922 76.7318 154.455 75.3391 159.435C75.042 160.513 72.8973 168.168 75.6734 170.045C77.2796 171.132 78.7187 169.07 82.609 168.8C89.3496 168.336 92.562 174.003 96.963 172.451C97.7243 172.182 98.7363 171.606 99.739 170.296C99.9433 171.485 99.9062 172.507 99.2748 173.557C98.1514 175.425 95.9324 176.01 90.7794 176.753C77.6417 178.63 71.0682 179.568 68.9235 176.279C68.0321 174.914 68.4221 173.752 68.9977 169.237C69.5919 164.536 70.5018 157.279 69.9912 152.569C68.8492 142.07 60.2795 141.011 60.8923 133.132C61.0594 131.023 61.83 129.156 62.8606 127.521C73.7236 131.925 81.0306 144.449 79.2851 150.878Z" fill="url(#paint18_linear_22_892)"/>
<path d="M65.5532 166.366L67.7258 167.76C68.1158 167.304 69.0164 166.394 70.4369 166.087C72.0246 165.734 73.8537 166.236 73.9001 166.747C73.9372 167.156 72.8231 167.564 72.6467 167.629C71.2633 168.14 70.2327 167.713 69.6663 168.271C69.4713 168.466 69.2206 168.837 68.6543 169.172C68.5057 169.265 68.3479 169.339 68.2643 169.376C67.3359 169.738 65.7482 168.122 65.6089 167.983L65.5532 166.366Z" fill="url(#paint19_linear_22_892)"/>
<path d="M71.9781 137.815C73.5472 134.043 74.6428 128.273 72.1546 119.698C55.7765 126.155 47.4297 141.466 50.6886 153.6C53.3811 163.606 63.1578 168.475 65.3397 169.497C65.8503 168.345 66.3517 167.183 66.8623 166.031C64.3369 163.216 61.4865 159.045 61.8858 154.297C62.4429 147.7 68.7935 145.452 71.9781 137.815Z" fill="url(#paint20_linear_22_892)"/>
<path d="M84.6145 110.555C84.6145 110.555 84.4845 113.426 83.5932 115.573C82.7854 117.514 78.5609 118.731 77.7068 119.168C76.8526 119.605 79.313 120.868 81.7827 121.119C84.2524 121.37 91.318 120.803 92.59 119.865C93.862 118.927 91.5687 119.001 89.8046 118.35C88.0405 117.7 87.0192 114.253 87.3349 112.683C87.6506 111.104 84.6145 110.555 84.6145 110.555Z" fill="url(#paint21_linear_22_892)"/>
<path d="M88.5326 109.515C89.8139 108.251 89.9903 108.103 90.1389 107.666C90.6959 105.919 89.3404 103.522 87.567 102.928C87.4742 102.9 86.2858 102.519 85.8215 103.03C85.4316 103.466 86.0072 104.08 85.7287 104.925C85.478 105.715 84.7909 105.78 83.5097 106.82C82.4605 107.675 81.8106 108.214 81.6527 108.957C81.3464 110.5 83.2126 112.739 84.8652 112.683C85.4687 112.674 85.6266 112.367 88.5326 109.515Z" fill="url(#paint22_linear_22_892)"/>
<path d="M85.0323 112.934C85.0323 112.934 86.3972 114.476 88.4769 113.965C90.3338 113.51 89.8603 109.236 88.5048 108.558C88.0498 108.335 87.2235 108.353 86.6014 108.651C86.2393 108.827 86.1372 109.013 85.5244 109.292C84.9673 109.552 84.7909 109.515 84.6424 109.691C84.4567 109.914 84.3731 110.397 84.958 111.568C84.531 111.271 84.076 111.206 83.7975 111.401C83.751 111.429 83.6396 111.54 83.5932 111.689C83.4168 112.209 83.9739 112.748 85.0323 112.934Z" fill="url(#paint23_linear_22_892)"/>
<path d="M240.577 55.0887L241.06 57.6809L231.181 57.7087L145.429 57.9131C143.219 57.9224 141.195 59.7434 140.888 61.9918L120.416 198.893C120.109 201.16 123.638 204.617 125.829 204.784L163.877 207.71V207.664L220.782 212.031L220.922 212.086C223.354 212.272 225.583 210.507 225.898 208.119V208.129L245.062 61.964C245.377 59.5855 243.019 55.0794 240.577 55.0887Z" fill="url(#paint24_linear_22_892)"/>
<path d="M223.958 205.267C223.642 207.664 221.414 209.448 218.981 209.262L123.795 201.95C121.604 201.783 120.082 199.804 120.379 197.546L138.985 59.186C139.291 56.9376 141.315 55.1166 143.516 55.1073L239.24 54.8471C241.682 54.8378 243.418 56.7611 243.103 59.1302L223.958 205.267Z" fill="url(#paint25_linear_22_892)"/>
<path d="M225.22 129.184C225.063 130.373 223.958 131.256 222.751 131.209L138.976 128.152C137.871 128.115 137.091 127.205 137.24 126.071L138.883 113.854C139.032 112.72 140.044 111.958 141.148 111.986L224.998 114.318C226.205 114.355 227.068 115.21 226.91 116.39L225.22 129.184Z" fill="white"/>
<path d="M221.971 154C221.813 155.189 220.708 156.202 219.501 156.146L135.782 152.011C134.677 151.956 133.906 150.897 134.064 149.763L135.726 137.313C135.875 136.18 136.896 135.213 138.001 135.251L221.767 138.633C222.974 138.679 223.828 139.775 223.679 140.965L221.971 154Z" fill="white"/>
<path opacity="0.1" d="M226.92 116.334C226.725 116.269 226.511 116.232 226.279 116.232L142.43 113.9C141.325 113.872 140.313 114.634 140.164 115.768L138.512 127.985C138.512 128.013 138.502 128.05 138.502 128.078C137.648 127.837 137.11 127.028 137.23 126.062L138.883 113.844C139.032 112.711 140.044 111.949 141.148 111.977L224.998 114.309C226.195 114.346 227.05 115.173 226.92 116.334Z" fill="url(#paint26_linear_22_892)"/>
<path opacity="0.1" d="M223.698 140.686C223.493 140.602 223.28 140.556 223.048 140.546L139.282 137.165C138.177 137.118 137.156 138.094 137.007 139.227L135.345 151.677C135.336 151.761 135.327 151.835 135.327 151.909C134.473 151.631 133.934 150.72 134.064 149.754L135.726 137.304C135.875 136.17 136.896 135.195 138.001 135.241L221.767 138.623C222.89 138.679 223.698 139.608 223.698 140.686Z" fill="url(#paint27_linear_22_892)"/>
<path d="M199.706 174.124C199.957 172.247 198.629 170.519 196.745 170.417L153.404 167.927C151.612 167.825 149.95 169.339 149.709 171.16L147.917 184.65C147.676 186.481 148.92 188.227 150.712 188.348L194.024 191.312C195.909 191.442 197.636 189.853 197.887 187.977L199.706 174.124Z" fill="url(#paint28_linear_22_892)"/>
<path d="M202.984 83.2494C202.417 87.5604 200.198 91.4533 197.051 94.3149C193.662 97.3995 189.187 99.2762 184.545 99.1926C179.921 99.0997 176.031 97.0836 173.533 93.9247C171.23 91.0166 170.098 87.1423 170.664 82.8964C171.843 74.0793 179.939 66.9439 188.825 66.9718C197.794 66.9903 204.172 74.2744 202.984 83.2494Z" fill="url(#paint29_linear_22_892)"/>
<path d="M194.34 78.3438C193.829 82.2088 190.264 85.3027 186.392 85.2563C182.539 85.2098 179.837 82.0602 180.348 78.2323C180.859 74.3952 184.387 71.3013 188.24 71.3199C192.121 71.3385 194.85 74.4788 194.34 78.3438Z" fill="white"/>
<path d="M197.051 94.3149C193.662 97.3995 189.187 99.2763 184.545 99.1926C179.921 99.0997 176.031 97.0836 173.533 93.9247C176.393 89.9389 181.109 87.291 186.114 87.356C191.155 87.4118 195.213 90.2083 197.051 94.3149Z" fill="white"/>
<path opacity="0.4" d="M243.112 59.1302L223.948 205.276C223.633 207.673 221.265 209.448 218.833 209.262L161.658 204.867C158.938 202.089 156.709 198.745 155.112 194.74C154.332 192.771 153.757 190.652 153.376 188.423C152.318 182.253 152.726 175.239 154.277 168.354C155.465 163.058 157.331 157.818 159.727 153.098C161.639 149.326 163.886 145.87 166.393 142.971C168.204 140.881 170.153 138.856 172.215 136.867C174.703 134.47 177.34 132.12 180.069 129.797C186.42 124.38 193.216 119.094 199.511 113.501C214.032 100.605 225.824 86.1947 222.983 65.6432C222.89 64.9928 222.008 60.0408 220.875 54.8936L239.11 54.8471C241.552 54.8378 243.428 56.7518 243.112 59.1302Z" fill="white"/>
<defs>
<linearGradient id="paint0_linear_22_892" x1="176.5" y1="228" x2="176.5" y2="339" gradientUnits="userSpaceOnUse">
<stop stop-color="#A8D5FF"/>
<stop offset="0.505208" stop-color="white" stop-opacity="0"/>
</linearGradient>
<linearGradient id="paint1_linear_22_892" x1="216.832" y1="179.736" x2="284.726" y2="-3.50856" gradientUnits="userSpaceOnUse">
<stop offset="0.00359712" stop-color="#E38DDD"/>
<stop offset="1" stop-color="#9571F6"/>
</linearGradient>
<linearGradient id="paint2_linear_22_892" x1="166.631" y1="161.642" x2="298.168" y2="161.642" gradientUnits="userSpaceOnUse">
<stop stop-color="#FF9085"/>
<stop offset="1" stop-color="#FB6FBB"/>
</linearGradient>
<linearGradient id="paint3_linear_22_892" x1="200.387" y1="130.612" x2="239.214" y2="134.845" gradientUnits="userSpaceOnUse">
<stop stop-color="#444B8C"/>
<stop offset="0.9964" stop-color="#26264F"/>
</linearGradient>
<linearGradient id="paint4_linear_22_892" x1="166.177" y1="32.6764" x2="262.304" y2="359.709" gradientUnits="userSpaceOnUse">
<stop stop-color="#444B8C"/>
<stop offset="0.9964" stop-color="#26264F"/>
</linearGradient>
<linearGradient id="paint5_linear_22_892" x1="202.153" y1="24.6204" x2="315.122" y2="330.368" gradientUnits="userSpaceOnUse">
<stop stop-color="#FFC444"/>
<stop offset="0.9964" stop-color="#F36F56"/>
</linearGradient>
<linearGradient id="paint6_linear_22_892" x1="-783.639" y1="875.464" x2="-706.411" y2="802.69" gradientUnits="userSpaceOnUse">
<stop stop-color="#311944"/>
<stop offset="1" stop-color="#893976"/>
</linearGradient>
<linearGradient id="paint7_linear_22_892" x1="66.396" y1="72.0649" x2="128.28" y2="15.9451" gradientUnits="userSpaceOnUse">
<stop stop-color="#FF9085"/>
<stop offset="1" stop-color="#FB6FBB"/>
</linearGradient>
<linearGradient id="paint8_linear_22_892" x1="129.056" y1="120.899" x2="116.792" y2="133.374" gradientUnits="userSpaceOnUse">
<stop stop-color="#FFC444"/>
<stop offset="0.9964" stop-color="#F36F56"/>
</linearGradient>
<linearGradient id="paint9_linear_22_892" x1="98.6782" y1="239.473" x2="98.7816" y2="211.78" gradientUnits="userSpaceOnUse">
<stop stop-color="#AA80F9"/>
<stop offset="0.9964" stop-color="#6165D7"/>
</linearGradient>
<linearGradient id="paint10_linear_22_892" x1="95.9365" y1="248.372" x2="94.617" y2="234.062" gradientUnits="userSpaceOnUse">
<stop stop-color="#FFC444"/>
<stop offset="0.9964" stop-color="#F36F56"/>
</linearGradient>
<linearGradient id="paint11_linear_22_892" x1="82.3624" y1="239.412" x2="82.4658" y2="211.719" gradientUnits="userSpaceOnUse">
<stop stop-color="#AA80F9"/>
<stop offset="0.9964" stop-color="#6165D7"/>
</linearGradient>
<linearGradient id="paint12_linear_22_892" x1="79.4008" y1="249.896" x2="78.0813" y2="235.587" gradientUnits="userSpaceOnUse">
<stop stop-color="#FFC444"/>
<stop offset="0.9964" stop-color="#F36F56"/>
</linearGradient>
<linearGradient id="paint13_linear_22_892" x1="95.4364" y1="176.268" x2="85.2794" y2="228.16" gradientUnits="userSpaceOnUse">
<stop stop-color="#311944"/>
<stop offset="1" stop-color="#893976"/>
</linearGradient>
<linearGradient id="paint14_linear_22_892" x1="100.499" y1="201.644" x2="85.2587" y2="202.865" gradientUnits="userSpaceOnUse">
<stop stop-color="#311944"/>
<stop offset="1" stop-color="#893976"/>
</linearGradient>
<linearGradient id="paint15_linear_22_892" x1="92.0693" y1="204.513" x2="68.9336" y2="206.366" gradientUnits="userSpaceOnUse">
<stop stop-color="#311944"/>
<stop offset="1" stop-color="#893976"/>
</linearGradient>
<linearGradient id="paint16_linear_22_892" x1="110.343" y1="128.1" x2="93.204" y2="238.098" gradientUnits="userSpaceOnUse">
<stop stop-color="#AA80F9"/>
<stop offset="0.9964" stop-color="#6165D7"/>
</linearGradient>
<linearGradient id="paint17_linear_22_892" x1="73.9391" y1="248.843" x2="65.6492" y2="359.861" gradientUnits="userSpaceOnUse">
<stop stop-color="#AA80F9"/>
<stop offset="0.9964" stop-color="#6165D7"/>
</linearGradient>
<linearGradient id="paint18_linear_22_892" x1="45.7929" y1="210.99" x2="91.5307" y2="132.698" gradientUnits="userSpaceOnUse">
<stop stop-color="#AA80F9"/>
<stop offset="0.9964" stop-color="#6165D7"/>
</linearGradient>
<linearGradient id="paint19_linear_22_892" x1="61.9899" y1="156.839" x2="71.635" y2="169.859" gradientUnits="userSpaceOnUse">
<stop stop-color="#FFC444"/>
<stop offset="0.9964" stop-color="#F36F56"/>
</linearGradient>
<linearGradient id="paint20_linear_22_892" x1="53.7124" y1="247.333" x2="45.4225" y2="358.351" gradientUnits="userSpaceOnUse">
<stop stop-color="#AA80F9"/>
<stop offset="0.9964" stop-color="#6165D7"/>
</linearGradient>
<linearGradient id="paint21_linear_22_892" x1="89.3561" y1="124.378" x2="80.0714" y2="112.833" gradientUnits="userSpaceOnUse">
<stop stop-color="#FFC444"/>
<stop offset="0.9964" stop-color="#F36F56"/>
</linearGradient>
<linearGradient id="paint22_linear_22_892" x1="82.302" y1="120.135" x2="87.2252" y2="103.951" gradientUnits="userSpaceOnUse">
<stop stop-color="#444B8C"/>
<stop offset="0.9964" stop-color="#3E4177"/>
</linearGradient>
<linearGradient id="paint23_linear_22_892" x1="94.8416" y1="114.487" x2="81.0081" y2="108.334" gradientUnits="userSpaceOnUse">
<stop stop-color="#FFC444"/>
<stop offset="0.9964" stop-color="#F36F56"/>
</linearGradient>
<linearGradient id="paint24_linear_22_892" x1="120.396" y1="133.597" x2="245.093" y2="133.597" gradientUnits="userSpaceOnUse">
<stop stop-color="#311944"/>
<stop offset="1" stop-color="#893976"/>
</linearGradient>
<linearGradient id="paint25_linear_22_892" x1="196.208" y1="379.019" x2="181.319" y2="121.299" gradientUnits="userSpaceOnUse">
<stop offset="0.003597" stop-color="#F36F56"/>
<stop offset="1" stop-color="#FFC444"/>
</linearGradient>
<linearGradient id="paint26_linear_22_892" x1="137.217" y1="120.027" x2="226.935" y2="120.027" gradientUnits="userSpaceOnUse">
<stop offset="0.003597" stop-color="#F36F56"/>
<stop offset="1" stop-color="#FFC444"/>
</linearGradient>
<linearGradient id="paint27_linear_22_892" x1="134.046" y1="143.581" x2="223.694" y2="143.581" gradientUnits="userSpaceOnUse">
<stop offset="0.003597" stop-color="#F36F56"/>
<stop offset="1" stop-color="#FFC444"/>
</linearGradient>
<linearGradient id="paint28_linear_22_892" x1="178.11" y1="152.277" x2="158.043" y2="279.446" gradientUnits="userSpaceOnUse">
<stop offset="0.003597" stop-color="#F36F56"/>
<stop offset="1" stop-color="#FFC444"/>
</linearGradient>
<linearGradient id="paint29_linear_22_892" x1="184.703" y1="19.8678" x2="188.988" y2="147.402" gradientUnits="userSpaceOnUse">
<stop offset="0.003597" stop-color="#F36F56"/>
<stop offset="1" stop-color="#FFC444"/>
</linearGradient>
</defs>
</svg>
