<svg width="25" height="24" viewBox="0 0 25 24" fill="none" xmlns="http://www.w3.org/2000/svg">
<path fill-rule="evenodd" clip-rule="evenodd" d="M4.95274 12C4.95274 7.99594 8.33392 4.75 12.5048 4.75C16.6757 4.75 20.0569 7.99594 20.0569 12C20.0569 12.0337 20.0593 12.0668 20.0637 12.0993C20.0603 12.1307 20.0591 12.1626 20.0598 12.1949C20.0662 12.4495 20.0323 12.8444 19.9452 13.2219C19.8503 13.6331 19.7267 13.8694 19.6544 13.9423C19.3399 14.2591 18.9072 14.4429 18.4516 14.4535C17.9958 14.464 17.5544 14.3003 17.2244 13.9984C17.0086 13.801 16.9468 13.5113 16.9299 12.8381L16.8096 8.04002C16.7993 7.62592 16.4411 7.29831 16.0098 7.30828C15.5784 7.31825 15.2372 7.66201 15.2476 8.07611L15.2649 8.76875C14.5137 8.17672 13.5525 7.82135 12.5048 7.82135C10.1009 7.82135 8.15213 9.69216 8.15213 11.9999C8.15213 14.3077 10.1009 16.1785 12.5048 16.1785C13.8323 16.1785 15.021 15.608 15.8194 14.7084C15.909 14.8392 16.0167 14.9655 16.1465 15.0843C16.7765 15.6606 17.6192 15.9731 18.4891 15.953C19.3591 15.9329 20.1851 15.5819 20.7855 14.9771C21.1706 14.5892 21.3655 14.0022 21.4707 13.5463C21.5836 13.0566 21.6315 12.5406 21.6219 12.1588C21.6211 12.1313 21.6189 12.1042 21.6153 12.0775C21.618 12.052 21.6194 12.0262 21.6194 12C21.6194 7.16751 17.5386 3.25 12.5048 3.25C7.47098 3.25 3.39024 7.16751 3.39024 12C3.39024 16.8325 7.47098 20.75 12.5048 20.75C14.633 20.75 16.5927 20.0489 18.1441 18.8747C18.4828 18.6182 18.5409 18.1466 18.2737 17.8213C18.0067 17.4961 17.5154 17.4403 17.1766 17.6968C15.891 18.6698 14.2696 19.25 12.5048 19.25C8.33392 19.25 4.95274 16.0041 4.95274 12ZM12.5048 9.32135C10.9638 9.32135 9.71463 10.5206 9.71463 11.9999C9.71463 13.4793 10.9638 14.6785 12.5048 14.6785C14.0458 14.6785 15.295 13.4793 15.295 11.9999C15.295 10.5206 14.0458 9.32135 12.5048 9.32135Z" fill="#0094DE"/>
</svg>
