<svg width="34" height="34" viewBox="0 0 34 34" fill="none" xmlns="http://www.w3.org/2000/svg">
<path d="M23.4407 31.5176H22.2781V26.4285C22.2781 26.1477 22.4569 25.8989 22.723 25.8094C24.8131 25.1067 26.1452 23.007 25.8906 20.8167L25.4357 16.9057C25.355 16.2119 24.7674 15.6887 24.069 15.6887H19.9917V15.2047C19.9917 13.5316 19.0115 11.9945 17.4945 11.2887C17.2778 11.1879 17.1377 10.9683 17.1377 10.7292V4.9235C17.4703 4.78431 17.7045 4.45547 17.7045 4.07297V3.08199C17.7045 2.69949 17.4703 2.37077 17.1377 2.23145V1.79151C17.1377 0.80365 16.3341 0 15.3462 0H12.7238C11.736 0 10.9323 0.80365 10.9323 1.79151V2.23139C10.5998 2.37057 10.3655 2.69942 10.3655 3.08192V4.07284C10.3655 4.45534 10.5998 4.78418 10.9323 4.92337V10.7291C10.9323 10.9681 10.7923 11.1877 10.5755 11.2886C9.05859 11.9944 8.07837 13.5315 8.07837 15.2046V32.0324C8.07837 33.1174 8.96098 33.9999 10.0459 33.9999H23.4406C24.125 33.9999 24.6818 33.4431 24.6818 32.7587C24.6819 32.0743 24.1251 31.5176 23.4407 31.5176ZM24.8344 20.9396C25.031 22.6294 24.0063 24.2493 22.3968 24.7971C21.4986 25.0353 21.044 25.1162 20.6033 25.1162C20.1627 25.1162 19.7079 25.0354 18.8095 24.797C17.2001 24.2492 16.1756 22.6293 16.3722 20.9396L16.4635 20.1543H24.7431L24.8344 20.9396ZM19.9658 26.1353C20.1837 26.1642 20.3923 26.1794 20.6033 26.1794C20.8143 26.1794 21.0228 26.1642 21.2406 26.1353C21.2241 26.231 21.2148 26.3289 21.2148 26.4285V31.5176H19.9916V26.4285C19.9917 26.3289 19.9824 26.231 19.9658 26.1353ZM15.2932 21.6307H12.004C11.7105 21.6307 11.4724 21.8687 11.4724 22.1623C11.4724 22.4559 11.7104 22.694 12.004 22.694H15.4834C15.7958 23.7343 16.4624 24.6491 17.372 25.2608L17.3726 25.5121L10.6987 25.5133L10.6976 20.408H15.3637L15.3161 20.8169C15.2842 21.0903 15.2772 21.3625 15.2932 21.6307ZM24.069 16.7519C24.2277 16.7519 24.3613 16.8709 24.3795 17.0286L24.6194 19.0911H16.5871L16.8269 17.0286C16.8453 16.8709 16.9788 16.7519 17.1376 16.7519H24.069ZM11.9955 1.79151C11.9955 1.38989 12.3223 1.06323 12.7238 1.06323H15.3462C15.7478 1.06323 16.0745 1.38995 16.0745 1.79151V2.16047H11.9956V1.79151H11.9955ZM11.4288 3.2237H16.6412V3.93126H11.4288V3.2237ZM16.0746 4.99449V5.68306H11.9956V4.99449H16.0746ZM9.14167 15.2046C9.14167 13.9434 9.88057 12.7846 11.024 12.2526C11.6142 11.978 11.9955 11.3799 11.9955 10.729V6.74629H16.0745V10.7291C16.0745 11.38 16.4559 11.9781 17.046 12.2526C18.1895 12.7846 18.9284 13.9433 18.9284 15.2045V15.6886H17.1376C16.7139 15.6886 16.3319 15.8819 16.0781 16.1881H9.14167V15.2046ZM16.5389 32.9368H10.0459C9.54728 32.9368 9.14167 32.5312 9.14167 32.0326V17.2515H15.7306L15.4872 19.3447H10.6975C10.1119 19.3447 9.6354 19.8212 9.6354 20.4068V25.5132C9.6354 26.0988 10.1119 26.5753 10.6975 26.5753H17.3726C17.8662 26.5753 18.2811 26.2363 18.3996 25.7792C18.4277 25.7892 18.4552 25.7999 18.4835 25.8094C18.7497 25.899 18.9284 26.1477 18.9284 26.4285V31.5177H17.7659C17.0815 31.5177 16.5246 32.0745 16.5246 32.7589C16.5247 32.8194 16.5304 32.8785 16.5389 32.9368ZM23.4407 32.9368H17.7658C17.6677 32.9368 17.5878 32.857 17.5878 32.7589C17.5878 32.6608 17.6677 32.5809 17.7658 32.5809H23.4407C23.5388 32.5809 23.6187 32.6608 23.6187 32.7589C23.6187 32.857 23.5388 32.9368 23.4407 32.9368Z" fill="#808080"/>
<path d="M15.406 27.5495H12.664C12.2777 27.5495 11.9634 27.8638 11.9634 28.2501V29.4837C11.9634 29.87 12.2777 30.1843 12.664 30.1843H15.406C15.7923 30.1843 16.1066 29.87 16.1066 29.4837V28.2501C16.1066 27.8638 15.7923 27.5495 15.406 27.5495ZM15.0434 29.1211H13.0266V28.6128H15.0434V29.1211Z" fill="#808080"/>
<path d="M12.9831 24.2894H15.0872C15.3807 24.2894 15.6188 24.0514 15.6188 23.7578C15.6188 23.4642 15.3808 23.2261 15.0872 23.2261H12.9831C12.6895 23.2261 12.4514 23.4641 12.4514 23.7578C12.4515 24.0513 12.6895 24.2894 12.9831 24.2894Z" fill="#808080"/>
</svg>
