<svg width="24" height="27" viewBox="0 0 24 27" fill="none" xmlns="http://www.w3.org/2000/svg">
<path d="M21.8333 16.9722V4.47222C21.8333 3.32163 20.9006 2.38889 19.75 2.38889H4.47222C3.32163 2.38889 2.38889 3.32163 2.38889 4.47222V22.5278C2.38889 23.6784 3.32163 24.6111 4.47222 24.6111H14.1944C15.345 24.6111 16.2778 23.6784 16.2778 22.5278C16.2778 20.6101 17.8323 19.0556 19.75 19.0556C20.9006 19.0556 21.8333 18.1228 21.8333 16.9722ZM21.1409 20.1546C20.715 20.341 20.2446 20.4444 19.75 20.4444C18.5994 20.4444 17.6667 21.3772 17.6667 22.5278C17.6667 23.0224 17.5633 23.4928 17.3769 23.9187C19.038 23.1564 20.3786 21.8158 21.1409 20.1546ZM1 4.47222C1 2.55457 2.55457 1 4.47222 1H19.75C21.6677 1 23.2222 2.55457 23.2222 4.47222V16.9722C23.2222 21.9581 19.1803 26 14.1944 26H4.47222C2.55457 26 1 24.4454 1 22.5278V4.47222ZM7.25 9.33333C6.86647 9.33333 6.55556 9.02242 6.55556 8.63889C6.55556 8.25536 6.86647 7.94444 7.25 7.94444H16.9722C17.3558 7.94444 17.6667 8.25536 17.6667 8.63889C17.6667 9.02242 17.3558 9.33333 16.9722 9.33333H7.25ZM7.25 13.5C6.86647 13.5 6.55556 13.1891 6.55556 12.8056C6.55556 12.422 6.86647 12.1111 7.25 12.1111H16.9722C17.3558 12.1111 17.6667 12.422 17.6667 12.8056C17.6667 13.1891 17.3558 13.5 16.9722 13.5H7.25ZM7.25 17.6667C6.86647 17.6667 6.55556 17.3558 6.55556 16.9722C6.55556 16.5887 6.86647 16.2778 7.25 16.2778H14.1944C14.578 16.2778 14.8889 16.5887 14.8889 16.9722C14.8889 17.3558 14.578 17.6667 14.1944 17.6667H7.25Z" fill="#9CB6C3" stroke="#9CB6C3" stroke-width="0.2"/>
</svg>
