<svg width="17" height="16" viewBox="0 0 17 16" fill="none" xmlns="http://www.w3.org/2000/svg">
<path d="M15.4247 11.7277L13.7702 10.3933C13.2098 9.93966 12.4092 9.91271 11.8221 10.34L10.2476 11.4875C10.0341 11.6476 9.74081 11.6209 9.55374 11.4341L6.96515 9.0857L4.59006 6.47043C4.40326 6.28363 4.37657 5.99008 4.53669 5.77658L5.68421 4.20209C6.11119 3.61498 6.0845 2.81439 5.63083 2.25398L4.29651 0.599421C3.70941 -0.147799 2.58858 -0.201172 1.92142 0.465988L0.480356 1.90705C0.160119 2.22729 0 2.68096 0 3.10794C0.186805 6.49712 1.73462 9.72617 4.00296 11.9945C6.27131 14.2629 9.47367 15.8107 12.8895 15.9975C13.3432 16.0242 13.7702 15.8371 14.0904 15.5169L15.5315 14.0761C16.252 13.4356 16.172 12.3148 15.4247 11.7277Z" fill="#0094DE"/>
</svg>
