<svg width="23" height="20" viewBox="0 0 23 20" fill="none" xmlns="http://www.w3.org/2000/svg">
<path d="M3.88813 9.06249H21.3125C21.5611 9.06249 21.7996 9.16127 21.9754 9.33708C22.1512 9.5129 22.25 9.75135 22.25 9.99999C22.25 10.2486 22.1512 10.4871 21.9754 10.6629C21.7996 10.8387 21.5611 10.9375 21.3125 10.9375H3.88813L10.7263 17.7737C10.9023 17.9498 11.0012 18.1885 11.0012 18.4375C11.0012 18.6864 10.9023 18.9252 10.7263 19.1012C10.5502 19.2773 10.3115 19.3762 10.0625 19.3762C9.81355 19.3762 9.57479 19.2773 9.39875 19.1012L0.96125 10.6637C0.873945 10.5767 0.804678 10.4732 0.757416 10.3593C0.710154 10.2454 0.685825 10.1233 0.685825 9.99999C0.685825 9.87668 0.710154 9.75458 0.757416 9.64068C0.804678 9.52678 0.873945 9.42333 0.96125 9.33624L9.39875 0.898744C9.57479 0.722706 9.81355 0.62381 10.0625 0.62381C10.3115 0.62381 10.5502 0.722706 10.7263 0.898744C10.9023 1.07478 11.0012 1.31354 11.0012 1.56249C11.0012 1.81145 10.9023 2.05021 10.7263 2.22624L3.88813 9.06249Z" fill="#5E6C84"/>
</svg>
