<svg width="20" height="20" viewBox="0 0 20 20" fill="none" xmlns="http://www.w3.org/2000/svg">
<g clip-path="url(#clip0_45_1314)">
<path d="M18.75 1.8727L13.7456 1.87272V0.62709C13.7456 0.281778 13.4659 0.00209045 13.1206 0.00209045C12.7753 0.00209045 12.4956 0.281778 12.4956 0.62709V1.8724H7.49563V0.62709C7.49563 0.281778 7.21594 0.00209045 6.87063 0.00209045C6.52531 0.00209045 6.24563 0.281778 6.24563 0.62709V1.8724H1.25C0.559687 1.8724 0 2.43209 0 3.1224V18.7474C0 19.4377 0.559687 19.9974 1.25 19.9974H18.75C19.4403 19.9974 20 19.4377 20 18.7474V3.1224C20 2.43238 19.4403 1.8727 18.75 1.8727ZM18.75 18.7474H1.25V3.1224H6.24563V3.75209C6.24563 4.09738 6.52531 4.37709 6.87063 4.37709C7.21594 4.37709 7.49563 4.09738 7.49563 3.75209V3.12272H12.4956V3.7524C12.4956 4.09772 12.7753 4.3774 13.1206 4.3774C13.4659 4.3774 13.7456 4.09772 13.7456 3.7524V3.12272H18.75V18.7474ZM14.375 9.9977H15.625C15.97 9.9977 16.25 9.7177 16.25 9.3727V8.1227C16.25 7.7777 15.97 7.4977 15.625 7.4977H14.375C14.03 7.4977 13.75 7.7777 13.75 8.1227V9.3727C13.75 9.7177 14.03 9.9977 14.375 9.9977ZM14.375 14.9974H15.625C15.97 14.9974 16.25 14.7177 16.25 14.3724V13.1224C16.25 12.7774 15.97 12.4974 15.625 12.4974H14.375C14.03 12.4974 13.75 12.7774 13.75 13.1224V14.3724C13.75 14.718 14.03 14.9974 14.375 14.9974ZM10.625 12.4974H9.375C9.03 12.4974 8.75 12.7774 8.75 13.1224V14.3724C8.75 14.7177 9.03 14.9974 9.375 14.9974H10.625C10.97 14.9974 11.25 14.7177 11.25 14.3724V13.1224C11.25 12.7777 10.97 12.4974 10.625 12.4974ZM10.625 7.4977H9.375C9.03 7.4977 8.75 7.7777 8.75 8.1227V9.3727C8.75 9.7177 9.03 9.9977 9.375 9.9977H10.625C10.97 9.9977 11.25 9.7177 11.25 9.3727V8.1227C11.25 7.77738 10.97 7.4977 10.625 7.4977ZM5.625 7.4977H4.375C4.03 7.4977 3.75 7.7777 3.75 8.1227V9.3727C3.75 9.7177 4.03 9.9977 4.375 9.9977H5.625C5.97 9.9977 6.25 9.7177 6.25 9.3727V8.1227C6.25 7.77738 5.97 7.4977 5.625 7.4977ZM5.625 12.4974H4.375C4.03 12.4974 3.75 12.7774 3.75 13.1224V14.3724C3.75 14.7177 4.03 14.9974 4.375 14.9974H5.625C5.97 14.9974 6.25 14.7177 6.25 14.3724V13.1224C6.25 12.7777 5.97 12.4974 5.625 12.4974Z" fill="#808080"/>
</g>
<defs>
<clipPath id="clip0_45_1314">
<rect width="20" height="20" fill="white"/>
</clipPath>
</defs>
</svg>
