<svg width="50" height="50" viewBox="0 0 50 50" fill="none" xmlns="http://www.w3.org/2000/svg">
<circle cx="25" cy="25" r="25" fill="white"/>
<g clip-path="url(#clip0_132_82)">
<path d="M34.8021 21.8279C34.6774 21.7034 34.5085 21.6335 34.3323 21.6335L28.3648 21.6343L28.3657 15.6643C28.3657 15.4881 28.2958 15.3191 28.1712 15.1945C28.0466 15.0699 27.8776 15 27.7014 15L22.3015 15.0008C21.9349 15.0009 21.6376 15.2981 21.6376 15.6648L21.6365 21.6353L15.6684 21.6362C15.3017 21.6362 15.0044 21.9335 15.0044 22.3002L15.0034 27.7024C15.0034 27.8787 15.0733 28.0475 15.198 28.1722C15.3225 28.2968 15.4915 28.3667 15.6677 28.3667L21.6355 28.3659L21.6345 34.3358C21.6345 34.512 21.7046 34.6809 21.8291 34.8056C21.9537 34.9302 22.1227 35.0002 22.2989 35.0001L27.6987 34.999C28.0654 34.999 28.3626 34.7017 28.3627 34.335L28.3636 28.3648L34.3319 28.3637C34.6986 28.3637 34.9958 28.0664 34.9959 27.6997L34.9967 22.2977C34.9966 22.1215 34.9267 21.9526 34.8021 21.8279Z" fill="#0094DE"/>
</g>
<defs>
<clipPath id="clip0_132_82">
<rect width="20" height="20" fill="white" transform="translate(15 15)"/>
</clipPath>
</defs>
</svg>
