<svg width="50" height="50" viewBox="0 0 50 50" fill="none" xmlns="http://www.w3.org/2000/svg">
<path d="M25 24.9414C11.8066 24.9414 1.07422 34.8047 1.07422 46.9336C1.07422 48.0371 1.96289 48.9258 3.06641 48.9258C4.16992 48.9258 5.05859 48.0371 5.05859 46.9336C5.05859 37.0117 14.0039 28.9355 25 28.9355C35.9961 28.9355 44.9414 37.0117 44.9414 46.9336C44.9414 48.0371 45.8301 48.9258 46.9336 48.9258C48.0371 48.9258 48.9258 48.0371 48.9258 46.9336C48.9258 34.8047 38.1934 24.9414 25 24.9414V24.9414Z" fill="white"/>
<path d="M25 23.5059C31.416 23.5059 36.6406 18.4766 36.6406 12.2949C36.6406 6.10352 31.416 1.07422 25 1.07422C18.5742 1.07422 13.3496 6.10352 13.3496 12.2852C13.3496 18.4668 18.5742 23.5059 25 23.5059ZM25 5.05859C29.2188 5.05859 32.6563 8.30078 32.6563 12.2852C32.6563 16.2695 29.2188 19.5117 25 19.5117C20.7813 19.5117 17.3438 16.2695 17.3438 12.2852C17.3438 8.30078 20.7813 5.05859 25 5.05859Z" fill="white"/>
<path d="M36.8555 38.2715H32.4609V34.0039C32.4609 32.9004 31.5723 32.0117 30.4688 32.0117C29.3652 32.0117 28.4766 32.9004 28.4766 34.0039V38.2715H24.082C22.9785 38.2715 22.0898 39.1602 22.0898 40.2637C22.0898 41.3672 22.9785 42.2559 24.082 42.2559H28.4766V46.5234C28.4766 47.627 29.3652 48.5156 30.4688 48.5156C31.5723 48.5156 32.4609 47.627 32.4609 46.5234V42.2559H36.8555C37.959 42.2559 38.8477 41.3672 38.8477 40.2637C38.8477 39.1602 37.9492 38.2715 36.8555 38.2715Z" fill="white"/>
</svg>
