<svg width="25" height="19" viewBox="0 0 25 19" fill="none" xmlns="http://www.w3.org/2000/svg">
<path fill-rule="evenodd" clip-rule="evenodd" d="M20.4755 7.82433C17.8149 5.72472 15.0571 4.61504 12.4997 4.61504C9.94268 4.61504 7.18486 5.72472 4.52467 7.82433C2.53111 9.39793 1.30525 10.9497 1.25396 11.0153C1.14256 11.1573 1.14256 11.3571 1.25396 11.4991C1.30525 11.5646 2.53111 13.1165 4.52467 14.69C7.18486 16.7896 9.94268 17.8993 12.4997 17.8993C15.0571 17.8993 17.8149 16.7896 20.4755 14.69C22.469 13.1165 23.6949 11.5646 23.7462 11.4991C23.8576 11.3571 23.8576 11.1573 23.7462 11.0153C23.6949 10.9497 22.469 9.39793 20.4755 7.82433ZM12.4997 17.115C7.39541 17.115 3.04322 12.3909 2.0724 11.2572C3.04229 10.1227 7.38932 5.39933 12.4997 5.39933C17.6047 5.39933 21.9569 10.1235 22.9277 11.2572C21.9578 12.3917 17.6106 17.115 12.4997 17.115Z" fill="#808080" stroke="#808080" stroke-width="0.5"/>
<path fill-rule="evenodd" clip-rule="evenodd" d="M24.9148 7.4982C24.7389 7.27769 20.5279 2.08132 13.7272 1.19671C7.7681 0.424215 0.502432 4.55972 0.195909 4.73636C0.00919019 4.84394 -0.0549114 5.08273 0.0526668 5.26964C0.16044 5.45582 0.399229 5.51988 0.585557 5.41308C0.658448 5.37113 7.93095 1.23254 13.6265 1.97109C20.1061 2.81375 24.2632 7.93343 24.3044 7.98496C24.3817 8.08148 24.4951 8.13183 24.6098 8.13183C24.6952 8.13183 24.7811 8.10398 24.853 8.04675C25.0214 7.91211 25.049 7.66679 24.9148 7.4982Z" fill="#808080" stroke="#808080" stroke-width="0.5"/>
<path fill-rule="evenodd" clip-rule="evenodd" d="M12.89 6.55788C10.2989 6.55788 8.19092 8.66585 8.19092 11.2572C8.19092 13.8485 10.2989 15.9565 12.89 15.9565C15.4815 15.9565 17.5897 13.8485 17.5897 11.2572C17.5897 8.66585 15.4815 6.55788 12.89 6.55788ZM12.89 15.1516C10.7426 15.1516 8.99541 13.4045 8.99541 11.2572C8.99541 9.10992 10.7426 7.36277 12.89 7.36277C15.0379 7.36277 16.7852 9.10992 16.7852 11.2572C16.7852 13.4045 15.0379 15.1516 12.89 15.1516Z" fill="#808080" stroke="#808080" stroke-width="0.5"/>
<path d="M13.8677 11.0619C14.407 11.0619 14.8442 10.6247 14.8442 10.0853C14.8442 9.54597 14.407 9.10875 13.8677 9.10875C13.3283 9.10875 12.8911 9.54597 12.8911 10.0853C12.8911 10.6247 13.3283 11.0619 13.8677 11.0619Z" fill="#808080" stroke="#808080" stroke-width="0.5"/>
</svg>
