<svg width="25" height="25" viewBox="0 0 25 25" fill="none" xmlns="http://www.w3.org/2000/svg">
<g clip-path="url(#clip0_91_2010)">
<path d="M7.6459 8.66875C7.72715 8.75 7.83381 8.79083 7.94048 8.79083C8.04715 8.79083 8.15381 8.75 8.23506 8.66875C8.39798 8.50583 8.39798 8.2425 8.23506 8.07958C7.81215 7.65625 7.81215 6.96792 8.23506 6.54458C8.59756 6.18208 8.79757 5.70042 8.79757 5.18792C8.79757 4.67542 8.59798 4.19375 8.23506 3.83125C8.07215 3.66833 7.80882 3.66833 7.6459 3.83125C7.48298 3.99416 7.48298 4.2575 7.6459 4.42042C7.8509 4.62542 7.96423 4.89792 7.96423 5.18792C7.96423 5.47792 7.85132 5.75042 7.6459 5.95542C6.89798 6.70333 6.89798 7.92083 7.6459 8.66875Z" fill="#808080" stroke="#808080" stroke-width="0.5"/>
<path d="M16.8124 8.66875C16.8937 8.75 17.0003 8.79083 17.107 8.79083C17.2137 8.79083 17.3203 8.75 17.4016 8.66875C17.5645 8.50583 17.5645 8.2425 17.4016 8.07958C16.9787 7.65625 16.9787 6.96792 17.4016 6.54458C17.7641 6.18208 17.9641 5.70042 17.9641 5.18792C17.9641 4.67542 17.7645 4.19375 17.4016 3.83125C17.2387 3.66833 16.9753 3.66833 16.8124 3.83125C16.6495 3.99416 16.6495 4.2575 16.8124 4.42042C17.0174 4.62542 17.1307 4.89792 17.1307 5.18792C17.1307 5.47792 17.0178 5.75042 16.8124 5.95542C16.0645 6.70333 16.0645 7.92083 16.8124 8.66875Z" fill="#808080" stroke="#808080" stroke-width="0.5"/>
<path d="M12.2292 6.16875C12.3104 6.25 12.4171 6.29083 12.5237 6.29083C12.6304 6.29083 12.7371 6.25 12.8183 6.16875C12.9812 6.00583 12.9812 5.7425 12.8183 5.57958C12.3954 5.15625 12.3954 4.46791 12.8183 4.04458C13.1808 3.68208 13.3808 3.20042 13.3808 2.68792C13.3808 2.17542 13.1812 1.69375 12.8183 1.33125C12.6554 1.16833 12.3921 1.16833 12.2292 1.33125C12.0662 1.49416 12.0662 1.7575 12.2292 1.92041C12.4342 2.12541 12.5475 2.39792 12.5475 2.68792C12.5475 2.97792 12.4346 3.25042 12.2292 3.45542C11.4812 4.20333 11.4812 5.42083 12.2292 6.16875Z" fill="#808080" stroke="#808080" stroke-width="0.5"/>
<path d="M10.5605 11.9208C10.5909 11.9208 10.6218 11.9175 10.6526 11.9108C11.2518 11.7758 11.8714 11.7075 12.4947 11.7075C12.4964 11.7075 12.498 11.7075 12.5001 11.7075C12.7301 11.7075 12.9168 11.5212 12.9168 11.2912C12.9168 11.0608 12.7305 10.8742 12.5001 10.8742C12.4984 10.8742 12.4964 10.8742 12.4943 10.8742C11.8097 10.8742 11.1284 10.9496 10.4693 11.0979C10.2447 11.1483 10.1039 11.3712 10.1543 11.5958C10.1984 11.7896 10.3701 11.9208 10.5605 11.9208Z" fill="#808080" stroke="#808080" stroke-width="0.5"/>
<path d="M4.09219 18.7837C4.11761 18.7887 4.14261 18.7908 4.16719 18.7908C4.36469 18.7908 4.54011 18.65 4.57678 18.4492C5.00969 16.075 6.44053 13.9625 8.40428 12.7992C8.60219 12.6821 8.66761 12.4262 8.55053 12.2283C8.43303 12.0304 8.17761 11.965 7.97969 12.0821C5.81136 13.3667 4.23303 15.6908 3.75719 18.2992C3.71553 18.5258 3.86553 18.7425 4.09219 18.7837Z" fill="#808080" stroke="#808080" stroke-width="0.5"/>
<path d="M23.1767 18.2171C22.4217 13.7833 18.9654 10.2604 14.5654 9.40708C14.5725 9.34042 14.5833 9.27333 14.5833 9.20708C14.5833 8.05833 13.6487 7.12375 12.5 7.12375C11.3512 7.12375 10.4167 8.05833 10.4167 9.20708C10.4167 9.27333 10.4271 9.34042 10.4346 9.40708C6.03458 10.2604 2.57833 13.7833 1.82333 18.2171C0.9525 18.71 0 19.4354 0 20.2492C0 22.3679 6.46333 23.7908 12.5 23.7908C18.5367 23.7908 25 22.3679 25 20.2492C25 19.4354 24.0475 18.71 23.1767 18.2171ZM11.2525 9.27917C11.2508 9.255 11.25 9.23083 11.25 9.2075C11.25 8.51833 11.8108 7.9575 12.5 7.9575C13.1892 7.9575 13.75 8.51833 13.75 9.2075C13.75 9.23125 13.7492 9.255 13.7475 9.27917C13.7279 9.27708 13.7083 9.27625 13.6892 9.27417C13.5458 9.25833 13.4017 9.24708 13.2567 9.23708C13.2033 9.23333 13.1504 9.22792 13.0971 9.225C12.8996 9.21417 12.7008 9.20792 12.5004 9.20792C12.3 9.20792 12.1012 9.21417 11.9037 9.225C11.8504 9.22792 11.7975 9.23333 11.7442 9.23708C11.5992 9.24708 11.455 9.25875 11.3117 9.27417C11.2917 9.27625 11.2721 9.27667 11.2525 9.27917ZM10.9996 10.1533C11.2233 10.12 11.4483 10.0958 11.6742 10.0775C11.7204 10.0737 11.7667 10.0704 11.8129 10.0671C12.2704 10.0362 12.73 10.0362 13.1875 10.0671C13.2337 10.0704 13.28 10.0737 13.3263 10.0775C13.5521 10.0958 13.7771 10.12 14.0008 10.1533C18.3417 10.8096 21.7746 14.2667 22.3975 18.6183C22.4167 18.7521 22.4321 18.8862 22.4458 19.0204C22.4504 19.0667 22.4567 19.1125 22.4608 19.1587C22.4771 19.3433 22.4892 19.5279 22.495 19.7125C15.9492 21.2296 9.05167 21.2296 2.50583 19.7125C2.51208 19.5279 2.52375 19.3433 2.54 19.1587C2.54417 19.1125 2.55 19.0667 2.555 19.0204C2.56875 18.8858 2.58417 18.7517 2.60333 18.6183C3.22583 14.2667 6.65875 10.8092 10.9996 10.1533ZM12.5 22.9575C5.37667 22.9575 0.833333 21.1787 0.833333 20.2492C0.833333 20.0896 1.03083 19.7379 1.69333 19.2792C1.69167 19.3029 1.6925 19.3262 1.69083 19.35C1.67667 19.5783 1.66667 19.8083 1.66667 20.0408V20.3692L1.98625 20.4462C5.42542 21.2712 8.96292 21.6846 12.5 21.6846C16.0371 21.6846 19.5746 21.2717 23.0138 20.4462L23.3333 20.3692V20.0408C23.3333 19.8083 23.3233 19.5787 23.3092 19.35C23.3075 19.3262 23.3083 19.3029 23.3067 19.2792C23.9692 19.7379 24.1667 20.0896 24.1667 20.2492C24.1667 21.1787 19.6233 22.9575 12.5 22.9575Z" fill="#808080" stroke="#808080" stroke-width="0.5"/>
</g>
<defs>
<clipPath id="clip0_91_2010">
<rect width="25" height="25" fill="white"/>
</clipPath>
</defs>
</svg>
