<svg width="22" height="21" viewBox="0 0 22 21" fill="none" xmlns="http://www.w3.org/2000/svg">
<path d="M20.9735 8.10103C20.9385 8.01671 20.8713 7.94954 20.7871 7.91455C20.7449 7.89714 20.7002 7.88792 20.6553 7.88792H17.2071C17.0167 7.88792 16.8623 8.04231 16.8623 8.23272C16.8623 8.42312 17.0167 8.57751 17.2071 8.57751H19.8229L17.1356 11.2648C17.1217 11.2787 17.1153 11.2964 17.1043 11.312C16.2357 10.4749 15.0576 9.95686 13.7588 9.95686C11.0968 9.95686 8.93115 12.1225 8.93115 14.7845C8.93115 17.4465 11.0968 19.6121 13.7588 19.6121C16.4208 19.6121 18.5864 17.4465 18.5864 14.7845C18.5864 13.6589 18.196 12.6245 17.5478 11.8025C17.574 11.7876 17.601 11.7747 17.6233 11.7524L20.3105 9.06526V11.6811C20.3105 11.8715 20.4648 12.0259 20.6552 12.0259C20.8457 12.0259 21 11.8715 21 11.6811V8.2328C21 8.18783 20.9909 8.14311 20.9735 8.10103ZM17.8966 14.7845C17.8966 17.0661 16.0403 18.9224 13.7587 18.9224C11.4771 18.9224 9.62074 17.0661 9.62074 14.7845C9.62074 12.5029 11.4771 10.6465 13.7587 10.6465C16.0403 10.6465 17.8966 12.5029 17.8966 14.7845Z" fill="#808080" stroke="#0094DE" stroke-width="0.8"/>
<path d="M7.3984 12.7155H6.17242V10.2842C8.67345 10.1062 10.6552 8.01969 10.6552 5.47411C10.6552 2.81211 8.48954 0.646484 5.82754 0.646484C3.16554 0.646484 1 2.8122 1 5.47411C1 8.01969 2.9818 10.1062 5.48275 10.2842V12.7155H4.27588C4.08548 12.7155 3.93109 12.8699 3.93109 13.0603C3.93109 13.2507 4.08548 13.4051 4.27588 13.4051H5.48275V14.4396C5.48275 14.63 5.63714 14.7844 5.82754 14.7844C6.01794 14.7844 6.17233 14.63 6.17233 14.4396V13.4051H7.39823C7.58863 13.4051 7.74302 13.2507 7.74302 13.0603C7.74302 12.8699 7.5888 12.7155 7.3984 12.7155ZM5.82763 9.61206C3.54601 9.61206 1.68967 7.75572 1.68967 5.47411C1.68967 3.1925 3.54601 1.33616 5.82763 1.33616C8.10924 1.33616 9.96558 3.1925 9.96558 5.47411C9.96558 7.75572 8.10924 9.61206 5.82763 9.61206Z" fill="#808080" stroke="#0094DE" stroke-width="0.8"/>
</svg>
