<svg width="50" height="50" viewBox="0 0 50 50" fill="none" xmlns="http://www.w3.org/2000/svg">
<circle cx="25" cy="25" r="25" fill="#0094DE"/>
<g clip-path="url(#clip0_132_184)">
<path d="M34.6487 22.8616L32.1463 20.822V17.5602C32.1463 17.1929 31.8474 16.8941 31.4801 16.8941H29.9055C29.5382 16.8941 29.2393 17.1929 29.2393 17.5602V18.4527L25.8955 15.7275C25.6536 15.5305 25.3348 15.4219 24.9979 15.4219C24.6623 15.4219 24.345 15.5298 24.1044 15.7258L15.3513 22.8615C14.9536 23.1856 14.9774 23.4679 15.027 23.6073C15.0765 23.7464 15.2358 23.9798 15.7467 23.9798H16.9453V33.3636C16.9453 34.0333 17.4887 34.5781 18.1565 34.5781H21.9416C22.6039 34.5781 23.1226 34.0446 23.1226 33.3636V29.5155C23.1226 29.1857 23.4257 28.8853 23.7585 28.8853H26.3021C26.6193 28.8853 26.8774 29.168 26.8774 29.5155V33.3636C26.8774 34.0219 27.446 34.5781 28.1189 34.5781H31.8435C32.5113 34.5781 33.0547 34.0333 33.0547 33.3636V23.9798H34.2533C34.7642 23.9798 34.9235 23.7464 34.973 23.6073C35.0226 23.4679 35.0465 23.1856 34.6487 22.8616Z" fill="white"/>
</g>
<defs>
<clipPath id="clip0_132_184">
<rect width="20" height="20" fill="white" transform="translate(15 15)"/>
</clipPath>
</defs>
</svg>
