<svg width="25" height="25" viewBox="0 0 25 25" fill="none" xmlns="http://www.w3.org/2000/svg">
<g clip-path="url(#clip0_1327_1438)">
<path d="M24.5804 11.3805L20.7915 7.59158V3.2148C20.7915 2.42342 20.1502 1.78206 19.3576 1.78206C18.5669 1.78206 17.9256 2.42342 17.9256 3.2148V4.72576L15.1045 1.90454C13.7097 0.51051 11.2846 0.512983 9.89303 1.90706L0.419435 11.3805C-0.139812 11.9408 -0.139812 12.8475 0.419435 13.407C0.978935 13.9672 1.8874 13.9672 2.44669 13.407L11.9194 3.93336C12.228 3.62639 12.7719 3.62639 13.0789 3.93246L22.5532 13.407C22.8341 13.6871 23.2004 13.8265 23.5665 13.8265C23.9335 13.8265 24.3003 13.687 24.5804 13.407C25.1399 12.8476 25.1399 11.9409 24.5804 11.3805Z" fill="#0094DE"/>
<path d="M12.9973 6.65306C12.7221 6.37798 12.2765 6.37798 12.002 6.65306L3.66904 14.9836C3.53748 15.1151 3.46289 15.2946 3.46289 15.482V21.558C3.46289 22.9838 4.61893 24.1398 6.04465 24.1398H10.1703V17.7504H14.8281V24.1398H18.9539C20.3795 24.1398 21.5356 22.9838 21.5356 21.558V15.482C21.5356 15.2946 21.4617 15.1151 21.3294 14.9836L12.9973 6.65306Z" fill="#0094DE"/>
</g>
<defs>
<clipPath id="clip0_1327_1438">
<rect width="25" height="25" fill="white"/>
</clipPath>
</defs>
</svg>
