<svg width="20" height="20" viewBox="0 0 20 20" fill="none" xmlns="http://www.w3.org/2000/svg">
<g clip-path="url(#clip0_44_1278)">
<path d="M19.828 9.12602L16.8532 6.36375V1.83843H13.4265V3.18204L9.99981 0L0.172001 9.12602C0.0335615 9.25486 0.0253374 9.47177 0.154182 9.61055C0.282683 9.74899 0.499594 9.75688 0.638719 9.62837L1.77604 8.57226V20H7.25878H12.7415H18.2243V8.57192L19.3616 9.62803C19.4274 9.68937 19.5113 9.71952 19.5949 9.71952C19.6871 9.71952 19.7786 9.68286 19.8458 9.61021C19.9746 9.47177 19.9664 9.25486 19.828 9.12602ZM14.1119 2.52377H16.1679V5.72741L14.1119 3.81838V2.52377ZM7.94378 19.3147V12.097C7.94378 11.9198 8.0877 11.7759 8.26486 11.7759H11.7348C11.9119 11.7759 12.0558 11.9198 12.0558 12.097V19.3147H7.94378ZM17.5386 19.3147H12.7412V12.097C12.7412 11.5418 12.2899 11.0906 11.7348 11.0906H8.26486C7.70974 11.0906 7.25844 11.5418 7.25844 12.097V19.3147H2.46104V7.93558L9.99981 0.93515L14.8932 5.47897L16.8532 7.29889L17.5386 7.93524V19.3147Z" fill="#0094DE" stroke="#0094DE" stroke-width="0.8"/>
</g>
<defs>
<clipPath id="clip0_44_1278">
<rect width="20" height="20" fill="white"/>
</clipPath>
</defs>
</svg>
