<svg width="48" height="48" viewBox="0 0 48 48" fill="none" xmlns="http://www.w3.org/2000/svg">
<path d="M45.9336 20.2598H40.4063V17.9844C40.9238 17.9551 41.4316 17.7207 41.8027 17.3008C42.5254 16.4707 42.4277 15.2109 41.5977 14.4883L25.5137 0.5625C24.7617 -0.0820312 23.6582 -0.0820312 22.9063 0.5625L6.40234 14.8398C5.57227 15.5625 5.47461 16.8223 6.19727 17.6523C6.56836 18.0723 7.07617 18.3066 7.59375 18.3359V20.2598H2.06641C0.962891 20.2598 0.0742188 21.1484 0.0742188 22.252V45.9336C0.0742188 47.0371 0.962891 47.9258 2.06641 47.9258H45.9336C47.0371 47.9258 47.9258 47.0371 47.9258 45.9336V22.252C47.9258 21.1484 47.0371 20.2598 45.9336 20.2598ZM11.5781 43.9414V17.6035H36.4219V43.9414H11.5781ZM24.2051 4.70312L34.5078 13.6094H13.9121L24.2051 4.70312ZM4.05859 24.2441H7.59375V43.9414H4.05859V24.2441ZM43.9414 43.9414H40.4063V24.2441H43.9316V43.9414H43.9414Z" fill="white"/>
<path d="M30.1621 28.7754H25.9922V24.6055C25.9922 23.502 25.1035 22.6133 24 22.6133C22.8965 22.6133 22.0078 23.502 22.0078 24.6055V28.7754H17.8379C16.7344 28.7754 15.8457 29.6641 15.8457 30.7676C15.8457 31.8711 16.7344 32.7598 17.8379 32.7598H22.0078V36.9297C22.0078 38.0332 22.8965 38.9219 24 38.9219C25.1035 38.9219 25.9922 38.0332 25.9922 36.9297V32.7598H30.1621C31.2656 32.7598 32.1543 31.8711 32.1543 30.7676C32.1641 29.6641 31.2656 28.7754 30.1621 28.7754V28.7754Z" fill="white"/>
</svg>
