<svg width="22" height="22" viewBox="0 0 22 22" fill="none" xmlns="http://www.w3.org/2000/svg">
<g clip-path="url(#clip0_81_1739)">
<path d="M11 5.5C11 2.45665 8.54335 0 5.5 0C2.45665 0 0 2.45665 0 5.5C0 8.54335 2.45665 11 5.5 11C8.54335 11 11 8.54335 11 5.5ZM0.733348 5.5C0.733348 2.86 2.86 0.733348 5.5 0.733348C8.14 0.733348 10.2667 2.86 10.2667 5.5C10.2667 8.14 8.14 10.2667 5.5 10.2667C2.86 10.2667 0.733348 8.14 0.733348 5.5Z" fill="#808080" stroke="#808080" stroke-width="0.5"/>
<path d="M16.5 5.13335C17.71 5.13335 18.7 4.14335 18.7 2.93335C18.7 1.72335 17.71 0.733353 16.5 0.733353C15.29 0.733353 14.3 1.72335 14.3 2.93335C14.3 4.14335 15.29 5.13335 16.5 5.13335ZM16.5 1.46666C17.3067 1.46666 17.9667 2.12666 17.9667 2.93331C17.9667 3.73996 17.3067 4.40001 16.5 4.40001C15.6934 4.40001 15.0334 3.74001 15.0334 2.93335C15.0334 2.1267 15.6934 1.46666 16.5 1.46666Z" fill="#808080" stroke="#808080" stroke-width="0.5"/>
<path d="M21.78 1.87C21.6333 1.79666 21.4866 1.83335 21.3766 1.94335L16.7262 6.55961C16.3852 6.11265 15.8984 5.79528 15.3633 5.64665C14.0067 5.28 12.6133 6.01331 12.21 7.33331L10.8075 11.8342L10.5233 11.55C10.3766 11.4033 10.1566 11.4033 10.0099 11.55L8.98327 12.5766C8.83662 12.7233 8.83662 12.9433 8.98327 13.09L9.37046 13.4771L5.86662 13.0533C5.31662 12.98 4.80327 13.3467 4.65662 13.86L2.96997 20.0934C2.85997 20.4967 2.93332 20.9367 3.15332 21.3033C3.40997 21.6333 3.77666 21.89 4.17997 21.9634C4.28997 22 4.36332 22 4.43662 22C5.05997 22 5.64662 21.5967 5.86662 20.9367L7.22327 16.61C7.25992 16.4267 7.44327 16.3167 7.62662 16.3533L13.1062 17.2129L17.7833 21.89C17.8567 21.9634 17.93 22 18.04 22C18.1133 22 18.2233 21.9634 18.2966 21.89L19.3233 20.8634C19.4699 20.7167 19.4699 20.4967 19.3233 20.35L14.9749 16.0016L17.0767 9.145L21.89 4.51C21.9633 4.43666 22 4.36335 22 4.25335V2.2C22 2.05335 21.9266 1.90666 21.78 1.87ZM7.69997 15.62C7.18662 15.5467 6.67332 15.8767 6.48997 16.39L5.13332 20.7167C5.02332 21.0833 4.65666 21.3033 4.28997 21.23C4.06997 21.1933 3.88662 21.0833 3.77662 20.9C3.66662 20.7167 3.62997 20.5333 3.70327 20.2767L5.38992 14.0433C5.42658 13.8967 5.60992 13.7867 5.75658 13.7867C5.75658 13.7867 5.79323 13.7867 5.75658 13.75L10.1932 14.3L12.2099 16.3167L7.69997 15.62ZM18.04 21.12L9.75331 12.8333L10.2667 12.32L10.7067 12.76L14.2633 16.3167L18.5533 20.6067L18.04 21.12ZM11.3666 12.3934L12.87 7.55335C13.1633 6.6 14.1533 6.0867 15.1066 6.34335C15.62 6.45335 15.9866 6.78335 16.2433 7.22335C16.4999 7.66335 16.5366 8.1767 16.3899 8.65335L14.3366 15.3633L11.3666 12.3934ZM21.2666 4.10666L17.2515 7.97573C17.2433 7.85662 17.2274 7.73794 17.203 7.62025C17.1828 7.5029 17.1507 7.38556 17.1043 7.26821C17.0989 7.25291 17.0932 7.2377 17.0874 7.22245L21.2666 3.07996V4.10666H21.2666Z" fill="#808080" stroke="#808080" stroke-width="0.5"/>
</g>
<defs>
<clipPath id="clip0_81_1739">
<rect width="22" height="22" fill="white"/>
</clipPath>
</defs>
</svg>
