<svg width="50" height="50" viewBox="0 0 50 50" fill="none" xmlns="http://www.w3.org/2000/svg">
<path d="M24.4449 8.8526C24.4449 6.09046 24.9999 3.85292 24.9999 3.85292C24.9999 3.85292 25.5549 6.09046 25.5549 8.8526C25.5549 9.43798 25.5261 9.99136 25.4861 10.5128C26.2474 9.6363 27.6357 7.73783 27.6357 5.51948C27.6357 2.47105 24.9999 0 24.9999 0C24.9999 0 22.3657 2.47105 22.3657 5.51948C22.3657 7.73623 23.754 9.6347 24.5121 10.5128C24.4737 9.99136 24.4449 9.43798 24.4449 8.8526Z" fill="#333333"/>
<path d="M25.5569 41.1474C25.5569 43.9111 25.0019 46.1487 25.0019 46.1487C25.0019 46.1487 24.4469 43.9111 24.4469 41.1474C24.4469 40.5636 24.4741 40.0086 24.5141 39.4888C23.7543 40.3637 22.3677 42.2622 22.3677 44.4805C22.3677 47.529 25.0019 50 25.0019 50C25.0019 50 27.6377 47.529 27.6377 44.4805C27.6377 42.2638 26.2478 40.3669 25.4881 39.4888C25.5281 40.0086 25.5569 40.562 25.5569 41.1474Z" fill="#333333"/>
<path d="M17.4895 12.608C17.3039 12.3345 17.1136 12.0402 16.9265 11.7171C16.0516 10.2025 15.6486 8.79983 15.6486 8.79983C15.6486 8.79983 16.661 9.85222 17.5374 11.3652C17.7214 11.6867 17.8813 11.9986 18.0253 12.2977C18.1644 11.5748 18.3243 10.0937 17.6238 8.8782C16.6562 7.20524 14.4282 6.68384 14.4282 6.68384C14.4282 6.68384 13.7645 8.875 14.7289 10.5464C15.4311 11.7651 16.7953 12.3665 17.4895 12.608Z" fill="#333333"/>
<path d="M32.5124 37.3936C32.6995 37.6671 32.8866 37.9598 33.0754 38.2861C33.9502 39.7991 34.3565 41.2018 34.3565 41.2018C34.3565 41.2018 33.3377 40.151 32.466 38.6364C32.2789 38.3149 32.1189 38.003 31.975 37.7023C31.8374 38.4269 31.6775 39.9079 32.3812 41.1218C33.3473 42.7948 35.5768 43.3162 35.5768 43.3162C35.5768 43.3162 36.2389 41.125 35.2713 39.4537C34.5676 38.2349 33.2065 37.632 32.5124 37.3936Z" fill="#333333"/>
<path d="M10.5115 24.6913C9.95495 24.2099 8.75062 23.3318 7.34795 23.3302C5.4159 23.3302 3.8501 24.9984 3.8501 24.9984C3.8501 24.9984 5.4159 26.6682 7.34635 26.6682C8.75221 26.6682 9.95495 25.7901 10.5115 25.3087C10.1805 25.3327 9.8302 25.3487 9.45914 25.3487C7.70942 25.3487 6.29236 24.9968 6.29236 24.9968C6.29236 24.9968 7.71101 24.6449 9.45914 24.6449C9.8318 24.6481 10.1805 24.6657 10.5115 24.6913Z" fill="#333333"/>
<path d="M39.4873 25.3087C40.0439 25.7901 41.2466 26.6682 42.6493 26.6682C44.583 26.6682 46.1487 25 46.1487 25C46.1487 25 44.583 23.3318 42.6493 23.3318C41.2466 23.3318 40.0439 24.2099 39.4873 24.6913C39.8184 24.6657 40.1686 24.6513 40.5365 24.6513C42.2894 24.6513 43.7065 25.0032 43.7065 25.0032C43.7065 25.0032 42.2878 25.3583 40.5365 25.3551C40.1686 25.3519 39.8184 25.3343 39.4873 25.3087Z" fill="#333333"/>
<path d="M17.5343 38.6316C16.6611 40.1446 15.6455 41.197 15.6455 41.197C15.6455 41.197 16.0501 39.7943 16.9234 38.2781C17.1121 37.9582 17.3024 37.6623 17.4895 37.3888C16.7938 37.6287 15.4311 38.2317 14.7274 39.4488C13.7614 41.1218 14.4235 43.3114 14.4235 43.3114C14.4235 43.3114 16.6531 42.79 17.6191 41.1202C18.3212 39.9031 18.1613 38.4204 18.0237 37.6975C17.8814 37.9982 17.7215 38.3101 17.5343 38.6316Z" fill="#333333"/>
<path d="M32.4659 11.3668C33.3407 9.85222 34.3563 8.79823 34.3563 8.79823C34.3563 8.79823 33.9533 10.2041 33.0752 11.7187C32.8945 12.0402 32.701 12.3345 32.5122 12.608C33.2096 12.3681 34.5706 11.7651 35.2712 10.5496C36.2388 8.8782 35.5767 6.68544 35.5767 6.68544C35.5767 6.68544 33.3455 7.20844 32.3811 8.8798C31.679 10.0969 31.8373 11.5764 31.978 12.2993C32.122 11.9986 32.2819 11.6867 32.4659 11.3668Z" fill="#333333"/>
<path d="M9.44452 12.9774C6.80713 11.4532 3.34766 12.4992 3.34766 12.4992C3.34766 12.4992 4.17134 16.0179 6.81033 17.5421C8.73279 18.6504 11.0695 18.3977 12.2083 18.1786C11.7364 17.9515 11.2422 17.6988 10.7368 17.4077C8.34414 16.0258 6.68398 14.4265 6.68398 14.4265C6.68398 14.4265 8.90072 15.0646 11.2918 16.4465C11.7972 16.7392 12.2626 17.0415 12.6945 17.3357C12.317 16.237 11.3686 14.0858 9.44452 12.9774Z" fill="#333333"/>
<path d="M43.1899 32.4595C41.2659 31.3512 38.9324 31.6023 37.792 31.823C38.2606 32.0517 38.758 32.3012 39.2603 32.5939C41.6529 33.9742 43.3147 35.5735 43.3147 35.5735C43.3147 35.5735 41.0995 34.937 38.7069 33.5551C38.2015 33.2624 37.736 32.9617 37.3042 32.6659C37.6817 33.7646 38.6349 35.9126 40.5558 37.0226C43.1947 38.5452 46.651 37.5008 46.651 37.5008C46.651 37.5008 45.8257 33.9822 43.1899 32.4595Z" fill="#333333"/>
<path d="M6.68397 35.5735C6.68397 35.5735 8.34574 33.971 10.7368 32.5907C11.2438 32.2996 11.7364 32.0485 12.2099 31.8198C11.0711 31.6007 8.73119 31.348 6.81193 32.4579C4.17134 33.9805 3.34766 37.4976 3.34766 37.4976C3.34766 37.4976 6.80553 38.542 9.44452 37.0194C11.367 35.911 12.317 33.7582 12.6961 32.6627C12.2626 32.9585 11.7988 33.2576 11.295 33.5519C8.90072 34.9338 6.68397 35.5735 6.68397 35.5735Z" fill="#333333"/>
<path d="M43.3147 14.4249C43.3147 14.4249 41.6529 16.0242 39.2634 17.4061C38.758 17.6988 38.2638 17.9515 37.792 18.177C38.9324 18.3977 41.2691 18.6488 43.1867 17.5405C45.8289 16.0146 46.651 12.4992 46.651 12.4992C46.651 12.4992 43.1963 11.4548 40.5558 12.9774C38.6317 14.0874 37.6849 16.237 37.3042 17.3325C37.736 17.0399 38.2015 16.7376 38.7069 16.4465C41.0995 15.0646 43.3147 14.4249 43.3147 14.4249Z" fill="#333333"/>
<path d="M25 23.8196C25 23.8196 18.4121 17.8443 14.2041 18.3673C22.2922 22.6137 25 38.2893 25 38.2893C25 38.2893 25.7949 24.2051 35.7958 18.3673C30.4507 17.3901 25 23.8196 25 23.8196Z" fill="#333333"/>
<path d="M25.0002 20.9743C26.4957 20.9743 27.708 19.762 27.708 18.2666C27.708 16.7711 26.4957 15.5588 25.0002 15.5588C23.5048 15.5588 22.2925 16.7711 22.2925 18.2666C22.2925 19.762 23.5048 20.9743 25.0002 20.9743Z" fill="#333333"/>
</svg>
