<svg width="25" height="25" viewBox="0 0 25 25" fill="none" xmlns="http://www.w3.org/2000/svg">
<g clip-path="url(#clip0_23_986)">
<path d="M18.9436 10.749V6.44365C18.9436 2.89058 16.053 0 12.5 0C8.94697 0 6.0564 2.89058 6.0564 6.4436V10.7489C4.67563 12.317 3.91748 14.3221 3.91748 16.4175C3.91748 21.1499 7.76758 25 12.5 25C17.2324 25 21.0825 21.1499 21.0825 16.4175C21.0825 14.3221 20.3244 12.3171 18.9436 10.749ZM7.05239 6.4436C7.05239 3.43975 9.49619 0.995996 12.5 0.995996C15.5038 0.995996 17.9476 3.43979 17.9476 6.4436V9.78604C17.5808 9.48428 17.1896 9.21357 16.7766 8.97588V6.4436C16.7766 4.08545 14.8582 2.16694 12.5 2.16694C10.1418 2.16694 8.22339 4.0854 8.22339 6.4436V8.97588C7.8104 9.21357 7.41924 9.48423 7.05239 9.78604V6.4436ZM15.7806 6.4436V8.48599C14.7455 8.05864 13.6259 7.83496 12.5 7.83496C11.3741 7.83496 10.2545 8.05864 9.21943 8.48599V6.4436C9.21943 4.63467 10.6911 3.16299 12.5 3.16299C14.3089 3.16299 15.7806 4.63467 15.7806 6.4436ZM12.5 24.004C8.3168 24.004 4.91348 20.6007 4.91348 16.4175C4.91348 14.5072 5.62627 12.6818 6.92056 11.2776C7.50732 10.6411 8.1916 10.1134 8.95454 9.70933C10.0393 9.13472 11.2652 8.83105 12.5 8.83105C13.7348 8.83105 14.9607 9.13481 16.0455 9.70933C16.8083 10.1134 17.4927 10.6411 18.0794 11.2776H18.0794C19.3737 12.6819 20.0865 14.5072 20.0865 16.4175C20.0865 20.6007 16.6832 24.004 12.5 24.004Z" fill="#0094DE" stroke="#0094DE" stroke-width="0.2"/>
<path d="M12.5 11.504C9.78026 11.504 7.56757 13.7167 7.56757 16.4364C7.56757 19.1562 9.78026 21.3688 12.5 21.3688C15.2197 21.3688 17.4324 19.1562 17.4324 16.4364C17.4324 13.7167 15.2197 11.504 12.5 11.504ZM12.5 20.3728C10.3295 20.3728 8.56356 18.607 8.56356 16.4364C8.56356 14.2658 10.3295 12.5 12.5 12.5C14.6705 12.5 16.4364 14.2658 16.4364 16.4364C16.4364 18.607 14.6705 20.3728 12.5 20.3728Z" fill="#0094DE" stroke="#0094DE" stroke-width="0.2"/>
</g>
<defs>
<clipPath id="clip0_23_986">
<rect width="25" height="25" fill="white"/>
</clipPath>
</defs>
</svg>
