<svg width="25" height="25" viewBox="0 0 25 25" fill="none" xmlns="http://www.w3.org/2000/svg">
<g clip-path="url(#clip0_1327_807)">
<path d="M24.8765 24.0142L22.2126 21.2275C22.9918 20.3711 23.4711 19.238 23.4711 17.992C23.4711 15.3352 21.3098 13.1739 18.6531 13.1739C15.9963 13.1739 13.835 15.3352 13.835 17.992C13.835 20.6487 15.9963 22.8101 18.6531 22.8101C19.7424 22.8101 20.7452 22.4423 21.5535 21.83L24.2316 24.6314C24.3191 24.7229 24.4365 24.7693 24.5543 24.7693C24.6654 24.7693 24.7761 24.7282 24.8627 24.6456C25.0403 24.4747 25.047 24.1927 24.8765 24.0142ZM18.6531 21.9175C16.4886 21.9175 14.7275 20.1565 14.7275 17.992C14.7275 15.8275 16.4886 14.0665 18.6531 14.0665C20.8175 14.0665 22.5786 15.8275 22.5786 17.992C22.5786 20.1565 20.8175 21.9175 18.6531 21.9175Z" fill="white" stroke="white" stroke-width="0.5"/>
<path d="M16.5125 12.2264V12.2255C17.1797 11.9756 17.8996 11.835 18.6529 11.835C21.4297 11.835 23.7807 13.6836 24.5457 16.214V0.677921C24.5457 0.534663 24.477 0.399885 24.36 0.315537C24.2431 0.23119 24.0936 0.207983 23.9579 0.254396L16.0453 2.89194L8.58162 1.13581C8.5477 1.12778 8.51378 1.12421 8.47986 1.12421C8.45844 1.12421 8.43791 1.13179 8.41649 1.13492C8.40489 1.1367 8.39373 1.13224 8.38257 1.13492L0.349441 2.92006C0.145489 2.96558 0 3.14632 0 3.35563V22.5459C0 22.6816 0.0615873 22.8092 0.167357 22.894C0.247242 22.9583 0.345871 22.9922 0.446285 22.9922C0.478418 22.9922 0.510996 22.9886 0.543129 22.9819L8.49013 21.216L14.1901 22.2219C13.1431 21.1173 12.496 19.6303 12.496 17.992C12.496 15.3504 14.1713 13.0989 16.5125 12.2264ZM8.9257 20.3863V2.13415L15.62 3.70909V11.6369C13.194 12.799 11.6034 15.2786 11.6034 17.992C11.6034 19.0354 11.8337 20.0507 12.2697 20.9763L8.9257 20.3863Z" fill="white" stroke="white" stroke-width="0.5"/>
</g>
<defs>
<clipPath id="clip0_1327_807">
<rect width="25" height="25" fill="white"/>
</clipPath>
</defs>
</svg>
