<svg width="44" height="50" viewBox="0 0 44 50" fill="none" xmlns="http://www.w3.org/2000/svg">
<path d="M15.5176 24.1379H22.4142V20.6897H25.8624V13.7931H22.4142V10.3448H15.5176V13.7931H12.0693V20.6897H15.5176V24.1379ZM13.7935 18.9655V15.5172H17.2417V12.069H20.69V15.5172H24.1383V18.9655H20.69V22.4138H17.2417V18.9655H13.7935Z" fill="#333333"/>
<path d="M14.655 31.0345C14.1792 31.0345 13.793 31.4198 13.793 31.8966C13.793 32.3733 14.1792 32.7586 14.655 32.7586H23.2757C23.7516 32.7586 24.1378 32.3733 24.1378 31.8966C24.1378 31.4198 23.7516 31.0345 23.2757 31.0345H14.655Z" fill="#333333"/>
<path d="M26.724 34.4828H11.2068C10.7309 34.4828 10.3447 34.8681 10.3447 35.3448C10.3447 35.8216 10.7309 36.2069 11.2068 36.2069H26.724C27.1999 36.2069 27.5861 35.8216 27.5861 35.3448C27.5861 34.8681 27.1999 34.4828 26.724 34.4828Z" fill="#333333"/>
<path d="M26.724 37.931H11.2068C10.7309 37.931 10.3447 38.3164 10.3447 38.7931C10.3447 39.2698 10.7309 39.6552 11.2068 39.6552H26.724C27.1999 39.6552 27.5861 39.2698 27.5861 38.7931C27.5861 38.3164 27.1999 37.931 26.724 37.931Z" fill="#333333"/>
<path d="M37.931 0H36.2069H0V50H37.931V44.8276H43.1034V36.2069V34.4828V27.5862V25.8621V18.9655V17.2414V10.3448V8.62069V0H37.931ZM36.2069 48.2759H1.72414V1.72414H36.2069V8.62069V10.3448V17.2414V18.9655V25.8621V27.5862V34.4828V36.2069V44.8276V48.2759ZM41.3793 43.1034H37.931V36.2069H41.3793V43.1034ZM41.3793 34.4828H37.931V27.5862H41.3793V34.4828ZM41.3793 25.8621H37.931V18.9655H41.3793V25.8621ZM41.3793 17.2414H37.931V10.3448H41.3793V17.2414ZM37.931 8.62069V1.72414H41.3793V8.62069H37.931Z" fill="#333333"/>
</svg>
