<svg width="34" height="52" viewBox="0 0 34 52" fill="none" xmlns="http://www.w3.org/2000/svg">
<path d="M17.1832 1C8.2598 1 1 8.2598 1 17.1832C1 25.1632 6.53515 35.6232 11.1786 42.9927C11.4781 43.4682 12.1062 43.6108 12.5819 43.3112C13.0573 43.0117 13.1999 42.3834 12.9002 41.908C4.74657 28.9669 3.03515 21.3196 3.03515 17.1832C3.03515 9.38192 9.38192 3.03498 17.1834 3.03498C24.9848 3.03498 31.3316 9.38175 31.3316 17.1832C31.3316 29.8523 16.5278 49.167 16.3782 49.3605C16.0348 49.8053 16.1167 50.4443 16.5615 50.7877C16.7467 50.9308 16.9656 51 17.1829 51C17.4871 51 17.7883 50.864 17.9887 50.6045C18.6167 49.7919 33.3667 30.5469 33.3667 17.183C33.3664 8.2598 26.1068 1 17.1832 1Z" fill="#333333" stroke="#333333" stroke-width="0.2"/>
<path d="M17.1831 12.0228C17.745 12.0228 18.2006 11.5672 18.2006 11.0053C18.2006 10.4435 17.745 9.98783 17.1831 9.98783C13.2156 9.98783 9.98779 13.2157 9.98779 17.1832C9.98779 21.1507 13.2156 24.3785 17.1831 24.3785C21.1507 24.3785 24.3785 21.1507 24.3785 17.1832C24.3785 15.5986 23.8733 14.0954 22.9172 12.836C22.5775 12.3884 21.9392 12.3011 21.4915 12.6408C21.044 12.9804 20.9565 13.6188 21.2964 14.0664C21.9815 14.9688 22.3435 16.0467 22.3435 17.1832C22.3435 20.0286 20.0286 22.3436 17.1831 22.3436C14.3377 22.3436 12.0228 20.0286 12.0228 17.1832C12.0228 14.3378 14.3379 12.0228 17.1831 12.0228Z" fill="#333333" stroke="#333333" stroke-width="0.2"/>
</svg>
