<svg width="58" height="58" viewBox="0 0 58 58" fill="none" xmlns="http://www.w3.org/2000/svg">
<g clip-path="url(#clip0_1_5228)" filter="url(#filter0_d_1_5228)">
<path d="M52.558 48.3233H46.8596V46.6054C46.8596 42.6715 45.8106 39.6353 43.7416 37.581C41.1049 34.9632 37.7928 34.9571 37.6599 34.9571H33.4603V32.2814C36.143 31.1697 37.8392 29.319 38.8727 27.7143C40.4861 25.2093 40.8499 22.7985 40.8646 22.6971C40.8704 22.6573 40.8733 22.617 40.8733 22.5768V22.3973C41.4622 22.2521 41.9744 21.9482 42.3812 21.4979C43.5681 20.1837 43.4993 18.1102 43.4145 17.2798C43.35 16.6478 43.064 16.1174 42.5875 15.7459C42.0662 15.3396 41.4081 15.1977 40.8733 15.1583V13.5529V7.99195C40.8733 5.35502 39.7826 3.59211 37.5389 2.60262C37.1412 2.42723 36.9473 2.18154 36.9098 1.80573C36.8752 1.45864 36.9883 1.14275 36.9882 1.14275C37.1326 0.772079 36.9967 0.350997 36.663 0.1347C36.3292 -0.08171 35.8893 -0.0335321 35.61 0.249611C34.4126 1.46412 33.2166 1.48625 30.6246 1.42086C28.9359 1.37805 26.8336 1.32495 24.065 1.721C20.2476 2.26705 18.5543 4.62654 17.8059 6.50973C17.0584 8.39046 17.1024 10.1479 17.1131 10.3972V15.1577C16.5771 15.1965 15.9159 15.3379 15.3926 15.7459C14.916 16.1174 14.63 16.6477 14.5657 17.2799C14.4809 18.1103 14.4121 20.1838 15.599 21.4979C16.0103 21.9533 16.5297 22.2584 17.1268 22.4016V22.5768C17.1268 22.617 17.1297 22.6573 17.1355 22.6971C17.1502 22.7985 17.5141 25.2093 19.1274 27.7143C20.1609 29.3189 21.8571 31.1697 24.5398 32.2814V34.9571H20.346C20.2023 34.9562 16.8954 34.9628 14.2583 37.581C12.1893 39.6353 11.1402 42.6716 11.1402 46.6054V48.3233H5.44237C4.97926 48.3233 4.604 48.6986 4.604 49.1616C4.604 49.6246 4.97926 50 5.44237 50H52.5581C53.0212 50 53.3964 49.6246 53.3964 49.1616C53.3963 48.6986 53.0211 48.3233 52.558 48.3233ZM45.183 46.6054V48.3233H34.1185V36.6338H37.5141V39.8823C36.7928 40.1436 36.2006 40.6937 35.8068 41.4837C35.4504 42.1982 35.3666 42.8741 35.3582 42.9488C35.3547 42.9799 35.3529 43.0111 35.3529 43.0424V45.3247C35.3529 45.7877 35.7283 46.1631 36.1913 46.1631C36.6544 46.1631 37.0297 45.7877 37.0297 45.3247V43.0983C37.0664 42.8557 37.3158 41.5229 38.3525 41.3958C39.388 41.5227 39.6378 42.852 39.6753 43.0986V45.3247C39.6753 45.7877 40.0506 46.1631 40.5137 46.1631C40.9768 46.1631 41.352 45.7877 41.352 45.3247V43.0424C41.352 43.0111 41.3503 42.9799 41.3468 42.9488C41.3384 42.8741 41.2546 42.1981 40.8982 41.4837C40.5044 40.6937 39.9122 40.1436 39.1909 39.8823V36.8683C40.1598 37.1235 41.438 37.6565 42.5604 38.7708C44.3006 40.4988 45.183 43.1347 45.183 46.6054ZM28.9996 40.247C30.3841 40.247 31.6232 39.6128 32.4418 38.6196V48.3233H25.5027V38.5501C26.3202 39.5826 27.5834 40.247 28.9996 40.247ZM41.7466 17.4499C41.8462 18.4269 41.7385 19.708 41.137 20.374C41.0564 20.4632 40.9683 20.5368 40.8734 20.5985V16.8431C41.1333 16.873 41.3933 16.9399 41.5588 17.0699C41.6389 17.1329 41.7238 17.2273 41.7466 17.4499ZM19.3641 7.12911C20.2146 4.98905 21.8762 3.72804 24.3026 3.38095C26.9318 3.00481 28.956 3.05601 30.5823 3.09725C32.4779 3.14521 33.989 3.18344 35.3515 2.50257C35.5514 3.1489 36.008 3.76012 36.8624 4.13694C38.4986 4.85849 39.1967 6.0114 39.1967 7.99207V12.678C37.7222 12.5486 36.6256 12.0651 35.9335 11.2327C34.6847 9.73094 35.0797 7.50626 35.0834 7.4867C35.1565 7.10731 34.9608 6.72714 34.6096 6.56607C34.2585 6.40499 33.8427 6.50503 33.6028 6.80796C32.0844 8.72681 29.9172 9.45507 27.1621 8.9715C24.9921 8.59088 23.2603 7.57724 23.2438 7.56763C23.021 7.43506 22.7493 7.41315 22.5081 7.50805C22.2669 7.60307 22.0831 7.80438 22.0104 8.05332C21.2729 10.5815 19.7643 11.5831 18.79 11.9755V10.3776C18.79 10.3618 18.7896 10.3461 18.7887 10.3304C18.7877 10.3151 18.7095 8.77622 19.3641 7.12911ZM16.8434 20.374C16.2419 19.708 16.1342 18.4269 16.2338 17.45C16.2566 17.2273 16.3415 17.1328 16.4217 17.0699C16.5914 16.9365 16.8605 16.8693 17.127 16.8406V20.6109C17.0242 20.547 16.9295 20.4694 16.8434 20.374ZM20.5706 26.858C19.2588 24.8447 18.864 22.8516 18.8035 22.5082V13.7383C19.9516 13.4134 22.099 12.4258 23.2909 9.47496C24.0913 9.8482 25.3565 10.3507 26.822 10.614C29.4012 11.0775 31.6403 10.6321 33.4065 9.32361C33.5281 10.2574 33.8555 11.3497 34.6332 12.2914C35.6476 13.5197 37.1804 14.2143 39.1966 14.3615V16.266V22.5079C39.1353 22.8552 38.7402 24.8465 37.4295 26.8579C35.5506 29.7417 32.7407 31.3275 29.0778 31.5717H28.9221C25.2595 31.3276 22.4495 29.7418 20.5706 26.858ZM28.8405 33.2468C28.8586 33.2479 28.8766 33.2486 28.8948 33.2486H29.1055C29.1236 33.2486 29.1416 33.248 29.1597 33.2468C30.1098 33.1852 30.9816 33.042 31.7835 32.8368V35.7658C31.7833 35.7731 31.7824 35.7801 31.7824 35.7875C31.7824 37.3219 30.534 38.5704 28.9995 38.5704C27.4651 38.5704 26.2167 37.3219 26.2167 35.7875V32.8368C27.0186 33.042 27.8904 33.1852 28.8405 33.2468ZM20.0203 41.6177C20.8319 41.6177 21.4921 42.2779 21.4921 43.0895C21.4921 43.9011 20.8319 44.5614 20.0203 44.5614C19.2086 44.5614 18.5484 43.9012 18.5484 43.0895C18.5484 42.278 19.2086 41.6177 20.0203 41.6177ZM12.8172 46.6054C12.8172 39.0401 17.0661 37.214 19.1818 36.7735V40.0551C17.8516 40.4232 16.8716 41.6436 16.8716 43.0894C16.8716 44.8255 18.2841 46.238 20.0202 46.238C21.7563 46.238 23.1687 44.8256 23.1687 43.0894C23.1687 41.6436 22.1887 40.4231 20.8585 40.0551V36.6338H23.8259V48.3233H12.8172V46.6054Z" fill="#333333"/>
<path d="M23.049 16.608C23.6017 16.608 24.0497 16.16 24.0497 15.6073C24.0497 15.0547 23.6017 14.6066 23.049 14.6066C22.4964 14.6066 22.0483 15.0547 22.0483 15.6073C22.0483 16.16 22.4964 16.608 23.049 16.608Z" fill="#333333"/>
<path d="M34.9512 16.608C35.5038 16.608 35.9518 16.16 35.9518 15.6074C35.9518 15.0548 35.5038 14.6069 34.9512 14.6069C34.3986 14.6069 33.9507 15.0548 33.9507 15.6074C33.9507 16.16 34.3986 16.608 34.9512 16.608Z" fill="#333333"/>
<path d="M34.1975 25.9741C34.4882 25.6136 34.4316 25.0859 34.0711 24.7952C33.7106 24.5044 33.1828 24.5612 32.8923 24.9214C32.8833 24.9326 31.8763 26.0324 29.2067 26.0324C26.4335 26.0324 25.0816 24.8816 25.0156 24.8238C24.6734 24.5166 24.1466 24.5421 23.8361 24.8829C23.5241 25.225 23.5486 25.7553 23.8907 26.0672C23.9642 26.1343 25.7314 27.7092 29.2067 27.7092C32.6972 27.7092 34.0541 26.1516 34.1975 25.9741Z" fill="#333333"/>
<path d="M28.784 21.5013H29.2163C30.3257 21.5013 31.2284 20.5987 31.2284 19.4893C31.2284 19.0263 30.8531 18.6509 30.39 18.6509C29.9269 18.6509 29.5516 19.0263 29.5516 19.4893C29.5516 19.6742 29.4012 19.8246 29.2163 19.8246H28.784C28.5992 19.8246 28.4487 19.6742 28.4487 19.4893C28.4487 19.0263 28.0734 18.6509 27.6103 18.6509C27.1472 18.6509 26.772 19.0263 26.772 19.4893C26.772 20.5988 27.6746 21.5013 28.784 21.5013Z" fill="#333333"/>
<path d="M20.0201 43.6111C20.3082 43.6111 20.5417 43.3776 20.5417 43.0895C20.5417 42.8015 20.3082 42.568 20.0201 42.568C19.7321 42.568 19.4985 42.8015 19.4985 43.0895C19.4985 43.3776 19.7321 43.6111 20.0201 43.6111Z" fill="#333333"/>
</g>
<defs>
<filter id="filter0_d_1_5228" x="0" y="0" width="58" height="58" filterUnits="userSpaceOnUse" color-interpolation-filters="sRGB">
<feFlood flood-opacity="0" result="BackgroundImageFix"/>
<feColorMatrix in="SourceAlpha" type="matrix" values="0 0 0 0 0 0 0 0 0 0 0 0 0 0 0 0 0 0 127 0" result="hardAlpha"/>
<feOffset dy="4"/>
<feGaussianBlur stdDeviation="2"/>
<feComposite in2="hardAlpha" operator="out"/>
<feColorMatrix type="matrix" values="0 0 0 0 0 0 0 0 0 0 0 0 0 0 0 0 0 0 0.25 0"/>
<feBlend mode="normal" in2="BackgroundImageFix" result="effect1_dropShadow_1_5228"/>
<feBlend mode="normal" in="SourceGraphic" in2="effect1_dropShadow_1_5228" result="shape"/>
</filter>
<clipPath id="clip0_1_5228">
<rect width="50" height="50" fill="white" transform="translate(4)"/>
</clipPath>
</defs>
</svg>
