<svg width="22" height="22" viewBox="0 0 22 22" fill="none" xmlns="http://www.w3.org/2000/svg">
<path d="M7.78594 1.8334C7.84117 4.698 7.69294 6.68551 7.34122 7.79592C6.81368 9.46159 2.7876 14.0997 2.7876 16.5468C2.7876 18.9939 5.67715 20.3451 7.23745 19.4236" stroke="#808080" stroke-width="1.5" stroke-linecap="round"/>
<path d="M14.6676 1.8334C14.5646 4.698 14.6889 6.68551 15.0406 7.79592C15.5681 9.46159 19.6895 13.4978 19.6895 16.1758C19.6895 18.8537 16.7047 20.3451 15.1444 19.4236" stroke="#808080" stroke-width="1.5" stroke-linecap="round"/>
<path d="M5.96094 15.9655C6.74441 15.5199 7.42577 15.5199 8.00501 15.9655C8.87387 16.6339 9.14649 18.3334 11.0037 18.3334C12.8611 18.3334 13.7715 16.4279 14.6666 15.9655C15.2634 15.6572 15.8745 15.6572 16.4999 15.9655" stroke="#808080" stroke-width="1.5" stroke-linecap="round"/>
<path d="M9.29747 10.1501C8.93365 10.5418 8.54865 10.9786 8.26755 11.7398C8.05447 12.3167 8.01189 12.6513 7.98242 13.0277" stroke="#808080" stroke-width="1.5" stroke-linecap="round"/>
</svg>
