<svg width="25" height="25" viewBox="0 0 25 25" fill="none" xmlns="http://www.w3.org/2000/svg">
<g clip-path="url(#clip0_91_2033)">
<path d="M20.1064 9.39795C19.903 9.46982 19.7963 9.69302 19.8683 9.89639C20.163 10.7306 20.3125 11.6066 20.3125 12.5C20.3125 16.8079 16.8078 20.3125 12.5 20.3125C8.19219 20.3125 4.6875 16.8079 4.6875 12.5C4.6875 8.19214 8.19219 4.6875 12.5 4.6875C14.3531 4.6875 16.1499 5.34775 17.5592 6.54668C17.7235 6.68638 17.97 6.66655 18.1098 6.50225C18.2496 6.33794 18.2297 6.09141 18.0654 5.95161C16.5149 4.63262 14.5384 3.90625 12.5 3.90625C7.76138 3.90625 3.90625 7.76138 3.90625 12.5C3.90625 17.2386 7.76138 21.0938 12.5 21.0938C17.2386 21.0938 21.0938 17.2386 21.0938 12.5C21.0938 11.5177 20.9292 10.5541 20.6049 9.63613C20.533 9.43272 20.3099 9.32603 20.1064 9.39795Z" fill="#808080" stroke="#808080" stroke-width="0.5"/>
<path d="M19.1557 8.40654C19.2296 8.52632 19.3575 8.59229 19.4886 8.59229C19.5586 8.59229 19.6293 8.57349 19.6932 8.53418C19.8769 8.421 19.934 8.18032 19.8208 7.99668C19.6474 7.71543 19.4556 7.44116 19.2508 7.18149C19.1172 7.01206 18.8715 6.98311 18.7022 7.1168C18.5328 7.25039 18.5038 7.49604 18.6374 7.66538C18.8237 7.90146 18.9981 8.15088 19.1557 8.40654Z" fill="#808080" stroke="#808080" stroke-width="0.5"/>
<path d="M23.4375 10.1562H22.7835C22.5199 8.9918 22.0655 7.89424 21.4293 6.88521L21.8913 6.42329C22.5005 5.81406 22.5005 4.82285 21.8913 4.21357L20.7864 3.10869C20.1772 2.49961 19.1859 2.49956 18.5767 3.10869L18.1148 3.57065C17.1058 2.93447 16.0083 2.48008 14.8438 2.21646V1.5625C14.8438 0.700928 14.1428 0 13.2812 0H11.7188C10.8572 0 10.1562 0.700928 10.1562 1.5625V2.21646C8.99175 2.48013 7.89419 2.93447 6.88521 3.57065L6.42329 3.10869C5.81411 2.49961 4.8228 2.49956 4.21357 3.10869L3.10874 4.21362C2.49951 4.82285 2.49951 5.81406 3.10874 6.42334L3.57065 6.88521C2.93447 7.89429 2.48008 8.99185 2.21646 10.1562H1.5625C0.700928 10.1562 0 10.8572 0 11.7188V13.2812C0 14.1428 0.700928 14.8438 1.5625 14.8438H2.21646C2.48008 16.0082 2.93447 17.1057 3.57065 18.1147L3.10874 18.5767C2.49951 19.1859 2.49951 20.1771 3.10874 20.7864L4.21357 21.8913C4.82275 22.5004 5.81401 22.5006 6.42329 21.8913L6.88521 21.4293C7.89424 22.0655 8.99175 22.5199 10.1562 22.7835V23.4375C10.1562 24.2991 10.8571 25 11.7187 25H13.2812C14.1428 25 14.8437 24.2991 14.8437 23.4375V22.7835C16.0081 22.5199 17.1057 22.0655 18.1147 21.4293L18.5766 21.8913C19.1858 22.5004 20.1771 22.5005 20.7863 21.8913L21.8912 20.7864C22.5004 20.1771 22.5004 19.1859 21.8912 18.5767L21.4292 18.1148C22.0654 17.1058 22.5198 16.0082 22.7834 14.8438H23.4375C24.2991 14.8438 25 14.1428 25 13.2812V11.7188C25 10.8572 24.2991 10.1562 23.4375 10.1562ZM24.2188 13.2812C24.2188 13.712 23.8683 14.0625 23.4375 14.0625H22.4667C22.2797 14.0625 22.119 14.1949 22.0833 14.3784C21.8329 15.6632 21.3355 16.8644 20.6051 17.9487C20.5007 18.1038 20.5207 18.311 20.6529 18.4432L21.3388 19.1292C21.6434 19.4337 21.6434 19.9294 21.3388 20.234L20.234 21.3389C19.9293 21.6435 19.4337 21.6435 19.1291 21.3389L18.4432 20.6529C18.311 20.5208 18.1037 20.5007 17.9487 20.6051C16.8643 21.3356 15.6631 21.8329 14.3784 22.0832C14.1949 22.1189 14.0625 22.2797 14.0625 22.4667V23.4375C14.0625 23.8683 13.712 24.2188 13.2812 24.2188H11.7188C11.288 24.2188 10.9375 23.8683 10.9375 23.4375V22.4666C10.9375 22.2797 10.8051 22.1189 10.6216 22.0832C9.33687 21.8329 8.13564 21.3355 7.05132 20.6051C6.98486 20.5603 6.90884 20.5384 6.8332 20.5384C6.73242 20.5384 6.63237 20.5773 6.55684 20.6529L5.8709 21.3389C5.56626 21.6435 5.07065 21.6435 4.76602 21.3389L3.66118 20.234C3.35659 19.9294 3.35659 19.4337 3.66118 19.1292L4.34717 18.4432C4.47935 18.311 4.49937 18.1037 4.39492 17.9487C3.6645 16.8644 3.16714 15.6631 2.9168 14.3784C2.88105 14.1949 2.72031 14.0625 2.5334 14.0625H1.5625C1.13174 14.0625 0.78125 13.712 0.78125 13.2812V11.7188C0.78125 11.288 1.13174 10.9375 1.5625 10.9375H2.53335C2.72026 10.9375 2.88101 10.8051 2.91675 10.6216C3.16709 9.33687 3.6644 8.13569 4.39487 7.05127C4.49932 6.89624 4.47925 6.68896 4.34707 6.55679L3.66113 5.87085C3.35654 5.56626 3.35654 5.07061 3.66113 4.76602L4.76602 3.66113C5.07065 3.35659 5.56626 3.35649 5.8709 3.66113L6.55684 4.34712C6.68901 4.47925 6.89629 4.49932 7.05127 4.39487C8.1355 3.66445 9.33672 3.16714 10.6216 2.9168C10.805 2.88105 10.9375 2.72031 10.9375 2.53335V1.5625C10.9375 1.13174 11.288 0.78125 11.7188 0.78125H13.2812C13.712 0.78125 14.0625 1.13174 14.0625 1.5625V2.53335C14.0625 2.72026 14.1949 2.88101 14.3784 2.9168C15.6632 3.16719 16.8645 3.6645 17.9487 4.39487C18.1037 4.49932 18.311 4.4793 18.4432 4.34712L19.1291 3.66113C19.4337 3.35659 19.9293 3.35649 20.234 3.66113L21.3388 4.76602C21.6434 5.07061 21.6434 5.56626 21.3388 5.87085L20.6529 6.55679C20.5207 6.68896 20.5007 6.89624 20.6051 7.05127C21.3356 8.1356 21.8329 9.33687 22.0832 10.6216C22.1189 10.8051 22.2797 10.9375 22.4667 10.9375H23.4375C23.8683 10.9375 24.2188 11.288 24.2188 11.7188V13.2812Z" fill="#808080" stroke="#808080" stroke-width="0.5"/>
<path d="M10.2958 14.3986L8.84028 14.7766C8.83789 14.7772 8.83545 14.7778 8.83306 14.7785C7.90659 15.0381 7.42188 15.9463 7.42188 16.7094V17.1313C7.42188 17.5931 7.82603 17.9688 8.32285 17.9688L12.4937 17.9683C12.4967 17.9684 12.4996 17.9688 12.5026 17.9688C12.5056 17.9688 12.5085 17.9684 12.5116 17.9683L16.6824 17.9679C17.1792 17.9679 17.5833 17.5922 17.5833 17.1304V16.7085C17.5833 15.9454 17.0986 15.0372 16.1722 14.7776C16.1698 14.777 16.1674 14.7763 16.165 14.7757L14.7095 14.3977C14.5861 14.3614 14.4886 14.2975 14.4676 14.2641L14.4666 13.4724C14.4678 13.4709 14.4691 13.4696 14.4703 13.4682C14.9694 12.8717 15.2442 12.0988 15.2442 11.2919V10.7023C15.7421 9.08032 15.3913 7.67397 15.2112 7.2647C15.2106 7.26333 15.2098 7.26211 15.2092 7.26074C15.2057 7.25308 15.2019 7.24565 15.1979 7.23833C15.1957 7.23408 15.1936 7.22979 15.1911 7.22563C15.1874 7.21914 15.1832 7.21294 15.1791 7.20669C15.176 7.2019 15.1729 7.19707 15.1696 7.19248C15.166 7.18755 15.1621 7.18291 15.1583 7.17817C15.1541 7.17275 15.1498 7.16729 15.1452 7.16216C15.142 7.1585 15.1385 7.15513 15.1351 7.15166C15.1296 7.14595 15.1242 7.14028 15.1185 7.13496C15.1153 7.13203 15.1119 7.12935 15.1086 7.12656C15.1024 7.12119 15.0962 7.11582 15.0897 7.11089C15.0859 7.10801 15.082 7.10547 15.0781 7.10278C15.0719 7.09839 15.0657 7.09395 15.0592 7.08994C15.0541 7.08682 15.0489 7.08408 15.0437 7.0812C15.0381 7.07812 15.0327 7.07485 15.027 7.07202C15.0205 7.06885 15.0139 7.06606 15.0072 7.06323C15.0025 7.06118 14.9978 7.05898 14.993 7.05713C14.9857 7.05435 14.9783 7.05205 14.9708 7.04971C14.9664 7.04829 14.9619 7.04668 14.9574 7.04541C14.9501 7.04341 14.9428 7.04194 14.9354 7.04033C14.9303 7.03926 14.9253 7.03799 14.9201 7.03711C14.9137 7.03603 14.9071 7.0353 14.9006 7.03452C14.8942 7.03374 14.8879 7.03286 14.8814 7.03242C14.8761 7.03203 14.8708 7.03203 14.8654 7.03188C14.8576 7.03164 14.8498 7.03145 14.8418 7.03169C14.8375 7.03179 14.8331 7.03223 14.8288 7.03252C14.82 7.03306 14.8111 7.03379 14.8023 7.03496C14.801 7.03511 14.7997 7.03511 14.7984 7.0353C14.422 7.08916 13.9627 6.97915 13.4766 6.86279C12.6167 6.65684 11.6468 6.4252 10.7972 7.03779C9.97559 7.1084 9.39307 7.79883 9.39307 8.73203C9.39307 9.41064 9.70796 10.6227 9.78013 10.8917V11.2179C9.78013 12.0601 10.0716 12.8386 10.5388 13.4194L10.5377 14.2651C10.5167 14.2983 10.4192 14.3623 10.2958 14.3986ZM10.5613 11.0843C10.5613 10.696 10.7256 10.1283 10.8484 9.76909C12.6183 9.80972 13.9538 10.2348 14.463 10.4232V10.64C14.463 10.6412 14.463 10.6424 14.463 10.6436V11.2918C14.463 11.9804 14.2041 12.6113 13.8001 13.0479C13.799 13.0489 13.798 13.05 13.797 13.0511C13.4498 13.425 12.996 13.6556 12.507 13.6556C11.4705 13.6556 10.5614 12.5164 10.5614 11.2177V11.0843H10.5613ZM11.3191 14.1029C11.6805 14.3159 12.0842 14.4369 12.5069 14.4369C12.9219 14.4369 13.3223 14.3294 13.6861 14.1261L13.6863 14.2693C13.6863 14.463 13.7562 14.6254 13.8646 14.7582L12.5043 15.561L11.1497 14.7482C11.2529 14.6175 11.3189 14.4588 11.3189 14.2707L11.3191 14.1029ZM8.3228 17.1875C8.24302 17.1875 8.20312 17.142 8.20312 17.1313V16.7094C8.20312 16.2417 8.49077 15.6876 9.04062 15.5317L10.364 15.188L12.112 16.2368V17.1871L8.3228 17.1875ZM16.8021 16.7084V17.1304C16.8021 17.1411 16.7622 17.1866 16.6824 17.1866L12.8932 17.187V16.2386L14.6646 15.1931L15.9647 15.5308C16.5146 15.6868 16.8021 16.2408 16.8021 16.7084ZM10.9371 7.8125C10.9383 7.8125 10.9395 7.81235 10.9407 7.8123C10.9524 7.81221 10.964 7.81167 10.9756 7.81055C10.9794 7.81021 10.9831 7.80947 10.9869 7.80898C10.9958 7.80786 11.0047 7.80669 11.0136 7.80493C11.0184 7.804 11.023 7.80269 11.0277 7.80151C11.0354 7.79971 11.043 7.79795 11.0506 7.79565C11.0558 7.79409 11.0608 7.79214 11.0659 7.79033C11.0729 7.78794 11.0797 7.7856 11.0866 7.78276C11.092 7.78052 11.0972 7.77788 11.1024 7.77544C11.1087 7.77251 11.1149 7.76973 11.121 7.76646C11.127 7.76328 11.1327 7.75967 11.1384 7.7562C11.1435 7.75312 11.1488 7.7502 11.1538 7.74683C11.1611 7.74194 11.168 7.73662 11.1749 7.7313C11.178 7.72891 11.1813 7.72686 11.1843 7.72437C11.759 7.25469 12.5049 7.4334 13.2947 7.62236C13.7197 7.72417 14.1563 7.82842 14.5801 7.82998C14.6819 8.2063 14.7821 8.87314 14.6745 9.66743C14.0387 9.43584 12.5469 8.98433 10.5766 8.98433C10.5757 8.98433 10.5749 8.98442 10.5741 8.98442C10.5645 8.98447 10.5549 8.98511 10.5453 8.98589C10.5417 8.98618 10.538 8.98628 10.5344 8.98667C10.5263 8.98755 10.5183 8.98896 10.5103 8.99033C10.5053 8.99121 10.5002 8.99185 10.4954 8.99287C10.4895 8.99414 10.4837 8.99585 10.4779 8.99736C10.4712 8.99912 10.4645 9.00068 10.4579 9.00273C10.4541 9.00396 10.4503 9.00557 10.4466 9.00688C10.4384 9.00977 10.4302 9.0126 10.4223 9.01602C10.4193 9.01728 10.4165 9.0189 10.4135 9.02026C10.4052 9.02412 10.3968 9.02798 10.3888 9.03237C10.3842 9.03486 10.3799 9.03779 10.3754 9.04053C10.3693 9.04419 10.3631 9.0477 10.3573 9.05171C10.3499 9.05674 10.3428 9.0623 10.3357 9.06787C10.3331 9.06992 10.3303 9.07178 10.3277 9.07393C10.3195 9.08071 10.3116 9.08804 10.304 9.09556C10.3027 9.09673 10.3014 9.09785 10.3001 9.09907C10.2932 9.10601 10.2867 9.11343 10.2803 9.12095C10.2785 9.12305 10.2765 9.125 10.2747 9.12715C10.2697 9.1332 10.2652 9.13965 10.2605 9.14609C10.2576 9.15015 10.2544 9.1541 10.2517 9.1583C10.2484 9.16318 10.2456 9.16831 10.2425 9.17334C10.2388 9.17954 10.2349 9.18574 10.2315 9.19224C10.2294 9.19609 10.2277 9.2002 10.2258 9.20415C10.2232 9.20928 10.2206 9.21436 10.2183 9.21968C10.1913 9.0354 10.1743 8.86611 10.1743 8.73198C10.1743 8.30781 10.374 7.8125 10.9371 7.8125Z" fill="#808080" stroke="#808080" stroke-width="0.5"/>
</g>
<defs>
<clipPath id="clip0_91_2033">
<rect width="25" height="25" fill="white"/>
</clipPath>
</defs>
</svg>
