<svg width="38" height="27" viewBox="0 0 38 27" fill="none" xmlns="http://www.w3.org/2000/svg">
<path d="M35.4142 16.1734C34.3341 15.1114 32.9073 14.5271 31.3942 14.5271C30.718 14.5271 30.0669 14.6645 29.451 14.8867V9.49691C29.451 7.06919 27.4764 5.09236 25.0491 5.09236C24.3559 5.09236 23.7099 5.26759 23.124 5.55278C20.7388 2.66199 17.2668 1 13.4979 1C6.60701 1 1 6.60811 1 13.4979C1 20.3883 6.60701 25.9971 13.4979 25.9971C16.2931 25.9971 18.9872 25.0555 21.1782 23.3466C21.9198 24.7354 23.3661 25.6927 25.0491 25.6927C26.069 25.6927 27.0237 25.3305 27.8031 24.7002C28.8218 25.5254 30.0667 26 31.3966 26C32.9464 26 34.3978 25.392 35.4872 24.2884C36.5596 23.1977 37.1426 21.7514 37.131 20.2213C37.114 18.6817 36.5049 17.2471 35.4142 16.1734ZM33.9533 16.7057L27.8817 22.8731C26.6133 21.1678 26.7255 18.7418 28.2609 17.1781C29.0928 16.3307 30.207 15.8663 31.3942 15.8663C32.328 15.8688 33.2093 16.1683 33.9533 16.7057ZM28.1118 9.49359V14.5245H21.9837V9.49359C21.9837 7.80416 23.3583 6.42891 25.0491 6.42891C26.7361 6.42891 28.1118 7.80416 28.1118 9.49359ZM14.1676 24.6252V22.5891C14.1676 22.2216 13.868 21.9196 13.4981 21.9196C13.1286 21.9196 12.8286 22.2216 12.8286 22.5891V24.6225C7.1922 24.2854 2.67991 19.7527 2.37039 14.1072H4.34788C4.71802 14.1072 5.01736 13.8059 5.01736 13.4377C5.01736 13.0696 4.7178 12.7682 4.34788 12.7682H2.3757C2.73854 7.17583 7.23003 2.70336 12.8284 2.36862V4.28903C12.8284 4.65718 13.1284 4.95851 13.4979 4.95851C13.868 4.95851 14.1674 4.65718 14.1674 4.28903V2.37128C17.2327 2.55358 20.0346 3.95804 22.0176 6.30943C21.1753 7.11299 20.6452 8.23847 20.6452 9.49115V21.2857C20.6452 21.5302 20.6773 21.7616 20.7171 21.9946C18.8695 23.5661 16.5756 24.4787 14.1676 24.6252ZM21.9837 21.2855V15.8608H27.76C27.6082 15.9865 27.4461 16.0962 27.3062 16.2376C25.2818 18.2985 25.1562 21.5052 26.8693 23.7362C26.3436 24.1283 25.7159 24.3482 25.0515 24.3482C23.3583 24.3506 21.9837 22.9762 21.9837 21.2855ZM34.5274 23.3437C33.042 24.8553 30.5441 25.0057 28.8388 23.813L34.9069 17.6471C35.4626 18.3938 35.7779 19.2819 35.7857 20.2286C35.7972 21.3981 35.35 22.5068 34.5274 23.3437ZM14.1676 7.4692V13.6625C14.1676 13.8233 14.1101 13.9784 14.0048 14.1006L10.8244 17.7832C10.6916 17.935 10.5053 18.0146 10.3175 18.0146C10.1626 18.0146 10.0069 17.9611 9.8801 17.8513C9.60023 17.6106 9.56947 17.1869 9.81019 16.9071L12.8271 13.4147V7.47053C12.8271 7.10237 13.1271 6.80104 13.4966 6.80104C13.8667 6.79971 14.1676 7.10105 14.1676 7.4692Z" fill="#0094DE" stroke="#0094DE" stroke-width="0.5"/>
</svg>
