<svg width="22" height="22" viewBox="0 0 22 22" fill="none" xmlns="http://www.w3.org/2000/svg">
<g clip-path="url(#clip0_81_1734)">
<path d="M11 0C5.86547 0 1.54177 3.53636 0.335384 8.30124C0.321358 8.3376 0.312623 8.37494 0.308194 8.41234C0.107283 9.2425 0 10.1089 0 11C0 13.6105 0.914678 16.0111 2.43959 17.8994C2.46241 17.9377 2.49053 17.9724 2.52307 18.0025C4.54232 20.4427 7.59264 21.9999 10.9999 21.9999C17.0654 21.9999 21.9999 17.0654 21.9999 10.9999C21.9999 4.93449 17.0655 0 11 0V0ZM11 0.922736C15.5859 0.922736 19.4657 4.00203 20.6815 8.2014L15.7436 10.7669C15.2832 10.2898 14.638 9.99219 13.9242 9.99219H8.07597C7.3515 9.99219 6.69771 10.2987 6.23604 10.7883L1.31029 8.22921C2.51686 4.01556 6.40397 0.922736 11 0.922736ZM6.46857 16.3832V12.5222C6.46857 11.636 7.18959 10.9149 8.07591 10.9149H13.9241C14.4508 10.9149 14.919 11.1695 15.2124 11.5622C15.2125 11.5623 15.2125 11.5625 15.2126 11.5626C15.2297 11.5955 15.2509 11.6247 15.2741 11.6515C15.4366 11.9026 15.5314 12.2015 15.5314 12.5222V16.3832C15.5314 17.2695 14.8103 17.9905 13.9241 17.9905H8.07591C7.18959 17.9906 6.46857 17.2695 6.46857 16.3832ZM1.09246 9.15582L5.73364 11.5671C5.61294 11.862 5.54583 12.1843 5.54583 12.5221V16.3832C5.54583 16.67 5.59449 16.9456 5.68283 17.2028H3.06336C1.72281 15.4915 0.922736 13.3374 0.922736 11C0.922736 10.3702 0.981361 9.75394 1.09246 9.15582ZM3.88091 18.1256H6.24397C6.70516 18.6102 7.35562 18.9133 8.07591 18.9133H13.9241C14.6444 18.9133 15.2948 18.6102 15.756 18.1256H18.119C16.2945 19.9484 13.7766 21.0772 10.9999 21.0772C8.22324 21.0772 5.7054 19.9484 3.88091 18.1256ZM18.9366 17.2028H16.3171C16.4055 16.9456 16.4541 16.67 16.4541 16.3832V12.5222C16.4541 12.1743 16.3834 11.8425 16.2558 11.5405L20.9019 9.12666C21.0166 9.73388 21.0773 10.3599 21.0773 10.9999C21.0773 13.3374 20.2771 15.4914 18.9366 17.2028Z" fill="#808080" stroke="#808080" stroke-width="0.5"/>
<path d="M4.80309 8.56608C4.82684 8.56866 4.97134 8.5833 5.20258 8.5833C6.00259 8.5833 7.83914 8.40823 9.2927 6.95467C9.47288 6.77449 9.47288 6.48235 9.2927 6.30223C9.11252 6.12205 8.82038 6.12205 8.64026 6.30223C7.08883 7.85366 4.93025 7.65164 4.90232 7.64875C4.64973 7.62205 4.42231 7.80439 4.39463 8.05734C4.36688 8.31054 4.54977 8.53833 4.80309 8.56608Z" fill="#808080" stroke="#808080" stroke-width="0.5"/>
<path d="M16.7973 8.58322C17.0284 8.58322 17.173 8.56858 17.1968 8.566C17.4496 8.53832 17.6317 8.31139 17.6047 8.05849C17.5777 7.8056 17.3506 7.62216 17.0976 7.64861C17.0759 7.65095 14.9134 7.85586 13.3596 6.3021C13.1794 6.12192 12.8873 6.12192 12.7072 6.3021C12.527 6.48228 12.527 6.77441 12.7072 6.95453C14.1608 8.40827 15.9974 8.58322 16.7973 8.58322Z" fill="#808080" stroke="#808080" stroke-width="0.5"/>
</g>
<defs>
<clipPath id="clip0_81_1734">
<rect width="22" height="22" fill="white"/>
</clipPath>
</defs>
</svg>
