<svg width="25" height="25" viewBox="0 0 25 25" fill="none" xmlns="http://www.w3.org/2000/svg">
<path d="M6.25 14.0625V17.1875H21.875V14.0625H6.25ZM5.46875 12.5H22.6562C22.8635 12.5 23.0622 12.5823 23.2087 12.7288C23.3552 12.8753 23.4375 13.074 23.4375 13.2812V17.9688C23.4375 18.176 23.3552 18.3747 23.2087 18.5212C23.0622 18.6677 22.8635 18.75 22.6562 18.75H5.46875C5.26155 18.75 5.06284 18.6677 4.91632 18.5212C4.76981 18.3747 4.6875 18.176 4.6875 17.9688V13.2812C4.6875 13.074 4.76981 12.8753 4.91632 12.7288C5.06284 12.5823 5.26155 12.5 5.46875 12.5Z" fill="#808080"/>
<path d="M17.1875 14.0625H18.75V17.1875H17.1875V14.0625ZM6.25 1.5625H7.8125V9.375H6.25V1.5625ZM3.125 4.6875H4.6875V9.375H3.125V4.6875ZM1.5625 12.5H3.125V18.75H1.5625V12.5Z" fill="#808080"/>
</svg>
