<svg width="25" height="25" viewBox="0 0 25 25" fill="none" xmlns="http://www.w3.org/2000/svg">
<path d="M24.955 12.4775C24.955 18.4467 20.7636 23.4367 15.1634 24.6653C14.2983 24.855 13.4922 23.6229 12.5701 23.6229C11.7123 23.6229 10.7822 24.8685 9.97302 24.7035C4.2822 23.5441 0 18.5108 0 12.4775C0 5.58629 5.58629 0 12.4775 0C19.3687 0 24.955 5.58629 24.955 12.4775Z" fill="url(#paint0_linear_134_328)"/>
<g opacity="0.81">
<path d="M4.36141 8.21863C4.32668 8.21863 4.29162 8.21511 4.25622 8.20756C3.98426 8.14985 3.81079 7.88242 3.8685 7.61063C4.23726 5.87553 5.26268 4.44142 6.83386 3.46298C8.12034 2.66187 9.7385 2.20637 11.2729 2.21459C11.5509 2.21593 11.7751 2.44242 11.7737 2.72042C11.7724 2.99758 11.5472 3.22122 11.2704 3.22122C11.2696 3.22122 11.2687 3.22122 11.2677 3.22122C11.258 3.22122 11.2479 3.22122 11.238 3.22122C9.05281 3.22122 5.57122 4.44092 4.85299 7.82001C4.80299 8.05657 4.59394 8.21863 4.36141 8.21863Z" fill="white"/>
</g>
<path d="M6.68793 10.204C6.53761 10.204 6.40087 10.1024 6.36262 9.94986C6.31766 9.77018 6.42688 9.58781 6.60656 9.54284L8.46799 9.07677L6.546 8.23674C6.37621 8.16259 6.2987 7.96478 6.37286 7.79483C6.44701 7.62488 6.64481 7.54754 6.81477 7.62169L9.6382 8.85565C9.76973 8.9132 9.85009 9.04792 9.83818 9.19103C9.82627 9.33414 9.7246 9.45376 9.58535 9.48865L6.76964 10.1936C6.74229 10.2007 6.71494 10.204 6.68793 10.204Z" fill="#542A19"/>
<path d="M18.2762 10.1577C18.25 10.1577 18.2235 10.1547 18.197 10.1482L15.3757 9.46585C15.2361 9.43212 15.1336 9.31334 15.1205 9.1704C15.1075 9.02746 15.1868 8.8919 15.3178 8.83335L18.1314 7.57674C18.3007 7.50124 18.499 7.57707 18.5746 7.74619C18.6501 7.9153 18.5743 8.11377 18.4052 8.18944L16.4899 9.04491L18.3548 9.49605C18.535 9.53967 18.6456 9.72103 18.6021 9.90105C18.5649 10.0546 18.4275 10.1577 18.2762 10.1577Z" fill="#542A19"/>
<path d="M11.5518 11.8467L2.55173 23.0706C1.92879 23.8476 2.48177 25 3.47766 25H3.58201C3.79911 25 4.01218 24.9404 4.19774 24.8278L4.87688 24.4158C5.45384 24.0657 6.15144 23.9742 6.79921 24.164L9.28474 24.8918C9.52533 24.9622 9.78202 24.9547 10.0181 24.8703L11.9498 24.1792C12.4058 24.0162 12.9054 24.0234 13.3564 24.1997L15.0212 24.8507C15.269 24.9476 15.5421 24.9584 15.7968 24.8814L18.1852 24.1593C18.8204 23.9672 19.5067 24.0464 20.0815 24.3779L20.885 24.8413C21.0653 24.9453 21.2699 25 21.4781 25C22.4739 25 23.0271 23.8476 22.404 23.0706L13.4039 11.8467C12.9286 11.2541 12.027 11.2541 11.5518 11.8467Z" fill="#E6E7E8"/>
<path d="M5.60889 24.1229C5.99879 24.0375 6.40798 24.0492 6.79906 24.1638L9.2846 24.8916C9.40741 24.9275 9.53441 24.9431 9.66074 24.9386L10.4838 16.4072L5.60889 24.1229Z" fill="#D1D3D4"/>
<path d="M14.4722 16.407L15.3963 24.9304C15.5308 24.9369 15.6662 24.9206 15.7969 24.8812L18.1853 24.1591C18.5608 24.0455 18.9542 24.0269 19.3318 24.099L14.4722 16.407Z" fill="#D1D3D4"/>
<defs>
<linearGradient id="paint0_linear_134_328" x1="0" y1="12.3593" x2="24.955" y2="12.3593" gradientUnits="userSpaceOnUse">
<stop stop-color="#FEDC52"/>
<stop offset="0.9947" stop-color="#FCB117"/>
</linearGradient>
</defs>
</svg>
