<svg width="15" height="15" viewBox="0 0 15 15" fill="none" xmlns="http://www.w3.org/2000/svg">
<path d="M14.9666 5.42504C14.8863 5.17814 14.6729 4.9982 14.4161 4.96092L10.0597 4.32799L8.11149 0.380158C7.99661 0.14739 7.75952 0 7.49997 0C7.24038 0 7.0033 0.14739 6.88846 0.380158L4.94034 4.32794L0.583895 4.96087C0.327032 4.9982 0.113585 5.17814 0.0333892 5.425C-0.0468067 5.67191 0.0200686 5.94291 0.205965 6.12408L3.35829 9.19653L2.61384 13.5357C2.56997 13.7916 2.67513 14.0502 2.88512 14.2027C3.00391 14.2891 3.14462 14.333 3.28601 14.333C3.39453 14.333 3.5035 14.3071 3.60329 14.2546L7.49993 12.2061L11.3965 14.2546C11.4969 14.3074 11.6068 14.3326 11.7157 14.333C12.0919 14.3324 12.3967 14.0273 12.3967 13.651C12.3967 13.5987 12.3908 13.5476 12.3796 13.4986L11.6416 9.19657L14.7939 6.12408C14.9799 5.94291 15.0468 5.67191 14.9666 5.42504Z" fill="#FFAD1B"/>
</svg>
