<svg width="23" height="23" viewBox="0 0 23 23" fill="none" xmlns="http://www.w3.org/2000/svg">
<path d="M2.61726 22.5912H1.71503C1.11018 22.5912 0.61792 22.0989 0.61792 21.4941V10.113C0.61792 9.65104 0.993248 9.27571 1.45519 9.27571H3.45453C3.59745 9.27571 3.71438 9.39264 3.71438 9.53555V21.4926C3.71438 22.0989 3.22212 22.5912 2.61726 22.5912ZM1.45519 9.7954C1.28052 9.7954 1.1376 9.93831 1.1376 10.113V21.4926C1.1376 21.8117 1.396 22.0701 1.71503 22.0701H2.61726C2.93629 22.0701 3.19469 21.8117 3.19469 21.4926V9.7954H1.45519Z" fill="#808080" stroke="#808080" stroke-width="0.5"/>
<path d="M3.45456 9.79539H1.72227C1.57936 9.79539 1.46243 9.67846 1.46243 9.53555V8.18725C1.46243 8.13817 1.44366 8.09198 1.40902 8.05733L0.825815 7.47413C0.693007 7.34132 0.619385 7.16376 0.619385 6.9761V3.47111C0.619385 1.90773 1.89117 0.634499 3.456 0.634499C3.59891 0.634499 3.71584 0.751428 3.71584 0.894341V9.53555C3.7144 9.67991 3.59747 9.79539 3.45456 9.79539ZM1.98211 9.27571H3.19471V1.16862C2.03841 1.29854 1.13763 2.28161 1.13763 3.47111V6.97466C1.13763 7.02374 1.15639 7.06993 1.19104 7.10458L1.77424 7.68778C1.90705 7.82059 1.98067 7.99815 1.98067 8.18581V9.27571H1.98211Z" fill="#808080" stroke="#808080" stroke-width="0.5"/>
<path d="M3.45453 11.75H0.877762C0.734849 11.75 0.61792 11.6331 0.61792 11.4901C0.61792 11.3472 0.734849 11.2303 0.877762 11.2303H3.45453C3.59745 11.2303 3.71438 11.3472 3.71438 11.4901C3.71438 11.6345 3.59745 11.75 3.45453 11.75Z" fill="#808080" stroke="#808080" stroke-width="0.5"/>
<path d="M21.5208 22.5912H20.6186C20.0137 22.5912 19.5215 22.0989 19.5215 21.4941V10.3728C19.5215 9.76797 20.0137 9.27571 20.6186 9.27571H21.5208C22.1257 9.27571 22.6179 9.76797 22.6179 10.3728V21.4926C22.6179 22.0989 22.1257 22.5912 21.5208 22.5912ZM20.6186 9.7954C20.2996 9.7954 20.0412 10.0538 20.0412 10.3728V21.4926C20.0412 21.8117 20.2996 22.0701 20.6186 22.0701H21.5208C21.8399 22.0701 22.0983 21.8117 22.0983 21.4926V10.3728C22.0983 10.0538 21.8399 9.7954 21.5208 9.7954H20.6186Z" fill="#808080" stroke="#808080" stroke-width="0.5"/>
<path d="M22.3581 11.7947H19.7813C19.6384 11.7947 19.5215 11.6778 19.5215 11.5349C19.5215 11.392 19.6384 11.2751 19.7813 11.2751H22.3581C22.501 11.2751 22.6179 11.392 22.6179 11.5349C22.6179 11.6793 22.501 11.7947 22.3581 11.7947Z" fill="#808080" stroke="#808080" stroke-width="0.5"/>
<path d="M22.3581 20.5919H19.7813C19.6384 20.5919 19.5215 20.4749 19.5215 20.332C19.5215 20.1891 19.6384 20.0722 19.7813 20.0722H22.3581C22.501 20.0722 22.6179 20.1891 22.6179 20.332C22.6179 20.4749 22.501 20.5919 22.3581 20.5919Z" fill="#808080" stroke="#808080" stroke-width="0.5"/>
<path d="M21.0706 9.79539C20.9277 9.79539 20.8108 9.67846 20.8108 9.53555V3.30366C20.8108 2.75366 20.997 2.21087 21.3362 1.77636L22.1317 0.7572C22.2197 0.644602 22.3828 0.624392 22.4969 0.71245C22.6095 0.800507 22.6297 0.963631 22.5416 1.07767L21.7462 2.09683C21.4777 2.4404 21.3305 2.86914 21.3305 3.30366V9.53699C21.3305 9.6799 21.2135 9.79539 21.0706 9.79539Z" fill="#808080" stroke="#808080" stroke-width="0.5"/>
<path d="M15.4778 22.5912C14.0545 22.5912 12.8953 21.432 12.8953 20.0087C12.8953 18.5853 14.0545 17.4261 15.4778 17.4261C16.9012 17.4261 18.0604 18.5853 18.0604 20.0087C18.0604 21.432 16.9026 22.5912 15.4778 22.5912ZM15.4778 17.9458C14.3403 17.9458 13.4149 18.8711 13.4149 20.0087C13.4149 21.1462 14.3403 22.0715 15.4778 22.0715C16.6153 22.0715 17.5407 21.1462 17.5407 20.0087C17.5407 18.8711 16.6153 17.9458 15.4778 17.9458Z" fill="#808080" stroke="#808080" stroke-width="0.5"/>
<path d="M13.177 20.5774C13.0571 20.5774 12.9489 20.4937 12.9229 20.3724L11.2556 12.6407L8.58786 0.975182C8.5561 0.835156 8.64271 0.696573 8.78274 0.663371C8.92276 0.631613 9.06135 0.718227 9.09455 0.858253L11.7623 12.5252C11.7623 12.5266 11.7623 12.5266 11.7623 12.5281L13.431 20.2627C13.4613 20.4027 13.3718 20.5413 13.2318 20.5716C13.2145 20.576 13.1957 20.5774 13.177 20.5774Z" fill="#808080" stroke="#808080" stroke-width="0.5"/>
<path d="M7.75784 22.5912C6.33448 22.5912 5.17529 21.432 5.17529 20.0087C5.17529 18.5853 6.33448 17.4261 7.75784 17.4261C9.1812 17.4261 10.3404 18.5853 10.3404 20.0087C10.3404 21.432 9.1812 22.5912 7.75784 22.5912ZM7.75784 17.9458C6.62031 17.9458 5.69498 18.8711 5.69498 20.0087C5.69498 21.1462 6.62031 22.0715 7.75784 22.0715C8.89537 22.0715 9.8207 21.1462 9.8207 20.0087C9.8207 18.8711 8.89537 17.9458 7.75784 17.9458Z" fill="#808080" stroke="#808080" stroke-width="0.5"/>
<path d="M10.0588 20.5774C10.04 20.5774 10.0227 20.576 10.0039 20.5716C9.86392 20.5413 9.77441 20.4027 9.80473 20.2627L11.4735 12.5281C11.4735 12.5266 11.4735 12.5266 11.4735 12.5252L14.1412 0.858254C14.173 0.718228 14.313 0.63017 14.453 0.663372C14.593 0.69513 14.6811 0.835157 14.6479 0.975183L11.9802 12.6407L10.3129 20.3724C10.2854 20.4937 10.1786 20.5774 10.0588 20.5774Z" fill="#808080" stroke="#808080" stroke-width="0.5"/>
</svg>
