<svg width="25" height="25" viewBox="0 0 25 25" fill="none" xmlns="http://www.w3.org/2000/svg">
<g clip-path="url(#clip0_132_214)">
<path d="M25 12.5C25 19.4035 19.4035 25 12.5 25C5.59722 25 0 19.4035 0 12.5C0 5.59722 5.59722 0 12.5 0C19.4035 0 25 5.59722 25 12.5Z" fill="#FFCC4D"/>
<path d="M10.4166 11.4583C10.4166 12.8014 9.63947 13.8889 8.68045 13.8889C7.72142 13.8889 6.94434 12.8014 6.94434 11.4583C6.94434 10.116 7.72142 9.02777 8.68045 9.02777C9.63947 9.02777 10.4166 10.116 10.4166 11.4583Z" fill="#664500"/>
<path d="M18.0552 11.4583C18.0552 12.8014 17.2781 13.8889 16.3191 13.8889C15.3601 13.8889 14.583 12.8014 14.583 11.4583C14.583 10.116 15.3601 9.02777 16.3191 9.02777C17.2781 9.02777 18.0552 10.116 18.0552 11.4583Z" fill="#664500"/>
<path d="M16.3088 20.4021C16.3004 20.3715 15.5129 18.4028 12.4997 18.4028C9.48516 18.4028 8.69766 20.3715 8.69072 20.4021C8.65391 20.55 8.72058 20.7014 8.85113 20.7799C8.98169 20.8576 9.15183 20.8396 9.26502 20.7382C9.27197 20.7333 9.96919 20.1389 12.4997 20.1389C14.9921 20.1389 15.706 20.7153 15.7331 20.7382C15.7991 20.8007 15.8852 20.8333 15.972 20.8333C16.0303 20.8333 16.0893 20.8188 16.1428 20.7889C16.2789 20.7111 16.347 20.5535 16.3088 20.4021Z" fill="#664500"/>
<path d="M20.1385 8.33334C16.2816 8.33334 14.7205 5.3007 14.6559 5.17154C14.4844 4.82848 14.6239 4.41112 14.967 4.23959C15.3087 4.06876 15.7253 4.20695 15.8975 4.54793C15.9489 4.64862 17.1614 6.94445 20.1385 6.94445C20.5225 6.94445 20.833 7.25557 20.833 7.6389C20.833 8.02223 20.5225 8.33334 20.1385 8.33334" fill="#664500"/>
<path d="M4.86095 8.32916C4.47762 8.32916 4.1665 8.01805 4.1665 7.63472C4.1665 7.25138 4.47762 6.94027 4.86095 6.94027C8.39081 6.94027 9.02484 4.77361 9.05053 4.68125C9.15123 4.31458 9.5297 4.09305 9.89706 4.18889C10.2651 4.28541 10.488 4.65625 10.3957 5.02569C10.3616 5.16041 9.5165 8.32916 4.86095 8.32916Z" fill="#664500"/>
<path d="M8.42432 20.8993L22.1757 10.584C22.9424 10.0083 24.0306 10.1639 24.6063 10.9305C25.182 11.6979 25.0264 12.7861 24.2597 13.3604L13.3722 21.5278L8.42432 20.8993Z" fill="#CCD6DD"/>
<path d="M11.2111 22.1514C10.7972 22.4611 10.2097 22.3778 9.89927 21.9639C9.58885 21.5493 9.67288 20.9625 10.0868 20.6521L18.9319 14.0167C19.3458 13.7062 19.5812 14.0868 19.8923 14.5014C20.2027 14.9153 20.4701 15.2055 20.0562 15.516L11.2111 22.1514Z" fill="#DA2F47"/>
<path d="M12.916 17.5194L13.7737 18.6292L14.2875 18.216L13.457 17.1139L12.916 17.5194Z" fill="#67757F"/>
<path d="M14.46 16.366L15.3176 17.4757L15.8315 17.0625L15.0009 15.9604L14.46 16.366Z" fill="#67757F"/>
<path d="M15.9766 15.2417L16.8342 16.3514L17.3481 15.9382L16.5175 14.8361L15.9766 15.2417Z" fill="#67757F"/>
<path d="M17.4912 14.0889L18.3488 15.1986L18.8627 14.7854L18.0322 13.6833L17.4912 14.0889Z" fill="#67757F"/>
<path d="M19.0454 12.9493L19.903 14.059L20.4169 13.6458L19.5864 12.5437L19.0454 12.9493Z" fill="#67757F"/>
<path d="M20.5312 11.8257L21.3889 12.9354L21.9028 12.5222L21.0722 11.4201L20.5312 11.8257Z" fill="#67757F"/>
</g>
<defs>
<clipPath id="clip0_132_214">
<rect width="25" height="25" fill="white"/>
</clipPath>
</defs>
</svg>
