<svg width="20" height="18" viewBox="0 0 20 18" fill="none" xmlns="http://www.w3.org/2000/svg">
<path d="M9.1668 16.653C9.3907 16.8769 9.69168 17.0017 10.0073 17.0017C10.3193 17.0017 10.6277 16.8732 10.8479 16.653L17.4437 10.0571C18.4458 9.0551 18.9963 7.72272 19 6.30959C19 4.89278 18.4494 3.5604 17.4474 2.55836C16.4454 1.55632 15.1166 1.00575 13.6998 1.00575C12.3087 1.00575 10.9984 1.53797 10.0037 2.50698C9.0053 1.5343 7.69127 0.998413 6.29649 0.998413C4.88336 0.998413 3.55465 1.54898 2.55261 2.54735C1.55057 3.54939 1 4.88177 1 6.29858C1 7.71171 1.55424 9.04409 2.55628 10.0461L9.1668 16.653ZM3.19127 3.18601C4.0208 2.35649 5.12561 1.89768 6.30016 1.89768C7.47471 1.89768 8.5832 2.35649 9.4164 3.18969L9.68801 3.4613C9.77243 3.54572 9.88622 3.59344 10.0073 3.59344C10.1248 3.59344 10.2423 3.54572 10.3267 3.4613L10.5909 3.19703C11.4241 2.36383 12.529 1.90502 13.7072 1.90502C14.8817 1.90502 15.9865 2.36383 16.8161 3.19336C17.6493 4.02655 18.1044 5.13137 18.1044 6.30592C18.1044 7.48047 17.6456 8.58528 16.8124 9.41848L10.2129 16.018C10.1064 16.1244 9.91191 16.1244 9.80179 16.018L3.19494 9.41114C2.36175 8.57794 1.90294 7.47313 1.90294 6.29858C1.90294 5.12402 2.36175 4.01921 3.19127 3.18601Z" fill="white" stroke="white" stroke-width="0.8"/>
</svg>
