<svg width="22" height="22" viewBox="0 0 22 22" fill="none" xmlns="http://www.w3.org/2000/svg">
<path d="M18.0716 3.92843C16.182 2.03885 13.6708 1 11 1C8.32924 1 5.818 2.03885 3.92843 3.92843C2.03885 5.818 1 8.32924 1 11C1 13.6708 2.03885 16.182 3.92843 18.0716C5.818 19.9611 8.32924 21 11 21C13.6708 21 16.182 19.9611 18.0716 18.0716C19.9611 16.182 21 13.6708 21 11C21 8.32924 19.9611 5.818 18.0716 3.92843ZM11 19.8957C6.09611 19.8957 2.10429 15.9039 2.10429 11C2.10429 6.09611 6.09611 2.10429 11 2.10429C15.9039 2.10429 19.8957 6.09611 19.8957 11C19.8957 15.9039 15.9039 19.8957 11 19.8957Z" fill="#808080" stroke="#808080" stroke-width="0.3"/>
<path d="M11 9.31084C12.4356 9.31084 13.6013 8.1411 13.6013 6.70961C13.6013 5.27812 12.4356 4.10429 11 4.10429C9.56445 4.10429 8.3988 5.27403 8.3988 6.70552C8.3988 8.13701 9.56445 9.31084 11 9.31084ZM11 5.20859C11.8262 5.20859 12.497 5.87934 12.497 6.70552C12.497 7.5317 11.8262 8.20245 11 8.20245C10.1739 8.20245 9.5031 7.5317 9.5031 6.70552C9.5031 5.87934 10.1739 5.20859 11 5.20859Z" fill="#808080" stroke="#808080" stroke-width="0.3"/>
<path d="M14.9427 12.4724C14.0307 11.1309 12.7055 10.4479 11 10.4479C9.29446 10.4479 7.96931 11.1268 7.05724 12.4724C6.37831 13.4703 5.94477 14.8323 5.77299 16.5092C5.74027 16.8119 5.96113 17.0859 6.26379 17.1145C6.56645 17.1472 6.84047 16.9264 6.8691 16.6237C7.21675 13.2577 8.60735 11.5521 11 11.5521C13.3926 11.5521 14.7832 13.2577 15.1309 16.6237C15.1595 16.9059 15.4008 17.1186 15.6789 17.1186C15.6994 17.1186 15.7157 17.1186 15.7362 17.1145C16.0388 17.0818 16.2597 16.8119 16.227 16.5092C16.0552 14.8282 15.6217 13.4703 14.9427 12.4724Z" fill="#808080" stroke="#808080" stroke-width="0.3"/>
</svg>
