<svg width="19" height="19" viewBox="0 0 19 19" fill="none" xmlns="http://www.w3.org/2000/svg">
<path d="M13.5831 9.00001C16.1145 9.00001 18.1665 11.052 18.1665 13.5833C18.1665 16.1146 16.1145 18.1667 13.5831 18.1667C11.0518 18.1667 8.99981 16.1146 8.99981 13.5833C8.99981 11.052 11.0518 9.00001 13.5831 9.00001ZM11.3778 13.2887C11.2151 13.126 10.9512 13.126 10.7885 13.2887C10.6258 13.4514 10.6258 13.7153 10.7885 13.878L12.4552 15.5446C12.6179 15.7074 12.8817 15.7074 13.0444 15.5446L16.3778 12.2113C16.5405 12.0486 16.5405 11.7848 16.3778 11.6221C16.2151 11.4593 15.9512 11.4593 15.7885 11.6221L12.7498 14.6608L11.3778 13.2887ZM9.01837 10.6661C8.77112 11.0522 8.57151 11.4717 8.42783 11.9164L2.5435 11.9166C2.19884 11.9166 1.91943 12.196 1.91943 12.5407V13.0221C1.91943 13.4685 2.07869 13.9002 2.36857 14.2397C3.413 15.4627 5.05123 16.0842 7.33315 16.0842C7.83018 16.0842 8.29674 16.0548 8.73334 15.996C8.93767 16.4084 9.19396 16.7905 9.49294 17.1346C8.83002 17.2681 8.10928 17.3342 7.33315 17.3342C4.7116 17.3342 2.72325 16.5799 1.418 15.0514C0.934865 14.4856 0.669434 13.7661 0.669434 13.0221V12.5407C0.669434 11.5057 1.50848 10.6666 2.5435 10.6666L9.01837 10.6661ZM7.33315 0.670532C9.63434 0.670532 11.4998 2.53601 11.4998 4.8372C11.4998 7.13839 9.63434 9.00387 7.33315 9.00387C5.03196 9.00387 3.16648 7.13839 3.16648 4.8372C3.16648 2.53601 5.03196 0.670532 7.33315 0.670532ZM7.33315 1.92053C5.72232 1.92053 4.41648 3.22637 4.41648 4.8372C4.41648 6.44803 5.72232 7.75387 7.33315 7.75387C8.94398 7.75387 10.2498 6.44803 10.2498 4.8372C10.2498 3.22637 8.94398 1.92053 7.33315 1.92053Z" fill="#2BBB39"/>
</svg>
