<svg width="25" height="25" viewBox="0 0 25 25" fill="none" xmlns="http://www.w3.org/2000/svg">
<g clip-path="url(#clip0_1033_735)">
<path fill-rule="evenodd" clip-rule="evenodd" d="M16.1781 9.60312C16.2509 9.67569 16.3086 9.7619 16.348 9.85681C16.3874 9.95173 16.4077 10.0535 16.4077 10.1562C16.4077 10.259 16.3874 10.3608 16.348 10.4557C16.3086 10.5506 16.2509 10.6368 16.1781 10.7094L11.4906 15.3969C11.4181 15.4696 11.3319 15.5273 11.2369 15.5667C11.142 15.6061 11.0403 15.6264 10.9375 15.6264C10.8347 15.6264 10.733 15.6061 10.6381 15.5667C10.5432 15.5273 10.457 15.4696 10.3844 15.3969L8.04064 13.0531C7.968 12.9805 7.91038 12.8942 7.87107 12.7993C7.83176 12.7044 7.81152 12.6027 7.81152 12.5C7.81152 12.3973 7.83176 12.2955 7.87107 12.2006C7.91038 12.1057 7.968 12.0195 8.04064 11.9469C8.11327 11.8742 8.19951 11.8166 8.29441 11.7773C8.38932 11.738 8.49104 11.7178 8.59376 11.7178C8.69649 11.7178 8.7982 11.738 8.89311 11.7773C8.98802 11.8166 9.07425 11.8742 9.14689 11.9469L10.9375 13.7391L15.0719 9.60312C15.1445 9.53036 15.2307 9.47264 15.3256 9.43325C15.4205 9.39387 15.5222 9.3736 15.625 9.3736C15.7278 9.3736 15.8295 9.39387 15.9244 9.43325C16.0194 9.47264 16.1056 9.53036 16.1781 9.60312Z" fill="#333333"/>
<path d="M16.0518 3.92656L14.6127 2.45156L15.7299 1.36093L16.7018 2.35624L18.0924 2.33906C18.6943 2.33193 19.2917 2.44524 19.8492 2.67232C20.4067 2.8994 20.9132 3.23566 21.3389 3.66134C21.7645 4.08701 22.1008 4.5935 22.3279 5.15103C22.555 5.70855 22.6683 6.30585 22.6611 6.90781L22.6455 8.29843L23.6393 9.27031C24.0697 9.69089 24.4117 10.1933 24.6452 10.7479C24.8787 11.3025 24.999 11.8982 24.999 12.5C24.999 13.1018 24.8787 13.6975 24.6452 14.2521C24.4117 14.8067 24.0697 15.3091 23.6393 15.7297L22.644 16.7016L22.6611 18.0922C22.6683 18.6941 22.555 19.2914 22.3279 19.849C22.1008 20.4065 21.7645 20.913 21.3389 21.3387C20.9132 21.7643 20.4067 22.1006 19.8492 22.3277C19.2917 22.5547 18.6943 22.6681 18.0924 22.6609L16.7018 22.6453L15.7299 23.6391C15.3093 24.0695 14.807 24.4115 14.2523 24.645C13.6977 24.8785 13.102 24.9987 12.5002 24.9987C11.8984 24.9987 11.3027 24.8785 10.7481 24.645C10.1935 24.4115 9.6911 24.0695 9.27052 23.6391L8.29865 22.6437L6.90802 22.6609C6.30607 22.6681 5.70877 22.5547 5.15124 22.3277C4.59372 22.1006 4.08722 21.7643 3.66155 21.3387C3.23588 20.913 2.89961 20.4065 2.67253 19.849C2.44545 19.2914 2.33215 18.6941 2.33927 18.0922L2.3549 16.7016L1.36115 15.7297C0.930739 15.3091 0.58874 14.8067 0.355243 14.2521C0.121747 13.6975 0.00146484 13.1018 0.00146484 12.5C0.00146484 11.8982 0.121747 11.3025 0.355243 10.7479C0.58874 10.1933 0.930739 9.69089 1.36115 9.27031L2.35646 8.29843L2.33927 6.90781C2.33215 6.30585 2.44545 5.70855 2.67253 5.15103C2.89961 4.5935 3.23588 4.08701 3.66155 3.66134C4.08722 3.23566 4.59372 2.8994 5.15124 2.67232C5.70877 2.44524 6.30607 2.33193 6.90802 2.33906L8.29865 2.35468L9.27052 1.36093C9.6911 0.930526 10.1935 0.588526 10.7481 0.35503C11.3027 0.121534 11.8984 0.00125122 12.5002 0.00125122C13.102 0.00125122 13.6977 0.121534 14.2523 0.35503C14.807 0.588526 15.3093 0.930526 15.7299 1.36093L14.6127 2.45156C14.3376 2.16997 14.0091 1.94622 13.6463 1.79346C13.2835 1.64069 12.8938 1.56199 12.5002 1.56199C12.1066 1.56199 11.7169 1.64069 11.3541 1.79346C10.9913 1.94622 10.6628 2.16997 10.3877 2.45156L8.95021 3.92656L6.88771 3.90156C6.49424 3.89716 6.10385 3.97144 5.73949 4.12004C5.37513 4.26863 5.04414 4.48855 4.76597 4.76687C4.4878 5.04519 4.26806 5.37629 4.11965 5.74073C3.97124 6.10517 3.89717 6.49559 3.90177 6.88906L3.92677 8.94843L2.45177 10.3875C2.17019 10.6626 1.94643 10.9911 1.79367 11.3539C1.6409 11.7167 1.56221 12.1064 1.56221 12.5C1.56221 12.8936 1.6409 13.2833 1.79367 13.6461C1.94643 14.0089 2.17019 14.3374 2.45177 14.6125L3.92677 16.05L3.90177 18.1125C3.89737 18.506 3.97165 18.8963 4.12025 19.2607C4.26885 19.6251 4.48877 19.9561 4.76708 20.2342C5.0454 20.5124 5.3765 20.7321 5.74094 20.8806C6.10538 21.029 6.4958 21.103 6.88927 21.0984L8.94865 21.0734L10.3877 22.5484C10.6628 22.83 10.9913 23.0538 11.3541 23.2065C11.7169 23.3593 12.1066 23.438 12.5002 23.438C12.8938 23.438 13.2835 23.3593 13.6463 23.2065C14.0091 23.0538 14.3376 22.83 14.6127 22.5484L16.0502 21.0734L18.1127 21.0984C18.5062 21.1028 18.8966 21.0285 19.2609 20.88C19.6253 20.7314 19.9563 20.5114 20.2344 20.2331C20.5126 19.9548 20.7324 19.6237 20.8808 19.2593C21.0292 18.8948 21.1033 18.5044 21.0986 18.1109L21.0736 16.0516L22.5486 14.6125C22.8302 14.3374 23.054 14.0089 23.2067 13.6461C23.3595 13.2833 23.4382 12.8936 23.4382 12.5C23.4382 12.1064 23.3595 11.7167 23.2067 11.3539C23.054 10.9911 22.8302 10.6626 22.5486 10.3875L21.0736 8.94999L21.0986 6.88749C21.103 6.49402 21.0288 6.10364 20.8802 5.73928C20.7316 5.37492 20.5117 5.04393 20.2333 4.76576C19.955 4.48759 19.6239 4.26784 19.2595 4.11944C18.895 3.97103 18.5046 3.89695 18.1111 3.90156L16.0518 3.92656Z" fill="#333333"/>
</g>
<defs>
<clipPath id="clip0_1033_735">
<rect width="25" height="25" fill="white"/>
</clipPath>
</defs>
</svg>
