<svg width="27" height="22" viewBox="0 0 27 22" fill="none" xmlns="http://www.w3.org/2000/svg">
<path d="M21 21L25.7804 16.2196C25.921 16.079 26 15.8883 26 15.6894V9.125C26 8.08946 25.1605 7.25 24.125 7.25C23.0895 7.25 22.25 8.08946 22.25 9.125V14.75" stroke="#333333" stroke-width="1.5" stroke-linecap="round" stroke-linejoin="round"/>
<path d="M21 16L22.0726 14.9274C22.1863 14.8137 22.25 14.6597 22.25 14.4992C22.25 14.2699 22.1204 14.0602 21.9153 13.9576L21.3616 13.6809C20.3993 13.1996 19.2367 13.3882 18.4759 14.1491L17.3573 15.2677C16.8884 15.7366 16.625 16.3725 16.625 17.0355V21" stroke="#333333" stroke-width="1.5" stroke-linecap="round" stroke-linejoin="round"/>
<path d="M6 21L1.21968 16.2196C1.07901 16.079 1 15.8883 1 15.6894V9.125C1 8.08946 1.83946 7.25 2.875 7.25C3.91054 7.25 4.75 8.08946 4.75 9.125V14.75" stroke="#333333" stroke-width="1.5" stroke-linecap="round" stroke-linejoin="round"/>
<path d="M6 16L4.92734 14.9274C4.81379 14.8137 4.75 14.6597 4.75 14.4992C4.75 14.2699 4.87957 14.0602 5.0847 13.9576L5.63834 13.6809C6.6008 13.1996 7.76324 13.3882 8.52414 14.1491L9.64276 15.2677C10.1116 15.7366 10.375 16.3725 10.375 17.0355V21" stroke="#333333" stroke-width="1.5" stroke-linecap="round" stroke-linejoin="round"/>
<path d="M15.5834 11H11.4166V8.08334H8.5V3.91666H11.4166V1H15.5834V3.91666H18.5V8.08334H15.5834V11Z" stroke="#333333" stroke-width="1.5" stroke-linecap="round" stroke-linejoin="round"/>
</svg>
