<svg width="25" height="25" viewBox="0 0 25 25" fill="none" xmlns="http://www.w3.org/2000/svg">
<path d="M20.8122 13.4754C20.4003 13.4754 20.0666 13.8092 20.0666 14.221V21.7871H4.93405V14.221C4.93405 13.8092 4.60032 13.4754 4.18846 13.4754C3.7766 13.4754 3.44287 13.8092 3.44287 14.221V22.5327C3.44287 22.9445 3.7766 23.2783 4.18846 23.2783H20.8122C21.2241 23.2783 21.5578 22.9445 21.5578 22.5327V14.221C21.5578 13.8092 21.224 13.4754 20.8122 13.4754Z" fill="#333333"/>
<path d="M24.7816 13.6938L13.0264 1.94003C12.7353 1.64885 12.2632 1.64895 11.972 1.94003L0.218383 13.6938C-0.0727943 13.985 -0.0727943 14.4571 0.218383 14.7482C0.364021 14.8937 0.554892 14.9666 0.745664 14.9666C0.936534 14.9666 1.12731 14.8938 1.27294 14.7482L12.4994 3.52157L23.7273 14.7482C24.0184 15.0393 24.4905 15.0392 24.7818 14.7481C25.0727 14.457 25.0727 13.9849 24.7816 13.6938Z" fill="#333333"/>
</svg>
