<svg width="25" height="25" viewBox="0 0 25 25" fill="none" xmlns="http://www.w3.org/2000/svg">
<g clip-path="url(#clip0_1033_773)">
<path d="M9.48293 12.069H12.9312V10.3448H14.6553V6.89655H12.9312V5.17241H9.48293V6.89655H7.75879V10.3448H9.48293V12.069ZM8.62086 9.48275V7.75862H10.345V6.03448H12.0691V7.75862H13.7933V9.48275H12.0691V11.2069H10.345V9.48275H8.62086Z" fill="#333333" stroke="#333333" stroke-width="0.5"/>
<path d="M9.05164 15.5172C8.81371 15.5172 8.62061 15.7099 8.62061 15.9483C8.62061 16.1866 8.81371 16.3793 9.05164 16.3793H13.362C13.5999 16.3793 13.793 16.1866 13.793 15.9483C13.793 15.7099 13.5999 15.5172 13.362 15.5172H9.05164Z" fill="#333333" stroke="#333333" stroke-width="0.5"/>
<path d="M15.0861 17.2414H7.32752C7.08959 17.2414 6.89648 17.4341 6.89648 17.6724C6.89648 17.9108 7.08959 18.1034 7.32752 18.1034H15.0861C15.3241 18.1034 15.5172 17.9108 15.5172 17.6724C15.5172 17.4341 15.3241 17.2414 15.0861 17.2414Z" fill="#333333" stroke="#333333" stroke-width="0.5"/>
<path d="M15.0861 18.9655H7.32752C7.08959 18.9655 6.89648 19.1582 6.89648 19.3965C6.89648 19.6349 7.08959 19.8276 7.32752 19.8276H15.0861C15.3241 19.8276 15.5172 19.6349 15.5172 19.3965C15.5172 19.1582 15.3241 18.9655 15.0861 18.9655Z" fill="#333333" stroke="#333333" stroke-width="0.5"/>
<path d="M20.6896 0H19.8276H1.72412V25H20.6896V22.4138H23.2758V18.1034V17.2414V13.7931V12.931V9.48276V8.62069V5.17241V4.31034V0H20.6896ZM19.8276 24.1379H2.58619V0.862069H19.8276V4.31034V5.17241V8.62069V9.48276V12.931V13.7931V17.2414V18.1034V22.4138V24.1379ZM22.4138 21.5517H20.6896V18.1034H22.4138V21.5517ZM22.4138 17.2414H20.6896V13.7931H22.4138V17.2414ZM22.4138 12.931H20.6896V9.48276H22.4138V12.931ZM22.4138 8.62069H20.6896V5.17241H22.4138V8.62069ZM20.6896 4.31034V0.862069H22.4138V4.31034H20.6896Z" fill="#333333" stroke="#333333" stroke-width="0.5"/>
</g>
<defs>
<clipPath id="clip0_1033_773">
<rect width="25" height="25" fill="white"/>
</clipPath>
</defs>
</svg>
