<svg width="25" height="18" viewBox="0 0 25 18" fill="none" xmlns="http://www.w3.org/2000/svg">
<path d="M21.5587 0C23.3889 0 24.8854 1.42871 24.9937 3.23168L25 3.44131V14.0845C25 15.9147 23.5713 17.4112 21.7683 17.5195L21.5587 17.5258H3.44131C1.61112 17.5258 0.114622 16.0971 0.00628065 14.2941L0 14.0845V3.44131C0 1.61112 1.42871 0.114622 3.23168 0.00628035L3.44131 0H21.5587ZM23.1219 7.47578H1.87583L1.87708 14.0845C1.87708 14.8944 2.49261 15.5605 3.28138 15.6406L3.44131 15.6487H21.5587C22.3686 15.6487 23.0347 15.0332 23.1148 14.2444L23.1229 14.0845L23.1219 7.47578ZM20.3248 11.8623C20.8432 11.8623 21.2634 12.2825 21.2634 12.8008C21.2634 13.2759 20.9103 13.6686 20.4522 13.7308L20.3248 13.7393H17.1964C16.678 13.7393 16.2578 13.3191 16.2578 12.8008C16.2578 12.3257 16.6109 11.933 17.069 11.8708L17.1964 11.8623H20.3248ZM21.5587 1.87708H3.44131C2.63141 1.87708 1.96526 2.49261 1.88516 3.28138L1.87708 3.44131L1.87583 5.5987H23.1219L23.1229 3.44131C23.1229 2.63141 22.5074 1.96526 21.7186 1.88516L21.5587 1.87708Z" fill="#333333"/>
</svg>
