<svg width="27" height="27" viewBox="0 0 27 27" fill="none" xmlns="http://www.w3.org/2000/svg">
<path d="M13.4999 4.74176C10.5838 4.74176 8.21143 7.11417 8.21143 10.0303C8.21143 11.4456 8.76956 13.0515 9.70443 14.3263C10.7618 15.7681 12.1098 16.5622 13.4999 16.5622C14.8901 16.5622 16.238 15.7681 17.2955 14.3263C18.2304 13.0515 18.7885 11.4456 18.7885 10.0303C18.7885 7.11417 16.416 4.74176 13.4999 4.74176ZM13.4999 15.4346C12.493 15.4346 11.441 14.7876 10.6137 13.6594C9.82741 12.5874 9.33896 11.1967 9.33896 10.0303C9.33896 7.73589 11.2056 5.86929 13.4999 5.86929C15.7943 5.86929 17.6609 7.73589 17.6609 10.0303C17.661 12.4125 15.7018 15.4346 13.4999 15.4346Z" fill="#333333" stroke="#333333" stroke-width="0.3"/>
<path d="M13.5 1C6.60753 1 1 6.60746 1 13.5C1 20.3925 6.60746 26 13.5 26C20.3925 26 26 20.3925 26 13.5C26 6.60746 20.3925 1 13.5 1ZM13.5 24.8725C11.2375 24.8724 9.12735 24.208 7.35396 23.0645C7.4156 21.3379 8.1972 19.7193 9.52063 18.5954C10.0465 18.1488 10.8144 18.1 11.4316 18.474C12.0982 18.878 12.7942 19.0828 13.5002 19.0828C14.2061 19.0828 14.9019 18.878 15.5682 18.4743C16.1847 18.1007 16.9506 18.1477 17.474 18.5912C18.7984 19.7135 19.5844 21.3368 19.646 23.0646C17.8726 24.2081 15.7624 24.8725 13.5 24.8725ZM20.7088 22.2892C20.4653 20.524 19.5804 18.8983 18.2029 17.731C17.3091 16.9737 16.0155 16.8849 14.9838 17.51C14.0086 18.1009 12.9914 18.1009 12.0159 17.5097C10.9831 16.8838 9.68713 16.9748 8.79074 17.736C7.41439 18.9048 6.53304 20.5259 6.29024 22.2885C3.75036 20.201 2.12753 17.0365 2.12753 13.5001C2.12753 7.22918 7.22925 2.12753 13.5 2.12753C19.7708 2.12753 24.8725 7.22918 24.8725 13.5C24.8725 17.0369 23.2493 20.2018 20.7088 22.2892Z" fill="#333333" stroke="#333333" stroke-width="0.3"/>
</svg>
