<svg width="27" height="27" viewBox="0 0 27 27" fill="none" xmlns="http://www.w3.org/2000/svg">
<path d="M24.713 10.7222H22.3741C21.9981 10.7222 21.6884 10.5153 21.5444 10.1681C21.4005 9.82083 21.4736 9.45509 21.7389 9.18935L23.3926 7.53611C23.6356 7.29306 23.7694 6.96944 23.7694 6.62593C23.7694 6.28194 23.6356 5.9588 23.3926 5.71528L21.2847 3.60741C20.7986 3.1213 19.9509 3.12037 19.4639 3.60741L17.8106 5.26065C17.5449 5.52593 17.1782 5.6 16.8319 5.45556C16.4847 5.31157 16.2778 5.00185 16.2778 4.62593V2.28704C16.2778 1.57731 15.7005 1 14.9907 1H12.0093C11.2995 1 10.7222 1.57731 10.7222 2.28704V4.62593C10.7222 5.00185 10.5153 5.31157 10.1681 5.45556C9.82176 5.60046 9.45509 5.52593 9.18935 5.26065L7.53611 3.60741C7.04907 3.12037 6.20139 3.1213 5.71528 3.60741L3.60741 5.71528C3.36435 5.95833 3.23056 6.28194 3.23056 6.62593C3.23056 6.96944 3.36435 7.29259 3.60741 7.53611L5.26111 9.18935C5.52639 9.45509 5.59907 9.82083 5.45556 10.1681C5.31204 10.5153 5.00185 10.7222 4.62593 10.7222H2.28704C1.57731 10.7222 1 11.2995 1 12.0093V14.9903C1 15.7005 1.57731 16.2778 2.28704 16.2778H4.62593C5.00185 16.2778 5.31157 16.4847 5.45556 16.8319C5.59954 17.1792 5.52639 17.5449 5.26111 17.8106L3.60741 19.4639C3.36435 19.7069 3.23056 20.0306 3.23056 20.3741C3.23056 20.7181 3.36435 21.0412 3.60741 21.2847L5.71528 23.3926C6.20185 23.8792 7.04907 23.8801 7.53611 23.3926L9.18935 21.7389C9.45509 21.4736 9.82037 21.4005 10.1681 21.5444C10.5153 21.6884 10.7222 21.9981 10.7222 22.3741V24.713C10.7222 25.4227 11.2995 26 12.0093 26H14.9903C15.7 26 16.2773 25.4227 16.2773 24.713V22.3741C16.2773 21.9981 16.4843 21.6884 16.8315 21.5444C17.1792 21.4 17.5444 21.4736 17.8102 21.7389L19.4634 23.3926C19.9505 23.8796 20.7981 23.8787 21.2843 23.3926L23.3921 21.2847C23.6352 21.0417 23.769 20.7181 23.769 20.3741C23.769 20.0306 23.6352 19.7074 23.3921 19.4639L21.7384 17.8106C21.4731 17.5449 21.4005 17.1792 21.544 16.8319C21.6875 16.4847 21.9981 16.2778 22.3741 16.2778H24.713C25.4227 16.2778 26 15.7005 26 14.9907V12.0093C26 11.2995 25.4227 10.7222 24.713 10.7222ZM25.0741 14.9907C25.0741 15.1898 24.912 15.3519 24.713 15.3519H22.3741C21.6222 15.3519 20.9764 15.7833 20.6889 16.4778C20.4009 17.1722 20.5523 17.9343 21.0843 18.4657L22.738 20.119C22.8792 20.2602 22.8792 20.4894 22.738 20.6301L20.6301 22.738C20.4894 22.8787 20.2602 22.8796 20.119 22.738L18.4657 21.0843C17.9338 20.5523 17.1722 20.4019 16.4778 20.6889C15.7833 20.9764 15.3519 21.6222 15.3519 22.3741V24.713C15.3519 24.912 15.1898 25.0741 14.9907 25.0741H12.0093C11.8102 25.0741 11.6481 24.912 11.6481 24.713V22.3741C11.6481 21.6222 11.2167 20.9764 10.5222 20.6889C10.2894 20.5921 10.0495 20.5449 9.8125 20.5449C9.34306 20.5449 8.88796 20.7301 8.53426 21.0838L6.88102 22.7375C6.73935 22.8792 6.51019 22.8782 6.36991 22.7375L4.26204 20.6296C4.12083 20.4884 4.12083 20.2593 4.26204 20.1185L5.91574 18.4653C6.44722 17.9338 6.59907 17.1718 6.31111 16.4773C6.02361 15.7833 5.37778 15.3519 4.62593 15.3519H2.28704C2.08796 15.3519 1.92593 15.1898 1.92593 14.9907V12.0093C1.92593 11.8102 2.08796 11.6481 2.28704 11.6481H4.62593C5.37778 11.6481 6.02361 11.2167 6.31111 10.5222C6.59907 9.82778 6.44769 9.06574 5.91574 8.53426L4.26204 6.88102C4.12083 6.73981 4.12083 6.51065 4.26204 6.36991L6.36991 4.26204C6.51065 4.12083 6.73981 4.12083 6.88102 4.26204L8.53426 5.91528C9.06528 6.4463 9.82685 6.59861 10.5222 6.31065C11.2167 6.02361 11.6481 5.37778 11.6481 4.62593V2.28704C11.6481 2.08796 11.8102 1.92593 12.0093 1.92593H14.9903C15.1898 1.92593 15.3519 2.08796 15.3519 2.28704V4.62593C15.3519 5.37778 15.7833 6.02361 16.4778 6.31111C17.1731 6.59907 17.9343 6.44722 18.4657 5.91574L20.119 4.2625C20.2606 4.1213 20.4898 4.1213 20.6301 4.2625L22.738 6.37037C22.8792 6.51157 22.8792 6.74074 22.738 6.88148L21.0843 8.53472C20.5528 9.0662 20.4009 9.82824 20.6889 10.5227C20.9764 11.2171 21.6222 11.6486 22.3741 11.6486H24.713C24.912 11.6481 25.0741 11.8102 25.0741 12.0093V14.9907Z" fill="#333333" stroke="#333333" stroke-width="0.5"/>
<path d="M13.5002 9.33334C11.2025 9.33334 9.3335 11.2023 9.3335 13.5C9.3335 15.7977 11.2025 17.6667 13.5002 17.6667C15.7978 17.6667 17.6668 15.7977 17.6668 13.5C17.6668 11.2023 15.7978 9.33334 13.5002 9.33334ZM13.5002 16.7407C11.7136 16.7407 10.2594 15.2866 10.2594 13.5C10.2594 11.7134 11.7136 10.2593 13.5002 10.2593C15.2867 10.2593 16.7409 11.7134 16.7409 13.5C16.7409 15.2866 15.2867 16.7407 13.5002 16.7407Z" fill="#333333" stroke="#333333" stroke-width="0.5"/>
</svg>
