<svg width="25" height="25" viewBox="0 0 25 25" fill="none" xmlns="http://www.w3.org/2000/svg">
<g clip-path="url(#clip0_1033_759)">
<path d="M24.9657 9.58552C24.8836 9.33409 24.6681 9.1545 24.4064 9.11345L16.6071 8.00513L13.0974 0.949824C12.9794 0.713792 12.7382 0.564989 12.4765 0.564989C12.2149 0.564989 11.9737 0.713792 11.8557 0.954955L8.39217 8.03079L0.592848 9.19042C0.33116 9.23147 0.115652 9.41106 0.0335543 9.66249C-0.0485438 9.91391 0.023292 10.191 0.213144 10.3706L5.87278 15.8558L4.56434 23.6243C4.51816 23.886 4.62592 24.1477 4.84142 24.3016C4.95944 24.3888 5.10311 24.435 5.24678 24.435C5.35967 24.435 5.46742 24.4094 5.57005 24.3529L12.533 20.6636L19.5165 24.3119C19.6191 24.3632 19.7268 24.3888 19.8346 24.3888C20.2143 24.3888 20.5273 24.0758 20.5273 23.6961C20.5273 23.6397 20.5222 23.5884 20.5068 23.5371L19.1573 15.8147L24.781 10.2987C24.9811 10.114 25.0478 9.83694 24.9657 9.58552ZM17.9361 15.081C17.7719 15.24 17.7 15.4709 17.7411 15.6967L18.9161 22.4339L12.8511 19.268C12.651 19.1602 12.4098 19.1653 12.2046 19.268L6.16013 22.4698L7.29411 15.7224C7.33002 15.4966 7.25819 15.2708 7.09399 15.1117L2.18863 10.3501L8.95659 9.34435C9.18236 9.30844 9.37735 9.1699 9.47484 8.96465L12.4817 2.82269L15.5296 8.94926C15.6322 9.1545 15.8272 9.29304 16.0529 9.32896L22.826 10.2936L17.9361 15.081Z" fill="#333333" stroke="#333333" stroke-width="0.2"/>
</g>
<defs>
<clipPath id="clip0_1033_759">
<rect width="25" height="25" fill="white"/>
</clipPath>
</defs>
</svg>
