<svg width="208" height="249" viewBox="0 0 208 249" fill="none" xmlns="http://www.w3.org/2000/svg">
<g clip-path="url(#clip0_93_2610)">
<path d="M170.255 84.7214L156.273 92.2232L134.596 51.8229C127.462 38.5266 111.023 33.516 97.8043 40.6086C84.5854 47.7013 79.6707 64.1693 86.8049 77.4656L90.7836 84.8809L76.5478 92.5192L72.5691 85.1039C61.3191 64.1366 69.1591 37.8662 90.2585 26.5452C111.104 15.3606 137.328 23.3538 148.578 44.321L170.255 84.7214Z" fill="url(#paint0_linear_93_2610)"/>
<path d="M159.885 62.9528L82.0962 104.69C76.7578 107.555 74.8856 113.828 77.6295 118.942L106.578 172.895C109.322 178.009 115.584 179.917 120.923 177.053L198.711 135.315C203.795 132.588 205.922 126.178 203.178 121.064L174.229 67.1113C171.231 62.1337 164.969 60.2249 159.885 62.9528ZM143.62 117.454L150.479 130.239C151.577 132.285 150.875 134.637 148.841 135.728C146.807 136.82 144.459 136.104 143.361 134.058L136.502 121.273C133.274 121.359 129.731 119.637 128.084 116.569C125.615 111.966 127.253 106.477 131.829 104.022C136.405 101.567 141.884 103.237 144.354 107.839C145.883 111.3 145.476 114.812 143.62 117.454Z" fill="url(#paint1_linear_93_2610)"/>
</g>
<path d="M111.014 222.636C116.466 208.275 135.764 182.818 169.343 195.887" stroke="#263077" stroke-width="1.5"/>
<path d="M83.3901 214.506C87.7383 199.772 87.774 167.828 53.1317 157.918" stroke="#263077" stroke-width="1.5"/>
<rect x="77.8525" y="231.575" width="18.9071" height="18.9071" transform="rotate(-27.5973 77.8525 231.575)" fill="#DEF1FF"/>
<rect x="35.5898" y="119.923" width="18.9071" height="18.9071" transform="rotate(-27.5973 35.5898 119.923)" fill="#263077" fill-opacity="0.7"/>
<rect y="184.43" width="13.3462" height="13.3462" transform="rotate(-27.5973 0 184.43)" fill="#173F7D"/>
<defs>
<linearGradient id="paint0_linear_93_2610" x1="73.3289" y1="86.216" x2="149.118" y2="45.5513" gradientUnits="userSpaceOnUse">
<stop stop-color="#0678B0"/>
<stop offset="0.432292" stop-color="#0094DE"/>
<stop offset="1" stop-color="#0094DE"/>
</linearGradient>
<linearGradient id="paint1_linear_93_2610" x1="92.1174" y1="145.944" x2="188.493" y2="94.2334" gradientUnits="userSpaceOnUse">
<stop stop-color="#0678B0"/>
<stop offset="1" stop-color="#0094DE"/>
</linearGradient>
<clipPath id="clip0_93_2610">
<rect width="109.338" height="147.411" fill="white" transform="translate(41.9585 52.4608) rotate(-28.2159)"/>
</clipPath>
</defs>
</svg>
